<?xml version="1.0" encoding="utf-8"?>
<!-- Generator: Adobe Illustrator 21.0.2, SVG Export Plug-In . SVG Version: 6.00 Build 0)  -->
<svg version="1.1" id="Слой_1" xmlns="http://www.w3.org/2000/svg" xmlns:xlink="http://www.w3.org/1999/xlink" x="0px" y="0px"
	 viewBox="0 0 50 60" style="enable-background:new 0 0 50 60;" xml:space="preserve">
<g>
	<g>
		<g>
			<path d="M33.3,19.4c-0.4,0-0.7,0.3-0.7,0.7v19.7c0,0.4,0.3,0.7,0.7,0.7s0.7-0.3,0.7-0.7V20.1C34,19.7,33.7,19.4,33.3,19.4z"/>
		</g>
	</g>
	<g>
		<g>
			<path d="M49.8,39.4l-2.1-2.5l1.3-3c0.1-0.3,0.1-0.6-0.1-0.8l-2.1-2.5l1.3-3c0.1-0.3,0.1-0.6-0.1-0.8l-2.1-2.5l1.3-3
				c0.1-0.3,0.1-0.6-0.1-0.8L45,18l1.3-3c0.1-0.3,0.1-0.6-0.1-0.8L44,11.9l1.3-3c0.1-0.3,0.1-0.6-0.1-0.8l-2.4-2.8
				C42.6,5.1,42.4,5,42.2,5h-8.9c-0.4,0-0.7,0.3-0.7,0.7v11.9c0,0.4,0.3,0.7,0.7,0.7S34,18,34,17.6V6.5h7.8l1.9,2.2l-1.3,3
				c-0.1,0.3-0.1,0.6,0.1,0.8l2.1,2.5l-1.3,3c-0.1,0.3-0.1,0.6,0.1,0.8l2.1,2.5l-1.3,3c-0.1,0.3-0.1,0.6,0.1,0.8l2.1,2.5l-1.3,3
				c-0.1,0.3-0.1,0.6,0.1,0.8l2.1,2.5l-1.3,3c-0.1,0.3-0.1,0.6,0.1,0.8l2.4,2.8c0.1,0.2,0.4,0.3,0.6,0.3c0.2,0,0.3-0.1,0.5-0.2
				C50.1,40.2,50.1,39.7,49.8,39.4z"/>
		</g>
	</g>
	<g>
		<g>
			<path d="M49.2,41H31.8c-0.4,0-0.7,0.3-0.7,0.7V50c0,3,2.4,5.4,5.4,5.4h8.2c3,0,5.4-2.4,5.4-5.4v-8.3C50,41.4,49.6,41,49.2,41z
				 M48.5,50.1c0,2.1-1.7,3.9-3.9,3.9h-8.2c-2.1,0-3.9-1.7-3.9-3.9v-7.6h15.9v7.6H48.5z"/>
		</g>
	</g>
	<g>
		<g>
			<path d="M45.9,45.8H35.1c-0.4,0-0.7,0.3-0.7,0.7V50c0,1.1,0.9,2.1,2.1,2.1h8.2c1.1,0,2.1-0.9,2.1-2.1v-3.5
				C46.7,46.2,46.3,45.8,45.9,45.8z M45.2,50.1c0,0.3-0.3,0.6-0.6,0.6h-8.2c-0.3,0-0.6-0.3-0.6-0.6v-2.8h9.3L45.2,50.1L45.2,50.1z"
				/>
		</g>
	</g>
	<g>
		<g>
			<path d="M4.8,5.2H1.9C0.9,5.2,0,6,0,7.1v7.3c0,1.1,0.9,1.9,1.9,1.9h2.8c1.1,0,1.9-0.9,1.9-1.9V7.1C6.7,6,5.8,5.2,4.8,5.2z
				 M4.8,14.8H1.9c-0.2,0-0.4-0.2-0.4-0.4V7.1c0-0.2,0.2-0.4,0.4-0.4h2.8c0.2,0,0.4,0.2,0.4,0.4v7.3l0,0C5.2,14.6,5,14.8,4.8,14.8z"
				/>
		</g>
	</g>
	<g>
		<g>
			<path d="M21.7,5.2H11.5c-2.2,0-4,1.8-4,4v3.1c0,2.2,1.8,4,4,4h9.7c0.4,0,0.7-0.3,0.7-0.7V12c2.1,0.3,3.9,1.8,4.4,3.9
				c0.1,0.3,0.4,0.6,0.7,0.6h2.4c0.4,0,0.7-0.3,0.7-0.7v-1.9C30.2,9,26.4,5.2,21.7,5.2z M28.7,14.9h-1.1c-0.9-2.7-3.5-4.5-6.4-4.5
				h-0.1c-0.4,0-0.7,0.3-0.7,0.7v3.7h-8.9c-1.4,0-2.5-1.1-2.5-2.5V9.2c0-1.4,1.1-2.5,2.5-2.5h10.1c3.9,0,7.1,3.2,7.1,7.1V14.9z"/>
		</g>
	</g>
	<g>
		<g>
			<path d="M18.5,44.4c0.4,0,0.7-0.3,0.7-0.7V17.5c0-0.4-0.3-0.7-0.7-0.7c-0.4,0-0.7,0.3-0.7,0.7v18.2h-4.6V17.5
				c0-0.4-0.3-0.7-0.7-0.7s-0.7,0.3-0.7,0.7v37.2c0,0.4,0.3,0.7,0.7,0.7h6.1c0.4,0,0.7-0.3,0.7-0.7v-8.6c0-0.4-0.3-0.7-0.7-0.7
				s-0.7,0.3-0.7,0.7V54h-4.6V37.3h4.6v6.4C17.8,44,18.1,44.4,18.5,44.4z"/>
		</g>
	</g>
</g>
</svg>
