<?xml version="1.0" encoding="utf-8"?>
<!-- Generator: Adobe Illustrator 21.0.2, SVG Export Plug-In . SVG Version: 6.00 Build 0)  -->
<svg version="1.1" id="Слой_1" xmlns="http://www.w3.org/2000/svg" xmlns:xlink="http://www.w3.org/1999/xlink" x="0px" y="0px"
	 viewBox="0 0 50 60" style="enable-background:new 0 0 50 60;" xml:space="preserve">
<g>
	<g>
		<g>
			<g>
				<path d="M13.7,12.9L13.7,12.9L13.7,12.9z"/>
				<path d="M0,12.9c0,3.8,3.1,6.8,6.8,6.8h4.8v27.6c0,3.8,3.1,6.8,6.8,6.8h24.7c3.5,0,6.4-2.6,6.8-6.1c0.4-3.7-2.3-7.1-6-7.5V12.9
					c0-3.8-3.1-6.8-6.8-6.8H6.8C3.1,6.1,0,9.1,0,12.9z M23.3,42.5h19.8c2.7,0,4.8,2.2,4.8,4.8c0,2.7-2.2,4.8-4.8,4.8H23.3
					C26,49.5,26,45.2,23.3,42.5z M11.7,8.1h25.4c2.6,0,4.8,2.2,4.8,4.8v27.6H18.5c-0.6,0-1,0.5-1,1s0.5,1,1,1c2.7,0,4.8,2.2,4.8,4.8
					s-2.2,4.8-4.8,4.8s-4.8-2.2-4.8-4.8V12.9C13.7,11.1,13,9.4,11.7,8.1z M7.8,16h3.8v1.7H7.8V16z M2,12.9c0-2.7,2.1-4.8,4.8-4.8
					s4.8,2.1,4.8,4.8V14H6.8c-0.6,0-1,0.5-1,1v2.6l0,0C3.6,17.1,2.1,15.2,2,12.9z"/>
			</g>
		</g>
	</g>
	<g>
		<g>
			<path d="M19.5,17.1c0,0.6,0.5,1,1,1h14.8c0.6,0,1-0.5,1-1c0-0.6-0.5-1-1-1H20.6C20,16.1,19.5,16.5,19.5,17.1z"/>
		</g>
	</g>
	<g>
		<g>
			<path d="M19.5,24.3c0,0.6,0.5,1,1,1h14.8c0.6,0,1-0.5,1-1c0-0.6-0.5-1-1-1H20.6C20,23.3,19.5,23.7,19.5,24.3z"/>
		</g>
	</g>
	<g>
		<g>
			<path d="M19.5,31.5c0,0.6,0.5,1,1,1h14.8c0.6,0,1-0.5,1-1s-0.5-1-1-1H20.6C20,30.5,19.5,30.9,19.5,31.5z"/>
		</g>
	</g>
</g>
</svg>
