<svg id="Слой_1" data-name="Слой 1" xmlns="http://www.w3.org/2000/svg" viewBox="0 0 180 56">
  <defs>
    <style>
      .cls-1 {
        fill: #fff;
      }

      .cls-2 {
        fill: #8c0303;
      }
    </style>
  </defs>
  <title>logo_dark</title>
  <g>
    <g>
      <path class="cls-1" d="M.24,29.19H1.32a5.81,5.81,0,0,0,.54,2.18,4.75,4.75,0,0,0,1.2,1.56,5.07,5.07,0,0,0,1.73,1,6.75,6.75,0,0,0,2.11.32A5.4,5.4,0,0,0,8.47,34a3.92,3.92,0,0,0,1.3-.67,3.2,3.2,0,0,0,.89-1.1A3.33,3.33,0,0,0,11,30.7a3.28,3.28,0,0,0-.46-1.76,4.8,4.8,0,0,0-1.21-1.31,10.07,10.07,0,0,0-1.72-1l-2-.92q-1-.46-2-1A8.63,8.63,0,0,1,2,23.53,5.35,5.35,0,0,1,.75,22,4.71,4.71,0,0,1,.3,19.81a5.24,5.24,0,0,1,.11-1,4.9,4.9,0,0,1,.37-1.1,5.08,5.08,0,0,1,.68-1.07,4.19,4.19,0,0,1,1.06-.91A5.65,5.65,0,0,1,4,15.08a7.82,7.82,0,0,1,2-.23,10.68,10.68,0,0,1,1.18.07,9,9,0,0,1,1.27.24,8.12,8.12,0,0,1,1.28.45,6.54,6.54,0,0,1,1.22.72l-.11-1.23H12.3v6.17h-1a7.64,7.64,0,0,0-.4-2,5.13,5.13,0,0,0-.95-1.68A4.69,4.69,0,0,0,8.4,16.44,4.91,4.91,0,0,0,6.24,16a4,4,0,0,0-1.51.27A3.19,3.19,0,0,0,3.64,17,3,3,0,0,0,3,18a3.48,3.48,0,0,0-.23,1.25,3,3,0,0,0,.45,1.66,4.74,4.74,0,0,0,1.2,1.25,10.42,10.42,0,0,0,1.7,1L8,24.09q1,.46,2,1a8.91,8.91,0,0,1,1.74,1.22A5.53,5.53,0,0,1,13,27.9a4.72,4.72,0,0,1,.47,2.16A5.07,5.07,0,0,1,13,32.19a4.67,4.67,0,0,1-1.29,1.67A6.14,6.14,0,0,1,9.61,35a9.32,9.32,0,0,1-2.83.39,10.28,10.28,0,0,1-1.3-.09A10.54,10.54,0,0,1,4.16,35a8.79,8.79,0,0,1-1.26-.44,7.35,7.35,0,0,1-1.13-.62l.09,1.18H.41Z"/>
      <path class="cls-1" d="M21.51,25.11a11.46,11.46,0,0,1,.26-2.4,11,11,0,0,1,.79-2.36,10.39,10.39,0,0,1,1.34-2.14,9.09,9.09,0,0,1,1.89-1.75,9,9,0,0,1,2.45-1.18,10,10,0,0,1,3-.43,10.4,10.4,0,0,1,3.11.44,9.58,9.58,0,0,1,2.51,1.18,8.72,8.72,0,0,1,1.92,1.75,10.67,10.67,0,0,1,1.35,2.15A10.9,10.9,0,0,1,41,27.48a11.51,11.51,0,0,1-.79,2.35A10.31,10.31,0,0,1,38.84,32a8.9,8.9,0,0,1-1.89,1.75,9.21,9.21,0,0,1-2.45,1.19,9.8,9.8,0,0,1-3,.44,11.27,11.27,0,0,1-3.21-.42,9.47,9.47,0,0,1-2.54-1.15,8.33,8.33,0,0,1-1.91-1.72,9.78,9.78,0,0,1-1.31-2.12,10.89,10.89,0,0,1-.76-2.37A12.52,12.52,0,0,1,21.51,25.11Zm2.75-.51a12.65,12.65,0,0,0,.19,2.15A12.47,12.47,0,0,0,25,28.93a11.07,11.07,0,0,0,1,2,7.39,7.39,0,0,0,1.41,1.68,6.53,6.53,0,0,0,1.83,1.14,5.88,5.88,0,0,0,2.28.42,6,6,0,0,0,3.83-1.3,6.73,6.73,0,0,0,1.34-1.43,9,9,0,0,0,1-1.78,10.47,10.47,0,0,0,.58-2,11.24,11.24,0,0,0,.2-2,12.9,12.9,0,0,0-.22-2.24,12,12,0,0,0-.64-2.3,11,11,0,0,0-1-2,7.65,7.65,0,0,0-1.42-1.62,6.4,6.4,0,0,0-1.8-1.09,5.75,5.75,0,0,0-2.15-.4,5.84,5.84,0,0,0-3,.76,6.85,6.85,0,0,0-2.16,2,9,9,0,0,0-1.29,2.76A11.4,11.4,0,0,0,24.26,24.61Z"/>
      <path class="cls-1" d="M49.5,34.9V34a2.33,2.33,0,0,0,1.19-.29,1.39,1.39,0,0,0,.56-.71,3.26,3.26,0,0,0,.17-1.07q0-.62,0-1.36V18.44q0-.57,0-1.09t.08-.94l-2,.12V15.3h6.3v.93a2.3,2.3,0,0,0-1.19.29,1.43,1.43,0,0,0-.56.72,3.22,3.22,0,0,0-.17,1.07q0,.62,0,1.37v12c0,.51,0,.94,0,1.3a8.1,8.1,0,0,1-.08.89L59,33.78a4.37,4.37,0,0,0,1.55-.28,2.68,2.68,0,0,0,1.13-.83,3.82,3.82,0,0,0,.68-1.44,8.45,8.45,0,0,0,.23-2.13h.94l-.16,5.8Z"/>
      <path class="cls-1" d="M71.43,34.9V34a2.46,2.46,0,0,0,1.06-.21,1.34,1.34,0,0,0,.58-.54,2.08,2.08,0,0,0,.24-.81c0-.31,0-.66,0-1V18.42q0-.58,0-1.1t.08-.95l-2,.16V15.3H84.89L85,20.2h-.92a5.94,5.94,0,0,0-.28-2A3,3,0,0,0,83.07,17a2.56,2.56,0,0,0-1.14-.6,6,6,0,0,0-1.42-.16l-2.58,0a3.27,3.27,0,0,0-1.21.25,1.33,1.33,0,0,0-.64.61,2.58,2.58,0,0,0-.24,1q0,.62,0,1.48v4.54h5.25l-.21-2.42h1.24v5.89h-.92A4.77,4.77,0,0,0,81,26.35a1.55,1.55,0,0,0-.45-.75,1.57,1.57,0,0,0-.78-.35,6.79,6.79,0,0,0-1.14-.08h-.4l-2.46.1v6.41q0,.78,0,1.31a8,8,0,0,1-.08.88l5.36-.08a6.31,6.31,0,0,0,1.65-.22A3,3,0,0,0,84,32.84a3.27,3.27,0,0,0,.81-1.33,6.4,6.4,0,0,0,.29-2.07h1l-.16,5.46Z"/>
      <path class="cls-1" d="M94.64,34.9V34a1.94,1.94,0,0,0,1-.22,1.53,1.53,0,0,0,.55-.55,1.91,1.91,0,0,0,.23-.71,5.51,5.51,0,0,0,0-.71l0-15.35-1.87.12V15.3H98l11.92,16h0l0-12.81q0-1.18.08-2l-2,.12V15.3h5.15v.93a2.26,2.26,0,0,0-1.18.29,1.44,1.44,0,0,0-.55.72,3.08,3.08,0,0,0-.15,1v1.42l-.05,15.68H109.9L97.74,19h0l.1,12c0,.48,0,1,0,1.42s0,.91,0,1.36l2-.12V34.9Z"/>
      <path class="cls-1" d="M121.67,34.9V34a2.46,2.46,0,0,0,1.06-.21,1.35,1.35,0,0,0,.58-.54,2.07,2.07,0,0,0,.24-.81,10.06,10.06,0,0,0,0-1V18.42c0-.39,0-.75,0-1.1s0-.66.08-.95l-2,.16V15.3h13.47l.14,4.91h-.92a5.91,5.91,0,0,0-.28-2,3,3,0,0,0-.77-1.22,2.55,2.55,0,0,0-1.14-.6,6,6,0,0,0-1.42-.16l-2.58,0a3.27,3.27,0,0,0-1.21.25,1.33,1.33,0,0,0-.63.61,2.6,2.6,0,0,0-.24,1q0,.62,0,1.48v4.54h5.25l-.21-2.42h1.24v5.89h-.92a4.76,4.76,0,0,0-.14-1.31,1.55,1.55,0,0,0-.45-.75,1.57,1.57,0,0,0-.78-.35,6.78,6.78,0,0,0-1.14-.08h-.4l-2.46.1v6.41q0,.78,0,1.31a8.33,8.33,0,0,1-.07.88l5.36-.08a6.32,6.32,0,0,0,1.65-.22,3,3,0,0,0,1.26-.71,3.26,3.26,0,0,0,.81-1.33,6.4,6.4,0,0,0,.29-2.07h1l-.16,5.46Z"/>
      <path class="cls-1" d="M144.91,29.19H146a5.81,5.81,0,0,0,.54,2.18,4.77,4.77,0,0,0,1.2,1.56,5.07,5.07,0,0,0,1.73,1,6.75,6.75,0,0,0,2.11.32,5.39,5.39,0,0,0,1.58-.22,3.93,3.93,0,0,0,1.3-.67,3.22,3.22,0,0,0,.89-1.1,3.34,3.34,0,0,0,.33-1.5,3.26,3.26,0,0,0-.46-1.76A4.76,4.76,0,0,0,154,27.63a10.07,10.07,0,0,0-1.72-1l-2-.92q-1-.46-2-1a8.61,8.61,0,0,1-1.71-1.19A5.36,5.36,0,0,1,145.42,22a4.7,4.7,0,0,1-.46-2.15,5.34,5.34,0,0,1,.11-1,5,5,0,0,1,.37-1.1,5,5,0,0,1,.68-1.07,4.18,4.18,0,0,1,1.06-.91,5.65,5.65,0,0,1,1.51-.63,7.84,7.84,0,0,1,2-.23,10.69,10.69,0,0,1,1.18.07,9,9,0,0,1,1.27.24,8.14,8.14,0,0,1,1.28.45,6.55,6.55,0,0,1,1.22.72l-.11-1.23H157v6.17h-1a7.6,7.6,0,0,0-.4-2,5.12,5.12,0,0,0-.95-1.68,4.7,4.7,0,0,0-1.54-1.18A4.92,4.92,0,0,0,150.9,16a4,4,0,0,0-1.51.27,3.18,3.18,0,0,0-1.09.72,3,3,0,0,0-.67,1,3.46,3.46,0,0,0-.23,1.25,3,3,0,0,0,.46,1.66,4.72,4.72,0,0,0,1.2,1.25,10.48,10.48,0,0,0,1.7,1l1.94.91q1,.46,2,1a8.91,8.91,0,0,1,1.74,1.22,5.48,5.48,0,0,1,1.23,1.61,4.71,4.71,0,0,1,.47,2.16,5.05,5.05,0,0,1-.45,2.13,4.68,4.68,0,0,1-1.29,1.67A6.15,6.15,0,0,1,154.27,35a9.33,9.33,0,0,1-2.83.39,10.31,10.31,0,0,1-1.3-.09,10.56,10.56,0,0,1-1.32-.26,8.82,8.82,0,0,1-1.27-.44,7.39,7.39,0,0,1-1.13-.62l.09,1.18h-1.45Z"/>
      <path class="cls-1" d="M166.52,29.19h1.08a5.85,5.85,0,0,0,.54,2.18,4.75,4.75,0,0,0,1.2,1.56,5.06,5.06,0,0,0,1.72,1,6.76,6.76,0,0,0,2.11.32,5.38,5.38,0,0,0,1.57-.22,3.91,3.91,0,0,0,1.3-.67,3.2,3.2,0,0,0,.89-1.1,3.31,3.31,0,0,0,.33-1.5,3.28,3.28,0,0,0-.46-1.76,4.82,4.82,0,0,0-1.21-1.31,10.07,10.07,0,0,0-1.72-1l-2-.92q-1-.46-2-1a8.65,8.65,0,0,1-1.71-1.19A5.36,5.36,0,0,1,167,22a4.72,4.72,0,0,1-.46-2.15,5.2,5.2,0,0,1,.11-1,5,5,0,0,1,.37-1.1,5.1,5.1,0,0,1,.68-1.07,4.18,4.18,0,0,1,1.06-.91,5.66,5.66,0,0,1,1.51-.63,7.82,7.82,0,0,1,2-.23,10.66,10.66,0,0,1,1.18.07,9,9,0,0,1,1.27.24,8.1,8.1,0,0,1,1.29.45,6.53,6.53,0,0,1,1.22.72l-.11-1.23h1.42v6.17h-1a7.6,7.6,0,0,0-.39-2,5.15,5.15,0,0,0-.95-1.68,4.7,4.7,0,0,0-1.54-1.18,4.9,4.9,0,0,0-2.16-.44,4,4,0,0,0-1.51.27,3.17,3.17,0,0,0-1.1.72,3.05,3.05,0,0,0-.67,1,3.5,3.5,0,0,0-.23,1.25,3,3,0,0,0,.46,1.66,4.72,4.72,0,0,0,1.2,1.25,10.48,10.48,0,0,0,1.7,1l1.94.91q1,.46,2,1A8.91,8.91,0,0,1,178,26.29a5.52,5.52,0,0,1,1.23,1.61,4.71,4.71,0,0,1,.46,2.16,5.08,5.08,0,0,1-.44,2.13A4.67,4.67,0,0,1,178,33.86,6.15,6.15,0,0,1,175.88,35a9.31,9.31,0,0,1-2.83.39,10.26,10.26,0,0,1-1.3-.09,10.52,10.52,0,0,1-1.32-.26,8.8,8.8,0,0,1-1.26-.44,7.41,7.41,0,0,1-1.13-.62l.09,1.18h-1.45Z"/>
    </g>
    <g>
      <path class="cls-1" d="M77.61,56v-.37a.74.74,0,0,0,.4-.1.82.82,0,0,0,.26-.28,2.62,2.62,0,0,0,.2-.43l.2-.56L80.93,48h.26l2.45,6.26c0,.08.07.17.1.27l.1.33a2.72,2.72,0,0,1,.07.33,1.48,1.48,0,0,1,0,.28l.75,0V56H82.17v-.37a.79.79,0,0,0,.45-.11.45.45,0,0,0,.18-.26.74.74,0,0,0,0-.33,2.17,2.17,0,0,0-.1-.33l-.39-1-2.86.06q-.12.32-.21.6l-.18.55L79,55l-.06.19-.06.17-.07.17.86,0V56Zm2-2.85h2.55L81.39,51l-.49-1.35h0l-.46,1.25L80,52.15Z"/>
      <path class="cls-1" d="M86.82,56v-.37a.91.91,0,0,0,.47-.11.55.55,0,0,0,.22-.28,1.27,1.27,0,0,0,.07-.42c0-.16,0-.34,0-.53V49.49c0-.15,0-.29,0-.43s0-.26,0-.37l-.79,0v-.48l1.25,0h1.27a6.39,6.39,0,0,1,1.36.15,2.75,2.75,0,0,1,.93.39,1.54,1.54,0,0,1,.53.61,1.88,1.88,0,0,1,.17.81,2.63,2.63,0,0,1-.09.66,1.74,1.74,0,0,1-.32.64,2.18,2.18,0,0,1-.63.54,3.33,3.33,0,0,1-1,.37,1.69,1.69,0,0,1,.39.4c.12.16.24.35.38.56l.75,1.18.27.41a1.85,1.85,0,0,0,.28.33,1.24,1.24,0,0,0,.34.22,1.16,1.16,0,0,0,.45.08V56H91.74a3.64,3.64,0,0,1-.29-.28l-.24-.29L91,55.08l-.23-.34L90,53.56l-.16-.25L89.69,53l-.19-.27a2.12,2.12,0,0,0-.21-.24h-.37l-.37,0v2.13c0,.2,0,.37,0,.51a3,3,0,0,1,0,.35l.79,0V56Zm1.72-3.87.33,0h.35A3.66,3.66,0,0,0,90,52a1.78,1.78,0,0,0,.64-.31,1.41,1.41,0,0,0,.42-.54,2,2,0,0,0,.15-.81,1.58,1.58,0,0,0-.48-1.25,2.2,2.2,0,0,0-1.49-.42.93.93,0,0,0-.47.09.51.51,0,0,0-.22.27,1.22,1.22,0,0,0-.07.41c0,.16,0,.34,0,.54Z"/>
      <path class="cls-1" d="M95,50.58l.06-2.33h6.41l.06,2.33h-.41a5.57,5.57,0,0,0-.08-.85,1.56,1.56,0,0,0-.22-.6,1,1,0,0,0-.43-.36,1.78,1.78,0,0,0-.7-.12h-.93l0,6a8.35,8.35,0,0,1,0,.87l.91,0V56H97.06v-.37a.84.84,0,0,0,.46-.12.58.58,0,0,0,.22-.29,1.28,1.28,0,0,0,.06-.42v-.52l0-5.56H96.68a1.36,1.36,0,0,0-.59.11,1,1,0,0,0-.39.35,1.67,1.67,0,0,0-.22.59,4.6,4.6,0,0,0-.07.84Z"/>
    </g>
    <rect class="cls-2" width="180" height="1"/>
    <rect class="cls-2" x="23" y="52" width="41" height="1"/>
    <rect class="cls-2" x="114" y="52" width="41" height="1"/>
  </g>
</svg>
