<?xml version="1.0" encoding="utf-8"?>
<!-- Generator: Adobe Illustrator 21.0.2, SVG Export Plug-In . SVG Version: 6.00 Build 0)  -->
<svg version="1.1" id="Слой_1" xmlns="http://www.w3.org/2000/svg" xmlns:xlink="http://www.w3.org/1999/xlink" x="0px" y="0px"
	 viewBox="0 0 50 60" style="enable-background:new 0 0 50 60;" xml:space="preserve">
<g>
	<path d="M50,22.5c0,8.6-41.7,18.2-44.9,18.2c-1.8,0-3.8-0.4-3.8-2c0-0.5,0.6-1.3,1.7-2.3l0,0l-2.9-5.2c-0.4-0.7-0.1-1.6,0.7-1.9
		l0.5-0.2c0.9-0.4,1.9-0.3,2.8,0.1L9.4,32c2.1-1.2,4.4-2.5,6.9-3.8L6,21.6c-0.8-0.5-0.8-1.7,0-2.3l0.8-0.5c1.4-0.9,3.1-1.1,4.7-0.7
		l17.2,4.5C34.2,20.5,39,19,41.9,19c0.8,0,1.5,0,2.3,0.1L39,21.5l-0.1,1.7l8-3.7C48.8,20,50,20.8,50,22.5z M29,37.5l6.4,7.3
		c0.4,0.4,1,0.6,1.6,0.3l0.9-0.4c1.6-0.7,2.5-2.4,2.3-4.1l-0.8-6.9c0-0.4-0.5-0.7-0.9-0.6l-9.2,3.2C28.9,36.6,28.7,37.1,29,37.5z"/>
</g>
</svg>
