<?xml version="1.0" encoding="utf-8"?>
<!-- Generator: Adobe Illustrator 21.0.2, SVG Export Plug-In . SVG Version: 6.00 Build 0)  -->
<svg version="1.1" id="Слой_1" xmlns="http://www.w3.org/2000/svg" xmlns:xlink="http://www.w3.org/1999/xlink" x="0px" y="0px"
	 viewBox="0 0 23 23" style="enable-background:new 0 0 23 23;" xml:space="preserve">
<path d="M23,21.2l-6.8-6.8C17.3,12.9,18,11,18,9c0-5-4-9-9-9S0,4,0,9s4,9,9,9c2,0,3.9-0.7,5.4-1.8l6.8,6.8L23,21.2z M0.9,9
	c0-4.5,3.7-8.1,8.1-8.1s8.1,3.7,8.1,8.1s-3.7,8.1-8.1,8.1S0.9,13.5,0.9,9z M15.3,15.5c0.1-0.1,0.2-0.1,0.2-0.2
	c0.1-0.1,0.1-0.1,0.2-0.2l6.1,6.1l-0.6,0.6l-6.1-6.1C15.1,15.6,15.2,15.5,15.3,15.5z"/>
</svg>
