<?xml version="1.0" encoding="utf-8"?>
<!-- Generator: Adobe Illustrator 21.0.2, SVG Export Plug-In . SVG Version: 6.00 Build 0)  -->
<svg version="1.1" id="Слой_1" xmlns="http://www.w3.org/2000/svg" xmlns:xlink="http://www.w3.org/1999/xlink" x="0px" y="0px"
	 viewBox="0 0 50 60" style="enable-background:new 0 0 50 60;" xml:space="preserve">
<g>
	<g>
		<g>
			<path d="M49.4,35.7h-16c-0.1,1.6-0.5,3.2-1.3,4.6l10.6,10.6C46.4,46.8,48.8,41.4,49.4,35.7z"/>
		</g>
	</g>
	<g>
		<g>
			<path d="M17.9,23.6l0.8,4.9c3.9-0.4,7.5,2.5,7.9,6.4c0.2,1.6-0.2,3.1-1.2,4.4c-0.6,0.8-1.7,0.9-2.5,0.4c-0.8-0.6-0.9-1.7-0.4-2.5
				c0.4-0.5,0.6-1.2,0.5-1.9c-0.2-2-2.1-3.5-4.1-3.3c-2.8,0.3-4.8,2.8-4.5,5.6c0.4,3.7,3.8,6.4,7.5,6c2.4-0.3,4.5-1.4,5.9-3.3
				c1.5-1.9,2.2-4.2,1.9-6.5C29.1,27.4,23.5,23.3,17.9,23.6z"/>
		</g>
	</g>
	<g>
		<g>
			<path d="M42.8,13.4L30.2,25.9c1.4,1.8,2.4,3.9,2.8,6.2h16.5C49.3,25.8,47.1,19.1,42.8,13.4z"/>
		</g>
	</g>
	<g>
		<g>
			<path d="M14,0.1l3.3,20.1c3.8-0.3,7.5,0.8,10.5,3.2l0,0l12.7-12.7C33.3,2.9,23.6-0.5,14,0.1z"/>
		</g>
	</g>
	<g>
		<g>
			<path d="M1.4,32.8c-0.6,1.8-0.9,3.6-0.9,5.5c0,4,1.3,8.4,3.8,12.1l8.1-8.1C11.7,41,11.1,39.6,11,38c-0.1-0.9,0-1.9,0.2-2.8
				L1.4,32.8z"/>
		</g>
	</g>
	<g>
		<g>
			<path d="M30,43.2c-1.4,1.5-3.1,2.6-5,3.3v13.4c0.1,0,0.2,0,0.2,0c5.8-0.6,10.9-2.9,14.9-6.4L30,43.2z"/>
		</g>
	</g>
	<g>
		<g>
			<path d="M13.8,20.7c-3.7,1-6.9,3.1-9.3,6.2c-0.7,0.8-1.3,1.7-1.8,2.6l9.9,2.5c0.7-1,1.4-1.7,2.7-2.4
				C14.2,23.3,14.5,25.1,13.8,20.7z"/>
		</g>
	</g>
	<g>
		<g>
			<path d="M14.8,44.9l-8.2,8.2c3.8,4,9.1,6.5,14.9,6.8V47.1C19,47.2,16.6,46.4,14.8,44.9z"/>
		</g>
	</g>
</g>
</svg>
