<?xml version="1.0" encoding="utf-8"?>
<!-- Generator: Adobe Illustrator 21.0.2, SVG Export Plug-In . SVG Version: 6.00 Build 0)  -->
<svg version="1.1" id="Слой_1" xmlns="http://www.w3.org/2000/svg" xmlns:xlink="http://www.w3.org/1999/xlink" x="0px" y="0px"
	 viewBox="0 0 36 37" style="enable-background:new 0 0 36 37;" xml:space="preserve">
<style type="text/css">
	.st0{fill:#FFFFFF;stroke:#FFFFFF;stroke-width:2;stroke-miterlimit:10;}
	.st1{fill:#FFFFFF;}
</style>
<path class="st0" d="M32.4,23.1c0.7-1.7,1-3.6,1-5.4c0-4.1-1.6-8-4.5-10.9C26,3.8,22.1,2.2,18,2.2c-1.9,0-3.7,0.3-5.4,1
	C11.3,1.8,9.6,1,7.7,1C4,1,1,4,1,7.7c0,2,0.9,3.8,2.4,5.1c-0.5,1.6-0.8,3.2-0.8,4.8c0,4.1,1.6,8,4.5,10.9C10,31.4,13.9,33,18,33
	c1.7,0,3.3-0.3,4.9-0.8c1.2,1.7,3.3,2.8,5.4,2.8c3.7,0,6.7-3,6.7-6.7C35,26.2,34,24.3,32.4,23.1z M28.3,33.6c-1.8,0-3.6-1-4.5-2.6
	c-0.1-0.2-0.4-0.4-0.6-0.4c-0.1,0-0.2,0-0.3,0c-1.6,0.6-3.3,0.9-4.9,0.9c-3.7,0-7.2-1.5-9.9-4.1C5.5,24.8,4,21.3,4,17.6
	c0-1.6,0.3-3.3,0.9-4.8c0.1-0.3,0-0.7-0.3-0.8c-1.4-1-2.2-2.6-2.2-4.3c0-2.9,2.3-5.2,5.2-5.2c1.6,0,3.1,0.7,4.1,2
	c0.2,0.3,0.5,0.4,0.9,0.2C14.3,4,16.1,3.6,18,3.6c3.7,0,7.2,1.5,9.9,4.1c2.6,2.6,4.1,6.1,4.1,9.9c0,1.9-0.4,3.7-1.1,5.4
	c-0.1,0.3,0,0.7,0.3,0.9c1.5,1,2.4,2.6,2.4,4.4C33.6,31.2,31.2,33.6,28.3,33.6z"/>
<path class="st1" d="M19.1,15.3c-5-1-5.3-2.5-4.1-3.6c1.2-1.1,4.8-1.5,5.8,0.3c1,1.8,1.7,2.5,3,2.2c1.3-0.3,1.5-2.1,0.9-3.2
	c-0.4-0.9-2.4-3.1-6.3-3.1c-3.9,0-8,1.4-8,5s3.7,5.1,7.3,5.7c3.6,0.5,4.4,2,3.9,3.2c-0.5,1.1-2,2.2-4.3,1.9
	c-2.3-0.2-3.4-2.2-3.7-3.2c-0.3-0.9-1.4-1.1-1.9-1c-0.5,0-2.1,0.7-1.4,3c0.7,2.3,3.2,4.1,8,4.1s7.6-3,7.6-5.8
	C25.9,18.1,24.1,16.3,19.1,15.3z"/>
</svg>
