<?xml version="1.0" encoding="utf-8"?>
<!-- Generator: Adobe Illustrator 21.0.2, SVG Export Plug-In . SVG Version: 6.00 Build 0)  -->
<svg version="1.1" xmlns="http://www.w3.org/2000/svg" xmlns:xlink="http://www.w3.org/1999/xlink" x="0px" y="0px"
	 viewBox="0 0 34 34" style="enable-background:new 0 0 34 34;" xml:space="preserve">
<style type="text/css">
	.st0{display:none;}
	.st1{display:inline;}
	.st2{fill:#010002;}
</style>
<g id="Слой_4">
	<g id="XMLID_822_">
		<path id="XMLID_823_" d="M27.1,10.6c-0.8-0.9-2.3-1.3-5.1-1.3H11.9c-2.9,0-4.4,0.4-5.1,1.4C6,11.7,6,13.1,6,15.1v3.8
			c0,3.9,0.9,5.8,5.9,5.8h10.2c2.4,0,3.8-0.3,4.6-1.2c0.9-0.9,1.3-2.2,1.3-4.7v-3.8C28,13,27.9,11.5,27.1,10.6z M20.1,17.5l-4.6,2.4
			C15.4,20,15.3,20,15.2,20c-0.1,0-0.3,0-0.4-0.1c-0.2-0.1-0.3-0.4-0.3-0.6v-4.8c0-0.2,0.1-0.5,0.3-0.6c0.2-0.1,0.5-0.1,0.7,0
			l4.6,2.4c0.2,0.1,0.4,0.4,0.4,0.6C20.5,17.2,20.4,17.4,20.1,17.5z"/>
	</g>
</g>
</svg>
