<?xml version="1.0" standalone="no"?>
<!DOCTYPE svg PUBLIC "-//W3C//DTD SVG 1.1//EN" "http://www.w3.org/Graphics/SVG/1.1/DTD/svg11.dtd" >
<svg>
<metadata>
Created by FontForge 20090914 at Sat Jun 30 13:39:25 2018
 By www-data
Copyright (c) 2013 by Cyreal (www.cyreal.org, a@cyreal.org). All rights reserved.
</metadata>
<defs>
<font id="Lora-Regular" horiz-adv-x="1274" >
  <font-face 
    font-family="Lora"
    font-weight="400"
    font-stretch="normal"
    units-per-em="2048"
    panose-1="2 0 5 3 0 0 0 2 0 4"
    ascent="1638"
    descent="-410"
    x-height="1024"
    cap-height="1434"
    bbox="-180 -556 2112 1977"
    underline-thickness="102"
    underline-position="-103"
    unicode-range="U+000D-U+25FC"
  />
<missing-glyph horiz-adv-x="748" 
d="M68 0v1365h544v-1365h-544zM136 68h408v1229h-408v-1229z" />
    <glyph glyph-name=".notdef" horiz-adv-x="748" 
d="M68 0v1365h544v-1365h-544zM136 68h408v1229h-408v-1229z" />
    <glyph glyph-name="glyph1" horiz-adv-x="2048" 
 />
    <glyph glyph-name="glyph1" horiz-adv-x="2048" 
 />
    <glyph glyph-name="uni000D" unicode="&#xd;" horiz-adv-x="0" 
 />
    <glyph glyph-name="space" unicode=" " horiz-adv-x="539" 
 />
    <glyph glyph-name="exclam" unicode="!" horiz-adv-x="545" 
d="M151 98c0 18.667 3.33008 36.167 9.99707 52.5s15.5 30.5 26.5 42.5s23.833 21.5 38.5 28.5s30 10.5 46 10.5c16.667 0 32.334 -3.5 47.001 -10.5s27.334 -16.5 38.001 -28.5s19 -26.167 25 -42.5s9 -33.833 9 -52.5c0 -18 -3.33301 -35 -10 -51s-15.667 -30 -27 -42
s-24.166 -21.333 -38.499 -28s-29.5 -10 -45.5 -10s-31.167 3.33301 -45.5 10s-27 16 -38 28s-19.667 26 -26 42s-9.5 33 -9.5 51zM152.997 1316c-1.33301 18 0.166016 36 4.49902 54s11.5 34.167 21.5 48.5s22.667 26 38 35s33.666 13.5 54.999 13.5
c22 0 40.667 -4.5 56 -13.5s27.833 -20.667 37.5 -35s16.334 -30.5 20.001 -48.5s4.83398 -36 3.50098 -54l-80 -845h-76z" />
    <glyph glyph-name="quotedbl" unicode="&#x22;" horiz-adv-x="709" 
d="M126 1467h160l-17 -461h-126zM400 1467h160l-17 -461h-126z" />
    <glyph glyph-name="numbersign" unicode="#" horiz-adv-x="1700" 
d="M68 365l33 122h335l112 474h-345l33 122h341l91 384h135l-88 -384h435l91 384h135l-88 -384h343v-2l-31 -120h-340l-107 -474h342l-32 -122h-337l-90 -398h-148l93 398h-429l-90 -398h-147l93 398h-340zM579 487h430l112 474h-434z" />
    <glyph glyph-name="dollar" unicode="$" horiz-adv-x="1083" 
d="M102 1110c0 21.333 2.99609 44.8369 8.99609 70.5039s15.333 51.5 28 77.5s29.167 51.333 49.5 76s44.833 46.667 73.5 66s61.834 35 99.501 47s80.167 18.667 127.5 20v239h111l-2 -240c38.667 -4 77 -12.333 115 -25s75.333 -33 112 -61l-8 87h102v-448h-75
c-3.33301 49.333 -10.833 96.333 -22.5 141s-30 83.834 -55 117.501s-57.667 60.5 -98 80.5s-90.5 30 -150.5 30c-43.333 0 -80.666 -7 -111.999 -21s-57.166 -32.167 -77.499 -54.5s-35.5 -48 -45.5 -77s-15 -58.5 -15 -88.5c0 -44.667 10.667 -84 32 -118
s49.333 -64.833 84 -92.5s74.167 -53.5 118.5 -77.5l135.5 -72.5c46 -24.333 91.167 -50 135.5 -77s83.833 -57.667 118.5 -92s62.667 -73.5 84 -117.5s32 -94.667 32 -152c0 -48 -8.16699 -93.833 -24.5 -137.5s-41.166 -82.834 -74.499 -117.501s-75 -63.167 -125 -85.5
s-108.333 -35.833 -175 -40.5l-1 -280h-106l-2 280c-24 0.666992 -48.667 3.5 -74 8.5s-50.333 11.5 -75 19.5s-48.5 17.167 -71.5 27.5s-43.833 21.5 -62.5 33.5l10 -83h-110v433h71c4 -63.333 15.5 -117.5 34.5 -162.5s44.667 -82 77 -111s70.833 -50.333 115.5 -64
s94 -20.5 148 -20.5c40 0 76.667 6.33301 110 19s62 30.167 86 52.5s42.667 49.166 56 80.499s20 65.666 20 102.999c0 47.333 -10.5 88.666 -31.5 123.999s-48.667 67.166 -83 95.499s-73.5 54.333 -117.5 78l-134.5 71.5c-45.667 24 -90.5 49.333 -134.5 76
s-83.167 57 -117.5 91s-62 73 -83 117s-31.5 95.333 -31.5 154z" />
    <glyph glyph-name="percent" unicode="%" horiz-adv-x="1782" 
d="M74 1070c0 48 8.00098 95.3359 24.001 142.003s39.833 88.834 71.5 126.501s70.5 68.167 116.5 91.5s99 35.666 159 36.999c63.333 1.33301 118.666 -8.83398 165.999 -30.501s86.5 -50.334 117.5 -86.001s54.167 -76.5 69.5 -122.5s23 -92.333 23 -139
c0 -52.667 -9.83301 -103.334 -29.5 -152.001s-46.5 -91.5 -80.5 -128.5s-73.833 -66.5 -119.5 -88.5s-94.5 -33 -146.5 -33c-61.333 0 -115 10.667 -161 32s-84.667 49.833 -116 85.5s-54.833 76.5 -70.5 122.5s-23.5 93.667 -23.5 143zM250.001 1103
c0 -32.667 2.83301 -68.499 8.5 -107.499s16 -75.5 31 -109.5s35.5 -62.333 61.5 -85s59.333 -34 100 -34c37.333 0 68.333 9.16699 93 27.5s44.5 41.5 59.5 69.5s25.667 59 32 93s9.5 67 9.5 99c0 34 -3.16699 70.833 -9.5 110.5s-17 76.334 -32 110.001
s-35.333 61.667 -61 84s-57.5 33.5 -95.5 33.5c-38.667 0 -70.667 -10.333 -96 -31s-45.5 -45.834 -60.5 -75.501s-25.5 -61.334 -31.5 -95.001s-9 -63.5 -9 -89.5zM251.001 37.0039l1156 1430l93 -82l-1162 -1420zM961.001 346.004c0 52.667 10 103.168 30 151.501
s47.167 91 81.5 128s74.5 66.5 120.5 88.5s95 33 147 33c60.667 0 114.167 -10.667 160.5 -32s85 -49.833 116 -85.5s54.333 -76.5 70 -122.5s23.5 -93.667 23.5 -143c0 -47.333 -8 -94.5 -24 -141.5s-39.667 -89.333 -71 -127s-70 -68.334 -116 -92.001
s-99 -35.834 -159 -36.501c-63.333 -1.33301 -118.833 8.83398 -166.5 30.501s-87.167 50.5 -118.5 86.5s-54.833 76.833 -70.5 122.5s-23.5 92.167 -23.5 139.5zM1139 379.005c0 -34.667 3.33398 -71.667 10.001 -111s18 -75.833 34 -109.5s37 -61.667 63 -84
s58 -33.5 96 -33.5c38.667 0 70.334 10.167 95.001 30.5s44.167 45.5 58.5 75.5s24.333 61.667 30 95s8.5 63 8.5 89c0 22 -1.16699 45.5 -3.5 70.5s-6.5 50 -12.5 75s-14 49 -24 72s-22.333 43.333 -37 61s-32.334 31.667 -53.001 42s-44.334 15.5 -71.001 15.5
c-37.333 0 -68.333 -9 -93 -27s-44.5 -41 -59.5 -69s-25.667 -59 -32 -93s-9.5 -67 -9.5 -99z" />
    <glyph glyph-name="ampersand" unicode="&#x26;" horiz-adv-x="1423" 
d="M74 369c0 44 7.50293 85.4971 22.5029 124.497s36.5 75.5 64.5 109.5s61.833 65.167 101.5 93.5s84.167 53.166 133.5 74.499c-27.333 34 -51 66.5 -71 97.5s-36.333 61.667 -49 92s-21.834 60.666 -27.501 90.999s-8.5 61.5 -8.5 93.5
c0.666992 48.667 10.5 92.834 29.5 132.501s45.167 73.5 78.5 101.5s73.166 49.667 119.499 65s96.833 23 151.5 23c52 0 99 -7.33301 141 -22s77.833 -35 107.5 -61s52.667 -56.5 69 -91.5s24.5 -72.5 24.5 -112.5c0 -38 -6 -74.667 -18 -110s-31.333 -69.833 -58 -103.5
s-61.334 -66.667 -104.001 -99s-95 -64.166 -157 -95.499l81 -85l84 -87l42.5 -44.5l46.5 -46l55.5 -53.5l70.5 -66c6.66699 24 11.5 47 14.5 69s4.5 42.333 4.5 61c0 23.333 -2.33301 46.833 -7 70.5s-12.834 45.334 -24.501 65.001s-27.5 35.834 -47.5 48.501
s-45 19.667 -75 21v68h358v-84l-170 7c21.333 -18.667 37 -42 47 -70s15.667 -61 17 -99c1.33301 -27.333 -1 -60.666 -7 -99.999s-17.667 -81 -35 -125l48.5 -44l54.5 -49c62 -55.333 115.167 -96 159.5 -122s77.166 -39 98.499 -39v-68h-190
c-13.333 -0 -41.5 12.833 -84.5 38.5s-99.833 69.167 -170.5 130.5c-22 -28 -47.167 -54.333 -75.5 -79s-60.666 -46 -96.999 -64s-76.666 -32.333 -120.999 -43s-93.5 -16 -147.5 -16c-59.333 0 -117.833 7.33301 -175.5 22s-109 38 -154 70s-81.333 73.5 -109 124.5
s-41.5 112.833 -41.5 185.5zM279.003 399.997c0 -56 8.66797 -104.497 26.001 -145.497s40 -74.833 68 -101.5s60 -46.834 96 -60.501s73 -21.167 111 -22.5c42.667 -2 81.667 0.833008 117 8.5s67.333 18.667 96 33s54.167 31.5 76.5 51.5s42.166 41.667 59.499 65
c-19.333 16.667 -38.666 35 -57.999 55l-244 238.5c-70 69 -129.667 131.833 -179 188.5c-32.667 -19.333 -59.834 -42.5 -81.501 -69.5s-39 -54.833 -52 -83.5s-22.167 -56.834 -27.5 -84.501s-8 -51.834 -8 -72.501zM412.004 1161c0 -29.333 4.16309 -58.5 12.4961 -87.5
s20 -57.667 35 -86s32.667 -56.5 53 -84.5s42.5 -55 66.5 -81c76.667 50 133.334 106 170.001 168s55 123 55 183c0 32.667 -4.33301 63 -13 91s-21.167 52 -37.5 72s-36.666 35.667 -60.999 47s-52.166 17 -83.499 17c-28 0 -54.167 -5.16699 -78.5 -15.5
s-45.166 -25.666 -62.499 -45.999s-31 -45.333 -41 -75s-15 -63.834 -15 -102.501z" />
    <glyph glyph-name="quotesingle" unicode="'" horiz-adv-x="426" 
d="M127 1467h172l-18 -461h-135z" />
    <glyph glyph-name="parenleft" unicode="(" horiz-adv-x="625" 
d="M73 489c0 76 6.83398 150.667 20.501 224s32 144.5 55 213.5s50 134.667 81 197s63.667 120.333 98 174s69.5 102.5 105.5 146.5s71 81.333 105 112l51 -47c-106 -141.333 -184 -298.166 -234 -470.499s-75 -355.5 -75 -549.5c0 -192.667 25.167 -372 75.5 -538
s128.166 -319 233.499 -459l-51 -47c-34 31.333 -69 68.166 -105 110.499s-71.167 89.5 -105.5 141.5s-67 108.333 -98 169s-58 124.5 -81 191.5s-41.333 136.667 -55 209s-20.5 146.5 -20.5 222.5z" />
    <glyph glyph-name="parenright" unicode=")" horiz-adv-x="625" 
d="M37 -508c106 141.333 183.999 298.166 233.999 470.499s75 355.5 75 549.5c0 192.667 -25.167 372 -75.5 538s-128.166 319 -233.499 459l51 47c34 -31.333 69 -68.166 105 -110.499s71.167 -89.5 105.5 -141.5s67 -108.333 98 -169s58 -124.5 81 -191.5
s41.333 -136.667 55 -209s20.5 -146.5 20.5 -222.5s-6.83301 -150.667 -20.5 -224s-32 -144.5 -55 -213.5s-50 -134.667 -81 -197s-63.667 -120.333 -98 -174s-69.5 -102.5 -105.5 -146.5s-71 -81.333 -105 -112z" />
    <glyph glyph-name="asterisk" unicode="*" horiz-adv-x="1065" 
d="M80 1117c0 8.66699 1.6709 17.6699 5.00391 27.0029c6 18 15.333 30.833 28 38.5s26.834 11.667 42.501 12s32 -1.83398 49 -6.50098s33.167 -10.667 48.5 -18l129.5 -61.5c44.333 -21.667 83.833 -44.167 118.5 -67.5c-12 40 -21.5 84.667 -28.5 134
s-13.167 97 -18.5 143c-2 16 -2.66699 32.833 -2 50.5s3.83398 33.834 9.50098 48.501s14 26.667 25 36s26.167 14 45.5 14c18.667 0 33.5 -4.66699 44.5 -14s19 -21.333 24 -36s7.66699 -30.834 8 -48.501s-0.5 -34.5 -2.5 -50.5c-5.33301 -46 -11.5 -93.667 -18.5 -143
s-16.5 -94 -28.5 -134c36 22.667 75.667 44.667 119 66l128 63c14.667 7.33301 30.667 13.333 48 18s34 6.66699 50 6s30.333 -4.83398 43 -12.501s21.667 -20.167 27 -37.5c3.33301 -10 5 -19.333 5 -28c0 -8 -1.83301 -16.333 -5.5 -25s-11.334 -17.834 -23.001 -27.501
s-25.834 -17.5 -42.501 -23.5s-33.334 -11 -50.001 -15l-69 -13c-24 -4.66699 -48 -8.83398 -72 -12.501s-47.833 -7 -71.5 -10s-45.834 -4.83301 -66.501 -5.5c33.333 -26.667 67.166 -57 101.499 -91l99.5 -102c12.667 -13.333 23.5 -27.333 32.5 -42s15.333 -28 19 -40
s5.5 -22.333 5.5 -31c0 -10 -2 -20 -6 -30s-12.333 -19.667 -25 -29c-14.667 -10.667 -29 -15.5 -43 -14.5s-27.167 5.66699 -39.5 14s-24 19.333 -35 33s-20.833 27.5 -29.5 41.5l-34 63l-35 66c-11.333 22 -22 43.833 -32 65.5s-18.667 42.167 -26 61.5
c-8 -19.333 -17 -39.833 -27 -61.5s-20.667 -43.5 -32 -65.5l-34.5 -66l-33.5 -63c-8 -14 -17.333 -27.833 -28 -41.5s-22.334 -24.667 -35.001 -33s-26.167 -13 -40.5 -14s-29.166 3.83301 -44.499 14.5c-12 10 -19.833 19.5 -23.5 28.5s-5.5 19.167 -5.5 30.5
c0 8 1.66699 18.167 5 30.5s9.66602 26.166 18.999 41.499s19.333 29 30 41l99 103c34 34.667 68 64.667 102 90c-21.333 0.666992 -43.833 2.5 -67.5 5.5s-47.667 6.33301 -72 10s-48.5 7.83398 -72.5 12.501l-69 13c-16 3.33301 -32.333 8 -49 14s-31 13.833 -43 23.5
s-20 19.334 -24 29.001s-6 18.167 -6 25.5z" />
    <glyph glyph-name="plus" unicode="+" horiz-adv-x="1055" 
d="M72 588v123l389 -2v403h132v-403l391 -2v-115l-391 -2v-422h-132v421z" />
    <glyph glyph-name="comma" unicode="," horiz-adv-x="518" 
d="M135 88c0 38 11 67.3379 33 88.0049s48.667 31 80 31c23.333 0 44 -4.83301 62 -14.5s33.167 -22.834 45.5 -39.501s21.666 -36.334 27.999 -59.001s9.5 -47 9.5 -73s-3.66699 -56.5 -11 -91.5s-17.666 -70.5 -30.999 -106.5s-29.333 -70.833 -48 -104.5
s-39.334 -61.834 -62.001 -84.501l-55 41c11.333 14 23.333 33 36 57s23.834 50.667 33.501 80s17.167 60.166 22.5 92.499s6 64.166 2 95.499c-19.333 -8.66699 -37.833 -12.334 -55.5 -11.001s-33.167 6.33301 -46.5 15s-23.833 20.334 -31.5 35.001s-11.5 31 -11.5 49z
" />
    <glyph glyph-name="hyphen" unicode="-" horiz-adv-x="1001" 
d="M137 584v143h727v-135z" />
    <glyph glyph-name="period" unicode="." horiz-adv-x="504" 
d="M131 98c0 18.667 3.33301 36.167 10 52.5s15.5 30.5 26.5 42.5s23.833 21.5 38.5 28.5s30 10.5 46 10.5c16.667 0 32.167 -3.5 46.5 -10.5s26.833 -16.5 37.5 -28.5s19 -26.167 25 -42.5s9 -33.833 9 -52.5c0 -18 -3.33301 -35 -10 -51s-15.5 -30 -26.5 -42
s-23.667 -21.333 -38 -28s-29.5 -10 -45.5 -10s-31.167 3.33301 -45.5 10s-27 16 -38 28s-19.667 26 -26 42s-9.5 33 -9.5 51z" />
    <glyph glyph-name="slash" unicode="/" horiz-adv-x="1413" 
d="M43 -481l1197 2037l132 -83l-1210 -2029z" />
    <glyph glyph-name="zero" unicode="0" horiz-adv-x="1272" 
d="M115 711c0 57.333 4.33691 115.835 13.0039 175.502s22 117.5 40 173.5s41.167 108.667 69.5 158s62.166 92.5 101.499 129.5s84.5 66.167 135.5 87.5s108.167 32 171.5 32c66 0 124.5 -10.5 175.5 -31.5s95.5 -49.667 133.5 -86s70 -78.833 96 -127.5
s47 -100.5 63 -155.5s27.5 -112.167 34.5 -171.5s10.5 -117.333 10.5 -174s-4 -114.667 -12 -174s-20.833 -116.833 -38.5 -172.5s-40.167 -108.334 -67.5 -158.001s-60.333 -93 -99 -130s-83.334 -66.167 -134.001 -87.5s-107.667 -32 -171 -32
c-69.333 0 -130.5 10.5 -183.5 31.5s-98.833 49.5 -137.5 85.5s-70.834 78.167 -96.501 126.5s-46.334 100.166 -62.001 155.499s-26.667 112.333 -33 171s-9.5 116.667 -9.5 174zM326.004 753.002c0 -47.333 1.83203 -97.6709 5.49902 -151.004
s10.167 -106.166 19.5 -158.499s21.833 -102.5 37.5 -150.5s35.5 -90.167 59.5 -126.5s52.5 -65.333 85.5 -87s71.5 -32.5 115.5 -32.5c38.667 0 73 8.66699 103 26s56.167 40.833 78.5 70.5s41 64.834 56 105.501s27 84.334 36 131.001s15.5 95.334 19.5 146.001
s6 101 6 151c0 55.333 -2 111.333 -6 168s-10.667 111.334 -20 164.001s-21.666 102.167 -36.999 148.5s-34.333 86.666 -57 120.999s-49.5 61.333 -80.5 81s-66.5 29.5 -106.5 29.5c-39.333 0 -74.5 -8.66699 -105.5 -26s-58.167 -41 -81.5 -71s-43 -65.5 -59 -106.5
s-29.167 -85 -39.5 -132s-17.833 -96.167 -22.5 -147.5s-7 -102.333 -7 -153z" />
    <glyph glyph-name="one" unicode="1" horiz-adv-x="745" 
d="M37 1169l400 298.001h69l2 -1244c0 -26.667 -0.166992 -52 -0.5 -76s-2.16602 -45.667 -5.49902 -65l172 8v-90h-522v68c35.333 1.33301 64.5 7.66602 87.5 18.999s41.167 27 54.5 47s22.666 44 27.999 72s8 59.667 8 95l-2 967h-4l-246 -159z" />
    <glyph glyph-name="two" unicode="2" horiz-adv-x="1100" 
d="M94 0c0 72 11.5029 135.998 34.5029 191.998s53.333 107.833 91 155.5s80.667 93.5 129 137.5l149.5 139c88.667 84.667 152.834 163.334 192.501 236.001s59.5 142.667 59.5 210c0 38 -3.83301 75.833 -11.5 113.5s-21.167 71.667 -40.5 102
s-45.166 54.833 -77.499 73.5s-73.166 28 -122.499 28c-28 0 -54.833 -3.83301 -80.5 -11.5s-49 -18 -70 -31s-39 -28.333 -54 -46s-26.167 -36.5 -33.5 -56.5c13.333 -14.667 22.833 -29.834 28.5 -45.501s8.5 -31.167 8.5 -46.5c0 -8.66699 -1.66699 -18.667 -5 -30
s-9 -21.833 -17 -31.5s-18.333 -17.834 -31 -24.501s-28.334 -9.66699 -47.001 -9c-30.667 1.33301 -54 12.833 -70 34.5s-24 47.834 -24 78.501c0 28.667 9 60.5 27 95.5s45 67.5 81 97.5s80.667 55.167 134 75.5s115.333 30.5 186 30.5c54 0 106.833 -6.33301 158.5 -19
s97.667 -33.5 138 -62.5s72.666 -67.333 96.999 -115s36.5 -106.167 36.5 -175.5c0 -34.667 -7.33301 -71.667 -22 -111s-38 -81.666 -70 -126.999s-73.5 -93.833 -124.5 -145.5s-112.833 -107.5 -185.5 -167.5c-46.667 -38 -89.334 -75.333 -128.001 -112
s-72.334 -71.5 -101.001 -104.5s-51.834 -64 -69.501 -93s-28.834 -55.5 -33.501 -79.5l363 -10c50 -1.33301 95.833 -2.16602 137.5 -2.49902s77.667 3.5 108 11.5s54 22.167 71 42.5s25.5 50.5 25.5 90.5h62l-13 -287h-887z" />
    <glyph glyph-name="three" unicode="3" horiz-adv-x="1141" 
d="M90 246c0 30.667 7.99902 56.8291 23.999 78.4961s39.333 33.167 70 34.5c18.667 0.666992 34.167 -2 46.5 -8s22.166 -13.667 29.499 -23s12.5 -19.666 15.5 -30.999s4.5 -21.666 4.5 -30.999c0 -14 -2.16699 -27.833 -6.5 -41.5s-9.5 -27.167 -15.5 -40.5
c6.66699 -23.333 18.167 -43.166 34.5 -59.499s35.833 -29.666 58.5 -39.999s47.334 -18 74.001 -23s54 -7.5 82 -7.5c48.667 0 92.834 6.66699 132.501 20s73.5 33.166 101.5 59.499s49.5 58.833 64.5 97.5s22.5 83.334 22.5 134.001
c0 44.667 -4.83301 88.334 -14.5 131.001s-28 80.334 -55 113.001s-64.167 58.667 -111.5 78s-108.333 28.333 -183 27c-22.667 0 -47.334 -1 -74.001 -3v92h84c54 0 99 9.83301 135 29.5s65 44.167 87 73.5s37.667 60.833 47 94.5s14 64.5 14 92.5
c0 42 -3.83301 81 -11.5 117s-20.834 67 -39.501 93s-43.5 46.5 -74.5 61.5s-69.833 22.5 -116.5 22.5c-30.667 0 -59.5 -4.5 -86.5 -13.5s-51 -20.667 -72 -35s-38.5 -30.333 -52.5 -48s-23.667 -34.834 -29 -51.501c12 -13.333 20.5 -27.166 25.5 -41.499
s7.5 -28.5 7.5 -42.5c0 -8 -1.66699 -17.333 -5 -28s-8.66602 -20.5 -15.999 -29.5s-17 -16.667 -29 -23s-26.667 -9.16602 -44 -8.49902c-29.333 1.33301 -51.5 12.166 -66.5 32.499s-22.5 44.833 -22.5 73.5c0 28 8.5 59.167 25.5 93.5s42.833 66.5 77.5 96.5
s78.167 55 130.5 75s113.833 30 184.5 30c54.667 0 106.834 -6.5 156.501 -19.5s93.5 -33.667 131.5 -62s68.333 -65 91 -110s34 -99.833 34 -164.5c0 -32.667 -5.66699 -65.167 -17 -97.5s-30 -63.5 -56 -93.5s-60.5 -57.833 -103.5 -83.5s-95.833 -48.167 -158.5 -67.5v-2
c64.667 -6.66699 122.834 -20.667 174.501 -42s95.5 -48.833 131.5 -82.5s63.667 -72.834 83 -117.501s29 -93.334 29 -146.001c0 -69.333 -14.333 -129.833 -43 -181.5s-66.834 -94.5 -114.501 -128.5s-102.667 -59.5 -165 -76.5s-126.833 -25.5 -193.5 -25.5
c-74 0 -138.167 8.83301 -192.5 26.5s-99.333 40.167 -135 67.5s-62.167 57.5 -79.5 90.5s-26 64.5 -26 94.5z" />
    <glyph glyph-name="four" unicode="4" horiz-adv-x="1110" 
d="M25 395v101l740 971h69v-949l207 -2v-121h-207v-172c0 -28 -0.333008 -54 -1 -78s-3 -46.333 -7 -67l158 6v-84h-516v68h16c34.667 2.66699 62.667 10.5 84 23.5s38 30.667 50 53s20 48.833 24 79.5s6 64.667 6 102v69h-623zM160 528l488 -6v653h-4z" />
    <glyph glyph-name="five" unicode="5" horiz-adv-x="1114" 
d="M106 246c0 30.667 7.99316 56.8281 23.9932 78.4951s39.333 33.167 70 34.5c18.667 0.666992 34.167 -2 46.5 -8s22.166 -13.667 29.499 -23s12.5 -19.666 15.5 -30.999s4.5 -21.666 4.5 -30.999c0 -13.333 -2 -27 -6 -41s-9.33301 -26.667 -16 -38
c4 -25.333 15 -47.166 33 -65.499s39.333 -33.166 64 -44.499s51 -19.5 79 -24.5s54 -6.83301 78 -5.5c50 2 92.833 13 128.5 33s65 46 88 78s39.833 68.333 50.5 109s16 82.667 16 126c0 25.333 -1.16699 53 -3.5 83s-7.16602 60 -14.499 90s-18.166 58.833 -32.499 86.5
s-33.166 52.334 -56.499 74.001s-52.166 38.834 -86.499 51.501s-75.5 19 -123.5 19c-17.333 0 -38 -1.66699 -62 -5s-48.5 -8 -73.5 -14s-49.5 -13.5 -73.5 -22.5s-44.667 -19.167 -62 -30.5l-57 53l-5 656h532c38.667 0 71 2.66699 97 8s46.833 13.333 62.5 24
s26.834 24.334 33.501 41.001s10 36.667 10 60h57l-12 -271l-686 -14l1 -450c33.333 13.333 76 26.166 128 38.499s108.333 18.5 169 18.5c84 0 155.833 -13.5 215.5 -40.5s108.334 -62.333 146.001 -106s65.334 -92.834 83.001 -147.501s26.5 -109.667 26.5 -165
c0 -76 -13.833 -142.833 -41.5 -200.5s-64.667 -106 -111 -145s-99.833 -68.333 -160.5 -88s-124.334 -29.5 -191.001 -29.5c-65.333 0 -123.666 8.83301 -174.999 26.5s-94.666 40.167 -129.999 67.5s-62.333 57.5 -81 90.5s-28 64.5 -28 94.5z" />
    <glyph glyph-name="six" unicode="6" horiz-adv-x="1184" 
d="M115 674c0 40.667 3.00195 88.502 9.00195 143.502s16.667 111.833 32 170.5s36.166 116.667 62.499 174s60.166 108.5 101.499 153.5s90.833 81.5 148.5 109.5s125.5 42 203.5 42c60.667 0 113.667 -8.83301 159 -26.5s83 -39.5 113 -65.5s52.5 -54.167 67.5 -84.5
s22.5 -58.166 22.5 -83.499c0 -29.333 -7.16699 -54.166 -21.5 -74.499s-36.166 -31.166 -65.499 -32.499c-17.333 -0.666992 -32 1.66602 -44 6.99902s-21.667 12.333 -29 21s-12.666 18.167 -15.999 28.5s-5 19.833 -5 28.5c0 13.333 2.16699 27.666 6.5 42.999
s10.833 29.666 19.5 42.999c-4 12 -11.5 25 -22.5 39s-25.167 27 -42.5 39s-37.666 21.833 -60.999 29.5s-49 11.5 -77 11.5c-52 0 -97.167 -12 -135.5 -36s-71 -55.333 -98 -94s-49 -82.334 -66 -131.001s-30.5 -97.667 -40.5 -147s-17.167 -96.833 -21.5 -142.5
s-6.83301 -84.834 -7.5 -117.501c16.667 22.667 36.5 44.5 59.5 65.5s49 39.5 78 55.5s60.667 28.667 95 38s71.5 14 111.5 14c82 0 150.667 -14.167 206 -42.5s99.833 -64.833 133.5 -109.5s57.667 -94 72 -148s21.5 -107 21.5 -159c0 -64 -12.167 -124.5 -36.5 -181.5
s-57.833 -106.667 -100.5 -149s-93.334 -76 -152.001 -101s-122.334 -37.5 -191.001 -37.5c-91.333 0 -168 16.5 -230 49.5s-112.333 80.167 -151 141.5s-66.334 135.5 -83.001 222.5s-25 184.833 -25 293.5zM309.002 577.002
c3.33301 -64.667 10.834 -128.666 22.501 -191.999s29 -120 52 -170s52.667 -90.5 89 -121.5s81.5 -46.5 135.5 -46.5c48 0 89.167 9.5 123.5 28.5s62.166 44.333 83.499 76s37 68.167 47 109.5s15 84.666 15 129.999c0 25.333 -1.33301 53.166 -4 83.499
s-7.5 60.833 -14.5 91.5s-16.833 60.167 -29.5 88.5s-29 53.5 -49 75.5s-44.167 39.667 -72.5 53s-61.5 20 -99.5 20c-32 0 -63.667 -6.16699 -95 -18.5s-60.5 -29 -87.5 -50s-50.667 -45.167 -71 -72.5s-35.5 -55.666 -45.5 -84.999z" />
    <glyph glyph-name="seven" unicode="7" horiz-adv-x="944" 
d="M45 1130l-0.00488281 304.002h858v-140c-33.333 -68 -63.166 -133.667 -89.499 -197s-50.666 -126 -72.999 -188s-43.166 -124.333 -62.499 -187s-38 -127.167 -56 -193.5s-35.833 -135.5 -53.5 -207.5l-56.5 -228c-4 -16.667 -9.16699 -32.834 -15.5 -48.501
s-13.833 -29.334 -22.5 -41.001s-19.167 -21 -31.5 -28s-26.5 -9.83301 -42.5 -8.5c-27.333 2 -46.166 11.5 -56.499 28.5s-15.5 37.833 -15.5 62.5c0 22 4.83301 49.833 14.5 83.5s21.5 69.5 35.5 107.5s29 76.667 45 116l44 110l66.5 169l82.5 206l93 223
c32.667 76 66 149.333 100 220l-541 -3c-55.333 -0.666992 -98.166 -13.5 -128.499 -38.5s-45.5 -65.5 -45.5 -121.5h-49z" />
    <glyph glyph-name="eight" unicode="8" horiz-adv-x="1151" 
d="M121 307c0 46 8.66797 89.1689 26.001 129.502s40.5 77.833 69.5 112.5s62.167 66.834 99.5 96.501s76 57.167 116 82.5c-52 30.667 -96 61.5 -132 92.5s-65.167 61.833 -87.5 92.5s-38.5 61.167 -48.5 91.5s-15 60.5 -15 90.5c0 64.667 13 120.334 39 167.001
s59.667 85.167 101 115.5s87.833 52.833 139.5 67.5s103.5 22 155.5 22s102 -7.33301 150 -22s90.5 -36 127.5 -64s66.667 -62.5 89 -103.5s33.5 -88.167 33.5 -141.5c0 -40.667 -7.33301 -78.667 -22 -114s-34.667 -68 -60 -98s-54.666 -57.167 -87.999 -81.5
s-69 -45.833 -107 -64.5c45.333 -26.667 88.666 -56.334 129.999 -89.001s77.666 -67.5 108.999 -104.5s56.333 -76.167 75 -117.5s28 -84 28 -128c0 -64.667 -13.333 -120.334 -40 -167.001s-62.334 -85.167 -107.001 -115.5s-96.167 -52.833 -154.5 -67.5
s-119.166 -22 -182.499 -22c-48 0 -98 5.66699 -150 17s-99.833 30.166 -143.5 56.499s-79.667 61.166 -108 104.499s-42.5 97.333 -42.5 162zM293.001 344.002c-2.66699 -43.333 2.16504 -83.002 14.498 -119.002s30.5 -67 54.5 -93s53.667 -46.167 89 -60.5
s74.666 -21.833 117.999 -22.5c88.667 -1.33301 157.334 20.334 206.001 65.001s73 107.334 73 188.001c0 35.333 -5.83301 70.5 -17.5 105.5s-30.667 69 -57 102s-61.166 64.667 -104.499 95s-96.666 58.833 -159.999 85.5c-37.333 -27.333 -69.333 -55.833 -96 -85.5
s-48.667 -59.667 -66 -90s-30.333 -60 -39 -89s-13.667 -56.167 -15 -81.5zM340 1140c0 -37.333 7.50098 -72.1689 22.501 -104.502s35.667 -62.166 62 -89.499s57.5 -51.666 93.5 -72.999s74.667 -39.333 116 -54c61.333 42 108 88.5 140 139.5s48.667 102.5 50 154.5
c1.33301 88 -19.5 155.333 -62.5 202s-100.833 70.667 -173.5 72c-40.667 0.666992 -76.334 -6 -107.001 -20s-56.5 -32.5 -77.5 -55.5s-36.833 -49.333 -47.5 -79s-16 -60.5 -16 -92.5z" />
    <glyph glyph-name="nine" unicode="9" horiz-adv-x="1184" 
d="M98 993c0 66.667 11.3398 128.837 34.0068 186.504s55 107.834 97 150.501s92.833 76.167 152.5 100.5s126.5 36.5 200.5 36.5c96 0 175.167 -18.667 237.5 -56s111.5 -88.833 147.5 -154.5s61 -143.167 75 -232.5s21 -185.666 21 -288.999
c0 -50 -2.5 -103.5 -7.5 -160.5s-14.333 -113.833 -28 -170.5s-33 -111.334 -58 -164.001s-57.333 -99 -97 -139s-87.834 -72.167 -144.501 -96.5s-124 -36.833 -202 -37.5c-67.333 -0.666992 -124.5 7.16602 -171.5 23.499s-85.333 37 -115 62s-51.334 52.333 -65.001 82
s-20.5 58.167 -20.5 85.5c0 29.333 7.5 54.166 22.5 74.499s37.167 31.166 66.5 32.499c16.667 0.666992 30.834 -1.83301 42.501 -7.5s21.167 -13 28.5 -22s12.666 -18.833 15.999 -29.5s5 -20.334 5 -29.001c0 -28 -9 -56 -27 -84c4.66699 -14.667 12 -28.667 22 -42
s23.333 -25 40 -35s37 -18 61 -24s52.333 -9 85 -9c52 0 96.833 11 134.5 33s69.667 51 96 87s47.666 77.167 63.999 123.5s29 94.166 38 143.499s15 97.833 18 145.5s4.16699 91.167 3.5 130.5c-17.333 -22.667 -37.333 -44.334 -60 -65.001
s-48.334 -38.834 -77.001 -54.501s-60.334 -28.167 -95.001 -37.5s-72 -14 -112 -14c-54.667 0 -103.167 6.5 -145.5 19.5s-79.333 30.667 -111 53s-58.334 48.5 -80.001 78.5s-39.334 61.833 -53.001 95.5s-23.5 68.334 -29.5 104.001s-9 70.834 -9 105.501zM301.007 1038
c0 -25.333 1.33398 -53.1689 4.00098 -83.502s7.5 -60.5 14.5 -90.5s16.833 -59.167 29.5 -87.5s29 -53.5 49 -75.5s44 -39.5 72 -52.5s61 -19.5 99 -19.5c32 0 63.833 6.16699 95.5 18.5s61 28.833 88 49.5s50.667 44.5 71 71.5s35.166 55.5 44.499 85.5
c-3.33301 64 -10.5 127.833 -21.5 191.5s-28 120.834 -51 171.501s-53 91.834 -90 123.501s-83.167 47.5 -138.5 47.5c-44 0 -82.667 -9.66699 -116 -29s-61 -45.333 -83 -78s-38.667 -70 -50 -112s-17 -85.667 -17 -131z" />
    <glyph glyph-name="colon" unicode=":" horiz-adv-x="512" 
d="M137 98c0 18.667 3.33301 36.167 10 52.5s15.5 30.5 26.5 42.5s23.833 21.5 38.5 28.5s30 10.5 46 10.5c16.667 0 32.167 -3.5 46.5 -10.5s26.833 -16.5 37.5 -28.5s19 -26.167 25 -42.5s9 -33.833 9 -52.5c0 -18 -3.33301 -35 -10 -51s-15.5 -30 -26.5 -42
s-23.667 -21.333 -38 -28s-29.5 -10 -45.5 -10s-31.167 3.33301 -45.5 10s-27 16 -38 28s-19.667 26 -26 42s-9.5 33 -9.5 51zM137 923c0 18.667 3.33301 36.167 10 52.5s15.5 30.5 26.5 42.5s23.833 21.5 38.5 28.5s30 10.5 46 10.5c16.667 0 32.167 -3.5 46.5 -10.5
s26.833 -16.5 37.5 -28.5s19 -26.167 25 -42.5s9 -33.833 9 -52.5c0 -18 -3.33301 -35 -10 -51s-15.5 -30 -26.5 -42s-23.667 -21.333 -38 -28s-29.5 -10 -45.5 -10s-31.167 3.33301 -45.5 10s-27 16 -38 28s-19.667 26 -26 42s-9.5 33 -9.5 51z" />
    <glyph glyph-name="semicolon" unicode=";" horiz-adv-x="539" 
d="M143 88c0 38 11 67.3379 33 88.0049s48.667 31 80 31c23.333 0 44 -4.83301 62 -14.5s33.167 -22.834 45.5 -39.501s21.666 -36.334 27.999 -59.001s9.5 -47 9.5 -73s-3.66699 -56.5 -11 -91.5s-17.666 -70.5 -30.999 -106.5s-29.333 -70.833 -48 -104.5
s-39.334 -61.834 -62.001 -84.501l-55 41c11.333 14 23.333 33 36 57s23.834 50.667 33.501 80s17.167 60.166 22.5 92.499s6 64.166 2 95.499c-19.333 -8.66699 -37.833 -12.334 -55.5 -11.001s-33.167 6.33301 -46.5 15s-23.833 20.334 -31.5 35.001s-11.5 31 -11.5 49z
M143 923.005c0 18.667 3.33301 36.167 10 52.5s15.5 30.5 26.5 42.5s23.833 21.5 38.5 28.5s30 10.5 46 10.5c16.667 0 32.167 -3.5 46.5 -10.5s26.833 -16.5 37.5 -28.5s19 -26.167 25 -42.5s9 -33.833 9 -52.5c0 -18 -3.33301 -35 -10 -51s-15.5 -30 -26.5 -42
s-23.667 -21.333 -38 -28s-29.5 -10 -45.5 -10s-31.167 3.33301 -45.5 10s-27 16 -38 28s-19.667 26 -26 42s-9.5 33 -9.5 51z" />
    <glyph glyph-name="less" unicode="&#x3c;" horiz-adv-x="1110" 
d="M70 571v138l912 405v-127l-773 -340l773 -342v-131z" />
    <glyph glyph-name="equal" unicode="=" horiz-adv-x="1212" 
d="M150 383v127l912 -4v-119zM150 768v127l912 -4v-119z" />
    <glyph glyph-name="greater" unicode="&#x3e;" horiz-adv-x="1108" 
d="M127 174v127l773 340l-773 342v131l912 -397v-138z" />
    <glyph glyph-name="question" unicode="?" horiz-adv-x="971" 
d="M68 1181c0 30 9.5 61.8379 28.5 95.5049s46.333 64.5 82 92.5s79 51.333 130 70s108.833 28 173.5 28c78.667 0 145 -10.667 199 -32s97.167 -49 129.5 -83s55 -72.333 68 -115s18.167 -85.334 15.5 -128.001c-2.66699 -46 -15.834 -88.667 -39.501 -128
s-52.5 -76 -86.5 -110s-70.333 -65.833 -109 -95.5l-107.5 -83.5c-33 -26 -60.333 -51 -82 -75s-32.5 -47.333 -32.5 -70c0 -8 1.5 -16.167 4.5 -24.5s7.83301 -15.666 14.5 -21.999s15.5 -11.5 26.5 -15.5s24.5 -6 40.5 -6c9.33301 0 21.166 1.16699 35.499 3.5
s27.833 6.16602 40.5 11.499l24 -72c-21.333 -12.667 -47.166 -22 -77.499 -28s-58.166 -9 -83.499 -9c-20 0 -39.833 2.5 -59.5 7.5s-37.167 12.833 -52.5 23.5s-27.833 24.667 -37.5 42s-14.5 38.666 -14.5 63.999c0 30.667 9.66699 59.5 29 86.5s43.666 53.667 72.999 80
l95.5 82c34.333 28.333 66.5 59.333 96.5 93s55.167 71 75.5 112s31.5 87.5 33.5 139.5c0.666992 36.667 -2.83301 71.5 -10.5 104.5s-21.167 62 -40.5 87s-45.333 44.667 -78 59s-73 21.5 -121 21.5c-29.333 0 -57.166 -4.5 -83.499 -13.5s-49.5 -20.667 -69.5 -35
s-36.333 -30 -49 -47s-20.334 -33.5 -23.001 -49.5c7.33301 -12 13 -24.667 17 -38s6 -27.333 6 -42c0 -8.66699 -1.83301 -18.334 -5.5 -29.001s-9.16699 -20.5 -16.5 -29.5s-17 -16.333 -29 -22s-26.333 -8.16699 -43 -7.5c-29.333 1.33301 -51.166 12.166 -65.499 32.499
s-21.5 45.166 -21.5 74.499zM365 88.0049c0 16.667 3.16699 32.334 9.5 47.001s14.666 27.5 24.999 38.5s22.166 19.667 35.499 26s27 9.5 41 9.5c15.333 0 29.666 -3.16699 42.999 -9.5s24.833 -15 34.5 -26s17.334 -23.833 23.001 -38.5s8.5 -30.334 8.5 -47.001
s-2.66699 -32.334 -8 -47.001s-12.833 -27.5 -22.5 -38.5s-21.167 -19.667 -34.5 -26s-28 -9.5 -44 -9.5c-14 0 -27.667 2.66699 -41 8s-25.166 13.333 -35.499 24s-18.666 23.334 -24.999 38.001s-9.5 31.667 -9.5 51z" />
    <glyph glyph-name="at" unicode="@" horiz-adv-x="1630" 
d="M102 526c0 57.333 6.33105 115.669 18.998 175.002s31.667 117 57 173s57.5 109 96.5 159s85 94.333 138 133s109.333 68.667 169 90s112.667 34.666 159 39.999s84.833 8 115.5 8c68 0 132 -6.66699 192 -20s117 -35.166 171 -65.499s101.333 -66.666 142 -108.999
s74.5 -88.333 101.5 -138s47.333 -101.834 61 -156.501s20.5 -109.334 20.5 -164.001c0 -71.333 -7.5 -134.333 -22.5 -189s-34.5 -101.834 -58.5 -141.501s-51.5 -72.334 -82.5 -98.001s-65.5 -47.167 -103.5 -64.5s-80.667 -26 -128 -26c-22 0 -46.5 4 -73.5 12
s-50.167 22.5 -69.5 43.5s-31.833 43.833 -37.5 68.5s-8.5 50 -8.5 76c0 21.333 1.5 44.5 4.5 69.5s8.16699 57.167 15.5 96.5h-4c-25.333 -78 -51.5 -140.333 -78.5 -187s-54.167 -82.5 -81.5 -107.5s-53.833 -41.333 -79.5 -49s-49.5 -11.5 -71.5 -11.5
c-28.667 0 -56.167 5.5 -82.5 16.5s-49.5 28 -69.5 51s-35.833 52.5 -47.5 88.5s-17.5 79 -17.5 129c0 74.667 10.333 145.834 31 213.501s51.334 127 92.001 178s91 91.667 151 122s129 45.5 207 45.5c16 0 33.333 -0.5 52 -1.5s37.834 -2.5 57.501 -4.5s39 -4.66699 58 -8
s36.833 -7.33301 53.5 -12c-5.33301 -46.667 -11.166 -93.834 -17.499 -141.501s-12.166 -94.167 -17.499 -139.5l-15 -129.5c-4.66699 -41 -8.16699 -74.833 -10.5 -101.5s-3.5 -53.334 -3.5 -80.001c0 -28 2.66699 -54 8 -78s12.833 -42.5 22.5 -55.5
s20.834 -21.833 33.501 -26.5s24.334 -7 35.001 -7c25.333 0 49.166 6.83301 71.499 20.5s44.166 35.667 65.499 66s39.5 71.666 54.5 123.999s22.5 110.166 22.5 173.499c0 122.667 -14.833 223.834 -44.5 303.501s-69 143.167 -118 190.5s-105.167 82.5 -168.5 105.5
s-137.333 34.167 -222 33.5c-34 0.666992 -76.667 -4.16602 -128 -14.499s-105.333 -32.166 -162 -65.499s-108 -80.666 -154 -141.999s-81.167 -131.5 -105.5 -210.5s-36.5 -161.5 -36.5 -247.5c0 -74 7.5 -141.167 22.5 -201.5s36 -114.166 63 -161.499
s59.167 -88.5 96.5 -123.5s78 -64 122 -87s92 -40.667 144 -53s100.333 -18.5 145 -18.5c60 0 104 1.66699 132 5s64.5 11.333 109.5 24s88 32 129 58s79.5 60.333 115.5 103l49 -51c-79.333 -84.667 -165.333 -143.834 -258 -177.501s-184 -50.5 -274 -50.5
c-94.667 0 -174.334 8 -239.001 24s-124.834 39.833 -180.501 71.5s-104.5 69.667 -146.5 114s-76.833 93.5 -104.5 147.5s-48.5 111.833 -62.5 173.5s-21 125.167 -21 190.5zM590.998 446.003c0 -68.667 9.33496 -123.331 28.002 -163.998s45.667 -61 81 -61
c24.667 0 49.167 10.333 73.5 31s47.833 48.5 70.5 83.5s43.667 75.5 63 121.5s36.166 94.333 50.499 145s25.666 102.167 33.999 154.5s12.833 102.5 13.5 150.5c-32 12.667 -74.333 19 -127 19c-48 0 -90 -14.833 -126 -44.5s-65.833 -67.834 -89.5 -114.501
s-41.5 -98.334 -53.5 -155.001s-18 -112 -18 -166z" />
    <glyph glyph-name="A" unicode="A" horiz-adv-x="1282" 
d="M-12 0l0.000976562 68.0029c30.667 0 55.667 6.16699 75 18.5s35.666 29.833 48.999 52.5s25.5 49.667 36.5 81l37.5 104l422 1149h49l457 -1166c6 -14 12.167 -30.833 18.5 -50.5s12.333 -39.834 18 -60.501s10 -41 13 -61s4.16699 -37.667 3.5 -53l140 8v-90h-469v68
c38 0.666992 66 7.66699 84 21s29.333 29.666 34 48.999s4.66699 40 0 62s-10.667 42.667 -18 62l-72 192l-533 -12l-39 -115.5c-11.333 -35 -22 -69.5 -32 -103.5l-14 -43c-4 -12.667 -8 -24.334 -12 -35.001l-12 -31l-13 -32l160 8v-90h-383zM364.001 530.003h474
l-146 392l-92 252h-4l-86 -232l-82.5 -232.5z" />
    <glyph glyph-name="B" unicode="B" 
d="M113 0l0.000976562 67.998c38.667 0.666992 67.667 7.5 87 20.5s33 31 41 54s12.167 50.333 12.5 82s0.5 66.834 0.5 105.501v860c0 37.333 0.5 69.333 1.5 96s2.83301 48.667 5.5 66l-148 -9v91c75.333 1.33301 150.666 2.33301 225.999 3s154.333 1 237 1
c79.333 0 150.333 -7 213 -21s115.5 -35.333 158.5 -64s75.5 -64 97.5 -106s33 -95.333 33 -160c-0.666992 -33.333 -8 -66.666 -22 -99.999s-35 -64.333 -63 -93s-63.167 -54 -105.5 -76s-91.5 -38 -147.5 -48v-4c75.333 0 141.333 -9.16699 198 -27.5
s104 -43.666 142 -75.999s66.5 -70.833 85.5 -115.5s28.5 -93.334 28.5 -146.001c0 -62.667 -12.167 -118.834 -36.5 -168.501s-58 -91.667 -101 -126s-94 -60.666 -153 -78.999s-123.167 -27.5 -192.5 -27.5h-598zM426.001 81.998c16 -1.33301 35 -2.33301 57 -3
s43.833 -1 65.5 -1h58.5h36c52.667 0 100.667 6.66699 144 20s80.5 33 111.5 59s55 58.333 72 97s25.5 83.667 25.5 135c0 62.667 -9.66699 114.667 -29 156s-45.166 74.333 -77.499 99s-69.833 42 -112.5 52s-87.334 15 -134.001 15c-40.667 0 -77.667 -0.5 -111 -1.5
s-66.333 -2.5 -99 -4.5v-463c0 -37.333 -0.5 -69 -1.5 -95s-2.83301 -47.667 -5.5 -65zM433.001 783.998l148.998 4.00098c58.667 1.33301 107.834 11 147.501 29s71.5 41.5 95.5 70.5s41 60.833 51 95.5s15 73 15 115c0 52 -10 96.667 -30 134s-44.667 65.166 -74 83.499
s-61.666 31 -96.999 38s-70 10.5 -104 10.5c-33.333 0 -60 -3.33301 -80 -10s-35.5 -17.834 -46.5 -33.501s-18.167 -36.167 -21.5 -61.5s-5 -56.666 -5 -93.999v-381z" />
    <glyph glyph-name="C" unicode="C" horiz-adv-x="1432" 
d="M94 694c0 64 6.49805 127.667 19.498 191s32.667 123.5 59 180.5s59.166 110 98.499 159s85.333 91.5 138 127.5s112 64.167 178 84.5s138.667 30.5 218 30.5c77.333 0 149.666 -10.333 216.999 -31s132.666 -52 195.999 -94l-10 110h111v-475h-74
c-7.33301 64 -22.5 121.167 -45.5 171.5s-52.667 92.833 -89 127.5s-79.166 61.167 -128.499 79.5s-103.666 27.5 -162.999 27.5c-72.667 0 -140.834 -15.5 -204.501 -46.5s-119.167 -75 -166.5 -132s-84.666 -126.167 -111.999 -207.5s-41 -172 -41 -272
c0 -64.667 6.5 -125.5 19.5 -182.5s31.5 -109.667 55.5 -158s52.667 -91.666 86 -129.999s70.333 -70.833 111 -97.5s84.334 -47.167 131.001 -61.5s95.334 -21.5 146.001 -21.5c44.667 0 89.167 5 133.5 15s87 25 128 45s79.5 44.667 115.5 74s68 63 96 101l53 -43
c-44 -60.667 -91.167 -110.334 -141.5 -149.001s-101 -69.167 -152 -91.5s-101 -37.666 -150 -45.999s-94.5 -12.5 -136.5 -12.5c-102.667 0 -196.667 18.833 -282 56.5s-158.666 89.167 -219.999 154.5s-109 142.166 -143 230.499s-51 183.5 -51 285.5z" />
    <glyph glyph-name="D" unicode="D" horiz-adv-x="1526" 
d="M113 0v68.001c38.667 1.33301 67.667 8.33301 87 21s33 30 41 52s12.167 48.167 12.5 78.5s0.5 63.5 0.5 99.5v885c0 28 0.5 54.5 1.5 79.5s2.83301 47.833 5.5 68.5l-148 -9v91l483 2c124 0 237.167 -14.333 339.5 -43s190.333 -72.667 264 -132
s130.834 -134.333 171.501 -225s61 -197.667 61 -321c0 -62.667 -7.33301 -123.834 -22 -183.501s-36.667 -116 -66 -169s-65.833 -101.667 -109.5 -146s-94.334 -82.5 -152.001 -114.5s-122.5 -57 -194.5 -75s-150.667 -27 -236 -27h-539zM426 82.001
c27.333 -1.33301 53.332 -2.33496 77.999 -3.00195s46.834 -1 66.501 -1h49.5h26c88 0 168 16.333 240 49s133.5 77.834 184.5 135.501s90.5 125.834 118.5 204.501s42 164 42 256c0 96.667 -13.167 184.167 -39.5 262.5s-66.5 145.333 -120.5 201
s-122.167 98.5 -204.5 128.5s-179.833 45 -292.5 45c-38.667 0 -67.667 -6 -87 -18s-33 -28.833 -41 -50.5s-12.167 -47.5 -12.5 -77.5s-0.5 -63.333 -0.5 -100v-872c0 -37.333 -0.5 -69 -1.5 -95s-2.83301 -47.667 -5.5 -65z" />
    <glyph glyph-name="E" unicode="E" 
d="M113 0l0.00195312 68.001c32.667 0.666992 58.5 5.83398 77.5 15.501s33.167 22.834 42.5 39.501s15.166 36.5 17.499 59.5s3.5 48.5 3.5 76.5v60v885c0 28 0.5 54.5 1.5 79.5s2.83301 47.833 5.5 68.5l-148 -9v91h985l10 -359h-67c0 58.667 -6.83301 106.667 -20.5 144
s-32.334 66.666 -56.001 87.999s-51.5 35.833 -83.5 43.5s-66.667 11.5 -104 11.5l-189 -3c-38 -2 -67.5 -8 -88.5 -18s-36.5 -24.833 -46.5 -44.5s-15.833 -44.5 -17.5 -74.5s-2.5 -66 -2.5 -108v-330h384l-15 177h91v-431h-67c0 40 -3.5 71.833 -10.5 95.5s-18 42 -33 55
s-34 21.5 -57 25.5s-50.833 6 -83.5 6h-29c-10 0 -70 -2.33301 -180 -7v-469c0 -38 -0.5 -69.833 -1.5 -95.5s-2.83301 -47.167 -5.5 -64.5l392 6c44.667 0.666992 85 6.16699 121 16.5s66.833 27.666 92.5 51.999s45.5 56.666 59.5 96.999s21 90.833 21 151.5h70l-12 -399
h-1057z" />
    <glyph glyph-name="F" unicode="F" horiz-adv-x="1122" 
d="M113 0l0.000976562 67.9971c38.667 1.33301 67.667 8.33301 87 21s33 30 41 52s12.167 48.167 12.5 78.5s0.5 63.5 0.5 99.5v885c0 28 0.5 54.5 1.5 79.5s2.83301 47.833 5.5 68.5l-148 -9v91h950l11 -359h-68c0 60.667 -7.5 109.834 -22.5 147.501s-35.333 67 -61 88
s-55.834 34.833 -90.501 41.5c-31.333 6.66699 -64.333 10 -99 10h-10l-149 -4c-38 -1.33301 -66.833 -8.5 -86.5 -21.5s-33.5 -30.667 -41.5 -53s-12.167 -48.666 -12.5 -78.999s-0.5 -63.166 -0.5 -98.499v-354h356l-15 177h91v-431h-67c0 40 -3.5 71.833 -10.5 95.5
s-18 42 -33 55s-34 21.5 -57 25.5s-50.833 6 -83.5 6h-29c-10 0 -60.667 -2.33301 -152 -7v-429c0 -37.333 -0.5 -69.333 -1.5 -96s-2.83301 -48.667 -5.5 -66l209 8v-90h-522z" />
    <glyph glyph-name="G" unicode="G" horiz-adv-x="1559" 
d="M96 686c0 64 6.49805 127.833 19.498 191.5s32.667 124.334 59 182.001s59.166 111.334 98.499 161.001s85.5 92.834 138.5 129.501s112.667 65.334 179 86.001s139.166 31 218.499 31c36.667 0 74 -2.66699 112 -8s75.333 -12.833 112 -22.5s72 -21.5 106 -35.5
s65.333 -29.667 94 -47l-9 98h113v-469h-74c-4.66699 64 -19 121 -43 171s-55.5 92 -94.5 126s-84.333 60 -136 78s-107.167 27 -166.5 27c-72.667 0 -141 -16.167 -205 -48.5s-119.667 -77.333 -167 -135s-84.833 -126.334 -112.5 -206.001s-41.5 -167.167 -41.5 -262.5
c0 -96.667 13.333 -185.834 40 -267.501s64.167 -152 112.5 -211s106.166 -105.167 173.499 -138.5s141.333 -50 222 -50c27.333 0 56 2 86 6s60.167 10 90.5 18s60.333 18.5 90 31.5s57.834 28.5 84.501 46.5v448l-144 -8v90h463v-67
c-25.333 0 -46.666 -4.83301 -63.999 -14.5s-31.333 -22 -42 -37s-18.834 -31.667 -24.501 -50s-9.66699 -36.5 -12 -54.5s-3.66602 -34.833 -3.99902 -50.5s-0.5 -28.167 -0.5 -37.5v-313h-56c-22.667 0 -52.667 -4 -90 -12s-81 -21.667 -131 -41
c-21.333 -8 -44.666 -15.333 -69.999 -22s-51.166 -12.334 -77.499 -17.001s-52.5 -8.33398 -78.5 -11.001s-50.333 -4 -73 -4c-102.667 0 -196.667 16.5 -282 49.5s-158.666 80.333 -219.999 142s-109 137 -143 226s-51 189.5 -51 301.5z" />
    <glyph glyph-name="H" unicode="H" horiz-adv-x="1597" 
d="M113 0l-0.000976562 68.001c38.667 1.33301 67.667 8.33301 87 21s33 30 41 52s12.167 48.167 12.5 78.5s0.5 63.5 0.5 99.5v885c0 28 0.5 54.5 1.5 79.5s2.83301 47.833 5.5 68.5l-148 -9v91h461v-68c-38.667 -1.33301 -67.667 -8.5 -87 -21.5s-33 -30.5 -41 -52.5
s-12.167 -48 -12.5 -78s-0.5 -63.333 -0.5 -100v-340h733v430c0 57.333 2 106.666 6 147.999l-148 -9v91h461v-68c-38 -1.33301 -66.833 -8.5 -86.5 -21.5s-33.5 -30.5 -41.5 -52.5s-12.167 -48 -12.5 -78s-0.5 -63.333 -0.5 -100v-870c0 -73.333 -2 -127.333 -6 -162l147 8
v-90h-461v68c38.667 1.33301 67.834 8.33301 87.501 21s33.5 30 41.5 52s12.167 48.167 12.5 78.5s0.5 63.5 0.5 99.5v374l-733 -9v-440c0 -37.333 -0.5 -69.333 -1.5 -96s-2.83301 -48.667 -5.5 -66l148 8v-90h-461z" />
    <glyph glyph-name="I" unicode="I" horiz-adv-x="686" 
d="M113 0v68c38.667 1.33301 67.667 8.33301 87 21s33 30 41 52s12.167 48.167 12.5 78.5s0.5 63.5 0.5 99.5v885c0 28 0.5 54.5 1.5 79.5s2.83301 47.833 5.5 68.5l-148 -9v91h461v-68c-38.667 -1.33301 -67.667 -8.5 -87 -21.5s-33 -30.5 -41 -52.5s-12.167 -48 -12.5 -78
s-0.5 -63.333 -0.5 -100v-870c0 -37.333 -0.5 -69.333 -1.5 -96s-2.83301 -48.667 -5.5 -66l148 8v-90h-461z" />
    <glyph glyph-name="J" unicode="J" horiz-adv-x="764" 
d="M-4 113c0 13.333 1.83496 26.165 5.50195 38.498s9.16699 23.5 16.5 33.5s15.333 17.5 24 22.5s16.667 8.33301 24 10s16 2.5 26 2.5c12 0 23.667 -2.66699 35 -8s20.5 -12.5 27.5 -21.5s12.167 -19 15.5 -30s5 -21.5 5 -31.5c0 -6.66699 -0.833008 -14.167 -2.5 -22.5
s-4.16699 -16.166 -7.5 -23.499c4 -6 9.5 -11.167 16.5 -15.5s14.5 -7.83301 22.5 -10.5s15.667 -4.33398 23 -5.00098s13.666 -1 18.999 -1c20 0.666992 37.667 5.33398 53 14.001s28 22.334 38 41.001s17.5 42.667 22.5 72s7.5 65 7.5 107v1067l-209 -9v91h545v-68
c-34 0 -61.333 -5.16699 -82 -15.5s-36.667 -24.666 -48 -42.999s-18.833 -39.833 -22.5 -64.5s-5.5 -51.334 -5.5 -80.001v-663c0 -96 -6.33301 -177.833 -19 -245.5s-32.334 -122.834 -59.001 -165.501s-61.167 -73.667 -103.5 -93s-92.833 -29 -151.5 -29
c-28.667 0 -56 3.33301 -82 10s-49 16.334 -69 29.001s-35.833 28 -47.5 46s-17.5 38.333 -17.5 61z" />
    <glyph glyph-name="K" unicode="K" horiz-adv-x="1364" 
d="M113 0v68.0049c38.667 1.33301 67.667 8.33301 87 21s33 30 41 52s12.167 48.167 12.5 78.5s0.5 63.5 0.5 99.5v885c0 28 0.5 54.5 1.5 79.5s2.83301 47.833 5.5 68.5l-148 -9v91h461v-68c-38.667 -1.33301 -67.667 -8.5 -87 -21.5s-33 -30.5 -41 -52.5
s-12.167 -48 -12.5 -78s-0.5 -63.333 -0.5 -100v-336h153l256 404c8.66699 13.333 18.5 27.666 29.5 42.999s22.667 30.666 35 45.999s25.5 30.166 39.5 44.499s28 27.166 42 38.499l-125 -4v84h440v-68c-43.333 -3.33301 -82.666 -9.16602 -117.999 -17.499
s-69 -22.333 -101 -42s-63.833 -46.667 -95.5 -81s-64.834 -79.5 -99.501 -135.5l-200 -320c19.333 -12 36.666 -24.833 51.999 -38.5s29.666 -27.834 42.999 -42.501s26 -29.834 38 -45.501l37 -47.5l229 -305c38.667 -52 72 -92.833 100 -122.5s53.333 -52 76 -67
s43.667 -24.333 63 -28s40 -5.5 62 -5.5v-68h-250c-10 0 -22.667 5.5 -38 16.5s-32.166 25.833 -50.499 44.5s-37.666 40.167 -57.999 64.5l-60.5 75.5l-245 331c-26 34 -52 66.333 -78 97s-51.333 53.667 -76 69l-100 -2v-452c0 -37.333 -0.5 -69.333 -1.5 -96
s-2.83301 -48.667 -5.5 -66l148 8v-90h-461z" />
    <glyph glyph-name="L" unicode="L" horiz-adv-x="1184" 
d="M113 0v68c38.667 1.33301 67.667 8.33301 87 21s33 30 41 52s12.167 48.167 12.5 78.5s0.5 63.5 0.5 99.5v885c0 28 0.5 54.5 1.5 79.5s2.83301 47.833 5.5 68.5l-148 -9v91h461v-68c-38.667 -1.33301 -67.667 -8.5 -87 -21.5s-33 -30.5 -41 -52.5s-12.167 -48 -12.5 -78
s-0.5 -63.333 -0.5 -100v-878c0 -37.333 -0.5 -69 -1.5 -95s-2.83301 -47.667 -5.5 -65l383 6c42.667 0.666992 80.5 7.5 113.5 20.5s60.5 33.167 82.5 60.5s38.667 62.5 50 105.5s17 94.833 17 155.5h69l-12 -424h-1016z" />
    <glyph glyph-name="M" unicode="M" horiz-adv-x="1880" 
d="M90 0l-0.00390625 68.0039c32 0.666992 57 6.16699 75 16.5s31.833 24 41.5 41s15.834 36.667 18.501 59s4.66699 46.166 6 71.499l45 1095l-147 -5v88h313l135.5 -310l126.5 -293.5l123.5 -288l126.5 -292.5h4l25.5 62l27.5 70l27.5 70l24.5 62l186.5 451l192.5 469h303
v-68h-6c-23.333 0 -43.666 -3.33301 -60.999 -10c-18.667 -8 -34 -20.667 -46 -38s-20.667 -40.333 -26 -69c-3.33301 -18.667 -4.66602 -40.334 -3.99902 -65.001c0 -12.667 0.333008 -26.334 1 -41.001l54 -932c1.33301 -24 2.33301 -46.833 3 -68.5
s0.666992 -41.5 0 -59.5l150 7v-90h-459v68c32 0.666992 57.333 6.5 76 17.5s32.834 26.833 42.501 47.5s15.5 45.667 17.5 75c1.33301 14.667 1.83301 30.667 1.5 48s-0.833008 35.666 -1.5 54.999l-53 873l-13 -31.5l-14 -34.5l-461 -1138h-61l-135 300l-134.5 302
l-131 306.5c-43 103 -84.5 207.5 -124.5 313.5l-2 -90c-1.33301 -32.667 -2.5 -70.167 -3.5 -112.5s-2.33301 -87.5 -4 -135.5s-3.16699 -98 -4.5 -150l-4 -157l-4 -155.5c-1.33301 -51 -2.33301 -99.5 -3 -145.5l-2 -91c-0.666992 -30 -2.66699 -57.667 -6 -83l154 8v-90
h-391z" />
    <glyph glyph-name="N" unicode="N" horiz-adv-x="1561" 
d="M117 0v68.002c31.333 0 56 5.5 74 16.5s31.5 24.5 40.5 40.5s14.667 33.333 17 52s3.5 36 3.5 52l2 1123l-137 -9v91h244l872 -1167h2l2 937c0 57.333 2 106.666 6 147.999l-147 -9v91h377v-68c-38.667 -1.33301 -67.5 -8.5 -86.5 -21.5s-32.5 -30.5 -40.5 -52.5
c-7.33301 -21.333 -11 -46 -11 -74l1 -104l-4 -1147h-99l-889 1195h-3l7 -877c0 -35.333 -0.166992 -69.833 -0.5 -103.5s-1.5 -66.834 -3.5 -99.501l148 8v-90h-375z" />
    <glyph glyph-name="O" unicode="O" horiz-adv-x="1626" 
d="M94 717c0 57.333 6.33301 115.666 19 174.999s32 116.833 58 172.5s58.667 107.834 98 156.501s85.333 91.334 138 128.001s112.334 65.5 179.001 86.5s140.334 31.5 221.001 31.5c83.333 0 159.166 -10.667 227.499 -32s129.5 -50.166 183.5 -86.499
s100.833 -79 140.5 -128s72.667 -101.333 99 -157s46 -113.167 59 -172.5s19.5 -117.333 19.5 -174s-6.5 -114.5 -19.5 -173.5s-32.333 -116.333 -58 -172s-58.167 -108 -97.5 -157s-85.5 -91.833 -138.5 -128.5s-112.667 -65.667 -179 -87s-139.833 -32 -220.5 -32
c-86.667 0 -164.834 10.333 -234.501 31s-131.5 48.834 -185.5 84.501s-100.5 77.667 -139.5 126s-71 100.166 -96 155.499s-43.5 113.166 -55.5 173.499s-18 120.166 -18 179.499zM295 754c0 -50.667 4.66504 -103.167 13.998 -157.5s23.5 -107.5 42.5 -159.5
s43 -101.5 72 -148.5s63.333 -88 103 -123s84.334 -62.833 134.001 -83.5s105.167 -31 166.5 -31c56 0 107.333 8.5 154 25.5s88.667 40.333 126 70s70 64.667 98 105s51.333 83.666 70 129.999s32.834 95.833 42.501 148.5s14.5 102 14.5 148
c0 49.333 -5.33301 104 -16 164s-26.334 116.167 -47.001 168.5s-46 101.333 -76 147s-64.667 85.334 -104 119.001s-83.166 60.167 -131.499 79.5s-100.833 29 -157.5 29c-84 0 -157.667 -18.667 -221 -56s-116 -86 -158 -146s-73.5 -127.5 -94.5 -202.5
s-31.5 -150.5 -31.5 -226.5z" />
    <glyph glyph-name="P" unicode="P" horiz-adv-x="1240" 
d="M113 0l-0.00195312 68.002c38.667 1.33301 67.667 8.33301 87 21s33 30 41 52s12.167 48.167 12.5 78.5s0.5 63.5 0.5 99.5v885c0 28 0.5 54.5 1.5 79.5s2.83301 47.833 5.5 68.5l-148 -9v91c72 1.33301 146 2.16602 222 2.49902s154.333 0.5 235 0.5
c198.667 0 349.667 -33.333 453 -100c110.667 -72.667 166 -179 166 -319c0 -28.667 -3.16699 -60.334 -9.5 -95.001s-19.166 -70.5 -38.499 -107.5s-45.833 -72.333 -79.5 -106s-76 -63 -127 -88s-111.833 -45 -182.5 -60s-152.667 -22.5 -246 -22.5h-31.5
c-14.333 0 -28.166 0.333008 -41.499 1v-296c0 -37.333 -0.5 -69.333 -1.5 -96s-2.83301 -48.667 -5.5 -66l189 10v-92h-502zM432.998 625.002c25.333 -3.33301 47.501 -5.33203 66.501 -5.99902s41.167 -1 66.5 -1c58 0 112.833 8.66699 164.5 26s96.667 42.5 135 75.5
s68.666 73.167 90.999 120.5s33.5 101 33.5 161c0 64.667 -10.333 119.667 -31 165s-49.667 82.166 -87 110.499s-82 48.833 -134 61.5s-109.333 19 -172 19c-36.667 0 -64.167 -5.83301 -82.5 -17.5s-31.333 -28.167 -39 -49.5s-11.5 -46.833 -11.5 -76.5v-99.5v-489z" />
    <glyph glyph-name="Q" unicode="Q" horiz-adv-x="1630" 
d="M94 717c0 57.333 6.33203 115.668 18.999 175.001s32 116.833 58 172.5s58.667 107.834 98 156.501s85.333 91.334 138 128.001s112.334 65.5 179.001 86.5s140.334 31.5 221.001 31.5c83.333 0 159.166 -10.667 227.499 -32s129.5 -50.166 183.5 -86.499
s100.833 -79 140.5 -128s72.667 -101.333 99 -157s46 -113.167 59 -172.5s19.5 -117.333 19.5 -174s-6.5 -114.5 -19.5 -173.5s-32.333 -116.333 -58 -172s-58.167 -108 -97.5 -157s-85.5 -91.833 -138.5 -128.5s-112.833 -65.667 -179.5 -87
c-17.333 -5.33301 -35 -10 -53 -14c3.33301 -0.666992 6.33301 -1 9 -1c24 -0.666992 46.833 -2.66699 68.5 -6s43.5 -9.5 65.5 -18.5s45 -21.833 69 -38.5s50.667 -38.667 80 -66l120 -111c32.667 -30 61 -54.167 85 -72.5s45.333 -31.333 64 -39s38 -11.5 58 -11.5v-67
h-65c-37.333 0 -70.333 0.666992 -99 2s-56 5.5 -82 12.5s-52 18.167 -78 33.5s-55 37.333 -87 66c-46 41.333 -86 80.166 -120 116.499s-65.5 68 -94.5 95s-57.167 48.333 -84.5 64s-57.333 23.5 -90 23.5c-81.333 1.33301 -155 11.666 -221 30.999
c-69.333 20.667 -131 48.834 -185 84.501s-100.5 77.667 -139.5 126s-71 100.166 -96 155.499s-43.5 113.166 -55.5 173.499s-18 120.166 -18 179.499zM294.999 754.002c0 -50.667 4.66504 -103.167 13.998 -157.5s23.5 -107.5 42.5 -159.5s43 -101.5 72 -148.5
s63.333 -88 103 -123s84.334 -62.833 134.001 -83.5s105.167 -31 166.5 -31c56 0 107.333 8.5 154 25.5s88.667 40.333 126 70s70 64.667 98 105s51.333 83.666 70 129.999s32.834 95.833 42.501 148.5s14.5 102 14.5 148c0 49.333 -5.33301 104 -16 164
s-26.334 116.167 -47.001 168.5s-46 101.333 -76 147s-64.667 85.334 -104 119.001s-83.166 60.167 -131.499 79.5s-100.833 29 -157.5 29c-84 0 -157.667 -18.667 -221 -56s-116 -86 -158 -146s-73.5 -127.5 -94.5 -202.5s-31.5 -150.5 -31.5 -226.5z" />
    <glyph glyph-name="R" unicode="R" horiz-adv-x="1286" 
d="M113 0l0.000976562 68.002c38.667 1.33301 67.667 8.33301 87 21s33 30 41 52s12.167 48.167 12.5 78.5s0.5 63.5 0.5 99.5v885c0 28 0.5 54.5 1.5 79.5s2.83301 47.833 5.5 68.5l-148 -9v91c77.333 1.33301 155 2.33301 233 3h78c52 0 104.667 -0.333008 158 -1
c98.667 -2 183.167 -11.5 253.5 -28.5s128 -41.167 173 -72.5s78 -69.333 99 -114s31.5 -95.334 31.5 -152.001c0 -40 -5.33301 -80.833 -16 -122.5s-30.334 -81.167 -59.001 -118.5s-67.834 -70.666 -117.501 -99.999s-113.5 -52 -191.5 -68
c26.667 -19.333 50.667 -44 72 -74s44.666 -65 69.999 -105l140 -219l50 -76.5c16 -23.667 33.5 -44.167 52.5 -61.5s40.333 -31 64 -41s51.5 -15 83.5 -15v-68h-258c-20 17.333 -38 34.666 -54 51.999s-31.167 35.333 -45.5 54s-28.166 37.834 -41.499 57.501l-42 63.5
l-137 219l-29 47.5c-10 17 -20.667 34.167 -32 51.5s-23.333 34.166 -36 50.499s-26 31.166 -40 44.499c-18 -1.33301 -36.333 -2 -55 -2h-14c-23.333 0 -46.666 1.33301 -69.999 4v-398c0 -37.333 -0.5 -69.333 -1.5 -96s-2.83301 -48.667 -5.5 -66l148 8v-90h-461z
M433.001 720.002l60.999 -4c8.66699 -0.666992 17.667 -1 27 -1c12 0 25 0.666992 39 2c56 2 107.167 9.16699 153.5 21.5s86.333 31.5 120 57.5s59.834 59.5 78.501 100.5s28 91.167 28 150.5c0 102.667 -29.5 180.167 -88.5 232.5s-151.5 78.5 -277.5 78.5
c-38.667 0 -67.667 -5.83301 -87 -17.5s-33 -28.167 -41 -49.5s-12.167 -47 -12.5 -77s-0.5 -63.333 -0.5 -100v-394z" />
    <glyph glyph-name="S" unicode="S" horiz-adv-x="1161" 
d="M119 420l79 0.00683594c4 -60.667 17 -113.834 39 -159.501s50.833 -83.834 86.5 -114.501s77.167 -53.834 124.5 -69.501s98 -23.5 152 -23.5c40 0 77.833 5.5 113.5 16.5s67 27.333 94 49s48.333 48.5 64 80.5s23.5 68.667 23.5 110c0 50 -11 93 -33 129
s-51.167 67.833 -87.5 95.5s-77.666 52.667 -123.999 75l-141.5 67c-48 22.333 -95.167 46 -141.5 71s-87.666 54 -123.999 87s-65.5 71.5 -87.5 115.5s-33 96.333 -33 157c0 23.333 2.66699 48.333 8 75s14.166 53.334 26.499 80.001s28.666 52.5 48.999 77.5
s45.833 47 76.5 66s67 34.167 109 45.5s90.667 17 146 17c26.667 0 55 -1.66699 85 -5s60.5 -9 91.5 -17s61.833 -18.833 92.5 -32.5s60 -30.834 88 -51.501l-8 88h104v-449h-74c-3.33301 49.333 -12.833 97.166 -28.5 143.499s-38.5 87.333 -68.5 123
s-67 64.334 -111 86.001s-96 32.5 -156 32.5c-42.667 0 -80.334 -6.5 -113.001 -19.5s-60 -30.5 -82 -52.5s-38.667 -47.5 -50 -76.5s-17 -59.5 -17 -91.5c0 -46.667 11.167 -87.167 33.5 -121.5s51.833 -64.833 88.5 -91.5s78.334 -51 125.001 -73l143 -66.5
c48.667 -22.333 96.334 -46.333 143.001 -72s88.334 -55.334 125.001 -89.001s66.167 -72.834 88.5 -117.501s33.5 -97.334 33.5 -158.001c0 -56.667 -10.667 -108.834 -32 -156.501s-52.333 -88.667 -93 -123s-90.834 -61.166 -150.501 -80.499s-127.5 -29 -203.5 -29
c-30.667 0 -62.167 2.16699 -94.5 6.5s-64.333 10.833 -96 19.5s-62.334 19.667 -92.001 33s-57.167 28.666 -82.5 45.999l10 -88h-106z" />
    <glyph glyph-name="T" unicode="T" horiz-adv-x="1311" 
d="M45 1001l12.001 432.999h1194l12 -433h-77c-1.33301 60.667 -6 113.5 -14 158.5s-22 82.333 -42 112s-47 51.834 -81 66.501s-77.333 22 -130 22l-173 -1l-3 -1115c0 -73.333 -2 -127.333 -6 -162l170 8v-90h-481v68c38 1.33301 66.667 8.66602 86 21.999
s33 31.166 41 53.499s12 48.5 12 78.5v97l3 1038l-212 -1c-43.333 0 -79.833 -7.16699 -109.5 -21.5s-53.834 -36.166 -72.501 -65.499s-32.167 -66.166 -40.5 -110.499s-12.5 -96.833 -12.5 -157.5h-76z" />
    <glyph glyph-name="U" unicode="U" horiz-adv-x="1540" 
d="M63 1346l0.00292969 88.0049h460v-68c-34.667 0 -61.5 -5.83301 -80.5 -17.5s-33 -25.834 -42 -42.501s-14.333 -34.334 -16 -53.001s-2.5 -35 -2.5 -49v-516c0 -50.667 2 -100.834 6 -150.501s11.5 -96.834 22.5 -141.501s26.333 -86 46 -124s45.167 -71 76.5 -99
s69.333 -49.833 114 -65.5s97.667 -23.5 159 -23.5c74 0 137.5 13.333 190.5 40s96.667 64.167 131 112.5s59.666 105.833 75.999 172.5s25.166 140 26.499 220l8 575c0 57.333 2 106.666 6 147.999l-147 -9v91h381v-68c-38.667 -1.33301 -67.834 -8.5 -87.501 -21.5
s-33.5 -30.5 -41.5 -52.5s-12.167 -48 -12.5 -78s-0.5 -63.333 -0.5 -100l-4 -475c-0.666992 -89.333 -10.5 -174.5 -29.5 -255.5s-50 -152.333 -93 -214s-99.5 -110.834 -169.5 -147.501s-156.333 -55 -259 -55c-109.333 0 -201 14.333 -275 43
s-133.5 72.834 -178.5 132.501s-77.167 135.5 -96.5 227.5s-29 201.333 -29 328v416c0 18 0.166992 38 0.5 60s1 44 2 66s1.83301 42.833 2.5 62.5s1.66699 36.167 3 49.5z" />
    <glyph glyph-name="V" unicode="V" horiz-adv-x="1337" 
d="M-8 1343v90.998h475v-68l-2 -2c-34 -2 -61 -8.33301 -81 -19s-34 -25.334 -42 -44.001c-5.33301 -12 -8 -26 -8 -42c0 -7.33301 0.666992 -15.666 2 -24.999c4 -26.667 13 -57 27 -91l47 -118.5l46.5 -115.5l48 -118l52.5 -125l49.5 -114l46 -107l40 -96
c12.333 -30 22.5 -56.333 30.5 -79h4l319 902c30.667 88 54 148 70 180l-157 -9v91h415v-68c-30 -1.33301 -56.333 -5.66602 -79 -12.999s-42.667 -18.833 -60 -34.5s-33 -36 -47 -61s-32.5 -69.833 -55.5 -134.5l-86 -239l-95 -261.5l-101.5 -278l-133 -364.5h-57
l-465 1089c-15.333 34.667 -28 65.834 -38 93.501s-18.5 52.667 -25.5 75s-12.333 42.5 -16 60.5s-6.5 34.667 -8.5 50z" />
    <glyph glyph-name="W" unicode="W" horiz-adv-x="2038" 
d="M14 1343l0.00292969 91h497v-68c-40 -2 -71.5 -7 -94.5 -15s-39.167 -20.667 -48.5 -38c-7.33301 -14 -11 -31.333 -11 -52c0.666992 -4.66699 1 -9.66699 1 -15c2.66699 -28 9.33398 -62.333 20.001 -103c38 -124.667 85.833 -270.5 143.5 -437.5l101.5 -293
c10 -28.333 20 -58.5 30 -90.5h4l22 73l23.5 76l68.5 214l84.5 261l52 159.5l105.5 332.5h66c66.667 -210.667 108.667 -341.334 126 -392.001l122.5 -364c64.333 -192 106.166 -320.333 125.499 -385h5l259.5 789.5c31.667 98.333 52.667 161 63 188
s22.166 52.167 35.499 75.5l-164 -7v91h416v-68c-34.667 -4 -63.334 -10.167 -86.001 -18.5s-42.834 -23.166 -60.501 -44.499s-34.667 -51 -51 -89s-75.166 -209 -176.499 -513s-184.333 -544.333 -249 -721h-61l-383 1095l-361 -1095h-59l-397.5 1184.5
c-9.66699 27.667 -18 52.5 -25 74.5s-12.833 41.833 -17.5 59.5s-8.33398 34.167 -11.001 49.5z" />
    <glyph glyph-name="X" unicode="X" horiz-adv-x="1329" 
d="M18 1343l-0.000976562 91h530v-68l-90 -4c-37.333 -2 -62.833 -8.16699 -76.5 -18.5s-20.334 -23.166 -20.001 -38.499s5.66602 -32.666 15.999 -51.999s21.5 -38.333 33.5 -57l144 -211.5l111 -154.5c182.667 262.667 281.834 404.5 297.501 425.5
s30.334 39.833 44.001 56.5s25.834 30 36.501 40l-172 -9v91h403v-68c-32.667 -4.66699 -63.667 -16.334 -93 -35.001s-57.333 -41.334 -84 -68.001s-51.834 -56 -75.501 -88l-299.5 -422l360 -477l141 -190l119 4v-90h-502v68c7.33301 -0.666992 14 -1 20 -1
c29.333 -0.666992 51.666 3 66.999 11c18.667 9.33301 30 21.5 34 36.5s2.16699 31.667 -5.5 50s-17.5 35.833 -29.5 52.5l-300 398l-280.5 -416.5c-26.333 -39.667 -56.166 -79.167 -89.499 -118.5l170 10v-90h-403v68c32.667 6.66699 61.334 16.834 86.001 30.501
s47.667 30.667 69 51s42 44.166 62 71.499l65 92l265 381l-198.5 279l-138 195l-48 73c-13 20.667 -23.5 39 -31.5 55s-15.667 33.333 -23 52z" />
    <glyph glyph-name="Y" unicode="Y" horiz-adv-x="1298" 
d="M-12 1343v91.0029h528v-68c-47.333 0 -83.333 -5.5 -108 -16.5s-40.667 -26.167 -48 -45.5c-2.66699 -8.66699 -4 -18.334 -4 -29.001c0 -12.667 2.66699 -26.667 8 -42c8.66699 -27.333 23.334 -57.333 44.001 -90l72 -115.5l68 -107.5l70.5 -108l80.5 -116h4l273 516
c29.333 53.333 48.666 87 57.999 101s19 26.333 29 37l-162 -7v91h418v-68c-34 -2 -64.333 -8.66699 -91 -20s-51.667 -27.833 -75 -49.5s-45.833 -48.667 -67.5 -81s-130.5 -232.833 -326.5 -601.5c-0.666992 -66 -1 -144 -1 -234c-0.666992 -30.667 -1 -56 -1 -76
c0 -40 0.333008 -60 1 -60c0 -73.333 -2 -127.333 -6 -162l170 8v-90h-481v68c38 1.33301 66.667 8.66602 86 21.999s33 31.166 41 53.499s12 48.5 12 78.5v97l1 234l-355 563c-35.333 54.667 -61.333 100.5 -78 137.5s-27.667 68.5 -33 94.5z" />
    <glyph glyph-name="Z" unicode="Z" horiz-adv-x="1249" 
d="M88 0l0.00195312 94.001l131 184l163.5 234.5l198 295.5l234.5 366l61 92.5c21.333 31 44.666 61.5 69.999 91.5l-522 -8c-40.667 -2 -76 -9.83301 -106 -23.5s-55 -34.334 -75 -62.001s-35 -62.5 -45 -104.5s-15 -92 -15 -150h-70l12 424h1016v-72l-735 -1116l-41.5 -58
c-12.333 -16.667 -24 -31.667 -35 -45s-21.667 -25.333 -32 -36l-31.5 -31l498 8c44.667 0.666992 86.5 7.66699 125.5 21s72.667 33.833 101 61.5s50.666 62.5 66.999 104.5s24.5 91.667 24.5 149h69l-12 -420h-1051z" />
    <glyph glyph-name="bracketleft" unicode="[" horiz-adv-x="735" 
d="M162 -522l2 2068h543v-123l-390 -6l-9 -1810l403 -6v-123h-549z" />
    <glyph glyph-name="backslash" unicode="\" horiz-adv-x="1413" 
d="M43 1473l1210 -2029l119 75l-1197 2037z" />
    <glyph glyph-name="bracketright" unicode="]" horiz-adv-x="735" 
d="M25 1423v123h549l-2 -2068h-543v123l390 6l9 1810z" />
    <glyph glyph-name="asciicircum" unicode="^" horiz-adv-x="1686" 
d="M123 904l631 563h182l627 -573h-181l-545 500l-546 -490h-168z" />
    <glyph glyph-name="underscore" unicode="_" horiz-adv-x="1493" 
d="M117 -102l1259 -9v-116h-1259v125z" />
    <glyph glyph-name="grave" unicode="`" horiz-adv-x="516" 
d="M93 1493c0 8.66699 1.16699 16.666 3.5 23.999s6.83301 15.333 13.5 24s15.167 15.167 25.5 19.5s21 6.5 32 6.5s24 -3.83301 39 -11.5s30.167 -22.5 45.5 -44.5l172 -276l-57 -47l-230 217c-17.333 18 -29 34.667 -35 50c-2 4.66699 -4 10.334 -6 17.001
s-3 13.667 -3 21z" />
    <glyph glyph-name="a" unicode="a" horiz-adv-x="1057" 
d="M70 210c0 42 9.16602 80.3398 27.499 115.007s43 65.5 74 92.5s67.167 50.333 108.5 70s85.333 35.834 132 48.501c46.667 13.333 94 22.666 142 27.999c43.333 5.33301 85.333 7.66602 126 6.99902h15v128c0 35.333 -2 69.666 -6 102.999s-12.833 63.666 -26.5 90.999
s-35 49 -64 65s-62.5 24 -100.5 24c-22 0 -43 -1.83301 -63 -5.5s-39.667 -9.83398 -59 -18.501s-36.833 -20 -52.5 -34s-28.5 -30.667 -38.5 -50c10 -11.333 16.833 -23.833 20.5 -37.5s5.5 -26.834 5.5 -39.501c0 -8 -1.66699 -17.167 -5 -27.5s-8.5 -20 -15.5 -29
s-16 -16.333 -27 -22s-25.833 -8.5 -44.5 -8.5c-26.667 0 -47.834 9.83301 -63.501 29.5s-23.5 43.5 -23.5 71.5c0 34 10 66 30 96s48 56.167 84 78.5s78.833 39.833 128.5 52.5s103.834 19 162.501 19c114.667 0 199.167 -30.333 253.5 -91s81.166 -157 80.499 -289
l-2 -460c0 -21.333 -0.5 -42.833 -1.5 -64.5s-3.16699 -46.5 -6.5 -74.5l145 8v-86h-293c-4 23.333 -7 43.666 -9 60.999s-3.66699 35.666 -5 54.999c-46 -46 -96.167 -82.333 -150.5 -109s-111.833 -40 -172.5 -40c-51.333 0 -96.166 6.16699 -134.499 18.5
s-70.166 29.5 -95.499 51.5s-44.333 47.833 -57 77.5s-19 61.5 -19 95.5zM264.999 235.007c0.666992 -25.333 5.5 -47.502 14.5 -66.502s20.667 -34.667 35 -47s30.833 -21.666 49.5 -27.999s38.667 -9.5 60 -9.5c27.333 0 53 2.66699 77 8s46.833 13.166 68.5 23.499
s42.667 22.833 63 37.5s40.833 31.667 61.5 51v297c-31.333 -1.33301 -63.833 -4.16602 -97.5 -8.49902s-66.667 -11 -99 -20s-62.833 -20.5 -91.5 -34.5s-53.667 -30.667 -75 -50s-38 -41.666 -50 -66.999c-10.667 -23.333 -16 -49 -16 -77v-9z" />
    <glyph glyph-name="b" unicode="b" horiz-adv-x="1192" 
d="M16 1405l-0.00292969 86.001c44.667 0 81.834 1.5 111.501 4.5s53.834 7.16699 72.501 12.5s33.334 11.166 44.001 17.499s20 13.166 28 20.499h59v-611c38 38 83.167 67.833 135.5 89.5s110.833 32.5 175.5 32.5c65.333 0 126.166 -12.167 182.499 -36.5
s105.333 -59 147 -104s74.334 -99.667 98.001 -164s35.5 -136.5 35.5 -216.5c0 -87.333 -14.833 -166 -44.5 -236s-69 -129.667 -118 -179s-105.667 -87.333 -170 -114s-130.833 -40 -199.5 -40c-23.333 0 -48 1.83301 -74 5.5s-52.333 10.334 -79 20.001
s-52.667 22.5 -78 38.5s-48.666 36.333 -69.999 61l-49 -92h-72l4 1280c0 21.333 0.166992 42 0.5 62s2.16602 43.667 5.49902 71zM330.997 322.001c0 -54.667 6.66504 -99.499 19.998 -134.499s31.333 -62.667 54 -83s48.5 -34.333 77.5 -42s59.167 -11.5 90.5 -11.5
c49.333 0 93.833 10.5 133.5 31.5s73.334 50.667 101.001 89s49 84.166 64 137.499s22.5 112.333 22.5 177c0 68.667 -6.5 131.834 -19.5 189.501s-32.5 107.167 -58.5 148.5s-58.667 73.666 -98 96.999s-85.666 35 -138.999 35c-45.333 0 -90 -10.5 -134 -31.5
s-82 -49.167 -114 -84.5v-518z" />
    <glyph glyph-name="c" unicode="c" horiz-adv-x="1090" 
d="M84 494c0 47.333 5.82812 94.002 17.4951 140.002s28.5 89.833 50.5 131.5s48.667 80.334 80 116.001s66.833 66.5 106.5 92.5s83 46.333 130 61s96.833 22 149.5 22c56.667 0 108.334 -7 155.001 -21s86.667 -32.667 120 -56s59 -50.166 77 -80.499
s27 -62.166 27 -95.499c0 -29.333 -8.16699 -54.5 -24.5 -75.5s-39.833 -31.833 -70.5 -32.5c-18 -0.666992 -33 2.16602 -45 8.49902s-21.667 14.166 -29 23.499s-12.666 19.5 -15.999 30.5s-5 20.833 -5 29.5c0 13.333 2.16699 27.333 6.5 42s12.5 28.334 24.5 41.001
c-9.33301 24 -23 43.167 -41 57.5s-37.5 25.5 -58.5 33.5s-42 13.167 -63 15.5s-38.5 3.5 -52.5 3.5c-46.667 0 -90.167 -9.5 -130.5 -28.5s-75.166 -46.833 -104.499 -83.5s-52.5 -82.334 -69.5 -137.001s-25.5 -117.334 -25.5 -188.001c0 -68 8.5 -130.833 25.5 -188.5
s40.833 -107.334 71.5 -149.001s67.667 -74.167 111 -97.5s91.333 -35 144 -35c32 0 63.667 4.5 95 13.5s61 21.5 89 37.5s53.833 34.667 77.5 56s43.834 44.333 60.501 69l53 -41c-27.333 -42.667 -58.5 -79.167 -93.5 -109.5s-71.667 -55.333 -110 -75
s-77 -34.167 -116 -43.5s-75.833 -14 -110.5 -14c-69.333 0 -134.666 11.833 -195.999 35.5s-115 58 -161 103s-82.333 100.167 -109 165.5s-40 139.666 -40 222.999z" />
    <glyph glyph-name="d" unicode="d" horiz-adv-x="1225" 
d="M86 483c0 83.333 13.1689 160.167 39.502 230.5s62.833 131 109.5 182s102.167 90.667 166.5 119s134.5 42.5 210.5 42.5c22.667 0 45.334 -1.66699 68.001 -5s44.5 -7.66602 65.5 -12.999s40.5 -11.333 58.5 -18s33.667 -13.667 47 -21l1 280
c0 21.333 0.166992 42 0.5 62s2.16602 43.667 5.49902 71l-145 -8v86c44.667 0 81.667 1.5 111 4.5s53.333 7.16699 72 12.5s33.167 11.166 43.5 17.499s19.5 13.166 27.5 20.499h59v-1329c0 -21.333 -0.5 -42.833 -1.5 -64.5s-3.16699 -46.5 -6.5 -74.5l145 8v-86h-293
c-3.33301 20 -6 38.667 -8 56s-3.66699 34.333 -5 51c-39.333 -42.667 -86.833 -76.667 -142.5 -102s-117.834 -38 -186.501 -38c-63.333 0 -121.833 12 -175.5 36s-100.334 58.333 -140.001 103s-70.667 98.834 -93 162.501s-33.5 135.167 -33.5 214.5zM297.002 502.001
c0 -55.333 7.50098 -111.499 22.501 -168.499s35.333 -104.667 61 -143s57 -68.333 94 -90s79.5 -32.5 127.5 -32.5c22.667 0 45.667 3.33301 69 10s45.833 16 67.5 28s42 26.167 61 42.5s36.167 34.166 51.5 53.499c-0.666992 16.667 -1 34.334 -1 53.001v60l1 590
c-32.667 25.333 -68.334 43.5 -107.001 54.5s-78.334 16.5 -119.001 16.5c-51.333 0 -97.666 -11.333 -138.999 -34s-76.5 -54.834 -105.5 -96.501s-50.167 -89.167 -63.5 -142.5s-20 -120.333 -20 -201z" />
    <glyph glyph-name="e" unicode="e" horiz-adv-x="1110" 
d="M86 510c0 72 12.3359 140.835 37.0029 206.502s59.667 123.834 105 174.501s99.666 91 162.999 121s133.666 45 210.999 45c56.667 0 110.167 -9.33301 160.5 -28s94.5 -46.667 132.5 -84s68 -84.5 90 -141.5s33 -123.5 33 -199.5l-721 -12v-12c0 -74 6 -141.333 18 -202
c12.667 -64 32.667 -118.667 60 -164s62.5 -80.333 105.5 -105s94.5 -37 154.5 -37c32 0 64.667 4.33301 98 13s65.5 20.5 96.5 35.5s59.5 33 85.5 54s47.667 43.5 65 67.5l50 -41c-28 -42.667 -60.5 -78.834 -97.5 -108.501s-75.333 -53.834 -115 -72.501
s-79.5 -32.167 -119.5 -40.5s-77.333 -12.5 -112 -12.5c-70.667 0 -136.5 12.667 -197.5 38s-113.833 61.666 -158.5 108.999s-79.834 104.333 -105.501 171s-38.5 141.667 -38.5 225zM303.003 678.002h522c0 36 -4 71.833 -12 107.5s-20.833 67.667 -38.5 96
s-40.5 51.333 -68.5 69s-62 26.5 -102 26.5c-80 0 -146 -23.5 -198 -70.5s-86.333 -123.167 -103 -228.5z" />
    <glyph glyph-name="f" unicode="f" horiz-adv-x="692" 
d="M51 932l0.000976562 91.9971h168v43c0 76 6.5 144.167 19.5 204.5s34.167 111.5 63.5 153.5s67.5 74.333 114.5 97s104.167 34 171.5 34c22 0 45.833 -2.83301 71.5 -8.5s49.334 -14.667 71.001 -27s39.834 -28 54.501 -47s22 -41.833 22 -68.5
c0 -27.333 -8 -49.666 -24 -66.999s-36.333 -26 -61 -26c-17.333 0 -31.333 2.83301 -42 8.5s-19.5 12.834 -26.5 21.501s-12 18 -15 28s-4.5 19 -4.5 27s0.833008 16.167 2.5 24.5s4.5 16.833 8.5 25.5c-10 13.333 -23.5 22.666 -40.5 27.999s-32.833 8 -47.5 8
c-32 0 -58.333 -7.16699 -79 -21.5s-37 -33.166 -49 -56.499s-20.5 -49.5 -25.5 -78.5s-7.5 -58.167 -7.5 -87.5v-215h276v-80l-276 -5l2 -722c0 -27.333 -0.333008 -51.5 -1 -72.5s-3.33398 -43.167 -8.00098 -66.5l129 6v-84h-417v61c31.333 0 55.166 6.16699 71.499 18.5
s28.166 29.5 35.499 51.5s11.333 48.333 12 79s1 64.334 1 101.001l-2 624z" />
    <glyph glyph-name="g" unicode="g" horiz-adv-x="1133" 
d="M72 -278c0 31.333 6.00391 60.0029 18.0039 86.0029s27.167 49.333 45.5 70s38.666 38.5 60.999 53.5s43.833 27.167 64.5 36.5c-44 13.333 -78.667 32.5 -104 57.5s-38 59.5 -38 103.5c0 24 5 47.5 15 70.5s24 44.167 42 63.5s39.5 35.666 64.5 48.999
s52.5 22.666 82.5 27.999c-31.333 14.667 -59.666 32.5 -84.999 53.5s-47 44.667 -65 71s-31.833 55.166 -41.5 86.499s-14.5 65 -14.5 101c0 61.333 12.5 117 37.5 167s57.667 92.667 98 128s86.333 62.5 138 81.5s104.167 28.5 157.5 28.5c46 0 91.333 -6.5 136 -19.5
s86 -32.167 124 -57.5c10 28.667 23.667 55.334 41 80.001s36.833 45.834 58.5 63.501s45.167 31.5 70.5 41.5s51.666 15 78.999 15c34.667 0 61.5 -9 80.5 -27s28.5 -43 28.5 -75c0 -8 -1.66699 -17 -5 -27s-8.5 -19.333 -15.5 -28s-16.167 -16 -27.5 -22
s-25 -8.66699 -41 -8c-23.333 0.666992 -42.333 7.83398 -57 21.501s-24 30.5 -28 50.5c-17.333 -2.66699 -32.666 -8.16699 -45.999 -16.5s-25 -18.833 -35 -31.5s-18.167 -26.5 -24.5 -41.5s-11.166 -30.167 -14.499 -45.5c34 -31.333 60.833 -68 80.5 -110
s29.5 -86.667 29.5 -134c0 -58 -11.833 -111.167 -35.5 -159.5s-55.5 -90 -95.5 -125s-86.167 -62.167 -138.5 -81.5s-107.166 -29 -164.499 -29c-25.333 0 -47.833 1.66699 -67.5 5s-42.834 5 -69.501 5c-25.333 0 -48.5 -3.33301 -69.5 -10s-38.667 -15.834 -53 -27.501
s-23.833 -23 -28.5 -34s-7 -20.5 -7 -28.5s1.33301 -16.333 4 -25c4.66699 -16 15.5 -29 32.5 -39s39.167 -17.833 66.5 -23.5s59.833 -9.83398 97.5 -12.501s80.167 -5 127.5 -7c78.667 -3.33301 149.167 -10.833 211.5 -22.5s115.166 -29.334 158.499 -53.001
s76.5 -54.334 99.5 -92.001s34.5 -84.167 34.5 -139.5s-14.833 -104.166 -44.5 -146.499s-68.334 -78 -116.001 -107s-101.334 -51 -161.001 -66s-119.834 -22.5 -180.501 -22.5c-92 0 -170.5 8 -235.5 24s-117.833 37.167 -158.5 63.5s-70.334 56 -89.001 89
s-28 66.5 -28 100.5zM233.004 -253.997c0 -34 8.16895 -64.502 24.502 -91.502s39.666 -50.167 69.999 -69.5s67 -34.166 110 -44.499s90.833 -15.5 143.5 -15.5c58.667 0 111.167 6 157.5 18s85.5 28 117.5 48s56.333 43.167 73 69.5s25 54.166 25 83.499
c0 38 -9.83301 68.833 -29.5 92.5s-47 42.334 -82 56.001s-76.333 23.334 -124 29.001s-99.834 9.5 -156.501 11.5c-38 1.33301 -74.667 3 -110 5s-69 5.66699 -101 11c-38 -24.667 -67.167 -54.667 -87.5 -90s-30.5 -73 -30.5 -113zM313.006 696.001
c0 -49.333 5.33398 -94.168 16.001 -134.501s26.334 -75.166 47.001 -104.499s46 -52 76 -68s64 -24 102 -24s71.167 7 99.5 21s52 33.5 71 58.5s33.333 54.667 43 89s14.5 71.5 14.5 111.5c0 44.667 -5 87.667 -15 129s-25 77.5 -45 108.5s-44.833 55.833 -74.5 74.5
s-64.167 28 -103.5 28c-36.667 0 -69.334 -7.33301 -98.001 -22s-52.834 -35 -72.501 -61s-34.667 -56.667 -45 -92s-15.5 -73.333 -15.5 -114z" />
    <glyph glyph-name="h" unicode="h" horiz-adv-x="1227" 
d="M53 1405l-0.00292969 85.999c44.667 0 81.834 1.5 111.501 4.5s53.834 7.16699 72.501 12.5s33.334 11.166 44.001 17.499s20 13.166 28 20.499h59v-624c22.667 18.667 47.334 36.334 74.001 53.001s54.5 31 83.5 43s58.667 21.5 89 28.5s60.166 10.5 89.499 10.5
c59.333 0 110.333 -9.16699 153 -27.5s77.5 -46.333 104.5 -84s47 -85.334 60 -143.001s19.833 -125.5 20.5 -203.5l2 -382c0 -27.333 -0.333008 -51.5 -1 -72.5s-3 -43.167 -7 -66.5l129 6v-84h-418v61c31.333 0 55.166 6.16699 71.499 18.5s28.166 29.5 35.499 51.5
s11.5 48.333 12.5 79s1.5 64.334 1.5 101.001v286c0 118 -18.667 206.167 -56 264.5s-96.666 87.5 -177.999 87.5c-23.333 0 -48 -3.33301 -74 -10s-50.5 -15.667 -73.5 -27s-44.667 -24.666 -65 -39.999s-38.166 -32 -53.499 -50v-605c0 -27.333 -0.666992 -51.5 -2 -72.5
s-4 -43.167 -8 -66.5l129 6v-84h-418v61c31.333 0 55.333 6.16699 72 18.5s28.834 29.5 36.501 51.5s12 48.333 13 79s1.5 64.334 1.5 101.001v969c0 21.333 0.166992 42 0.5 62s2.16602 43.667 5.49902 71z" />
    <glyph glyph-name="i" unicode="i" horiz-adv-x="575" 
d="M74 903l0.00195312 86.001c44.667 0 81.667 1.5 111 4.5s53.333 7.16699 72 12.5s33.167 11.166 43.5 17.499s19.5 13.166 27.5 20.499h59v-827c0 -27.333 -0.333008 -51.5 -1 -72.5s-3 -43.167 -7 -66.5l129 6v-84h-418v61c31.333 0 55.166 6.16699 71.499 18.5
s28.166 29.5 35.499 51.5s11.5 48.333 12.5 79s1.5 64.334 1.5 101.001v467c0 21.333 0.5 42 1.5 62s3.16699 43.667 6.5 71zM185.002 1368c0 17.333 3.00098 33.5 9.00098 48.5s14.167 28.167 24.5 39.5s22.166 20.166 35.499 26.499s27.666 9.5 42.999 9.5
s29.5 -3.16699 42.5 -9.5s24.5 -15.166 34.5 -26.499s17.833 -24.5 23.5 -39.5s8.5 -31.167 8.5 -48.5c0 -16.667 -3.16699 -32.334 -9.5 -47.001s-14.5 -27.5 -24.5 -38.5s-21.667 -19.5 -35 -25.5s-27.333 -9 -42 -9s-28.667 3 -42 9s-25.166 14.5 -35.499 25.5
s-18.333 23.833 -24 38.5s-8.5 30.334 -8.5 47.001z" />
    <glyph glyph-name="j" unicode="j" horiz-adv-x="526" 
d="M-180 -441c0 25.333 8.16406 47.832 24.4971 67.499s37.5 29.5 63.5 29.5c16.667 0 30.667 -2.83301 42 -8.5s20.5 -12.834 27.5 -21.501s12 -18.167 15 -28.5s4.5 -19.5 4.5 -27.5v-9.5c0 -3 -0.333008 -6.16699 -1 -9.5c19.333 -8 36.666 -12 51.999 -12
c8.66699 0 20.334 1.83301 35.001 5.5s31 13.5 49 29.5c22.667 21.333 38.167 53.833 46.5 97.5s12.5 94.167 12.5 151.5l4 955c0 21.333 0.166992 42 0.5 62s2.16602 43.667 5.49902 71l-145 -8v86c44.667 0 81.834 1.5 111.501 4.5s53.834 7 72.501 12
s33.334 10.833 44.001 17.5s20 13.667 28 21h59v-1051c0 -95.333 -9.83301 -177.5 -29.5 -246.5s-47 -125.833 -82 -170.5s-76.167 -77.667 -123.5 -99s-98.666 -32 -153.999 -32c-28 0 -52.333 3.16699 -73 9.5s-37.5 14.833 -50.5 25.5s-22.667 22.834 -29 36.501
s-9.5 27.834 -9.5 42.501zM160.997 1368c0 17.333 3.00098 33.5 9.00098 48.5s14.167 28.167 24.5 39.5s22.166 20.166 35.499 26.499s27.666 9.5 42.999 9.5s29.5 -3.16699 42.5 -9.5s24.5 -15.166 34.5 -26.499s17.833 -24.5 23.5 -39.5s8.5 -31.167 8.5 -48.5
c0 -16.667 -3.16699 -32.334 -9.5 -47.001s-14.5 -27.5 -24.5 -38.5s-21.667 -19.5 -35 -25.5s-27.333 -9 -42 -9s-28.667 3 -42 9s-25.166 14.5 -35.499 25.5s-18.333 23.833 -24 38.5s-8.5 30.334 -8.5 47.001z" />
    <glyph glyph-name="k" unicode="k" horiz-adv-x="1100" 
d="M53 1405l0.00683594 86.001c44.667 0 81.667 1.5 111 4.5s53.333 7.16699 72 12.5s33.167 11.166 43.5 17.499s19.5 13.166 27.5 20.499h59v-968h82l250 262l63 62.5c19.333 18.333 38.666 33.5 57.999 45.5l-140 -6v82h373v-61
c-34.667 -4 -67.834 -13.833 -99.501 -29.5s-61.334 -34.167 -89.001 -55.5s-53.167 -43.666 -76.5 -66.999l-63 -63l-159 -168c26.667 -12.667 49.667 -28.334 69 -47.001s38.666 -40 57.999 -64l145 -186l20.5 -28c9.66699 -13.333 21 -28.166 34 -44.499
s27.5 -33.333 43.5 -51s32.5 -33.834 49.5 -48.501s34 -26.667 51 -36s33.5 -14 49.5 -14v-61h-186c-18.667 0 -37 5.5 -55 16.5s-35.833 25.5 -53.5 43.5s-35.334 38.5 -53.001 61.5l-54.5 71.5l-137 190.5c-37.333 53.667 -69.333 93.167 -96 118.5l-84 -4v-281
c0 -27.333 -0.333008 -51.5 -1 -72.5s-3 -43.167 -7 -66.5l131 6v-84h-418v61c31.333 0 55.166 6.16699 71.499 18.5s28 29.5 35 51.5s11.167 48.333 12.5 79s2 387.334 2 1070c0 21.333 0.166992 42 0.5 62s2.16602 43.667 5.49902 71z" />
    <glyph glyph-name="l" unicode="l" horiz-adv-x="557" 
d="M51 1405v86.001c44.667 0 81.834 1.5 111.501 4.5s53.834 7.16699 72.501 12.5s33.334 11.166 44.001 17.499s20 13.166 28 20.499h59l2 -1329c0 -27.333 -0.666992 -51.5 -2 -72.5s-4 -43.167 -8 -66.5l129 6v-84h-418v61c31.333 0 55.166 6.16699 71.499 18.5
s28.166 29.5 35.499 51.5s11.5 48.333 12.5 79s1.5 64.334 1.5 101.001v969c0 21.333 0.166992 42 0.5 62s2.16602 43.667 5.49902 71z" />
    <glyph glyph-name="m" unicode="m" horiz-adv-x="1831" 
d="M74 903l0.0078125 85.9961c44.667 0 81 1.5 109 4.5s50.5 7.16699 67.5 12.5s30.167 11.166 39.5 17.499s18 13.166 26 20.499h59c1.33301 -13.333 2.66602 -28.666 3.99902 -45.999s2.66602 -38.333 3.99902 -63c20.667 17.333 43 33.5 67 48.5s48.833 28 74.5 39
s52 19.5 79 25.5s53.833 9 80.5 9c69.333 0 127 -12.5 173 -37.5s82 -58.5 108 -100.5c22.667 19.333 47.667 37.333 75 54s55.666 31.334 84.999 44.001s59.333 22.5 90 29.5s60.667 10.5 90 10.5c59.333 0 110.833 -8.66699 154.5 -26s79.667 -44.5 108 -81.5
s49.166 -84.5 62.499 -142.5c12 -52.667 17.667 -114.667 17 -186v-22l-2 -382c0 -27.333 -0.333008 -51.5 -1 -72.5s-3 -43.167 -7 -66.5l129 6v-84h-418v61c31.333 0 55.166 6.16699 71.499 18.5s28.166 29.5 35.499 51.5s11.5 48.333 12.5 79s1.5 64.334 1.5 101.001v286
c0 118 -18.667 206.167 -56 264.5s-96.666 87.5 -177.999 87.5c-42.667 0 -85.167 -9.66699 -127.5 -29s-79.166 -43.333 -110.499 -72c14 -46 21 -95.667 21 -149l-4 -482c0 -27.333 -0.333008 -51.5 -1 -72.5s-3 -43.167 -7 -66.5l129 6v-84h-418v61
c31.333 0 55.166 6.16699 71.499 18.5s28 29.5 35 51.5s11 48.333 12 79s1.83301 64.334 2.5 101.001l2 286v7c0 114 -17.333 200.333 -52 259c-34.667 60 -92.334 90 -173.001 90c-42 0 -83.5 -9.16699 -124.5 -27.5s-75.833 -42.166 -104.5 -71.499
c0 -16 0.166992 -33.167 0.5 -51.5s0.5 -37.833 0.5 -58.5v-527c0 -27.333 -0.333008 -51.5 -1 -72.5s-3 -43.167 -7 -66.5l129 6v-84h-418v61c31.333 0 55.166 6.16699 71.499 18.5s28.166 29.5 35.499 51.5s11.5 48.333 12.5 79s1.5 64.334 1.5 101.001v467
c0 21.333 0.333008 43 1 65s3 44.667 7 68z" />
    <glyph glyph-name="n" unicode="n" horiz-adv-x="1243" 
d="M76 903l0.00292969 86c44.667 0 81 1.5 109 4.5s50.5 7.16699 67.5 12.5s30.167 11.166 39.5 17.499s18 13.166 26 20.499h59l4.5 -52.5c1.66699 -19.667 3.16699 -43.5 4.5 -71.5c22 19.333 46.167 37.333 72.5 54s53.833 31.167 82.5 43.5s58.167 22 88.5 29
s60.166 10.5 89.499 10.5c118.667 0 205.334 -37.167 260.001 -111.5s82 -189.833 82 -346.5v-382c0 -27.333 -0.333008 -51.5 -1 -72.5s-3 -43.167 -7 -66.5l129 6v-84h-418v61c31.333 0 55.166 6.16699 71.499 18.5s28.166 29.5 35.499 51.5s11.5 48.333 12.5 79
s1.5 64.334 1.5 101.001v286c-1.33301 118 -20.666 206.833 -57.999 266.5s-96.666 89.5 -177.999 89.5c-24.667 0 -49.334 -3.66699 -74.001 -11s-48.334 -16.833 -71.001 -28.5s-44 -25.5 -64 -41.5s-37.333 -33.333 -52 -52c0.666992 -12 1 -24.833 1 -38.5v-41.5
l-2 -523c0 -27.333 -0.333008 -51.5 -1 -72.5s-3 -43.167 -7 -66.5l129 6v-84h-418v61c31.333 0 55.166 6.16699 71.499 18.5s28 29.5 35 51.5s11 48.333 12 79s1.83301 64.334 2.5 101.001l2 467c0 21.333 0.333008 43 1 65s3 44.667 7 68z" />
    <glyph glyph-name="o" unicode="o" horiz-adv-x="1198" 
d="M84 487c0 80.667 13.1641 155.83 39.4971 225.497s62.5 130 108.5 181s100.333 91 163 120s130.334 43.5 203.001 43.5c72 0 139.333 -13.167 202 -39.5s117.167 -62.666 163.5 -108.999s83 -101.333 110 -165s40.5 -132.5 40.5 -206.5
c0 -79.333 -13.167 -153.666 -39.5 -222.999s-62.666 -129.666 -108.999 -180.999s-101 -91.833 -164 -121.5s-130.833 -44.5 -203.5 -44.5c-72 0 -139.167 12.833 -201.5 38.5s-116.666 61.5 -162.999 107.5s-82.833 100.833 -109.5 164.5s-40 133.5 -40 209.5z
M292.997 546.996c0 -63.333 6.50098 -124.999 19.501 -184.999s32.833 -113.167 59.5 -159.5s60.167 -83.5 100.5 -111.5s87.5 -42 141.5 -42s99.5 12.167 136.5 36.5s67 56.5 90 96.5s39.5 85.667 49.5 137s15 104 15 158c0 61.333 -5.66699 122 -17 182
s-29.333 113.667 -54 161s-56.5 85.666 -95.5 114.999s-85.833 44 -140.5 44c-54 0 -100.167 -12 -138.5 -36s-69.833 -56 -94.5 -96s-42.834 -86 -54.501 -138s-17.5 -106 -17.5 -162z" />
    <glyph glyph-name="p" unicode="p" horiz-adv-x="1223" 
d="M59 903l0.00488281 86.002c44.667 0 81 1.5 109 4.5s50.5 7.16699 67.5 12.5s30.167 11.166 39.5 17.499s17.666 13.166 24.999 20.499h60c1.33301 -13.333 2.66602 -29 3.99902 -47s2.66602 -39 3.99902 -63c20.667 18 43.5 34.667 68.5 50s51.333 28.333 79 39
s55.834 19 84.501 25s57.334 9 86.001 9c59.333 0 116.166 -11.667 170.499 -35s102.166 -56.833 143.499 -100.5s74.333 -97 99 -160s37 -134.167 37 -213.5c0 -58 -6.5 -112.667 -19.5 -164s-31.167 -98.5 -54.5 -141.5s-51.166 -81.5 -83.499 -115.5
s-67.833 -62.833 -106.5 -86.5s-79.834 -41.834 -123.501 -54.501s-88.5 -19 -134.5 -19c-94.667 0 -176.334 22.333 -245.001 67l-1 -339c0 -27.333 -0.333008 -51.5 -1 -72.5s-3 -43.167 -7 -66.5l129 6v-84h-418v61c31.333 0 55.166 6.16699 71.499 18.5s28 29.5 35 51.5
s11 48.333 12 79s1.83301 64.334 2.5 101.001l4 989c0 21.333 0.333008 43 1 65s3 44.667 7 68zM370.005 129.002c34 -25.333 71.3311 -45.001 111.998 -59.001s83.334 -21 128.001 -21c48.667 0 92.334 11.667 131.001 35s71.667 55.833 99 97.5s48.333 91 63 148
s22 119.5 22 187.5c0 55.333 -5.83301 109.333 -17.5 162s-30 99.667 -55 141s-57.167 74.5 -96.5 99.5s-87 37.5 -143 37.5c-24 0 -47.333 -3.16699 -70 -9.5s-44.334 -14.666 -65.001 -24.999s-40.167 -22.5 -58.5 -36.5s-34.5 -28.667 -48.5 -44
c0 -5.33301 0.166992 -11.5 0.5 -18.5s0.5 -18.833 0.5 -35.5v-70.5c0 -30.333 -0.166992 -71 -0.5 -122s-0.666016 -114.5 -0.999023 -190.5s-0.5 -168 -0.5 -276z" />
    <glyph glyph-name="q" unicode="q" horiz-adv-x="1180" 
d="M86 489c0 85.333 13.8359 163.002 41.5029 233.002s65.167 129.833 112.5 179.5s103 88 167 115s132.333 40.5 205 40.5c42 0 80.667 -4.5 116 -13.5s68 -16.833 98 -23.5c24.667 -5.33301 47.334 -8 68.001 -8h12c24 1.33301 45 12 63 32h57l2 -1349
c0 -27.333 -0.333008 -51.5 -1 -72.5s-3 -43.167 -7 -66.5l129 6v-84h-418v61c31.333 0 55.166 6.16699 71.499 18.5s28.166 29.5 35.499 51.5s11.5 48.333 12.5 79s1.5 64.334 1.5 101.001v307c-36 -40.667 -79.833 -72.334 -131.5 -95.001s-110.167 -34 -175.5 -34
c-64 0 -123.833 12.333 -179.5 37s-104.334 59.667 -146.001 105s-74.334 100.166 -98.001 164.499s-35.5 136.166 -35.5 215.499zM297.003 539.002c0 -66 7.16699 -127.499 21.5 -184.499s35.333 -106.833 63 -149.5s61.334 -76.167 101.001 -100.5
s84.834 -36.5 135.501 -36.5c45.333 0 88.666 11.833 129.999 35.5s76 55.167 104 94.5v537c0 41.333 -4 77.5 -12 108.5s-21.333 56.667 -40 77s-42.834 35.666 -72.501 45.999s-66.5 15.5 -110.5 15.5c-50 0 -94.833 -10.667 -134.5 -32s-73.167 -51.5 -100.5 -90.5
s-48.333 -85.667 -63 -140s-22 -114.5 -22 -180.5z" />
    <glyph glyph-name="r" unicode="r" horiz-adv-x="887" 
d="M74 905l0.00292969 84.001h63c29.333 0 53.666 1.5 72.999 4.5s35.5 7.16699 48.5 12.5s23.833 11.166 32.5 17.499s17 13.166 25 20.499h59c2 -21.333 3.83301 -47.833 5.5 -79.5s3.16699 -72.5 4.5 -122.5c15.333 25.333 35 50.833 59 76.5s51 48.667 81 69
s62.333 37 97 50s70.334 19.5 107.001 19.5c18.667 0 36.834 -2.5 54.501 -7.5s33 -12.833 46 -23.5s23.5 -24 31.5 -40s12 -35.333 12 -58c0 -9.33301 -1.83301 -19.666 -5.5 -30.999s-9.66699 -22 -18 -32s-18.833 -18.333 -31.5 -25s-28.334 -10 -47.001 -10
c-15.333 0 -29.166 3.33301 -41.499 10s-22.666 15.167 -30.999 25.5s-14.333 22.333 -18 36s-4.5 28.167 -2.5 43.5h-5c-24.667 -0.666992 -49.334 -5.66699 -74.001 -15c-26.667 -10.667 -52.834 -25.834 -78.501 -45.501s-49.834 -43.5 -72.501 -71.5s-43 -59 -61 -93
l2 -503c0 -27.333 -0.333008 -51.5 -1 -72.5s-3 -43.167 -7 -66.5l129 6v-84h-420v61c31.333 0 55.166 6.16699 71.499 18.5s28.166 29.5 35.499 51.5s11.5 48.333 12.5 79s1.5 64.334 1.5 101.001v468c0 21.333 0.333008 42.833 1 64.5s3 44.167 7 67.5z" />
    <glyph glyph-name="s" unicode="s" horiz-adv-x="948" 
d="M106 338l62.998 0.00390625c2.66699 -42.667 12.5 -81.834 29.5 -117.501s39.333 -66.334 67 -92.001s59.334 -45.667 95.001 -60s73.5 -21.5 113.5 -21.5c26 0 52.167 3.16699 78.5 9.5s50.333 16.166 72 29.499s39.334 30.166 53.001 50.499s20.5 44.5 20.5 72.5
c0 32.667 -8.5 60.5 -25.5 83.5s-39.333 43.333 -67 61s-59.334 33.5 -95.001 47.5l-109 43c-37 14.667 -73.167 30.834 -108.5 48.501s-66.833 38.5 -94.5 62.5s-50 52.667 -67 86s-25.5 73 -25.5 119c0 28.667 5.33301 60.167 16 94.5s29.334 66.5 56.001 96.5
s62.5 55.167 107.5 75.5s101.833 30.5 170.5 30.5c18.667 0 38.5 -1.33301 59.5 -4s42.5 -7.5 64.5 -14.5s44 -16.167 66 -27.5s43.667 -25.333 65 -42l-5 78h86v-359h-64c-2.66699 35.333 -9.5 70.333 -20.5 105s-27 65.834 -48 93.501s-47.5 50.167 -79.5 67.5
s-70 26 -114 26c-32 0 -60.333 -4.16699 -85 -12.5s-45.5 -19.666 -62.5 -33.999s-29.833 -30.833 -38.5 -49.5s-13 -38.334 -13 -59.001c0 -33.333 8.5 -62 25.5 -86s39.5 -45.333 67.5 -64s60 -35.5 96 -50.5l110 -46c37.333 -15.667 74 -32.334 110 -50.001
s68 -38.5 96 -62.5s50.5 -52 67.5 -84s25.5 -70 25.5 -114c0 -51.333 -10.333 -96 -31 -134s-47.834 -69.333 -81.501 -94s-71.667 -43 -114 -55s-85.166 -18 -128.499 -18c-69.333 0 -130.333 9.16699 -183 27.5s-96 39.166 -130 62.499l7 -71h-86z" />
    <glyph glyph-name="t" unicode="t" horiz-adv-x="793" 
d="M43 936l0.00292969 88.0039c36 0.666992 68.667 10.5 98 29.5s55.166 42.667 77.499 71s41.166 59.166 56.499 92.499s27.333 64.666 36 93.999h70c0 -54.667 -0.166992 -105.667 -0.5 -153s-0.5 -92 -0.5 -134h345v-80l-345 -4
c-0.666992 -88.667 -1 -164.334 -1 -227.001s-0.166992 -115 -0.5 -157s-0.5 -75.167 -0.5 -99.5s-0.166992 -42.833 -0.5 -55.5s-0.5 -20.834 -0.5 -24.501v-6.5c0 -46.667 2.5 -87.834 7.5 -123.501s13.5 -65.667 25.5 -90s27.833 -42.666 47.5 -54.999
s44.5 -18.5 74.5 -18.5c35.333 0 70.333 10.667 105 32s65.334 51.666 92.001 90.999l55 -45c-30 -45.333 -59.833 -80.833 -89.5 -106.5s-57.834 -45 -84.501 -58s-51.5 -21.167 -74.5 -24.5s-43.167 -5 -60.5 -5c-20.667 0 -41.834 1.66699 -63.501 5
s-43 9.83301 -64 19.5s-40.667 23.334 -59 41.001s-34.5 40.5 -48.5 68.5s-25 62 -33 102c-7.33301 36.667 -11 80 -11 130v12l4 592z" />
    <glyph glyph-name="u" unicode="u" horiz-adv-x="1223" 
d="M53 905l-0.0078125 84.0029h64c28.667 0 53.334 1.5 74.001 4.5s38.334 7.16699 53.001 12.5s26.834 11.166 36.501 17.499s18.5 13.166 26.5 20.499h59v-624c0 -59.333 4 -110.833 12 -154.5s20.833 -80 38.5 -109s40.5 -50.333 68.5 -64s62.333 -20.5 103 -20.5
c26 0 51.5 4.33301 76.5 13s48.833 20.334 71.5 35.001s43.834 31.334 63.501 50.001s36.5 38.667 50.5 60v85v440c0 33.333 0.666992 61.833 2 85.5s4 47.167 8 70.5l-147 -6v84h63c29.333 0 54.333 1.5 75 4.5s38.334 7.16699 53.001 12.5s26.834 11.166 36.501 17.499
s18.5 13.166 26.5 20.499h59l-2 -774c0 -10.667 -0.166992 -24.167 -0.5 -40.5s-0.833008 -33.333 -1.5 -51s-1.5 -35.334 -2.5 -53.001s-2.16699 -33.5 -3.5 -47.5l147 8v-86h-293c-3.33301 23.333 -6.16602 44.833 -8.49902 64.5s-4.16602 39.167 -5.49902 58.5
c-21.333 -21.333 -45 -41.5 -71 -60.5s-53.5 -35.5 -82.5 -49.5s-58.833 -25.167 -89.5 -33.5s-61 -12.5 -91 -12.5c-56 0 -105 7.5 -147 22.5s-77 39.833 -105 74.5s-49 80.5 -63 137.5s-21 127.833 -21 212.5v364c0 21.333 0.333008 43 1 65s3 44.667 7 68z" />
    <glyph glyph-name="v" unicode="v" horiz-adv-x="1034" 
d="M12 940l0.00195312 83.999h377v-61c-31.333 0 -53.666 -6.33301 -66.999 -19c-14 -12 -21.667 -28.667 -23 -50v-9c0.666992 -18.667 4.33398 -40 11.001 -64c8 -27.333 18.667 -56 32 -86l157 -360c10.667 -23.333 21 -47.833 31 -73.5l31 -77.5h2l23.5 64l24.5 68
l163 449c11.333 32.667 22.833 61.334 34.5 86.001l26.5 55l-131 -6v84h324v-61c-22.667 0 -42.334 -5.83301 -59.001 -17.5s-32.334 -29 -47.001 -52s-29.334 -51.833 -44.001 -86.5l-49 -121l-268 -692h-82l-293 668c-16.667 38.667 -30.5 73 -41.5 103
s-19.667 56.5 -26 79.5s-10.833 42.667 -13.5 59s-4.33398 30.5 -5.00098 42.5z" />
    <glyph glyph-name="w" unicode="w" horiz-adv-x="1640" 
d="M12 940v84.001h434v-61c-30.667 -1.33301 -54 -7.5 -70 -18.5s-26.667 -26.167 -32 -45.5c-2.66699 -10 -3.66699 -21 -3 -33c0 -11.333 1 -23.333 3 -36c4.66699 -26.667 12.667 -56.334 24 -89.001l161 -484c157.333 466.667 243 722.334 257 767.001h84l273 -782
c140 406 214.833 621.167 224.5 645.5s20.834 44.166 33.501 59.499l-119 -7v84h356v-61c-35.333 -2 -64.333 -7.16699 -87 -15.5s-41.334 -19.333 -56.001 -33s-26.834 -30 -36.501 -49s-18.834 -40.833 -27.501 -65.5l-295 -806h-82l-268 775l-266 -775h-78l-268 786
c-15.333 43.333 -27.166 77.833 -35.499 103.5s-14.166 46.5 -17.499 62.5z" />
    <glyph glyph-name="x" unicode="x" horiz-adv-x="1085" 
d="M45 940l-0.00390625 83.999h422v-61c-30.667 -1.33301 -54.834 -5.33301 -72.501 -12s-28.167 -17.167 -31.5 -31.5s0.333984 -33.166 11.001 -56.499s28.667 -52.333 54 -87l119 -162c170.667 208.667 263.334 320 278.001 334l-141 -8v84h336v-61
c-28 -8 -52.5 -17.833 -73.5 -29.5s-41 -26 -60 -43s-115.167 -128.833 -288.5 -335.5l282 -351l45.5 -59c14.333 -19.333 29.166 -41.666 44.499 -66.999l93 6v-84h-396v61c16.667 0 31.334 1.83301 44.001 5.5s21.834 9.66699 27.501 18s7 18.833 4 31.5
s-11.5 28 -25.5 46l-216 266c-139.333 -190.667 -212.166 -290 -218.499 -298s-13.166 -16 -20.499 -24l-26 -28l157 6v-84h-344v61c20.667 5.33301 39 12.333 55 21s31.167 19.667 45.5 33s113.833 139.666 298.5 378.999c-168 224 -259.333 350.333 -274 379
s-25.667 52.667 -33 72z" />
    <glyph glyph-name="y" unicode="y" horiz-adv-x="1081" 
d="M8 940l-0.000976562 83.998h424v-61l-9 -1c-28.667 -2 -50.5 -8.33301 -65.5 -19s-24.167 -25.667 -27.5 -45c-1.33301 -6.66699 -2 -13.667 -2 -21c0 -16 2.66699 -35 8 -57c7.33301 -31.333 101 -235.666 281 -612.999c142 414 217.5 631.667 226.5 653
s17.667 40 26 56s16.166 26.667 23.499 32l-141 -8v84h321v-61c-25.333 -10 -47.166 -22.833 -65.499 -38.5s-34.5 -34.667 -48.5 -57s-27 -47.833 -39 -76.5s-109.667 -298.334 -293 -809.001l-86 -229.5c-26 -67 -53.167 -123.167 -81.5 -168.5
s-59.333 -79.833 -93 -103.5s-73.167 -35.5 -118.5 -35.5c-21.333 0 -41.333 2.5 -60 7.5s-35 12.667 -49 23s-25 23.333 -33 39s-12 33.834 -12 54.501c0 12.667 2 25 6 37s9.83301 22.667 17.5 32s17 16.833 28 22.5s23.167 8.5 36.5 8.5c16 0 29.5 -3 40.5 -9
s19.833 -13.667 26.5 -23s11.334 -19.166 14.001 -29.499s4 -19.5 4 -27.5c0 -4 -0.166992 -8.5 -0.5 -13.5s-1.16602 -9.83301 -2.49902 -14.5c7.33301 -3.33301 15 -5 23 -5c12 0 27.5 5.16699 46.5 15.5s38.167 32.166 57.5 65.499c17.333 30 38.166 74.833 62.499 134.5
s51.5 131.167 81.5 214.5c-231.333 495.333 -353.333 758 -366 788s-23.167 56.333 -31.5 79s-15 42.334 -20 59.001s-8.5 30.667 -10.5 42z" />
    <glyph glyph-name="z" unicode="z" horiz-adv-x="1047" 
d="M82 0v84c413.333 532 625.166 804 635.499 816s20 22.667 29 32s16.833 16 23.5 20l-385 -6c-38 -0.666992 -69.333 -8.66699 -94 -24s-44.5 -36 -59.5 -62s-26.5 -56.5 -34.5 -91.5s-15 -72.167 -21 -111.5h-63l24 367h803v-66l-577 -759l-24.5 -31l-23.5 -27.5
c-8 -9 -16.667 -18 -26 -27s-20.333 -18.833 -33 -29.5l395 -6h5c40 0 74 7.33301 102 22c28.667 15.333 52.334 36.333 71.001 63s33.167 58 43.5 94s18.5 74.667 24.5 116h60l-25 -373h-850z" />
    <glyph glyph-name="braceleft" unicode="{" horiz-adv-x="684" 
d="M14 486v106h47c38 0 69.667 3.83301 95 11.5s45.5 19.5 60.5 35.5s25.667 36.5 32 61.5s9.5 55.167 9.5 90.5c0 54 -3.5 109.5 -10.5 166.5s-10.5 115.833 -10.5 176.5c0 72 5.83301 134.5 17.5 187.5s31.5 96.833 59.5 131.5s65.5 60.5 112.5 77.5
s105.5 25.5 175.5 25.5h57v-70h-23c-48 0 -87.5 -6.33301 -118.5 -19s-55.667 -32.334 -74 -59.001s-31 -60.167 -38 -100.5s-10.5 -88.5 -10.5 -144.5c0 -11.333 0.333008 -23.833 1 -37.5s1.66699 -28.167 3 -43.5l13 -139c3.33301 -32 6 -58.667 8 -80s2.66699 -38 2 -50
c0 -42.667 -6.5 -79.834 -19.5 -111.501s-30.167 -58.5 -51.5 -80.5s-45.833 -39.5 -73.5 -52.5s-56.167 -22.167 -85.5 -27.5v-4c29.333 -6 57.833 -16 85.5 -30s52.167 -32.5 73.5 -55.5s38.5 -50.667 51.5 -83s19.5 -69.833 19.5 -112.5
c0 -16 -0.666992 -34.833 -2 -56.5s-3 -44.834 -5 -69.501c-8.66699 -101.333 -13.667 -160.5 -15 -177.5s-2.33301 -31.167 -3 -42.5s-1.16699 -21.166 -1.5 -29.499s-0.5 -16.833 -0.5 -25.5c0 -58 3.66699 -109 11 -153s20.5 -80.833 39.5 -110.5s44.833 -52 77.5 -67
s74 -22.5 124 -22.5h12v-57h-57c-70 0 -128.5 9.33301 -175.5 28s-84.5 46.334 -112.5 83.001s-47.833 82.334 -59.5 137.001s-17.5 118 -17.5 190c0 30 1.16699 62.5 3.5 97.5l7 105.5l7 103c2.33301 33.333 3.5 63.333 3.5 90c0 34.667 -3.16699 65 -9.5 91
s-17 47.5 -32 64.5s-35.167 29.833 -60.5 38.5s-57 13 -95 13h-47z" />
    <glyph glyph-name="bar" unicode="|" horiz-adv-x="473" 
d="M162 1556h153l-8 -2111h-139z" />
    <glyph glyph-name="braceright" unicode="}" horiz-adv-x="684" 
d="M25 -498h12c50 0 91.333 7.5 124 22.5s58.5 37.333 77.5 67s32.167 66.5 39.5 110.5s11 95 11 153c0 8.66699 -0.166992 17.167 -0.5 25.5s-0.833008 18.166 -1.5 29.499s-1.66699 25.5 -3 42.5s-6.33301 76.167 -15 177.5c-2 24.667 -3.66699 47.834 -5 69.501
s-2 40.5 -2 56.5c0 42.667 6.5 80.167 19.5 112.5s30.167 60 51.5 83s45.833 41.5 73.5 55.5s56.167 24 85.5 30v4c-29.333 5.33301 -57.833 14.5 -85.5 27.5s-52.167 30.5 -73.5 52.5s-38.5 48.833 -51.5 80.5s-19.5 68.834 -19.5 111.501c-0.666992 12 0 28.667 2 50
s4.66699 48 8 80l13 139c1.33301 15.333 2.33301 29.833 3 43.5s1 26.167 1 37.5c0 56 -3.5 104.167 -10.5 144.5s-19.667 73.833 -38 100.5s-43 46.334 -74 59.001s-70.5 19 -118.5 19h-23v70h57c70 0 128.5 -8.5 175.5 -25.5s84.5 -42.833 112.5 -77.5
s47.833 -78.5 59.5 -131.5s17.5 -115.5 17.5 -187.5c0 -60.667 -3.5 -119.5 -10.5 -176.5s-10.5 -112.5 -10.5 -166.5c0 -35.333 3.16699 -65.5 9.5 -90.5s17 -45.5 32 -61.5s35.167 -27.833 60.5 -35.5s57 -11.5 95 -11.5h47v-106h-47c-38 0 -69.667 -4.33301 -95 -13
s-45.5 -21.5 -60.5 -38.5s-25.667 -38.5 -32 -64.5s-9.5 -56.333 -9.5 -91c0 -26.667 1.16699 -56.667 3.5 -90l7 -103l7 -105.5c2.33301 -35 3.5 -67.5 3.5 -97.5c0 -72 -5.83301 -135.333 -17.5 -190s-31.5 -100.334 -59.5 -137.001s-65.5 -64.334 -112.5 -83.001
s-105.5 -28 -175.5 -28h-57v57z" />
    <glyph glyph-name="asciitilde" unicode="~" horiz-adv-x="1188" 
d="M139 528l0.000976562 129.002c21.333 17.333 41.833 32.833 61.5 46.5s39.667 25.167 60 34.5s41.666 16.333 63.999 21s47.166 7 74.499 7c36.667 0 68.667 -3.83301 96 -11.5s51.666 -17.167 72.999 -28.5s40.833 -23.833 58.5 -37.5s35.667 -26.167 54 -37.5
s38 -20.833 59 -28.5s45.5 -11.5 73.5 -11.5c45.333 0 87.833 8.83301 127.5 26.5s75.834 41.5 108.501 71.5v-129c-28 -32 -62.167 -57.833 -102.5 -77.5s-87.5 -29.5 -141.5 -29.5c-34 0 -64.167 3.83301 -90.5 11.5s-50.166 17.167 -71.499 28.5
s-41.333 23.666 -60 36.999s-37.667 25.666 -57 36.999s-39.833 20.833 -61.5 28.5s-46.167 11.5 -73.5 11.5c-28 0 -53.333 -2.66699 -76 -8s-44 -12.5 -64 -21.5s-39 -19.5 -57 -31.5z" />
    <glyph glyph-name="uni00A0" unicode="&#xa0;" horiz-adv-x="539" 
 />
    <glyph glyph-name="cent" unicode="&#xa2;" horiz-adv-x="1087" 
d="M74 494c0 63.333 10.4971 126.001 31.4971 188.001s50.667 118.833 89 170.5s84.5 95.667 138.5 132s114 60.5 180 72.5l-1 217h133l-2 -217c52 -3.33301 99.167 -12.333 141.5 -27s78.5 -33.334 108.5 -56.001s53.167 -48.5 69.5 -77.5s24.5 -59.167 24.5 -90.5
c0 -14.667 -2.16699 -28.5 -6.5 -41.5s-10.5 -24.5 -18.5 -34.5s-17.833 -17.833 -29.5 -23.5s-25.167 -8.5 -40.5 -8.5c-18 0 -33 3 -45 9s-21.667 13.667 -29 23s-12.666 19.333 -15.999 30s-5 20.667 -5 30c0 13.333 2.16699 27.333 6.5 42s12.5 28.334 24.5 41.001
c-9.33301 24 -23 43.167 -41 57.5s-37.5 25.5 -58.5 33.5s-41.833 13.167 -62.5 15.5s-38.334 3.5 -53.001 3.5c-46.667 0 -90.167 -9.5 -130.5 -28.5s-75.166 -47.167 -104.499 -84.5s-52.5 -83.333 -69.5 -138s-25.5 -117.334 -25.5 -188.001c0 -68 8.5 -131 25.5 -189
s40.833 -108 71.5 -150s67.667 -74.833 111 -98.5s91.333 -35.5 144 -35.5c32 0 63.667 4.66699 95 14s61 22 89 38s53.833 34.833 77.5 56.5s43.834 44.834 60.501 69.501l53 -41c-24 -37.333 -51.167 -70.166 -81.5 -98.499s-62.166 -52.333 -95.499 -72
s-67.333 -35.334 -102 -47.001s-68.334 -19.5 -101.001 -23.5l-1 -241h-119l-1 241c-61.333 7.33301 -118.333 24.666 -171 51.999s-98.667 63.5 -138 108.5s-70.166 98.333 -92.499 160s-33.5 130.5 -33.5 206.5z" />
    <glyph glyph-name="sterling" unicode="&#xa3;" horiz-adv-x="1122" 
d="M96 43c0 18.667 4.5 37.0029 13.5 55.0029s21.333 35 37 51s34.334 30.167 56.001 42.5s45.5 22.166 71.5 29.499c15.333 24 28 51.667 38 83s15 66 15 104c0 44 -3.5 84.333 -10.5 121s-15.5 73.334 -25.5 110.001h-163v98h136c-10 40 -18.667 82.333 -26 127
s-11 96 -11 154c0 68 9.5 129.667 28.5 185s45.167 102.5 78.5 141.5s73.166 69.167 119.499 90.5s97.166 32 152.499 32c60 0 110.5 -8 151.5 -24s74 -36 99 -60s42.833 -50 53.5 -78s16 -53.667 16 -77s-7.16699 -44 -21.5 -62s-34.5 -27 -60.5 -27
c-15.333 0 -28.166 2.66699 -38.499 8s-18.833 12 -25.5 20s-11.334 16.667 -14.001 26s-4 18 -4 26c0 7.33301 1.5 17.666 4.5 30.999s10.167 26 21.5 38c-7.33301 26.667 -24.833 50.167 -52.5 70.5s-65.5 30.5 -113.5 30.5c-38.667 0 -72.5 -8 -101.5 -24
s-53.167 -37.333 -72.5 -64s-33.833 -57.334 -43.5 -92.001s-14.5 -71 -14.5 -109c0 -34.667 1.5 -67.834 4.5 -99.501s6.83301 -62.334 11.5 -92.001s9.83398 -58.667 15.501 -87l17.5 -84.5h310v-98h-293c3.33301 -24.667 6.16602 -49.5 8.49902 -74.5
s3.5 -50.833 3.5 -77.5c0 -44 -9.66699 -86.667 -29 -128s-45 -81 -77 -119c17.333 2.66699 34.833 4.66699 52.5 6s35.5 2 53.5 2c44.667 0 86.834 -6.33301 126.501 -19s76.667 -26.834 111 -42.501l94.5 -42.5c28.667 -12.667 54.667 -19 78 -19
c30.667 0 55.834 10.5 75.501 31.5s31.167 53.5 34.5 97.5h64c-1.33301 -41.333 -6.83301 -79.5 -16.5 -114.5s-23.167 -65.333 -40.5 -91s-38.833 -45.667 -64.5 -60s-54.834 -21.5 -87.501 -21.5c-28.667 0 -56.5 4.83301 -83.5 14.5s-53.667 21.834 -80 36.501
s-52.5 30.5 -78.5 47.5s-52.5 32.833 -79.5 47.5s-54.667 26.834 -83 36.501s-57.833 14.5 -88.5 14.5c-14 0 -25 -0.666992 -33 -2c-3.33301 -26 -9.66602 -50.833 -18.999 -74.5s-20.5 -44.5 -33.5 -62.5s-27.333 -32.167 -43 -42.5s-31.834 -15.5 -48.501 -15.5
c-24.667 0 -43.667 7.83301 -57 23.5s-20 33.167 -20 52.5z" />
    <glyph glyph-name="yen" unicode="&#xa5;" horiz-adv-x="1444" 
d="M57 1343v90.9971h528v-68c-57.333 0 -98.333 -8 -123 -24s-37 -38 -37 -66c0 -18.667 4.5 -39 13.5 -61s21.833 -46 38.5 -72l71.5 -115.5l67.5 -108l71 -108l81 -115.5h4l69 133.5l65 123.5l63.5 119.5l64.5 121.5c4.66699 10 10.5 21.667 17.5 35
s14.833 27.333 23.5 42s17.834 28.834 27.501 42.501s19.5 25.834 29.5 36.501l-162 -7v91h418v-68c-34 -2 -64.333 -8.66699 -91 -20s-51.667 -27.833 -75 -49.5s-45.833 -48.667 -67.5 -81s-44.167 -70.166 -67.5 -113.499l-242 -457h249v-88l-267 -2l-1 -130l268 -1v-88
l-268 -2c0 -60 0.333008 -90 1 -90c0 -73.333 -2 -127.333 -6 -162l170 8v-90h-481v68c32 0.666992 57.333 6 76 16s32.667 23.167 42 39.5s15.166 35.833 17.499 58.5s3.5 47.667 3.5 75v75h-261v94h262v127h-262v95h202l-295 468c-35.333 54.667 -61.333 100.5 -78 137.5
s-27.667 68.5 -33 94.5z" />
    <glyph glyph-name="dieresis" unicode="&#xa8;" horiz-adv-x="793" 
d="M123 1369c0 16.667 2.8291 32.667 8.49609 48s13.167 28.5 22.5 39.5s20.333 19.833 33 26.5s25.667 10 39 10c14.667 0 28.167 -3.33301 40.5 -10s23 -15.5 32 -26.5s16 -24.167 21 -39.5s7.5 -31.333 7.5 -48s-2.83301 -32.334 -8.5 -47.001s-13.167 -27.5 -22.5 -38.5
s-20.166 -19.667 -32.499 -26s-25.166 -9.5 -38.499 -9.5c-14 0 -27.167 3.16699 -39.5 9.5s-23.166 15 -32.499 26s-16.666 23.833 -21.999 38.5s-8 30.334 -8 47.001zM464.996 1369c0 16.667 2.8291 32.667 8.49609 48s13.167 28.5 22.5 39.5s20.333 19.833 33 26.5
s25.667 10 39 10c14.667 0 28.167 -3.33301 40.5 -10s23 -15.5 32 -26.5s16 -24.167 21 -39.5s7.5 -31.333 7.5 -48s-2.83301 -32.334 -8.5 -47.001s-13.167 -27.5 -22.5 -38.5s-20.166 -19.667 -32.499 -26s-25.166 -9.5 -38.499 -9.5c-14 0 -27.167 3.16699 -39.5 9.5
s-23.166 15 -32.499 26s-16.666 23.833 -21.999 38.5s-8 30.334 -8 47.001z" />
    <glyph glyph-name="copyright" unicode="&#xa9;" horiz-adv-x="1796" 
d="M90 713c0 75.333 9.16406 147.998 27.4971 217.998s44.333 135.5 78 196.5s74.667 116.5 123 166.5s102.666 93 162.999 129s125.666 63.833 195.999 83.5s144.833 29.5 223.5 29.5c79.333 0 154.333 -9.83301 225 -29.5s136 -47.5 196 -83.5s114 -79 162 -129
s88.667 -105.5 122 -166.5s59 -126.5 77 -196.5s27 -142.667 27 -218c0 -74.667 -9.66699 -146.667 -29 -216s-46.5 -134.166 -81.5 -194.499s-77.167 -115.333 -126.5 -165s-104.166 -92.167 -164.499 -127.5s-125.166 -62.833 -194.499 -82.5
s-141.666 -29.5 -216.999 -29.5c-121.333 0 -231.666 20.333 -330.999 61s-184.166 97.334 -254.499 170.001s-124.833 158.667 -163.5 258s-58 208 -58 326zM227.997 712.998c0 -62.667 6.99902 -123.834 20.999 -183.501s34.333 -116 61 -169s59.5 -101.5 98.5 -145.5
s83.5 -82 133.5 -114s105.167 -56.833 165.5 -74.5s125.5 -26.5 195.5 -26.5c68 0 131.833 8.83301 191.5 26.5s114.334 42.5 164.001 74.5s94.167 70 133.5 114s72.5 92.5 99.5 145.5s47.667 109.333 62 169s21.5 120.834 21.5 183.501
c0 63.333 -7.33301 125.166 -22 185.499s-35.834 117.166 -63.501 170.499s-61.334 102.5 -101.001 147.5s-84.667 83.833 -135 116.5s-105.5 58 -165.5 76s-123.667 27 -191 27c-66.667 0 -129.5 -9 -188.5 -27s-113.333 -43.333 -163 -76s-94.167 -71.5 -133.5 -116.5
s-72.666 -94.167 -99.999 -147.5s-48.166 -110.166 -62.499 -170.499s-21.5 -122.166 -21.5 -185.499zM413.996 708.998c0 40 4.83301 80.667 14.5 122s23.834 81.166 42.501 119.499s42 74.333 70 108s60.667 63 98 88s79.166 44.667 125.499 59s96.833 21.5 151.5 21.5
c50 0 98 -7.66699 144 -23s87 -35.666 123 -60.999l-7 74h102v-345h-82c-5.33301 44.667 -15.833 82.5 -31.5 113.5s-35.5 56.167 -59.5 75.5s-51.333 33.333 -82 42s-63.667 13 -99 13c-39.333 0 -78 -8.16699 -116 -24.5s-72 -40.5 -102 -72.5s-54.167 -72 -72.5 -120
s-27.5 -103.333 -27.5 -166c0 -56.667 8.83301 -109.167 26.5 -157.5s42.5 -90 74.5 -125s70.167 -62.5 114.5 -82.5s93.5 -30 147.5 -30c22.667 0 47.167 3.5 73.5 10.5s52.666 17 78.999 30s51.833 28.833 76.5 47.5s46.667 39.667 66 63l61 -71
c-30 -41.333 -63.167 -75.5 -99.5 -102.5s-73 -48.333 -110 -64s-73.333 -26.667 -109 -33s-67.834 -9.5 -96.501 -9.5c-71.333 0 -137.166 12.833 -197.499 38.5s-112.666 61 -156.999 106s-79 98 -104 159s-37.5 126.5 -37.5 196.5z" />
    <glyph glyph-name="guillemotleft" unicode="&#xab;" horiz-adv-x="1085" 
d="M65 540v8l561 575l63 -65l-403 -518v-4l399 -486l-65 -65zM501 546v6l406 399l65 -61l-248 -332v-4l244 -336l-66 -61z" />
    <glyph glyph-name="uni00AD" unicode="&#xad;" horiz-adv-x="1001" 
d="M137 584v143h727v-135z" />
    <glyph glyph-name="registered" unicode="&#xae;" horiz-adv-x="1798" 
d="M90 713c0 75.333 8.99902 148.166 26.999 218.499s44 136 78 197s75 116.5 123 166.5s102.167 92.833 162.5 128.5s125.833 63.334 196.5 83.001s145.334 29.5 224.001 29.5c80 0 155.5 -9.83301 226.5 -29.5s136.5 -47.334 196.5 -83.001s113.833 -78.5 161.5 -128.5
s88.167 -105.5 121.5 -166.5s58.833 -126.667 76.5 -197s26.5 -143.166 26.5 -218.499s-9.5 -147.833 -28.5 -217.5s-46 -134.667 -81 -195s-77.167 -115.333 -126.5 -165s-104 -92 -164 -127s-124.833 -62.167 -194.5 -81.5s-142.5 -29 -218.5 -29
c-122 0 -232.5 20.167 -331.5 60.5s-183.833 96.666 -254.5 168.999s-125.167 158.333 -163.5 258s-57.5 208.834 -57.5 327.501zM229.999 713c0 -63.333 6.82715 -124.833 20.4941 -184.5s33.834 -115.834 60.501 -168.501s59.334 -100.834 98.001 -144.501
s82.834 -81.334 132.501 -113.001s104.834 -56.334 165.501 -74.001s126 -26.5 196 -26.5c68.667 0 132.834 8.83301 192.501 26.5s114.334 42.334 164.001 74.001s94 69.334 133 113.001s72 91.834 99 144.501s47.667 108.834 62 168.501s21.5 121.167 21.5 184.5
s-7.33301 125.166 -22 185.499s-35.667 117.333 -63 171s-61 103 -101 148s-85 83.667 -135 116s-105 57.5 -165 75.5s-124 27 -192 27c-67.333 0 -130.5 -9 -189.5 -27s-113.167 -43.167 -162.5 -75.5s-93.5 -71 -132.5 -116s-72 -94.333 -99 -148
s-47.667 -110.667 -62 -171s-21.5 -122.166 -21.5 -185.499zM513.993 279l-0.000976562 69.0039c24.667 0.666992 43.834 5 57.501 13s23.5 19.167 29.5 33.5s9.5 31.5 10.5 51.5s1.5 42 1.5 66v535c0 18 0.166992 35.5 0.5 52.5s1.5 32.167 3.5 45.5l-103 -10v86
c21.333 0.666992 45.5 1.5 72.5 2.5l84 3c29 1 58 1.83301 87 2.5s56.5 1 82.5 1c75.333 0 140.333 -6.66699 195 -20s99.5 -32 134.5 -56s60.833 -52.667 77.5 -86s25 -70 25 -110c0 -22.667 -4 -47.334 -12 -74.001s-21.667 -52.834 -41 -78.501
s-44.833 -49.334 -76.5 -71.001s-71.5 -39.167 -119.5 -52.5v-2c11.333 -5.33301 24.333 -14.5 39 -27.5s30.667 -31.833 48 -56.5c38.667 -58 70.667 -103.833 96 -137.5s47.166 -59.334 65.499 -77.001s34.333 -29 48 -34s27.834 -7.5 42.501 -7.5v-70h-178
c-20.667 5.33301 -43 22 -67 50s-53 66 -87 114l-84 122.5l-70 104.5c-10 -2 -24.333 -3 -43 -3c-13.333 0 -26.333 0.333008 -39 1s-22.667 1.66699 -30 3v-201c0 -23.333 -0.333008 -43.5 -1 -60.5s-1.66699 -31.833 -3 -44.5l102 4v-81h-348zM763.992 748.004h2
c11.333 -1.33301 23 -2.33301 35 -3s24 -1 36 -1c14.667 0 31.834 1.16699 51.501 3.5s39.667 6.5 60 12.5s40.333 14 60 24s37.167 22.667 52.5 38s27.666 33.666 36.999 54.999s14 46.333 14 75c0 30.667 -6.33301 57.834 -19 81.501s-29.5 43.5 -50.5 59.5
s-45.167 28.167 -72.5 36.5s-55.333 12.5 -84 12.5c-32 0 -56.333 -4.16699 -73 -12.5s-28.667 -20 -36 -35s-11.333 -33.167 -12 -54.5s-1 -45 -1 -71v-221z" />
    <glyph glyph-name="acute" unicode="&#xb4;" horiz-adv-x="516" 
d="M92 1235l172 276.001c15.333 22 30.5 36.833 45.5 44.5s28 11.5 39 11.5s21.667 -2.16699 32 -6.5s18.833 -10.833 25.5 -19.5s11.167 -16.667 13.5 -24s3.5 -15.333 3.5 -24c0 -7.33301 -1 -14.333 -3 -21s-4 -12.334 -6 -17.001c-6 -15.333 -17.667 -32 -35 -50
l-230 -217z" />
    <glyph glyph-name="cedilla" unicode="&#xb8;" horiz-adv-x="598" 
d="M92 -425c34.667 6 67.002 13.833 97.002 23.5s56 21 78 34s39.333 27.667 52 44s19 34.5 19 54.5c0 22 -6.33301 37.667 -19 47s-28 14 -46 14c-15.333 0 -31.333 -2.66699 -48 -8s-31.667 -12.666 -45 -21.999l-69 34l59 220h115l-56 -168
c19.333 12 41.666 21 66.999 27s49.666 9 72.999 9c42 0 75.333 -12 100 -36s37 -57 37 -99c0 -27.333 -6.66699 -52 -20 -74s-31 -41.5 -53 -58.5s-47.167 -31.667 -75.5 -44s-57.333 -22.833 -87 -31.5s-59 -15.834 -88 -21.501s-55.167 -10.167 -78.5 -13.5z" />
    <glyph glyph-name="guillemotright" unicode="&#xbb;" horiz-adv-x="1083" 
d="M113 218l248 332v4l-244 336l66 61l401 -389v-6l-406 -399zM396 50l403 518v4l-399 486l65 65l555 -555v-8l-561 -575z" />
    <glyph glyph-name="circumflex" unicode="&#x2c6;" horiz-adv-x="819" 
d="M92 1268l326 325h4l305 -333l-55 -66l-260 223h-4l-265 -209z" />
    <glyph glyph-name="ring" unicode="&#x2da;" horiz-adv-x="651" 
d="M125 1362c0 29.333 5.83008 55.999 17.4971 79.999s26.834 44.667 45.501 62s39.834 30.833 63.501 40.5s47.834 14.5 72.501 14.5c24 0 47.833 -3.66699 71.5 -11s45 -18.666 64 -33.999s34.833 -35.5 47.5 -60.5s19 -51.5 19 -79.5c0 -34.667 -5.5 -64 -16.5 -88
s-25.833 -45 -44.5 -63s-39.834 -31.833 -63.501 -41.5s-48.167 -14.5 -73.5 -14.5s-50.166 3.83301 -74.499 11.5s-46 19.5 -65 35.5s-34.333 36.167 -46 60.5s-17.5 53.5 -17.5 87.5zM232.997 1372c0 -19.333 2.16797 -37.5 6.50098 -54.5s10.666 -32 18.999 -45
s18.5 -23.167 30.5 -30.5s25.667 -11 41 -11c25.333 0 46.333 10.833 63 32.5s25 51.167 25 88.5c0 44 -8.16699 78.833 -24.5 104.5s-39.5 38.5 -69.5 38.5c-23.333 0 -44.333 -10.5 -63 -31.5s-28 -51.5 -28 -91.5z" />
    <glyph glyph-name="tilde" unicode="&#x2dc;" horiz-adv-x="831" 
d="M72 1313c8.66699 24 20.8311 46.499 36.498 67.499s33.167 39.5 52.5 55.5s39.333 28.667 60 38s40.667 14.333 60 15c32 0 60 -5.66699 84 -17s46 -23.833 66 -37.5s39.333 -26.167 58 -37.5s39.334 -17 62.001 -17c30 0 58.333 9 85 27s48 42 64 72l60 -31
c-11.333 -34 -25.166 -63.167 -41.499 -87.5s-34 -44.5 -53 -60.5s-38.333 -27.833 -58 -35.5s-38.5 -11.5 -56.5 -11.5c-32 0 -60.333 5.83301 -85 17.5s-47.5 24.334 -68.5 38.001l-59 38c-18.333 11.667 -36.833 17.5 -55.5 17.5c-25.333 0 -51.833 -6.83301 -79.5 -20.5
s-51.167 -35.5 -70.5 -65.5z" />
    <glyph glyph-name="uni0400" unicode="&#x400;" 
d="M114 0l0.00195312 68.001c32.667 0.666992 58.5 5.83398 77.5 15.501s33.167 22.834 42.5 39.501s15.166 36.5 17.499 59.5s3.5 48.5 3.5 76.5v60v885c0 28 0.5 54.5 1.5 79.5s2.83301 47.833 5.5 68.5l-148 -9v91h985l10 -359h-67c0 58.667 -6.83301 106.667 -20.5 144
s-32.334 66.666 -56.001 87.999s-51.5 35.833 -83.5 43.5s-66.667 11.5 -104 11.5l-189 -3c-38 -2 -67.5 -8 -88.5 -18s-36.5 -24.833 -46.5 -44.5s-15.833 -44.5 -17.5 -74.5s-2.5 -66 -2.5 -108v-330h384l-15 177h91v-431h-67c0 40 -3.5 71.833 -10.5 95.5s-18 42 -33 55
s-34 21.5 -57 25.5s-50.833 6 -83.5 6h-29c-10 0 -70 -2.33301 -180 -7v-469c0 -38 -0.5 -69.833 -1.5 -95.5s-2.83301 -47.167 -5.5 -64.5l392 6c44.667 0.666992 85 6.16699 121 16.5s66.833 27.666 92.5 51.999s45.5 56.666 59.5 96.999s21 90.833 21 151.5h70l-12 -399
h-1057zM465.002 1903c0 8.66699 1.16699 16.666 3.5 23.999s6.83301 15.333 13.5 24s15.167 15.167 25.5 19.5s21 6.5 32 6.5s24 -3.83301 39 -11.5s30.167 -22.5 45.5 -44.5l172 -276l-57 -47l-230 217c-17.333 18 -29 34.667 -35 50c-2 4.66699 -4 10.334 -6 17.001
s-3 13.667 -3 21z" />
    <glyph glyph-name="afii10023" unicode="&#x401;" 
d="M113 0l0.00195312 68.001c32.667 0.666992 58.5 5.83398 77.5 15.501s33.167 22.834 42.5 39.501s15.166 36.5 17.499 59.5s3.5 48.5 3.5 76.5v60v885c0 28 0.5 54.5 1.5 79.5s2.83301 47.833 5.5 68.5l-148 -9v91h985l10 -359h-67c0 58.667 -6.83301 106.667 -20.5 144
s-32.334 66.666 -56.001 87.999s-51.5 35.833 -83.5 43.5s-66.667 11.5 -104 11.5l-189 -3c-38 -2 -67.5 -8 -88.5 -18s-36.5 -24.833 -46.5 -44.5s-15.833 -44.5 -17.5 -74.5s-2.5 -66 -2.5 -108v-330h384l-15 177h91v-431h-67c0 40 -3.5 71.833 -10.5 95.5s-18 42 -33 55
s-34 21.5 -57 25.5s-50.833 6 -83.5 6h-29c-10 0 -70 -2.33301 -180 -7v-469c0 -38 -0.5 -69.833 -1.5 -95.5s-2.83301 -47.167 -5.5 -64.5l392 6c44.667 0.666992 85 6.16699 121 16.5s66.833 27.666 92.5 51.999s45.5 56.666 59.5 96.999s21 90.833 21 151.5h70l-12 -399
h-1057zM375.002 1718c0 18 3.00195 35 9.00195 51s14.333 30 25 42s22.667 21.5 36 28.5s27.666 10.5 42.999 10.5s29.666 -3.5 42.999 -10.5s25 -16.5 35 -28.5s17.833 -26 23.5 -42s8.5 -33 8.5 -51s-3 -34.833 -9 -50.5s-14.167 -29.334 -24.5 -41.001
s-22.333 -20.834 -36 -27.501s-27.834 -10 -42.501 -10c-15.333 0 -29.666 3.33301 -42.999 10s-25 15.834 -35 27.501s-18 25.334 -24 41.001s-9 32.5 -9 50.5zM743.004 1718c0 18 3.00195 35 9.00195 51s14.333 30 25 42s22.667 21.5 36 28.5s27.666 10.5 42.999 10.5
s29.666 -3.5 42.999 -10.5s25 -16.5 35 -28.5s17.833 -26 23.5 -42s8.5 -33 8.5 -51s-3 -34.833 -9 -50.5s-14.167 -29.334 -24.5 -41.001s-22.333 -20.834 -36 -27.501s-27.834 -10 -42.501 -10c-15.333 0 -29.666 3.33301 -42.999 10s-25 15.834 -35 27.501
s-18 25.334 -24 41.001s-9 32.5 -9 50.5z" />
    <glyph glyph-name="afii10051" unicode="&#x402;" horiz-adv-x="1558" 
d="M45 1001l12.0029 433.002h1194l12 -433h-77c-1.33301 60.667 -6 113.5 -14 158.5s-22 82.333 -42 112s-47 51.834 -81 66.501s-77.333 21.667 -130 21h-174v-542c42 17.333 88.5 31.166 139.5 41.499s103.167 15.5 156.5 15.5c74.667 0 138.834 -9.5 192.501 -28.5
s97.5 -46.833 131.5 -83.5s59 -81.667 75 -135s24 -114 24 -182c0 -66 -8.33301 -127.5 -25 -184.5s-39.834 -106.5 -69.501 -148.5s-64.834 -75 -105.501 -99s-85.334 -36 -134.001 -36c-21.333 0 -41.333 2.83301 -60 8.5s-34.834 13.834 -48.501 24.501
s-24.334 23.667 -32.001 39s-11.5 32.666 -11.5 51.999c0 34 9.5 60.5 28.5 79.5s42.833 28.833 71.5 29.5c19.333 0 35.333 -3 48 -9s22.834 -13.5 30.501 -22.5s13 -18.667 16 -29s4.5 -19.5 4.5 -27.5c0 -9.33301 -0.833008 -17.833 -2.5 -25.5s-4.5 -16.167 -8.5 -25.5
c8 -6 19.333 -9 34 -9c15.333 0 28.833 9.66699 40.5 29s21.5 45.666 29.5 78.999s14.167 72.166 18.5 116.499s6.5 91.5 6.5 141.5c0 62 -7.83301 114.833 -23.5 158.5s-37.667 79.167 -66 106.5s-62.333 47 -102 59s-83.834 18 -132.501 18
c-43.333 0 -84.166 -4.5 -122.499 -13.5s-73.5 -21.167 -105.5 -36.5v-476c0 -73.333 -2 -127.333 -6 -162l120 8v-90h-431v68c38 1.33301 66.667 8.66602 86 21.999s33 31.166 41 53.499s12.333 48.5 13 78.5s1.33398 62.333 2.00098 97v1037h-212
c-43.333 0 -79.833 -7.16699 -109.5 -21.5s-53.834 -36.166 -72.501 -65.499s-32.167 -66.166 -40.5 -110.499s-12.5 -96.833 -12.5 -157.5h-76z" />
    <glyph glyph-name="afii10052" unicode="&#x403;" horiz-adv-x="1122" 
d="M113 0v67.9971c38.667 1.33301 67.667 8.33301 87 21s33 30 41 52s12.167 48.167 12.5 78.5s0.5 63.5 0.5 99.5v885c0 28 0.5 54.5 1.5 79.5s2.83301 47.833 5.5 68.5l-148 -9v91h950l11 -359h-68c0 60.667 -7.5 109.834 -22.5 147.501s-35.333 67 -61 88
s-55.667 35 -90 42s-70.833 10.167 -109.5 9.5l-149 -4c-38 -1.33301 -66.833 -8.5 -86.5 -21.5s-33.5 -30.667 -41.5 -53s-12.167 -48.666 -12.5 -78.999s-0.5 -63.166 -0.5 -98.499v-862c0 -37.333 -0.5 -69.333 -1.5 -96s-2.83301 -48.667 -5.5 -66l209 8v-90h-522z
M455 1616l258 246.001c20 17.333 38.167 28 54.5 32s30.333 4.83301 42 2.5s21 -6.33301 28 -12s11.5 -9.83398 13.5 -12.501c3.33301 -4.66699 6.66602 -11.5 9.99902 -20.5s4 -19.5 2 -31.5s-7.66699 -25 -17 -39s-25.666 -28 -48.999 -42l-297 -183z" />
    <glyph glyph-name="afii10053" unicode="&#x404;" horiz-adv-x="1432" 
d="M94 694c0 64 6.49902 127.668 19.499 191.001s32.667 123.5 59 180.5s59.166 110 98.499 159s85.333 91.5 138 127.5s112 64.167 178 84.5s138.667 30.5 218 30.5c77.333 0 149.666 -10.333 216.999 -31s132.666 -52 195.999 -94l-10 110h111v-475h-74
c-7.33301 64 -22.5 121.167 -45.5 171.5s-52.667 92.833 -89 127.5s-79.166 61.167 -128.499 79.5s-103.666 27.5 -162.999 27.5c-69.333 0 -134.333 -14 -195 -42s-114.334 -67.833 -161.001 -119.5s-84.667 -114.5 -114 -188.5s-46.666 -157 -51.999 -249h688l-15 177h91
v-431h-67c0 45.333 -4.5 80.333 -13.5 105s-23.333 42.667 -43 54s-45 18 -76 20s-68.167 2.66699 -111.5 2l-455 -6c2 -94 17.833 -179.667 47.5 -257s69.167 -143.833 118.5 -199.5s106.833 -98.667 172.5 -129s135.834 -45.5 210.501 -45.5c44.667 0 89.167 5 133.5 15
s87 25 128 45s79.5 44.667 115.5 74s68 63 96 101l53 -43c-44 -60.667 -91.167 -110.334 -141.5 -149.001s-101 -69.167 -152 -91.5s-101 -37.666 -150 -45.999s-94.5 -12.5 -136.5 -12.5c-102.667 0 -196.667 18.833 -282 56.5s-158.666 89.167 -219.999 154.5
s-109 142.166 -143 230.499s-51 183.5 -51 285.5z" />
    <glyph glyph-name="afii10054" unicode="&#x405;" horiz-adv-x="1161" 
d="M120 420l79 0.00683594c4 -60.667 17 -113.834 39 -159.501s50.833 -83.834 86.5 -114.501s77.167 -53.834 124.5 -69.501s98 -23.5 152 -23.5c40 0 77.833 5.5 113.5 16.5s67 27.333 94 49s48.333 48.5 64 80.5s23.5 68.667 23.5 110c0 50 -11 93 -33 129
s-51.167 67.833 -87.5 95.5s-77.666 52.667 -123.999 75l-141.5 67c-48 22.333 -95.167 46 -141.5 71s-87.666 54 -123.999 87s-65.5 71.5 -87.5 115.5s-33 96.333 -33 157c0 23.333 2.66699 48.333 8 75s14.166 53.334 26.499 80.001s28.666 52.5 48.999 77.5
s45.833 47 76.5 66s67 34.167 109 45.5s90.667 17 146 17c26.667 0 55 -1.66699 85 -5s60.5 -9 91.5 -17s61.833 -18.833 92.5 -32.5s60 -30.834 88 -51.501l-8 88h104v-449h-74c-3.33301 49.333 -12.833 97.166 -28.5 143.499s-38.5 87.333 -68.5 123
s-67 64.334 -111 86.001s-96 32.5 -156 32.5c-42.667 0 -80.334 -6.5 -113.001 -19.5s-60 -30.5 -82 -52.5s-38.667 -47.5 -50 -76.5s-17 -59.5 -17 -91.5c0 -46.667 11.167 -87.167 33.5 -121.5s51.833 -64.833 88.5 -91.5s78.334 -51 125.001 -73l143 -66.5
c48.667 -22.333 96.334 -46.333 143.001 -72s88.334 -55.334 125.001 -89.001s66.167 -72.834 88.5 -117.501s33.5 -97.334 33.5 -158.001c0 -56.667 -10.667 -108.834 -32 -156.501s-52.333 -88.667 -93 -123s-90.834 -61.166 -150.501 -80.499s-127.5 -29 -203.5 -29
c-30.667 0 -62.167 2.16699 -94.5 6.5s-64.333 10.833 -96 19.5s-62.334 19.667 -92.001 33s-57.167 28.666 -82.5 45.999l10 -88h-106z" />
    <glyph glyph-name="afii10055" unicode="&#x406;" horiz-adv-x="686" 
d="M114 0v68c38.667 1.33301 67.667 8.33301 87 21s33 30 41 52s12.167 48.167 12.5 78.5s0.5 63.5 0.5 99.5v885c0 28 0.5 54.5 1.5 79.5s2.83301 47.833 5.5 68.5l-148 -9v91h461v-68c-38.667 -1.33301 -67.667 -8.5 -87 -21.5s-33 -30.5 -41 -52.5s-12.167 -48 -12.5 -78
s-0.5 -63.333 -0.5 -100v-870c0 -37.333 -0.5 -69.333 -1.5 -96s-2.83301 -48.667 -5.5 -66l148 8v-90h-461z" />
    <glyph glyph-name="afii10056" unicode="&#x407;" horiz-adv-x="686" 
d="M78 1779c0 16.667 2.8291 32.667 8.49609 48s13.167 28.5 22.5 39.5s20.333 19.833 33 26.5s25.667 10 39 10c14.667 0 28.167 -3.33301 40.5 -10s23 -15.5 32 -26.5s16 -24.167 21 -39.5s7.5 -31.333 7.5 -48s-2.83301 -32.334 -8.5 -47.001s-13.167 -27.5 -22.5 -38.5
s-20.166 -19.667 -32.499 -26s-25.166 -9.5 -38.499 -9.5c-14 0 -27.167 3.16699 -39.5 9.5s-23.166 15 -32.499 26s-16.666 23.833 -21.999 38.5s-8 30.334 -8 47.001zM113.996 0v68c38.667 1.33301 67.667 8.33301 87 21s33 30 41 52s12.167 48.167 12.5 78.5
s0.5 63.5 0.5 99.5v885c0 28 0.5 54.5 1.5 79.5s2.83301 47.833 5.5 68.5l-148 -9v91h461v-68c-38.667 -1.33301 -67.667 -8.5 -87 -21.5s-33 -30.5 -41 -52.5s-12.167 -48 -12.5 -78s-0.5 -63.333 -0.5 -100v-870c0 -37.333 -0.5 -69.333 -1.5 -96
s-2.83301 -48.667 -5.5 -66l148 8v-90h-461zM419.996 1779c0 16.667 2.8291 32.667 8.49609 48s13.167 28.5 22.5 39.5s20.333 19.833 33 26.5s25.667 10 39 10c14.667 0 28.167 -3.33301 40.5 -10s23 -15.5 32 -26.5s16 -24.167 21 -39.5s7.5 -31.333 7.5 -48
s-2.83301 -32.334 -8.5 -47.001s-13.167 -27.5 -22.5 -38.5s-20.166 -19.667 -32.499 -26s-25.166 -9.5 -38.499 -9.5c-14 0 -27.167 3.16699 -39.5 9.5s-23.166 15 -32.499 26s-16.666 23.833 -21.999 38.5s-8 30.334 -8 47.001z" />
    <glyph glyph-name="afii10057" unicode="&#x408;" horiz-adv-x="764" 
d="M-4 113c0 13.333 1.83496 26.165 5.50195 38.498s9.16699 23.5 16.5 33.5s15.333 17.5 24 22.5s16.667 8.33301 24 10s16 2.5 26 2.5c12 0 23.667 -2.66699 35 -8s20.5 -12.5 27.5 -21.5s12.167 -19 15.5 -30s5 -21.5 5 -31.5c0 -6.66699 -0.833008 -14.167 -2.5 -22.5
s-4.16699 -16.166 -7.5 -23.499c4 -6 9.5 -11.167 16.5 -15.5s14.5 -7.83301 22.5 -10.5s15.667 -4.33398 23 -5.00098s13.666 -1 18.999 -1c20 0.666992 37.667 5.33398 53 14.001s28 22.334 38 41.001s17.5 42.667 22.5 72s7.5 65 7.5 107v1067l-209 -9v91h545v-68
c-34 0 -61.333 -5.16699 -82 -15.5s-36.667 -24.666 -48 -42.999s-18.833 -39.833 -22.5 -64.5s-5.5 -51.334 -5.5 -80.001v-663c0 -96 -6.33301 -177.833 -19 -245.5s-32.334 -122.834 -59.001 -165.501s-61.167 -73.667 -103.5 -93s-92.833 -29 -151.5 -29
c-28.667 0 -56 3.33301 -82 10s-49 16.334 -69 29.001s-35.833 28 -47.5 46s-17.5 38.333 -17.5 61z" />
    <glyph glyph-name="afii10058" unicode="&#x409;" horiz-adv-x="1956" 
d="M25 106c0 14 2.00488 27.332 6.00488 39.999s9.66699 23.834 17 33.501s16.666 17.667 27.999 24s24.333 9.83301 39 10.5c16.667 0.666992 31.167 -1.83301 43.5 -7.5s22.5 -13 30.5 -22s13.833 -19.167 17.5 -30.5s5.5 -22 5.5 -32c0 -12.667 -1 -22.834 -3 -30.501
s-7 -15.834 -15 -24.501c11.333 -10.667 23 -16 35 -16c28.667 0 58.834 23.833 90.501 71.5s60.834 116.167 87.501 205.5s48.667 198 66 326s26 272.333 26 433v265h-43l-148 -9v91h1012v-68c-38 -1.33301 -66.667 -8.5 -86 -21.5s-33 -30.5 -41 -52.5
s-12.167 -48 -12.5 -78s-0.5 -63.333 -0.5 -100v-280l115 5c112.667 4.66699 207 -2.16602 283 -20.499s137.167 -45.833 183.5 -82.5s79.5 -80.667 99.5 -132s30 -107 30 -167c0 -72 -12.167 -135.333 -36.5 -190s-58 -100.167 -101 -136.5s-94 -63.833 -153 -82.5
s-123.167 -28 -192.5 -28h-548v68c37.333 0.666992 65.666 7.33398 84.999 20.001s33.166 29.834 41.499 51.501s12.833 47.667 13.5 78s1 64.166 1 101.499v1033h-289c-38.667 -3.33301 -66.834 -15.5 -84.501 -36.5s-27.834 -47.5 -30.501 -79.5v-45
c0 -99.333 -2.16699 -198.666 -6.5 -297.999s-12.333 -194.333 -24 -285s-27.334 -175 -47.001 -253s-44 -145.833 -73 -203.5s-63.667 -102.834 -104 -135.501s-86.833 -49 -139.5 -49c-24.667 0 -47.834 3 -69.501 9s-40.5 14.833 -56.5 26.5s-28.667 26.167 -38 43.5
s-14 37.333 -14 60zM732.005 1353h3h-3zM1173 81.999c16 -1.33301 32.5 -2.33203 49.5 -2.99902s33.167 -1 48.5 -1h41h28c52.667 0 100.667 6.83301 144 20.5s80.5 34.667 111.5 63s55 64.666 72 108.999s25.5 97.166 25.5 158.499c0 64.667 -9.66699 118.5 -29 161.5
s-45.166 77 -77.499 102s-69.833 42.667 -112.5 53s-87.334 15.5 -134.001 15.5c-20 0 -36.667 -0.166992 -50 -0.5s-25.333 -0.666016 -36 -0.999023s-21.667 -1 -33 -2s-25 -1.83301 -41 -2.5v-513c0 -37.333 -0.5 -69 -1.5 -95s-2.83301 -47.667 -5.5 -65z" />
    <glyph glyph-name="afii10059" unicode="&#x40a;" horiz-adv-x="2081" 
d="M113 0l0.000976562 67.999c38.667 1.33301 67.667 8.33301 87 21s33 30 41 52s12.167 48.167 12.5 78.5s0.5 63.5 0.5 99.5v885c0 28 0.5 54.5 1.5 79.5s2.83301 47.833 5.5 68.5l-148 -9v91h461v-68c-38.667 -1.33301 -67.667 -8.5 -87 -21.5s-33 -30.5 -41 -52.5
s-12.167 -48 -12.5 -78s-0.5 -63.333 -0.5 -100v-278h693v368c0 57.333 2 106.666 6 147.999l-148 -9v91h462v-68c-38 -1.33301 -66.833 -8.5 -86.5 -21.5s-33.5 -30.5 -41.5 -52.5s-12.167 -48 -12.5 -78s-0.5 -63.333 -0.5 -100v-280l115 5
c112.667 4.66699 207 -2.16602 283 -20.499s137.167 -45.833 183.5 -82.5s79.5 -80.667 99.5 -132s30 -107 30 -167c0 -72 -12.167 -135.333 -36.5 -190s-58 -100.167 -101 -136.5s-94 -63.833 -153 -82.5s-123.167 -28 -192.5 -28h-548v68
c37.333 0.666992 65.833 7.33398 85.5 20.001s33.667 29.834 42 51.501s12.666 47.667 12.999 78s0.5 64.166 0.5 101.499v436l-693 -9v-502c0 -37.333 -0.5 -69.333 -1.5 -96s-2.83301 -48.667 -5.5 -66l148 8v-90h-461zM1298 81.999
c16 -1.33301 32.5 -2.33203 49.5 -2.99902s33.167 -1 48.5 -1h41h28c52.667 0 100.667 6.83301 144 20.5s80.5 34.667 111.5 63s55 64.666 72 108.999s25.5 97.166 25.5 158.499c0 64.667 -9.66699 118.5 -29 161.5s-45.166 77 -77.499 102s-69.833 42.667 -112.5 53
s-87.334 15.5 -134.001 15.5c-20 0 -36.667 -0.166992 -50 -0.5s-25.333 -0.666016 -36 -0.999023s-21.667 -1 -33 -2s-25 -1.83301 -41 -2.5v-513c0 -37.333 -0.5 -69 -1.5 -95s-2.83301 -47.667 -5.5 -65z" />
    <glyph glyph-name="afii10060" unicode="&#x40b;" horiz-adv-x="1679" 
d="M45 1001l12 432.999h1194l12 -433h-77c-1.33301 60.667 -6 113.5 -14 158.5s-22 82.333 -42 112s-47 51.834 -81 66.501s-77.333 21.667 -130 21h-174v-542c42 17.333 89 31.166 141 41.499s106.667 15.5 164 15.5c74 0 137.667 -9 191 -27s97.166 -44.333 131.499 -79
s59.666 -77.334 75.999 -128.001s24.5 -109 24.5 -175c0 -70 -0.166992 -127.167 -0.5 -171.5s-0.666016 -80.333 -0.999023 -108s-1 -49 -2 -64s-2.16699 -28.167 -3.5 -39.5l148 9v-91h-461v68c40 1.33301 69.833 9.83301 89.5 25.5s33.167 40.834 40.5 75.501
s10.833 79.834 10.5 135.501s-0.166016 124.5 0.500977 206.5c-0.666992 34.667 -7 67.667 -19 99s-31 59 -57 83s-59 43 -99 57s-88.333 20.667 -145 20c-44 -0.666992 -85.5 -5.5 -124.5 -14.5s-74.5 -20.833 -106.5 -35.5v-476c0 -73.333 -2 -127.333 -6 -162l170 8v-90
h-481v68c38 1.33301 66.667 8.66602 86 21.999s33 31.166 41 53.499s12.333 48.5 13 78.5s1.33398 62.333 2.00098 97v1037h-212c-43.333 0 -79.833 -7.16699 -109.5 -21.5s-53.834 -36.166 -72.501 -65.499s-32.167 -66.166 -40.5 -110.499s-12.5 -96.833 -12.5 -157.5h-76
z" />
    <glyph glyph-name="afii10061" unicode="&#x40c;" horiz-adv-x="1399" 
d="M114 0v68.0049c38.667 1.33301 67.667 8.33301 87 21s33 30 41 52s12.167 48.167 12.5 78.5s0.5 63.5 0.5 99.5v885c0 28 0.5 54.5 1.5 79.5s2.83301 47.833 5.5 68.5l-148 -9v91h461v-68c-38.667 -1.33301 -67.667 -8.5 -87 -21.5s-33 -30.5 -41 -52.5
s-12.167 -48 -12.5 -78s-0.5 -63.333 -0.5 -100v-336h153l256 404c8.66699 13.333 18.5 27.666 29.5 42.999s22.667 30.666 35 45.999s25.5 30.166 39.5 44.499s28 27.166 42 38.499l-125 -4v84h440v-68c-43.333 -3.33301 -82.666 -9.16602 -117.999 -17.499
s-69 -22.333 -101 -42s-63.833 -46.667 -95.5 -81s-64.834 -79.5 -99.501 -135.5l-200 -320c19.333 -12 36.666 -24.833 51.999 -38.5s29.666 -27.834 42.999 -42.501s26 -29.834 38 -45.501l37 -47.5l229 -305c38.667 -52 72 -92.833 100 -122.5s53.333 -52 76 -67
s43.667 -24.333 63 -28s40 -5.5 62 -5.5v-68h-250c-10 0 -22.667 5.5 -38 16.5s-32.166 25.833 -50.499 44.5s-37.666 40.167 -57.999 64.5l-60.5 75.5l-245 331c-26 34 -52 66.333 -78 97s-51.333 53.667 -76 69l-100 -2v-452c0 -37.333 -0.5 -69.333 -1.5 -96
s-2.83301 -48.667 -5.5 -66l148 8v-90h-461zM598 1616l258 246.001c20 17.333 38.167 28 54.5 32s30.333 4.83301 42 2.5s21 -6.33301 28 -12s11.5 -9.83398 13.5 -12.501c3.33301 -4.66699 6.66602 -11.5 9.99902 -20.5s4 -19.5 2 -31.5s-7.66699 -25 -17 -39
s-25.666 -28 -48.999 -42l-297 -183z" />
    <glyph glyph-name="uni040D" unicode="&#x40d;" horiz-adv-x="1618" 
d="M114 0l-0.00195312 68.001c38.667 1.33301 67.667 8.33301 87 21s33 30 41 52s12.167 48.167 12.5 78.5s0.5 63.5 0.5 99.5v885c0 28 0.5 54.5 1.5 79.5s2.83301 47.833 5.5 68.5l-148 -9v91h461v-68c-38.667 -1.33301 -67.667 -8.5 -87 -21.5s-33 -30.5 -41 -52.5
s-12.167 -48 -12.5 -78s-0.5 -63.333 -0.5 -100v-774l754 931c0.666992 15.333 1.33398 29.666 2.00098 42.999s1.66699 26 3 38l-148 -9v91h461v-68c-38 -1.33301 -66.833 -8.5 -86.5 -21.5s-33.5 -30.5 -41.5 -52.5s-12.167 -48 -12.5 -78s-0.5 -63.333 -0.5 -100v-870
c0 -73.333 -2 -127.333 -6 -162l147 8v-90h-461v68c38.667 1.33301 67.834 8.33301 87.501 21s33.5 30 41.5 52s12.167 48.167 12.5 78.5s0.5 63.5 0.5 99.5v822l-753 -940c-0.666992 -26 -1.5 -48.833 -2.5 -68.5s-2.5 -36.5 -4.5 -50.5l148 8v-90h-461zM512.998 1820
c-2 12 -1.33301 22.499 2 31.499s6.66602 15.833 9.99902 20.5c2 2.66699 6.5 6.83398 13.5 12.501s16.333 9.66699 28 12s25.667 1.5 42 -2.5s34.5 -14.667 54.5 -32l258 -246l-45 -60l-297 183c-23.333 14 -39.666 28 -48.999 42s-15 27 -17 39z" />
    <glyph glyph-name="afii10062" unicode="&#x40e;" horiz-adv-x="1250" 
d="M-10 1343l0.00292969 91h494v-68c-43.333 0 -76.333 -5.5 -99 -16.5s-37.5 -26.333 -44.5 -46s-7 -43.167 0 -70.5s18.833 -57.333 35.5 -90l312 -625l71 176.5l68.5 173l58 151.5l40.5 112l22 63.5c8 22.333 16 43.5 24 63.5s15.833 38.167 23.5 54.5
s15.167 28.833 22.5 37.5l-161 -7v91h418v-68c-38 -2 -69.333 -8.83301 -94 -20.5s-45.834 -28.334 -63.501 -50.001s-33.5 -48.167 -47.5 -79.5l-47 -110l-331 -801c-23.333 -56.667 -45.666 -106.167 -66.999 -148.5s-43.833 -77.666 -67.5 -105.999
s-49.334 -49.5 -77.001 -63.5s-59.5 -21 -95.5 -21c-21.333 0 -42 2 -62 6s-37.833 10.833 -53.5 20.5s-28.167 22.334 -37.5 38.001s-14 35.5 -14 59.5c0 33.333 9.16699 60.333 27.5 81s43.5 31.667 75.5 33c16 0.666992 30 -1.5 42 -6.5s22 -11.833 30 -20.5
s13.833 -18.334 17.5 -29.001s5.5 -21.334 5.5 -32.001c0 -12 -1.5 -21.667 -4.5 -29s-7.83301 -14.666 -14.5 -21.999c12.667 -4.66699 24.5 -7 35.5 -7s21.5 3.33301 31.5 10s20.167 16.5 30.5 29.5s21.5 30.167 33.5 51.5c7.33301 12 17.666 32.667 30.999 62l46 106
l-405 802c-27.333 53.333 -46.833 98.333 -58.5 135s-19.834 68 -24.501 94zM363.003 1732c0 27.333 7.83301 51.5 23.5 72.5s37.5 31.833 65.5 32.5c18.667 0.666992 34.167 -2.33301 46.5 -9s22 -14.667 29 -24s12 -19.333 15 -30s4.5 -20 4.5 -28
c0 -13.333 -1.83301 -27.333 -5.5 -42s-9.16699 -28.334 -16.5 -41.001c19.333 -19.333 40.833 -32.666 64.5 -39.999s53.5 -11 89.5 -11s65.833 3.66699 89.5 11s45.167 20.666 64.5 39.999c-7.33301 12.667 -12.833 26.334 -16.5 41.001s-5.5 28.667 -5.5 42
c0 8 1.5 17.333 4.5 28s8 20.667 15 30s16.667 17.333 29 24s27.833 9.66699 46.5 9c28 -0.666992 49.833 -11.5 65.5 -32.5s23.5 -45.167 23.5 -72.5c0 -30 -8.33301 -57 -25 -81s-39.334 -44.5 -68.001 -61.5s-62.167 -30 -100.5 -39s-79.166 -13.5 -122.499 -13.5
s-84.166 4.5 -122.499 13.5s-71.833 22 -100.5 39s-51.334 37.5 -68.001 61.5s-25 51 -25 81z" />
    <glyph glyph-name="afii10145" unicode="&#x40f;" horiz-adv-x="1578" 
d="M133 0l-0.000976562 68.001c38 1.33301 66.833 8.33301 86.5 21s33.5 30 41.5 52s12.167 48.167 12.5 78.5s0.5 63.833 0.5 100.5v870c0 72.667 2 126.667 6 162l-147 -8v90h461v-68c-38.667 -1.33301 -67.834 -8.33301 -87.501 -21s-33.5 -30 -41.5 -52
s-12.167 -48.167 -12.5 -78.5s-0.5 -63.5 -0.5 -99.5v-1034l557 7c28.667 1.33301 51.834 6.16602 69.501 14.499s31.334 19.5 41.001 33.5s16.167 30.833 19.5 50.5s5.33301 41.5 6 65.5v938c0 37.333 0.5 69.333 1.5 96s2.83301 48.667 5.5 66l-148 -8v90h461v-68
c-38.667 -1.33301 -67.667 -8.33301 -87 -21s-33 -30 -41 -52s-12.167 -48.167 -12.5 -78.5s-0.5 -63.5 -0.5 -99.5v-885c0 -28 -0.5 -54.5 -1.5 -79.5s-2.83301 -47.833 -5.5 -68.5l148 9v-91h-587v-364h-85c0 50.667 -2.16699 98.167 -6.5 142.5s-12.5 83 -24.5 116
s-28.5 58.833 -49.5 77.5s-48.5 28 -82.5 28h-497z" />
    <glyph glyph-name="afii10017" unicode="&#x410;" horiz-adv-x="1282" 
d="M-12 0l0.000976562 68.0029c30.667 0 55.667 6.16699 75 18.5s35.666 29.833 48.999 52.5s25.5 49.667 36.5 81l37.5 104l422 1149h49l457 -1166c6 -14 12.167 -30.833 18.5 -50.5s12.333 -39.834 18 -60.501s10 -41 13 -61s4.16699 -37.667 3.5 -53l140 8v-90h-469v68
c38 0.666992 66 7.66699 84 21s29.333 29.666 34 48.999s4.66699 40 0 62s-10.667 42.667 -18 62l-72 192l-533 -12l-39 -115.5c-11.333 -35 -22 -69.5 -32 -103.5l-14 -43c-4 -12.667 -8 -24.334 -12 -35.001l-12 -31l-13 -32l160 8v-90h-383zM364.001 530.003h474
l-146 392l-92 252h-4l-86 -232l-82.5 -232.5z" />
    <glyph glyph-name="afii10018" unicode="&#x411;" 
d="M113 0v67.999c38.667 0.666992 67.667 7.5 87 20.5s33 31 41 54s12.167 50.333 12.5 82s0.5 66.834 0.5 105.501v874c0 28 0.5 54.5 1.5 79.5s2.83301 47.833 5.5 68.5l-148 -9v91h950l11 -359h-68c0 60.667 -7.5 109.834 -22.5 147.501s-35.333 67 -61 88
s-55.667 35 -90 42s-70.833 10.167 -109.5 9.5l-149 -4c-38 -1.33301 -66.833 -8.5 -86.5 -21.5s-33.5 -30.667 -41.5 -53s-12.167 -48.666 -12.5 -78.999s-0.5 -63.166 -0.5 -98.499v-292l165 4c112.667 3.33301 207 -4.16699 283 -22.5s137.167 -45.333 183.5 -81
s79.5 -78.834 99.5 -129.501s30 -107 30 -169c0 -65.333 -12.167 -123.833 -36.5 -175.5s-58 -95.334 -101 -131.001s-94 -62.834 -153 -81.501s-123.167 -28 -192.5 -28h-598zM426 81.999c16 -1.33301 35 -2.33301 57 -3s43.833 -1 65.5 -1h58.5h36
c52.667 0 100.667 6.83301 144 20.5s80.5 34 111.5 61s55 61 72 102s25.5 88.5 25.5 142.5c0 66.667 -9.66699 121.667 -29 165s-45.166 77.833 -77.499 103.5s-69.833 43.5 -112.5 53.5s-87.334 15 -134.001 15c-40.667 0 -77.667 -0.5 -111 -1.5s-66.333 -2.5 -99 -4.5
v-493c0 -37.333 -0.5 -69 -1.5 -95s-2.83301 -47.667 -5.5 -65z" />
    <glyph glyph-name="afii10019" unicode="&#x412;" 
d="M114 0l0.000976562 67.998c38.667 0.666992 67.667 7.5 87 20.5s33 31 41 54s12.167 50.333 12.5 82s0.5 66.834 0.5 105.501v860c0 37.333 0.5 69.333 1.5 96s2.83301 48.667 5.5 66l-148 -9v91c75.333 1.33301 150.666 2.33301 225.999 3s154.333 1 237 1
c79.333 0 150.333 -7 213 -21s115.5 -35.333 158.5 -64s75.5 -64 97.5 -106s33 -95.333 33 -160c-0.666992 -33.333 -8 -66.666 -22 -99.999s-35 -64.333 -63 -93s-63.167 -54 -105.5 -76s-91.5 -38 -147.5 -48v-4c75.333 0 141.333 -9.16699 198 -27.5
s104 -43.666 142 -75.999s66.5 -70.833 85.5 -115.5s28.5 -93.334 28.5 -146.001c0 -62.667 -12.167 -118.834 -36.5 -168.501s-58 -91.667 -101 -126s-94 -60.666 -153 -78.999s-123.167 -27.5 -192.5 -27.5h-598zM427.001 81.998c16 -1.33301 35 -2.33301 57 -3
s43.833 -1 65.5 -1h58.5h36c52.667 0 100.667 6.66699 144 20s80.5 33 111.5 59s55 58.333 72 97s25.5 83.667 25.5 135c0 62.667 -9.66699 114.667 -29 156s-45.166 74.333 -77.499 99s-69.833 42 -112.5 52s-87.334 15 -134.001 15c-40.667 0 -77.667 -0.5 -111 -1.5
s-66.333 -2.5 -99 -4.5v-463c0 -37.333 -0.5 -69 -1.5 -95s-2.83301 -47.667 -5.5 -65zM434.001 783.998l148.998 4.00098c58.667 1.33301 107.834 11 147.501 29s71.5 41.5 95.5 70.5s41 60.833 51 95.5s15 73 15 115c0 52 -10 96.667 -30 134s-44.667 65.166 -74 83.499
s-61.666 31 -96.999 38s-70 10.5 -104 10.5c-33.333 0 -60 -3.33301 -80 -10s-35.5 -17.834 -46.5 -33.501s-18.167 -36.167 -21.5 -61.5s-5 -56.666 -5 -93.999v-381z" />
    <glyph glyph-name="afii10020" unicode="&#x413;" horiz-adv-x="1122" 
d="M113 0v67.9971c38.667 1.33301 67.667 8.33301 87 21s33 30 41 52s12.167 48.167 12.5 78.5s0.5 63.5 0.5 99.5v885c0 28 0.5 54.5 1.5 79.5s2.83301 47.833 5.5 68.5l-148 -9v91h950l11 -359h-68c0 60.667 -7.5 109.834 -22.5 147.501s-35.333 67 -61 88
s-55.667 35 -90 42s-70.833 10.167 -109.5 9.5l-149 -4c-38 -1.33301 -66.833 -8.5 -86.5 -21.5s-33.5 -30.667 -41.5 -53s-12.167 -48.666 -12.5 -78.999s-0.5 -63.166 -0.5 -98.499v-862c0 -37.333 -0.5 -69.333 -1.5 -96s-2.83301 -48.667 -5.5 -66l209 8v-90h-522z" />
    <glyph glyph-name="afii10021" unicode="&#x414;" horiz-adv-x="1416" 
d="M55 81h78.999c34 0 65.167 10.333 93.5 31s54.5 50 78.5 88c34.667 56 62.5 124.333 83.5 205s37.167 170.5 48.5 269.5s19.333 205.833 24 320.5s8.33398 233.667 11.001 357h-50l-148 -9v91h1046v-68c-38 -1.33301 -66.833 -8.5 -86.5 -21.5s-33.5 -30.5 -41.5 -52.5
s-12.167 -48 -12.5 -78s-0.5 -63.333 -0.5 -100v-870c0 -74 -2 -128.333 -6 -163h177v-445h-85c0 58.667 -2.5 110.5 -7.5 155.5s-14 83 -27 114s-30.333 54.5 -52 70.5s-49.5 24 -83.5 24h-786c-34 0 -61.833 -8 -83.5 -24s-39 -39.5 -52 -70.5s-22 -69 -27 -114
s-7.5 -96.833 -7.5 -155.5h-85v445zM330.999 81h528.997c38.667 0 67.834 5.66699 87.501 17s33.5 27.333 41.5 48s12.167 45.667 12.5 75s0.5 62 0.5 98v1033h-314c-39.333 -2 -68.166 -11.5 -86.499 -28.5s-28.833 -39.167 -31.5 -66.5
c-5.33301 -118 -12 -231.833 -20 -341.5s-19.167 -212.5 -33.5 -308.5s-33.166 -183.833 -56.499 -263.5s-52.666 -148.167 -87.999 -205.5c-6.66699 -10.667 -13.334 -20.667 -20.001 -30s-13.667 -18.333 -21 -27z" />
    <glyph glyph-name="afii10022" unicode="&#x415;" 
d="M114 0l0.00195312 68.001c32.667 0.666992 58.5 5.83398 77.5 15.501s33.167 22.834 42.5 39.501s15.166 36.5 17.499 59.5s3.5 48.5 3.5 76.5v60v885c0 28 0.5 54.5 1.5 79.5s2.83301 47.833 5.5 68.5l-148 -9v91h985l10 -359h-67c0 58.667 -6.83301 106.667 -20.5 144
s-32.334 66.666 -56.001 87.999s-51.5 35.833 -83.5 43.5s-66.667 11.5 -104 11.5l-189 -3c-38 -2 -67.5 -8 -88.5 -18s-36.5 -24.833 -46.5 -44.5s-15.833 -44.5 -17.5 -74.5s-2.5 -66 -2.5 -108v-330h384l-15 177h91v-431h-67c0 40 -3.5 71.833 -10.5 95.5s-18 42 -33 55
s-34 21.5 -57 25.5s-50.833 6 -83.5 6h-29c-10 0 -70 -2.33301 -180 -7v-469c0 -38 -0.5 -69.833 -1.5 -95.5s-2.83301 -47.167 -5.5 -64.5l392 6c44.667 0.666992 85 6.16699 121 16.5s66.833 27.666 92.5 51.999s45.5 56.666 59.5 96.999s21 90.833 21 151.5h70l-12 -399
h-1057z" />
    <glyph glyph-name="afii10024" unicode="&#x416;" horiz-adv-x="1971" 
d="M10 0l0.00195312 68.002c22 0 43.333 3 64 9s42 17.667 64 35s45.5 41.333 70.5 72s52.833 71 83.5 121l178 291c12.667 20.667 25 39.167 37 55.5s24.667 31.333 38 45s27.666 26.334 42.999 38.001s32.666 23.5 51.999 35.5l-186 320
c-33.333 56.667 -65.166 102.334 -95.499 137.001s-61.5 61.667 -93.5 81s-65.833 33 -101.5 41s-74.834 13.667 -117.501 17v68h440v-84l-125 4c14 -11.333 28 -24 42 -38s27.333 -28.667 40 -44s24.5 -30.666 35.5 -45.999s20.5 -30 28.5 -44l236 -404h153v426
c0 28 0.5 54.5 1.5 79.5s2.83301 47.833 5.5 68.5l-148 -9v91h461v-68c-38.667 -1.33301 -67.667 -8.5 -87 -21.5s-33 -30.5 -41 -52.5s-12.167 -48 -12.5 -78s-0.5 -63.333 -0.5 -100v-336h153l236 404c8 14 17.5 28.667 28.5 44s22.833 30.666 35.5 45.999s26 30 40 44
s28 26.667 42 38l-125 -4v84h440v-68c-43.333 -3.33301 -82.666 -9 -117.999 -17s-69 -21.667 -101 -41s-63.333 -46.333 -94 -81s-62.334 -80.334 -95.001 -137.001l-186 -320c19.333 -12 36.666 -23.833 51.999 -35.5s29.666 -24.334 42.999 -38.001s26 -28.667 38 -45
s24.333 -34.833 37 -55.5l179 -291c30.667 -50 58.334 -90.333 83.001 -121s48 -54.667 70 -72s43.333 -29 64 -35s42 -9 64 -9v-68h-210c-10 0 -23.167 4.33301 -39.5 13s-34.333 21.5 -54 38.5s-40.167 38 -61.5 63s-42 53.833 -62 86.5l-205 331
c-19.333 31.333 -38.5 60.666 -57.5 87.999s-43.833 53.333 -74.5 78l-122 -2v-452c0 -37.333 -0.5 -69.333 -1.5 -96s-2.83301 -48.667 -5.5 -66l148 8v-90h-461v68c38.667 1.33301 67.667 8.33301 87 21s33 30 41 52s12.167 48.167 12.5 78.5s0.5 63.5 0.5 99.5v377
l-122 2c-15.333 -12 -29.166 -24.5 -41.499 -37.5s-23.5 -26.333 -33.5 -40s-19.667 -27.834 -29 -42.501l-28 -46l-201 -331c-20 -32.667 -40.167 -61.5 -60.5 -86.5s-40 -46 -59 -63s-36.5 -29.833 -52.5 -38.5s-29 -13 -39 -13h-220z" />
    <glyph glyph-name="afii10025" unicode="&#x417;" horiz-adv-x="1255" 
d="M61 266l52.998 43.001c28 -38.667 60.667 -72.667 98 -102s77 -54 119 -74s85.667 -35 131 -45s90 -15 134 -15c50.667 0 99 6.83301 145 20.5s86.5 34.667 121.5 63s62.833 63.833 83.5 106.5s31 93 31 151c0 98.667 -31.667 170.5 -95 215.5
s-158.666 69.167 -285.999 72.5l-163 -2v90h170c58.667 1.33301 107.667 11 147 29s71 41.5 95 70.5s41.167 62 51.5 99s15.5 75.167 15.5 114.5c0 50.667 -6.66699 93.667 -20 129s-31.5 64.166 -54.5 86.499s-50 38.666 -81 48.999s-64.167 15.5 -99.5 15.5
c-56.667 0 -106.5 -9 -149.5 -27s-80.5 -44.333 -112.5 -79s-59.333 -77.167 -82 -127.5s-41.667 -107.833 -57 -172.5h-74v475h111l-10 -110c30 21.333 59.167 39.833 87.5 55.5s57.666 28.667 87.999 39s62.333 18 96 23s70.167 7.5 109.5 7.5
c66 0 125.833 -8.16699 179.5 -24.5s99.667 -39.666 138 -69.999s67.833 -67 88.5 -110s30.667 -91.5 30 -145.5c-0.666992 -40.667 -8.16699 -80 -22.5 -118s-35.5 -72.667 -63.5 -104s-63.167 -58.5 -105.5 -81.5s-91.5 -39.5 -147.5 -49.5v-4
c68.667 -3.33301 128.834 -14.333 180.501 -33s94.834 -43.5 129.501 -74.5s60.667 -67 78 -108s26 -85.5 26 -133.5c0 -74 -15.167 -138.167 -45.5 -192.5s-70.5 -99.5 -120.5 -135.5s-107 -62.833 -171 -80.5s-130 -26.5 -198 -26.5
c-54.667 0 -108.834 5.66699 -162.501 17s-105.167 28.833 -154.5 52.5s-96.166 53.667 -140.499 90s-84.833 79.833 -121.5 130.5zM617.998 741.001l3 -16l7 3z" />
    <glyph glyph-name="afii10026" unicode="&#x418;" horiz-adv-x="1618" 
d="M113 0l-0.00195312 68.001c38.667 1.33301 67.667 8.33301 87 21s33 30 41 52s12.167 48.167 12.5 78.5s0.5 63.5 0.5 99.5v885c0 28 0.5 54.5 1.5 79.5s2.83301 47.833 5.5 68.5l-148 -9v91h461v-68c-38.667 -1.33301 -67.667 -8.5 -87 -21.5s-33 -30.5 -41 -52.5
s-12.167 -48 -12.5 -78s-0.5 -63.333 -0.5 -100v-774l754 931c0.666992 15.333 1.33398 29.666 2.00098 42.999s1.66699 26 3 38l-148 -9v91h461v-68c-38 -1.33301 -66.833 -8.5 -86.5 -21.5s-33.5 -30.5 -41.5 -52.5s-12.167 -48 -12.5 -78s-0.5 -63.333 -0.5 -100v-870
c0 -73.333 -2 -127.333 -6 -162l147 8v-90h-461v68c38.667 1.33301 67.834 8.33301 87.501 21s33.5 30 41.5 52s12.167 48.167 12.5 78.5s0.5 63.5 0.5 99.5v822l-753 -940c-0.666992 -26 -1.5 -48.833 -2.5 -68.5s-2.5 -36.5 -4.5 -50.5l148 8v-90h-461z" />
    <glyph glyph-name="afii10027" unicode="&#x419;" horiz-adv-x="1618" 
d="M113 0l-0.00195312 68.001c38.667 1.33301 67.667 8.33301 87 21s33 30 41 52s12.167 48.167 12.5 78.5s0.5 63.5 0.5 99.5v885c0 28 0.5 54.5 1.5 79.5s2.83301 47.833 5.5 68.5l-148 -9v91h461v-68c-38.667 -1.33301 -67.667 -8.5 -87 -21.5s-33 -30.5 -41 -52.5
s-12.167 -48 -12.5 -78s-0.5 -63.333 -0.5 -100v-774l754 931c0.666992 15.333 1.33398 29.666 2.00098 42.999s1.66699 26 3 38l-148 -9v91h461v-68c-38 -1.33301 -66.833 -8.5 -86.5 -21.5s-33.5 -30.5 -41.5 -52.5s-12.167 -48 -12.5 -78s-0.5 -63.333 -0.5 -100v-870
c0 -73.333 -2 -127.333 -6 -162l147 8v-90h-461v68c38.667 1.33301 67.834 8.33301 87.501 21s33.5 30 41.5 52s12.167 48.167 12.5 78.5s0.5 63.5 0.5 99.5v822l-753 -940c-0.666992 -26 -1.5 -48.833 -2.5 -68.5s-2.5 -36.5 -4.5 -50.5l148 8v-90h-461zM502.998 1732
c0 27.333 7.83301 51.5 23.5 72.5s37.5 31.833 65.5 32.5c18.667 0.666992 34.167 -2.33301 46.5 -9s22 -14.667 29 -24s12 -19.333 15 -30s4.5 -20 4.5 -28c0 -13.333 -1.83301 -27.333 -5.5 -42s-9.16699 -28.334 -16.5 -41.001
c19.333 -19.333 40.833 -32.666 64.5 -39.999s53.5 -11 89.5 -11s65.833 3.66699 89.5 11s45.167 20.666 64.5 39.999c-7.33301 12.667 -12.833 26.334 -16.5 41.001s-5.5 28.667 -5.5 42c0 8 1.5 17.333 4.5 28s8 20.667 15 30s16.667 17.333 29 24s27.833 9.66699 46.5 9
c28 -0.666992 49.833 -11.5 65.5 -32.5s23.5 -45.167 23.5 -72.5c0 -30 -8.33301 -57 -25 -81s-39.334 -44.5 -68.001 -61.5s-62.167 -30 -100.5 -39s-79.166 -13.5 -122.499 -13.5s-84.166 4.5 -122.499 13.5s-71.833 22 -100.5 39s-51.334 37.5 -68.001 61.5
s-25 51 -25 81z" />
    <glyph glyph-name="afii10028" unicode="&#x41a;" horiz-adv-x="1399" 
d="M113 0v68.0049c38.667 1.33301 67.667 8.33301 87 21s33 30 41 52s12.167 48.167 12.5 78.5s0.5 63.5 0.5 99.5v885c0 28 0.5 54.5 1.5 79.5s2.83301 47.833 5.5 68.5l-148 -9v91h461v-68c-38.667 -1.33301 -67.667 -8.5 -87 -21.5s-33 -30.5 -41 -52.5
s-12.167 -48 -12.5 -78s-0.5 -63.333 -0.5 -100v-336h153l256 404c8.66699 13.333 18.5 27.666 29.5 42.999s22.667 30.666 35 45.999s25.5 30.166 39.5 44.499s28 27.166 42 38.499l-125 -4v84h440v-68c-43.333 -3.33301 -82.666 -9.16602 -117.999 -17.499
s-69 -22.333 -101 -42s-63.833 -46.667 -95.5 -81s-64.834 -79.5 -99.501 -135.5l-200 -320c19.333 -12 36.666 -24.833 51.999 -38.5s29.666 -27.834 42.999 -42.501s26 -29.834 38 -45.501l37 -47.5l229 -305c38.667 -52 72 -92.833 100 -122.5s53.333 -52 76 -67
s43.667 -24.333 63 -28s40 -5.5 62 -5.5v-68h-250c-10 0 -22.667 5.5 -38 16.5s-32.166 25.833 -50.499 44.5s-37.666 40.167 -57.999 64.5l-60.5 75.5l-245 331c-26 34 -52 66.333 -78 97s-51.333 53.667 -76 69l-100 -2v-452c0 -37.333 -0.5 -69.333 -1.5 -96
s-2.83301 -48.667 -5.5 -66l148 8v-90h-461z" />
    <glyph glyph-name="afii10029" unicode="&#x41b;" horiz-adv-x="1432" 
d="M14 106c0 30 9.33203 55.1709 27.999 75.5039s43 31.166 73 32.499c16.667 0.666992 31.334 -1.83301 44.001 -7.5s23.167 -13 31.5 -22s14.666 -19.167 18.999 -30.5s6.5 -22 6.5 -32c0 -12.667 -1.66699 -22.834 -5 -30.501s-9 -15.834 -17 -24.501
c11.333 -10.667 23 -16 35 -16c28.667 0 58.834 19.833 90.501 59.5s60.834 100.5 87.501 182.5s48.667 185.5 66 310.5s26 272.833 26 443.5v305h-43l-148 -9v91h1012v-68c-38 -1.33301 -66.833 -8.5 -86.5 -21.5s-33.5 -30.5 -41.5 -52.5s-12.167 -48 -12.5 -78
s-0.5 -63.333 -0.5 -100v-870c0 -73.333 -2 -127.333 -6 -162l147 8v-90h-461v68c38.667 1.33301 67.834 8.33301 87.501 21s33.5 30 41.5 52s12.167 48.167 12.5 78.5s0.5 63.5 0.5 99.5v1033h-282c-42 -2.66699 -72.167 -14.5 -90.5 -35.5s-28.833 -47.833 -31.5 -80.5
v-45c0 -99.333 -3 -198.666 -9 -297.999s-15.5 -194.333 -28.5 -285s-30 -175 -51 -253s-46.167 -145.833 -75.5 -203.5s-63 -102.834 -101 -135.501s-81 -49 -129 -49c-24.667 0 -48.334 3.16699 -71.001 9.5s-42.834 15.5 -60.501 27.5s-31.667 26.667 -42 44
s-15.5 36.666 -15.5 57.999zM731.999 1353h3h-3z" />
    <glyph glyph-name="afii10030" unicode="&#x41c;" horiz-adv-x="1880" 
d="M91 0l-0.00195312 67.999c32 0.666992 57 6.16699 75 16.5s31.833 24 41.5 41s15.834 36.667 18.501 59s4.66699 46.166 6 71.499l45 1095l-147 -5v88h313l135.5 -310l126.5 -293.5l123.5 -288l126.5 -292.5h4l25.5 62l27.5 70l27.5 70l24.5 62l186.5 451l192.5 469h303
v-68c-26 0.666992 -48.333 -2.83301 -67 -10.5s-34 -20.167 -46 -37.5s-20.5 -40.333 -25.5 -69s-6.16699 -64 -3.5 -106l54 -932c1.33301 -24 2.33301 -46.833 3 -68.5s1 -41.5 1 -59.5l149 7v-90h-459v68c32 0.666992 57.333 6.5 76 17.5s32.834 26.833 42.501 47.5
s15.5 45.834 17.5 75.501s2 63.834 0 102.501l-53 873l-13 -31.5l-14 -34.5l-461 -1138h-61l-135 300l-134.5 302l-131 306.5c-43 103 -84.5 207.5 -124.5 313.5l-2 -90c-1.33301 -32.667 -2.5 -70.167 -3.5 -112.5s-2.33301 -87.5 -4 -135.5s-3.16699 -98 -4.5 -150
l-4 -157l-4 -155.5c-1.33301 -51 -2.33301 -99.5 -3 -145.5l-2 -91c-0.666992 -30 -2.66699 -57.667 -6 -83l154 8v-90h-391z" />
    <glyph glyph-name="afii10031" unicode="&#x41d;" horiz-adv-x="1597" 
d="M114 0l-0.000976562 68.001c38.667 1.33301 67.667 8.33301 87 21s33 30 41 52s12.167 48.167 12.5 78.5s0.5 63.5 0.5 99.5v885c0 28 0.5 54.5 1.5 79.5s2.83301 47.833 5.5 68.5l-148 -9v91h461v-68c-38.667 -1.33301 -67.667 -8.5 -87 -21.5s-33 -30.5 -41 -52.5
s-12.167 -48 -12.5 -78s-0.5 -63.333 -0.5 -100v-340h733v430c0 57.333 2 106.666 6 147.999l-148 -9v91h461v-68c-38 -1.33301 -66.833 -8.5 -86.5 -21.5s-33.5 -30.5 -41.5 -52.5s-12.167 -48 -12.5 -78s-0.5 -63.333 -0.5 -100v-870c0 -73.333 -2 -127.333 -6 -162l147 8
v-90h-461v68c38.667 1.33301 67.834 8.33301 87.501 21s33.5 30 41.5 52s12.167 48.167 12.5 78.5s0.5 63.5 0.5 99.5v374l-733 -9v-440c0 -37.333 -0.5 -69.333 -1.5 -96s-2.83301 -48.667 -5.5 -66l148 8v-90h-461z" />
    <glyph glyph-name="afii10032" unicode="&#x41e;" horiz-adv-x="1626" 
d="M95 717c0 57.333 6.33301 115.666 19 174.999s32 116.833 58 172.5s58.667 107.834 98 156.501s85.333 91.334 138 128.001s112.334 65.5 179.001 86.5s140.334 31.5 221.001 31.5c83.333 0 159.166 -10.667 227.499 -32s129.5 -50.166 183.5 -86.499
s100.833 -79 140.5 -128s72.667 -101.333 99 -157s46 -113.167 59 -172.5s19.5 -117.333 19.5 -174s-6.5 -114.5 -19.5 -173.5s-32.333 -116.333 -58 -172s-58.167 -108 -97.5 -157s-85.5 -91.833 -138.5 -128.5s-112.667 -65.667 -179 -87s-139.833 -32 -220.5 -32
c-86.667 0 -164.834 10.333 -234.501 31s-131.5 48.834 -185.5 84.501s-100.5 77.667 -139.5 126s-71 100.166 -96 155.499s-43.5 113.166 -55.5 173.499s-18 120.166 -18 179.499zM296 754c0 -50.667 4.66504 -103.167 13.998 -157.5s23.5 -107.5 42.5 -159.5
s43 -101.5 72 -148.5s63.333 -88 103 -123s84.334 -62.833 134.001 -83.5s105.167 -31 166.5 -31c56 0 107.333 8.5 154 25.5s88.667 40.333 126 70s70 64.667 98 105s51.333 83.666 70 129.999s32.834 95.833 42.501 148.5s14.5 102 14.5 148
c0 49.333 -5.33301 104 -16 164s-26.334 116.167 -47.001 168.5s-46 101.333 -76 147s-64.667 85.334 -104 119.001s-83.166 60.167 -131.499 79.5s-100.833 29 -157.5 29c-84 0 -157.667 -18.667 -221 -56s-116 -86 -158 -146s-73.5 -127.5 -94.5 -202.5
s-31.5 -150.5 -31.5 -226.5z" />
    <glyph glyph-name="afii10033" unicode="&#x41f;" horiz-adv-x="1557" 
d="M113 0l-0.00195312 67.999c38.667 1.33301 67.667 8.33301 87 21s33 30 41 52s12.167 48.167 12.5 78.5s0.5 63.5 0.5 99.5v885c0 28 0.5 54.5 1.5 79.5s2.83301 47.833 5.5 68.5l-148 -9v91h1332v-68c-38 -1.33301 -66.833 -8.5 -86.5 -21.5s-33.5 -30.5 -41.5 -52.5
s-12.167 -48 -12.5 -78s-0.5 -63.333 -0.5 -100v-870c0 -73.333 -2 -127.333 -6 -162l147 8v-90h-461v68c38.667 1.33301 67.834 8.33301 87.501 21s33.5 30 41.5 52s12.167 48.167 12.5 78.5s0.5 63.5 0.5 99.5v1034l-557 -7
c-29.333 -1.33301 -52.666 -6.16602 -69.999 -14.499s-30.833 -19.5 -40.5 -33.5s-16.167 -30.833 -19.5 -50.5s-5.33301 -41.5 -6 -65.5v-938c0 -37.333 -0.5 -69.333 -1.5 -96s-2.83301 -48.667 -5.5 -66l148 8v-90h-461z" />
    <glyph glyph-name="afii10034" unicode="&#x420;" horiz-adv-x="1241" 
d="M114 0l-0.00195312 68.002c38.667 1.33301 67.667 8.33301 87 21s33 30 41 52s12.167 48.167 12.5 78.5s0.5 63.5 0.5 99.5v885c0 28 0.5 54.5 1.5 79.5s2.83301 47.833 5.5 68.5l-148 -9v91c72 1.33301 146 2.16602 222 2.49902s154.333 0.5 235 0.5
c198.667 0 349.667 -33.333 453 -100c110.667 -72.667 166 -179 166 -319c0 -28.667 -3.16699 -60.334 -9.5 -95.001s-19.166 -70.5 -38.499 -107.5s-45.833 -72.333 -79.5 -106s-76 -63 -127 -88s-111.833 -45 -182.5 -60s-152.667 -22.5 -246 -22.5h-31.5
c-14.333 0 -28.166 0.333008 -41.499 1v-296c0 -37.333 -0.5 -69.333 -1.5 -96s-2.83301 -48.667 -5.5 -66l189 10v-92h-502zM433.998 625.002c25.333 -3.33301 47.501 -5.33203 66.501 -5.99902s41.167 -1 66.5 -1c58 0 112.833 8.66699 164.5 26s96.667 42.5 135 75.5
s68.666 73.167 90.999 120.5s33.5 101 33.5 161c0 64.667 -10.333 119.667 -31 165s-49.667 82.166 -87 110.499s-82 48.833 -134 61.5s-109.333 19 -172 19c-36.667 0 -64.167 -5.83301 -82.5 -17.5s-31.333 -28.167 -39 -49.5s-11.5 -46.833 -11.5 -76.5v-99.5v-489z" />
    <glyph glyph-name="afii10035" unicode="&#x421;" horiz-adv-x="1432" 
d="M95 694c0 64 6.49805 127.667 19.498 191s32.667 123.5 59 180.5s59.166 110 98.499 159s85.333 91.5 138 127.5s112 64.167 178 84.5s138.667 30.5 218 30.5c77.333 0 149.666 -10.333 216.999 -31s132.666 -52 195.999 -94l-10 110h111v-475h-74
c-7.33301 64 -22.5 121.167 -45.5 171.5s-52.667 92.833 -89 127.5s-79.166 61.167 -128.499 79.5s-103.666 27.5 -162.999 27.5c-72.667 0 -140.834 -15.5 -204.501 -46.5s-119.167 -75 -166.5 -132s-84.666 -126.167 -111.999 -207.5s-41 -172 -41 -272
c0 -64.667 6.5 -125.5 19.5 -182.5s31.5 -109.667 55.5 -158s52.667 -91.666 86 -129.999s70.333 -70.833 111 -97.5s84.334 -47.167 131.001 -61.5s95.334 -21.5 146.001 -21.5c44.667 0 89.167 5 133.5 15s87 25 128 45s79.5 44.667 115.5 74s68 63 96 101l53 -43
c-44 -60.667 -91.167 -110.334 -141.5 -149.001s-101 -69.167 -152 -91.5s-101 -37.666 -150 -45.999s-94.5 -12.5 -136.5 -12.5c-102.667 0 -196.667 18.833 -282 56.5s-158.666 89.167 -219.999 154.5s-109 142.166 -143 230.499s-51 183.5 -51 285.5z" />
    <glyph glyph-name="afii10036" unicode="&#x422;" horiz-adv-x="1311" 
d="M46 1001l12.001 432.999h1194l12 -433h-77c-1.33301 60.667 -6 113.5 -14 158.5s-22 82.333 -42 112s-47 51.834 -81 66.501s-77.333 22 -130 22l-173 -1l-3 -1115c0 -73.333 -2 -127.333 -6 -162l170 8v-90h-481v68c38 1.33301 66.667 8.66602 86 21.999
s33 31.166 41 53.499s12 48.5 12 78.5v97l3 1038l-212 -1c-43.333 0 -79.833 -7.16699 -109.5 -21.5s-53.834 -36.166 -72.501 -65.499s-32.167 -66.166 -40.5 -110.499s-12.5 -96.833 -12.5 -157.5h-76z" />
    <glyph glyph-name="afii10037" unicode="&#x423;" horiz-adv-x="1250" 
d="M-10 1343l0.00292969 91h494v-68c-43.333 0 -76.333 -5.5 -99 -16.5s-37.5 -26.333 -44.5 -46s-7 -43.167 0 -70.5s18.833 -57.333 35.5 -90l312 -625l71 176.5l68.5 173l58 151.5l40.5 112l22 63.5c8 22.333 16 43.5 24 63.5s15.833 38.167 23.5 54.5
s15.167 28.833 22.5 37.5l-161 -7v91h418v-68c-38 -2 -69.333 -8.83301 -94 -20.5s-45.834 -28.334 -63.501 -50.001s-33.5 -48.167 -47.5 -79.5l-47 -110l-331 -801c-23.333 -56.667 -45.666 -106.167 -66.999 -148.5s-43.833 -77.666 -67.5 -105.999
s-49.334 -49.5 -77.001 -63.5s-59.5 -21 -95.5 -21c-21.333 0 -42 2 -62 6s-37.833 10.833 -53.5 20.5s-28.167 22.334 -37.5 38.001s-14 35.5 -14 59.5c0 33.333 9.16699 60.333 27.5 81s43.5 31.667 75.5 33c16 0.666992 30 -1.5 42 -6.5s22 -11.833 30 -20.5
s13.833 -18.334 17.5 -29.001s5.5 -21.334 5.5 -32.001c0 -12 -1.5 -21.667 -4.5 -29s-7.83301 -14.666 -14.5 -21.999c12.667 -4.66699 24.5 -7 35.5 -7s21.5 3.33301 31.5 10s20.167 16.5 30.5 29.5s21.5 30.167 33.5 51.5c7.33301 12 17.666 32.667 30.999 62l46 106
l-405 802c-27.333 53.333 -46.833 98.333 -58.5 135s-19.834 68 -24.501 94z" />
    <glyph glyph-name="afii10038" unicode="&#x424;" horiz-adv-x="1680" 
d="M94 687c0 88.667 12.832 170.501 38.499 245.501s65.167 140.333 118.5 196s120.833 100.5 202.5 134.5s178.5 54.667 290.5 62c0 28 0.5 54.5 1.5 79.5s2.83301 47.833 5.5 68.5l-148 -9v91h461v-68c-30 -1.33301 -54.167 -6 -72.5 -14s-32.5 -19 -42.5 -33
s-16.667 -30.833 -20 -50.5s-5.33301 -41.5 -6 -65.5c108 -7.33301 203.333 -26.5 286 -57.5s152.334 -72.5 209.001 -124.5s99.5 -113.833 128.5 -185.5s43.5 -151.5 43.5 -239.5c0 -81.333 -13.167 -155.833 -39.5 -223.5s-66.833 -126.334 -121.5 -176.001
s-124 -89.167 -208 -118.5s-183.333 -46.333 -298 -51c0 -16.667 -0.166992 -33.167 -0.5 -49.5s-0.833008 -31.833 -1.5 -46.5s-1.5 -28 -2.5 -40l-2.5 -30l148 8v-90h-461v68c29.333 1.33301 53.166 6.83301 71.499 16.5s32.5 22.667 42.5 39s16.833 35.333 20.5 57
s5.83398 45.167 6.50098 70.5c-105.333 6.66699 -198.333 23.5 -279 50.5s-148.5 63.333 -203.5 109s-96.667 100 -125 163s-42.5 134.167 -42.5 213.5zM294.999 724.001c0 -78 9.66699 -146.167 29 -204.5s48 -107.333 86 -147s84.833 -70.667 140.5 -93
s120.167 -36.833 193.5 -43.5v13v992c-146.667 -14 -258.167 -64.5 -334.5 -151.5s-114.5 -208.833 -114.5 -365.5zM922.999 231.001c151.333 9.33301 266.833 50.833 346.5 124.5s119.5 181.834 119.5 324.501c0 175.333 -39.833 308.666 -119.5 399.999
s-195.167 144.333 -346.5 159v-4v-1004z" />
    <glyph glyph-name="afii10039" unicode="&#x425;" horiz-adv-x="1329" 
d="M18 1343l-0.000976562 91h530v-68l-90 -4c-37.333 -2 -62.833 -8.16699 -76.5 -18.5s-20.334 -23.166 -20.001 -38.499s5.66602 -32.666 15.999 -51.999s21.5 -38.333 33.5 -57l46 -71.5l60 -87.5l71 -99.5l78 -107.5l197 284l51.5 73.5l49 68
c15.667 21 30.334 39.833 44.001 56.5s25.834 30 36.501 40l-172 -9v91h403v-68c-32.667 -4.66699 -63.667 -16.334 -93 -35.001s-57.333 -41.334 -84 -68.001s-51.834 -56 -75.501 -88l-68.5 -94l-231 -328l108.5 -145.5l102.5 -134.5l86.5 -114l62.5 -83l141 -190l119 4
v-90h-502v68c39.333 -2 68.333 1.5 87 10.5s30 21 34 36s2.16699 31.667 -5.5 50s-17.5 35.833 -29.5 52.5l-126.5 165.5l-173.5 232.5l-102 -150l-102 -152l-76.5 -114.5c-26.333 -39.667 -56.166 -79.167 -89.499 -118.5l170 10v-90h-403v68
c32.667 6.66699 61.334 16.834 86.001 30.501s47.667 30.667 69 51s42 44.166 62 71.499l65 92l265 381l-153 215.5l-109.5 153l-74 105.5l-48 73c-13 20.667 -23.5 39 -31.5 55s-15.667 33.333 -23 52z" />
    <glyph glyph-name="afii10040" unicode="&#x426;" horiz-adv-x="1520" 
d="M113 0l0.00195312 68.001c38 1.33301 66.833 8.33301 86.5 21s33.5 30 41.5 52s12.167 48.167 12.5 78.5s0.5 63.833 0.5 100.5v870c0 72.667 2 126.667 6 162l-147 -8v90h461v-68c-38.667 -1.33301 -67.834 -8.33301 -87.501 -21s-33.5 -30 -41.5 -52
s-12.167 -48.167 -12.5 -78.5s-0.5 -63.5 -0.5 -99.5v-1034l541 7c28 1.33301 50.667 6.16602 68 14.499s30.666 19.5 39.999 33.5s15.5 30.833 18.5 50.5s4.83301 41.5 5.5 65.5v938c0 37.333 0.5 69.333 1.5 96s2.83301 48.667 5.5 66l-148 -8v90h461v-68
c-38.667 -1.33301 -67.667 -8.33301 -87 -21s-33 -30 -41 -52s-12.167 -48.167 -12.5 -78.5s-0.5 -63.5 -0.5 -99.5v-885c0 -28 -0.5 -54.5 -1.5 -79.5s-2.83301 -47.833 -5.5 -68.5l148 9h30v-455h-85c0 50.667 -2.16699 98.167 -6.5 142.5s-12.5 83 -24.5 116
s-28.5 58.833 -49.5 77.5s-48.5 28 -82.5 28h-1094z" />
    <glyph glyph-name="afii10041" unicode="&#x427;" horiz-adv-x="1438" 
d="M65 1343l-0.00292969 91.0029h461v-68c-40 -1.33301 -69.833 -9.83301 -89.5 -25.5s-33.167 -40.834 -40.5 -75.501s-10.833 -79.834 -10.5 -135.501s0.166016 -124.5 -0.500977 -206.5c0.666992 -34.667 7 -67.667 19 -99s31 -59 57 -83s59 -43 99 -57
s88.333 -20.667 145 -20c60.667 0.666992 116.834 7.66699 168.501 21s95.834 30.666 132.501 51.999v467c0 57.333 2 106.666 6 147.999l-148 -9v91h461v-68c-38 -1.33301 -66.833 -8.5 -86.5 -21.5s-33.5 -30.5 -41.5 -52.5s-12.167 -48 -12.5 -78s-0.5 -63.333 -0.5 -100
v-870c0 -73.333 -2 -127.333 -6 -162l147 8v-90h-461v68c38.667 1.33301 67.834 8.33301 87.501 21s33.5 30 41.5 52s12.167 48.167 12.5 78.5s0.5 63.5 0.5 99.5v318c-48 -23.333 -104.5 -42 -169.5 -56s-133.833 -21 -206.5 -21c-74 0 -137.833 9 -191.5 27
s-97.667 44.333 -132 79s-59.666 77.334 -75.999 128.001s-24.5 109 -24.5 175v171.5c0 44.333 0.333008 80.333 1 108s1.5 49 2.5 64s2.16699 28.167 3.5 39.5z" />
    <glyph glyph-name="afii10042" unicode="&#x428;" horiz-adv-x="2058" 
d="M113 0l0.000976562 68.001c38 1.33301 66.833 8.33301 86.5 21s33.5 30 41.5 52s12.167 48.167 12.5 78.5s0.5 63.833 0.5 100.5v870c0 72.667 2 126.667 6 162l-147 -8v90h461v-68c-38.667 -1.33301 -67.834 -8.33301 -87.501 -21s-33.5 -30 -41.5 -52
s-12.167 -48.167 -12.5 -78.5s-0.5 -63.5 -0.5 -99.5v-1030h507v1105c0 37.333 0.5 69.333 1.5 96s2.83301 48.667 5.5 66l-128 -8v90h441v-68c-38.667 -1.33301 -67.667 -8.33301 -87 -21s-33 -30 -41 -52s-12.167 -48.167 -12.5 -78.5s-0.5 -63.5 -0.5 -99.5v-885
c0 -50.667 -2 -97.334 -6 -140.001h513v1100c0 37.333 0.5 69.333 1.5 96s2.83301 48.667 5.5 66l-128 -8v90h441v-68c-38.667 -1.33301 -67.667 -8.33301 -87 -21s-33 -30 -41 -52s-12.167 -48.167 -12.5 -78.5s-0.5 -63.5 -0.5 -99.5v-885c0 -28 -0.5 -54.5 -1.5 -79.5
s-2.83301 -47.833 -5.5 -68.5l148 9v-91h-1832z" />
    <glyph glyph-name="afii10043" unicode="&#x429;" horiz-adv-x="2050" 
d="M113 0l0.000976562 68.001c38 1.33301 66.833 8.33301 86.5 21s33.5 30 41.5 52s12.167 48.167 12.5 78.5s0.5 63.833 0.5 100.5v870c0 72.667 2 126.667 6 162l-147 -8v90h461v-68c-38.667 -1.33301 -67.834 -8.33301 -87.501 -21s-33.5 -30 -41.5 -52
s-12.167 -48.167 -12.5 -78.5s-0.5 -63.5 -0.5 -99.5v-1030h507v1105c0 37.333 0.5 69.333 1.5 96s2.83301 48.667 5.5 66l-128 -8v90h441v-68c-38.667 -1.33301 -67.667 -8.33301 -87 -21s-33 -30 -41 -52s-12.167 -48.167 -12.5 -78.5s-0.5 -63.5 -0.5 -99.5v-885
c0 -50.667 -2 -97.334 -6 -140.001h513v1100c0 37.333 0.5 69.333 1.5 96s2.83301 48.667 5.5 66l-128 -8v90h441v-68c-38.667 -1.33301 -67.667 -8.33301 -87 -21s-33 -30 -41 -52s-12.167 -48.167 -12.5 -78.5s-0.5 -63.5 -0.5 -99.5v-885c0 -28 -0.5 -54.5 -1.5 -79.5
s-2.83301 -47.833 -5.5 -68.5l148 9v-4l10 4h30v-455h-85c0 50.667 -2.16699 98.167 -6.5 142.5s-12.5 83 -24.5 116s-28.5 58.833 -49.5 77.5s-48.5 28 -82.5 28h-1624z" />
    <glyph glyph-name="afii10044" unicode="&#x42a;" horiz-adv-x="1469" 
d="M45 1001l12.0029 433.002h757v-68c-38.667 -1.33301 -67.667 -8.5 -87 -21.5s-33 -30.5 -41 -52.5s-12.167 -48 -12.5 -78s-0.5 -63.333 -0.5 -100v-280l155 5c107.333 3.33301 197.833 -4.5 271.5 -23.5s133 -46.5 178 -82.5s77.333 -79.333 97 -130
s29.5 -106 29.5 -166c0 -72 -11.667 -135.333 -35 -190s-55.5 -100.167 -96.5 -136.5s-89.833 -63.833 -146.5 -82.5s-118.334 -28 -185.001 -28h-588v68c37.333 0.666992 65.833 7.33398 85.5 20.001s33.667 29.834 42 51.501s12.666 47.667 12.999 78
s0.5 64.166 0.5 101.499v885c0 28 0.5 54.333 1.5 79s2.83301 47 5.5 67h-145c-43.333 0 -79.833 -6.83301 -109.5 -20.5s-53.834 -34.834 -72.501 -63.501s-32.167 -64.834 -40.5 -108.501s-12.5 -95.834 -12.5 -156.501h-76zM666.003 82.002
c16 -1.33301 34.498 -2.33105 55.498 -2.99805s41.667 -1 62 -1h55h34.5c48 0 92.333 6.83301 133 20.5s75.834 34.667 105.501 63s52.834 64.666 69.501 108.999s25 97.166 25 158.499c0 64.667 -9.5 118.5 -28.5 161.5s-44.167 77 -75.5 102s-66.833 42.667 -106.5 53
s-80.5 15.5 -122.5 15.5c-40.667 0 -76 -0.5 -106 -1.5s-61.333 -2.5 -94 -4.5v-513c0 -37.333 -0.5 -69 -1.5 -95s-2.83301 -47.667 -5.5 -65z" />
    <glyph glyph-name="afii10045" unicode="&#x42b;" horiz-adv-x="1840" 
d="M113 0l0.00195312 67.999c37.333 0.666992 65.833 7.33398 85.5 20.001s33.667 29.834 42 51.501s12.666 47.667 12.999 78s0.5 64.166 0.5 101.499v885c0 28 0.5 54.5 1.5 79.5s2.83301 47.833 5.5 68.5l-148 -9v91h461v-68c-38.667 -1.33301 -67.667 -8.5 -87 -21.5
s-33 -30.5 -41 -52.5s-12.167 -48 -12.5 -78s-0.5 -63.333 -0.5 -100v-280l165 5c104.667 3.33301 193.167 -4.5 265.5 -23.5s130.666 -46.5 174.999 -82.5s76.333 -79.333 96 -130s29.5 -106 29.5 -166c0 -72 -12 -135.333 -36 -190s-56.667 -100.167 -98 -136.5
s-89.333 -63.833 -144 -82.5s-113 -28 -175 -28h-598zM426.002 81.999c16 -1.33301 35.001 -2.33105 57.001 -2.99805s43.833 -1 65.5 -1h58.5h36c45.333 0 87.666 6.83301 126.999 20.5s73.5 34.667 102.5 63s51.833 64.666 68.5 108.999s25 97.166 25 158.499
c0 64.667 -9.5 118.5 -28.5 161.5s-43.667 77 -74 102s-64.833 42.667 -103.5 53s-77.667 15.5 -117 15.5c-40.667 0 -77.667 -0.5 -111 -1.5s-66.333 -2.5 -99 -4.5v-513c0 -37.333 -0.5 -69 -1.5 -95s-2.83301 -47.667 -5.5 -65zM1267 0.000976562v68
c38.667 1.33301 67.667 8.33301 87 21s33 30 41 52s12.167 48.167 12.5 78.5s0.5 63.5 0.5 99.5v885c0 28 0.5 54.5 1.5 79.5s2.83301 47.833 5.5 68.5l-148 -9v91h461v-68c-38.667 -1.33301 -67.667 -8.5 -87 -21.5s-33 -30.5 -41 -52.5s-12.167 -48 -12.5 -78
s-0.5 -63.333 -0.5 -100v-870c0 -37.333 -0.5 -69.333 -1.5 -96s-2.83301 -48.667 -5.5 -66l148 8v-90h-461z" />
    <glyph glyph-name="afii10046" unicode="&#x42c;" horiz-adv-x="1259" 
d="M113 0l0.000976562 67.999c37.333 0.666992 65.833 7.33398 85.5 20.001s33.667 29.834 42 51.501s12.666 47.667 12.999 78s0.5 64.166 0.5 101.499v885c0 28 0.5 54.5 1.5 79.5s2.83301 47.833 5.5 68.5l-148 -9v91h461v-68c-38.667 -1.33301 -67.667 -8.5 -87 -21.5
s-33 -30.5 -41 -52.5s-12.167 -48 -12.5 -78s-0.5 -63.333 -0.5 -100v-280l165 5c112.667 2.66699 207 -5.33301 283 -24s137.167 -46 183.5 -82s79.5 -79.333 99.5 -130s30 -106 30 -166c0 -72 -12.167 -135.333 -36.5 -190s-58 -100.167 -101 -136.5
s-94 -63.833 -153 -82.5s-123.167 -28 -192.5 -28h-598zM426.001 81.999c16 -1.33301 35 -2.33105 57 -2.99805s43.833 -1 65.5 -1h58.5h36c52.667 0 100.667 6.83301 144 20.5s80.5 34.667 111.5 63s55 64.666 72 108.999s25.5 97.166 25.5 158.499
c0 64.667 -9.66699 118.5 -29 161.5s-45.166 77 -77.499 102s-69.833 42.667 -112.5 53s-87.334 15.5 -134.001 15.5c-40.667 0 -77.667 -0.5 -111 -1.5s-66.333 -2.5 -99 -4.5v-513c0 -37.333 -0.5 -69 -1.5 -95s-2.83301 -47.667 -5.5 -65z" />
    <glyph glyph-name="afii10047" unicode="&#x42d;" horiz-adv-x="1428" 
d="M62 266l52.998 42.9971c28 -38 60 -71.667 96 -101s74.5 -54 115.5 -74s83.667 -35 128 -45s88.833 -15 133.5 -15c74.667 0 144.834 15.167 210.501 45.5s123.167 73.333 172.5 129s88.833 122.334 118.5 200.001s45.5 163.5 47.5 257.5l-455 5
c-43.333 0.666992 -80.5 0 -111.5 -2s-56.333 -8.66699 -76 -20s-34 -29.333 -43 -54s-13.5 -59.667 -13.5 -105h-67v431h91l-15 -175h688c-5.33301 91.333 -22.666 173.833 -51.999 247.5s-67.333 136.334 -114 188.001s-100.5 91.5 -161.5 119.5s-125.833 42 -194.5 42
c-59.333 0 -113.666 -9.16699 -162.999 -27.5s-92.166 -44.833 -128.499 -79.5s-66 -77.167 -89 -127.5s-38.167 -107.5 -45.5 -171.5h-74v475h111l-10 -110c63.333 42 128.666 73.333 195.999 94s139.666 31 216.999 31c79.333 0 152 -10.167 218 -30.5
s125.333 -48.5 178 -84.5s98.667 -78.5 138 -127.5s72.166 -102 98.499 -159s46 -117.167 59 -180.5s19.5 -127 19.5 -191c0 -102 -17 -197.167 -51 -285.5s-81.667 -165.166 -143 -230.499s-134.666 -116.833 -219.999 -154.5s-179.333 -56.5 -282 -56.5
c-42 0 -87.667 4.16699 -137 12.5s-99.5 23.666 -150.5 45.999s-101.5 52.833 -151.5 91.5s-97 88.334 -141 149.001z" />
    <glyph glyph-name="afii10048" unicode="&#x42e;" horiz-adv-x="2202" 
d="M113 0l0.00195312 67.998c38.667 1.33301 67.667 8.33301 87 21s33 30 41 52s12.167 48.167 12.5 78.5s0.5 63.5 0.5 99.5v885c0 28 0.5 54.5 1.5 79.5s2.83301 47.833 5.5 68.5l-148 -9v91h461v-68c-38.667 -1.33301 -67.667 -8.5 -87 -21.5s-33 -30.5 -41 -52.5
s-12.167 -48 -12.5 -78s-0.5 -63.333 -0.5 -100v-340h299c4 54.667 13.333 109.834 28 165.501s34.667 109.167 60 160.5s56.166 99.333 92.499 144s78 83.5 125 116.5s99.333 59 157 78s120.5 28.5 188.5 28.5c83.333 0 159.166 -10.667 227.499 -32
s129.5 -50.166 183.5 -86.499s100.833 -79 140.5 -128s72.667 -101.333 99 -157s46 -113.167 59 -172.5s19.5 -117.333 19.5 -174s-6.5 -114.5 -19.5 -173.5s-32.333 -116.333 -58 -172s-58.167 -108 -97.5 -157s-85.5 -91.833 -138.5 -128.5s-112.667 -65.667 -179 -87
s-139.833 -32 -220.5 -32c-76.667 0 -146 9.83301 -208 29.5s-117.5 46.5 -166.5 80.5s-91.667 74.167 -128 120.5s-66.5 96.333 -90.5 150s-42.333 109.667 -55 168s-19.667 116.833 -21 175.5l-297 -7v-440c0 -37.333 -0.5 -69.333 -1.5 -96s-2.83301 -48.667 -5.5 -66
l148 8v-90h-461zM931.002 753.998c0 -50.667 4.33008 -103.164 12.9971 -157.497s21.834 -107.5 39.501 -159.5s39.5 -101.5 65.5 -148.5s56.5 -88 91.5 -123s74.333 -62.833 118 -83.5s91.834 -31 144.501 -31c56 0 107.333 8.5 154 25.5s88.667 40.333 126 70
s70 64.667 98 105s51.333 83.666 70 129.999s32.667 94.833 42 145.5s14 101 14 151c0 56 -5.16699 112.333 -15.5 169s-25.833 111.167 -46.5 163.5s-46 101.333 -76 147s-64.667 85.334 -104 119.001s-83.166 60.167 -131.499 79.5s-100.833 29 -157.5 29
c-48 0 -92.333 -8.5 -133 -25.5s-77.5 -40.5 -110.5 -70.5s-62 -65.333 -87 -106s-46 -84.334 -63 -131.001s-29.833 -95.334 -38.5 -146.001s-13 -101.334 -13 -152.001z" />
    <glyph glyph-name="afii10049" unicode="&#x42f;" horiz-adv-x="1378" 
d="M45 0l-0.0078125 67.999c28.667 0 53.5 4 74.5 12s40.333 20.167 58 36.5s35.167 36.666 52.5 60.999l58 84.5l159 237c12.667 18.667 24.834 35.334 36.501 50.001s23.834 27.334 36.501 38.001s25.834 19.5 39.501 26.5s29.167 12.833 46.5 17.5
c-49.333 11.333 -95.166 28.333 -137.499 51s-79 49.834 -110 81.501s-55.167 67.5 -72.5 107.5s-26 83.333 -26 130c0 288.667 152.667 433 458 433h548v-68c-37.333 -1.33301 -65.833 -8.16602 -85.5 -20.499s-33.667 -29.333 -42 -51s-12.666 -47.834 -12.999 -78.501
s-0.5 -64.334 -0.5 -101.001v-885c0 -28 -0.5 -54.5 -1.5 -79.5s-2.83301 -47.833 -5.5 -68.5l148 9v-91h-461v68c38.667 1.33301 67.667 8.33301 87 21s33 30 41 52s12.167 48.167 12.5 78.5s0.5 63.833 0.5 100.5v280l-182 -2c-30.667 -17.333 -57.167 -38.5 -79.5 -63.5
s-41.166 -49.167 -56.499 -72.5l-152 -235l-45.5 -69c-15.667 -23.333 -31.667 -45.5 -48 -66.5s-32.666 -39.5 -48.999 -55.5s-32.166 -28 -47.499 -36h-241zM452.992 1005c0 -46 8.83496 -89.1689 26.502 -129.502s41.5 -75.5 71.5 -105.5s65.167 -53.667 105.5 -71
s83.5 -26 129.5 -26c40.667 0 75.667 0.5 105 1.5s47.666 2.5 54.999 4.5v513c0 37.333 0.5 69 1.5 95s2.83301 47.667 5.5 65c-3.33301 1.33301 -12.666 2.33301 -27.999 3s-32.333 1 -51 1h-53h-35c-48 0 -92.333 -6.83301 -133 -20.5s-75.834 -34.667 -105.501 -63
s-52.834 -64.666 -69.501 -108.999s-25 -97.166 -25 -158.499z" />
    <glyph glyph-name="afii10065" unicode="&#x430;" horiz-adv-x="1057" 
d="M71 210c0 42 9.16797 80.3369 27.501 115.004s43 65.5 74 92.5s67.167 50.333 108.5 70s85.166 35.834 131.499 48.501s93.666 21.834 141.999 27.501s95.5 8.16699 141.5 7.5v128c0 35.333 -2 69.666 -6 102.999s-12.833 63.666 -26.5 90.999s-35 49 -64 65
s-62.5 24 -100.5 24c-22 0 -43 -1.83301 -63 -5.5s-39.667 -9.83398 -59 -18.501s-36.833 -20 -52.5 -34s-28.5 -30.667 -38.5 -50c10 -11.333 16.833 -23.833 20.5 -37.5s5.5 -26.834 5.5 -39.501c0 -8 -1.66699 -17.167 -5 -27.5s-8.5 -20 -15.5 -29s-16 -16.333 -27 -22
s-25.833 -8.5 -44.5 -8.5c-26.667 0 -47.834 9.83301 -63.501 29.5s-23.5 43.5 -23.5 71.5c0 34 10 66 30 96s48 56.167 84 78.5s78.833 39.833 128.5 52.5s103.834 19 162.501 19c114.667 0 199.167 -30.333 253.5 -91s81.166 -157 80.499 -289l-2 -460
c0 -21.333 -0.5 -42.833 -1.5 -64.5s-3.16699 -46.5 -6.5 -74.5l145 8v-86h-293c-4 23.333 -7 43.666 -9 60.999s-3.66699 35.666 -5 54.999c-46 -46 -96.167 -82.333 -150.5 -109s-111.833 -40 -172.5 -40c-51.333 0 -96.166 6.16699 -134.499 18.5
s-70.166 29.5 -95.499 51.5s-44.333 47.833 -57 77.5s-19 61.5 -19 95.5zM266.001 235.004c0.666992 -25.333 5.5 -47.502 14.5 -66.502s20.667 -34.667 35 -47s30.833 -21.666 49.5 -27.999s38.667 -9.5 60 -9.5c27.333 0 53 2.66699 77 8s46.833 13.166 68.5 23.499
s42.667 22.833 63 37.5s40.833 31.667 61.5 51v297c-31.333 -1.33301 -63.833 -4.16602 -97.5 -8.49902s-66.667 -11 -99 -20s-62.833 -20.5 -91.5 -34.5s-53.667 -30.667 -75 -50s-38 -41.666 -50 -66.999s-17.333 -54 -16 -86z" />
    <glyph glyph-name="afii10066" unicode="&#x431;" horiz-adv-x="1115" 
d="M87 612c0 89.333 6.8291 175.503 20.4961 258.503s35.5 158.667 65.5 227s68.833 128 116.5 179s105.167 89.167 172.5 114.5c26 10 52.167 17.833 78.5 23.5s52.833 10.5 79.5 14.5l80.5 12.5c27 4.33301 54.167 10.166 81.5 17.499c18 4.66699 33.667 9.66699 47 15
s24.833 11.5 34.5 18.5s17.834 15.667 24.501 26s13 23.166 19 38.499l71 -24l-20 -88c-6 -25.333 -14.833 -47.833 -26.5 -67.5s-27.667 -37.167 -48 -52.5s-48.166 -29 -83.499 -41c-28 -10 -56.167 -17.667 -84.5 -23s-56.333 -10 -84 -14s-54.667 -8.16699 -81 -12.5
s-51.5 -10.166 -75.5 -17.499c-52 -16 -96.667 -39.833 -134 -71.5s-68 -69.167 -92 -112.5s-41.667 -91.5 -53 -144.5s-16.666 -108.833 -15.999 -167.5h14c15.333 40 35 76.333 59 109s52.333 60.5 85 83.5s69.667 40.833 111 53.5s87 19 137 19
c64 0 123.667 -10.333 179 -31s103.333 -51 144 -91s72.667 -89.5 96 -148.5s35 -127.167 35 -204.5c0 -82 -12.5 -156.5 -37.5 -223.5s-59.167 -124 -102.5 -171s-94.166 -83.333 -152.499 -109s-120.833 -38.5 -187.5 -38.5c-66 0 -127.833 13.167 -185.5 39.5
s-107.667 66.166 -150 119.499s-75.833 120.166 -100.5 200.499s-37 174.833 -37 283.5zM278.996 520.003c0 -73.333 6.16797 -139.331 18.501 -197.998s30.666 -108.334 54.999 -149.001s54.5 -71.834 90.5 -93.501s77.667 -32.5 125 -32.5c50 0 92.5 11.5 127.5 34.5
s63.167 53.5 84.5 91.5s36.833 81.333 46.5 130s14.5 99 14.5 151c0 56 -5.5 111.333 -16.5 166s-28.167 103.5 -51.5 146.5s-53.5 77.833 -90.5 104.5s-81.5 40 -133.5 40c-46 0 -86 -10.833 -120 -32.5s-62.167 -50.667 -84.5 -87s-38.833 -78 -49.5 -125
s-16 -95.833 -16 -146.5z" />
    <glyph glyph-name="afii10067" unicode="&#x432;" horiz-adv-x="1068" 
d="M90 0l-0.000976562 61.0039c24.667 0.666992 45 5.16699 61 13.5s28.667 20 38 35s15.666 33 18.999 54s5 45.167 5 72.5v592c0 24.667 0.666992 46.5 2 65.5s3.66602 36.5 6.99902 52.5l-129 -6v84c26.667 0 59.834 0.166992 99.501 0.5s83.167 0.666016 130.5 0.999023
s97 0.5 149 0.5h156c48 0 92 -4.83301 132 -14.5s74.333 -24.334 103 -44.001s50.834 -44.167 66.501 -73.5s23.167 -63.666 22.5 -102.999c0 -28 -4.66699 -55 -14 -81s-23.333 -50.167 -42 -72.5s-42.167 -41.833 -70.5 -58.5s-61.833 -29.334 -100.5 -38.001v-3
c46 -2 86.667 -9.33301 122 -22s64.833 -29.834 88.5 -51.501s41.667 -47.334 54 -77.001s18.5 -62.167 18.5 -97.5c0 -46 -9.66699 -86.833 -29 -122.5s-45.166 -66 -77.499 -91s-69.5 -44 -111.5 -57s-86 -19.5 -132 -19.5h-568zM383.999 84.0039
c11.333 -1.33301 25.998 -2.16504 43.998 -2.49805s35.833 -0.5 53.5 -0.5h48.5h29c38 0 72.5 4 103.5 12s57.5 20.167 79.5 36.5s39.167 37.333 51.5 63s18.5 56.5 18.5 92.5s-6.83301 66.667 -20.5 92s-32.167 46.166 -55.5 62.499s-50.333 28.166 -81 35.499
s-62.667 11 -96 11c-29.333 0 -59.166 -0.5 -89.499 -1.5s-57.166 -2.16699 -80.499 -3.5v-283c0 -26.667 -0.5 -49.167 -1.5 -67.5s-2.16699 -33.833 -3.5 -46.5zM388.997 559.005l153.001 2.99902c42 0.666992 77.333 7.66699 106 21s51.667 30.333 69 51
s29.666 43.834 36.999 69.501s10.666 51.167 9.99902 76.5c-0.666992 35.333 -7 64.166 -19 86.499s-27.667 39.833 -47 52.5s-41.666 21.334 -66.999 26.001s-52 7 -80 7c-24.667 0 -47 -1.83301 -67 -5.5s-37 -10.834 -51 -21.501s-24.833 -25.167 -32.5 -43.5
s-11.5 -42.166 -11.5 -71.499v-251z" />
    <glyph glyph-name="afii10068" unicode="&#x433;" horiz-adv-x="896" 
d="M90 0l0.000976562 61c31.333 0 55.166 6.16699 71.499 18.5s28.333 29.5 36 51.5s12 48.333 13 79s1.83301 64.334 2.5 101.001v496c0 27.333 0.333008 51.5 1 72.5s3 43.167 7 66.5l-128 -6v84h769l9 -309h-78c-1.33301 42.667 -6.16602 78.667 -14.499 108
s-22.833 52.666 -43.5 69.999s-48.834 29.833 -84.501 37.5s-81.167 11.5 -136.5 11.5c-30 0 -53.333 -5 -70 -15s-29.167 -24.833 -37.5 -44.5s-13.5 -43.667 -15.5 -72s-3.33301 -60.833 -4 -97.5v-496c0 -27.333 -0.333008 -51.5 -1 -72.5s-3 -43.167 -7 -66.5l129 6v-84
h-418z" />
    <glyph glyph-name="afii10069" unicode="&#x434;" horiz-adv-x="1210" 
d="M45 77l82.9961 0.00195312c16.667 0 31.834 1.66699 45.501 5s26.334 9.66602 38.001 18.999s22.667 22.5 33 39.5s20.5 39.167 30.5 66.5c15.333 40.667 28.833 85.667 40.5 135s21.667 104.333 30 165s15 127.167 20 199.5s8.83301 151.5 11.5 237.5l-181 -9v89h905
v-61c-31.333 0 -55.166 -6.16699 -71.499 -18.5s-28.166 -29.5 -35.499 -51.5s-11.5 -48.333 -12.5 -79s-1.5 -64.334 -1.5 -101.001v-496l-3.5 -72.5c-1 -21 -3.5 -43.167 -7.5 -66.5l186 8v-450h-78c0 55.333 -2.5 105.5 -7.5 150.5s-14 83.333 -27 115s-30.333 56 -52 73
s-49.5 25.5 -83.5 25.5h-612c-34 0 -62 -8.5 -84 -25.5s-39.5 -41.167 -52.5 -72.5s-22.167 -69.5 -27.5 -114.5s-8 -95.5 -8 -151.5h-78v441zM313.996 77.002l366 -0.000976562c31.333 0 55.333 6.16699 72 18.5s28.834 29.5 36.501 51.5s12.167 48.333 13.5 79
s2 64.334 2 101.001v480c0 27.333 0.333008 51.5 1 72.5s3 43.167 7 66.5h-213c-21.333 0 -39.166 -3.16699 -53.499 -9.5s-25.833 -15.5 -34.5 -27.5s-15.334 -26.5 -20.001 -43.5s-8.33398 -36.167 -11.001 -57.5c-6 -68 -12.833 -133.333 -20.5 -196
s-16 -120.334 -25 -173.001s-18.167 -99.5 -27.5 -140.5s-18.333 -74.5 -27 -100.5c-18 -51.333 -40 -91.666 -66 -120.999z" />
    <glyph glyph-name="afii10070" unicode="&#x435;" horiz-adv-x="1110" 
d="M87 510c0 72 12.3359 140.835 37.0029 206.502s59.667 123.834 105 174.501s99.666 91 162.999 121s133.666 45 210.999 45c56.667 0 110.167 -9.33301 160.5 -28s94.5 -46.667 132.5 -84s68 -84.5 90 -141.5s33 -123.5 33 -199.5l-721 -12
c-0.666992 -78.667 5.33301 -150 18 -214s32.667 -118.667 60 -164s62.5 -80.333 105.5 -105s94.5 -37 154.5 -37c32 0 64.667 4.33301 98 13s65.5 20.5 96.5 35.5s59.5 33 85.5 54s47.667 43.5 65 67.5l50 -41c-28 -42.667 -60.5 -78.834 -97.5 -108.501
s-75.333 -53.834 -115 -72.501s-79.5 -32.167 -119.5 -40.5s-77.333 -12.5 -112 -12.5c-70.667 0 -136.5 12.667 -197.5 38s-113.833 61.666 -158.5 108.999s-79.834 104.333 -105.501 171s-38.5 141.667 -38.5 225zM304.003 678.002h522c0 36 -4 71.833 -12 107.5
s-20.833 67.667 -38.5 96s-40.5 51.333 -68.5 69s-62 26.5 -102 26.5c-80 0 -146 -23.5 -198 -70.5s-86.333 -123.167 -103 -228.5z" />
    <glyph glyph-name="afii10072" unicode="&#x436;" horiz-adv-x="1588" 
d="M15 0l0.00488281 61c36 0 72.5 17.167 109.5 51.5s78.167 82.833 123.5 145.5l63.5 86.5l68 88c23 28.333 45.667 54.5 68 78.5s43.5 43.333 63.5 58l-145 179l-62 64.5c-23.333 23.667 -49 46 -77 67s-57.833 39.167 -89.5 54.5s-64.834 25 -99.501 29v61h373v-82
l-140 6c19.333 -12 38.666 -27.167 57.999 -45.5l63 -62.5l220 -262h100v229c0 27.333 0.333008 51.5 1 72.5s3 43.167 7 66.5l-129 -6v84h408v-61c-31.333 0 -55.166 -6.16699 -71.499 -18.5s-28.166 -29.5 -35.499 -51.5s-11.5 -48.333 -12.5 -79
s-1.83301 -64.334 -2.5 -101.001v-135h99l220 262l63 62.5c19.333 18.333 38.666 33.5 57.999 45.5l-140 -6v82h373v-61c-34.667 -4 -67.834 -13.667 -99.501 -29s-61.5 -33.5 -89.5 -54.5s-53.667 -43.333 -77 -67l-62 -64.5l-145 -179c20 -14.667 41.167 -34 63.5 -58
s45 -50.167 68 -78.5l68 -88l63.5 -86.5c45.333 -62.667 86.5 -111.167 123.5 -145.5s73.5 -51.5 109.5 -51.5v-61h-180c-16.667 0 -33.334 4.83301 -50.001 14.5s-33.667 23.167 -51 40.5s-35.5 38 -54.5 62l-60.5 78l-52.5 72l-56.5 79.5l-58.5 79.5
c-19.667 26 -39.5 50.667 -59.5 74l-75 -2v-281c0 -27.333 -0.333008 -51.5 -1 -72.5s-3 -43.167 -7 -66.5l129 6v-84h-408v61c31.333 0 55.166 6.16699 71.499 18.5s28.333 29.5 36 51.5s12 48.333 13 79s1.83301 64.334 2.5 101.001v187l-73 2
c-20 -23.333 -39.833 -48 -59.5 -74l-58.5 -79.5l-56.5 -79.5l-52.5 -72l-60.5 -78c-19 -24 -37.167 -44.667 -54.5 -62s-34.333 -30.833 -51 -40.5s-33.334 -14.5 -50.001 -14.5h-180z" />
    <glyph glyph-name="afii10073" unicode="&#x437;" horiz-adv-x="940" 
d="M55 220c0 29.333 8.16504 54.501 24.498 75.501s39.833 31.833 70.5 32.5c18 0.666992 33 -2.16602 45 -8.49902s21.667 -14.166 29 -23.499s12.666 -19.5 15.999 -30.5s5 -20.833 5 -29.5c0 -13.333 -2.16699 -27.333 -6.5 -42s-12.5 -28.334 -24.5 -41.001
c27.333 -40.667 62.333 -70 105 -88s86.334 -27 131.001 -27c30 0 59.167 4.16699 87.5 12.5s53.333 21.166 75 38.499s39 39 52 65s19.5 57 19.5 93c0 43.333 -6.83301 80.166 -20.5 110.499s-32.167 55 -55.5 74s-50.333 32.833 -81 41.5s-62.667 13 -96 13h-94v76h85
c38 0 71 5.5 99 16.5s51.167 26.167 69.5 45.5s31.833 42.666 40.5 69.999s13 57 13 89c0 61.333 -15.167 109.5 -45.5 144.5s-75.166 52.5 -134.499 52.5c-42 0 -78.667 -8.66699 -110 -26s-57.5 -39.833 -78.5 -67.5s-37.167 -58.834 -48.5 -93.501
s-18.333 -69.667 -21 -105h-64v359h86l-5 -78c42 34 85.833 57.167 131.5 69.5s90.834 18.5 135.501 18.5c49.333 0 94.833 -6.16699 136.5 -18.5s77.834 -29.666 108.501 -51.999s54.5 -49.5 71.5 -81.5s25.5 -67.667 25.5 -107c0 -30 -5.16699 -58.667 -15.5 -86
s-25.333 -52 -45 -74s-43.5 -41.333 -71.5 -58s-59.667 -29.667 -95 -39v-4c41.333 -3.33301 79 -12 113 -26s63 -32.667 87 -56s42.5 -50.666 55.5 -81.999s19.5 -65.666 19.5 -102.999c0 -47.333 -10.333 -89.666 -31 -126.999s-49.334 -69 -86.001 -95
s-80.667 -46 -132 -60s-107.333 -21 -168 -21c-68.667 0 -129 8.5 -181 25.5s-95.167 38.167 -129.5 63.5s-59.833 52.666 -76.5 81.999s-23.667 56.666 -21 81.999z" />
    <glyph glyph-name="afii10074" unicode="&#x438;" horiz-adv-x="1284" 
d="M90 0l-0.000976562 61c31.333 0 55.166 6.16699 71.499 18.5s28.333 29.5 36 51.5s12.167 48.333 13.5 79s2.33301 64.334 3 101.001v496c0 27.333 0.333008 51.5 1 72.5s3 43.167 7 66.5l-129 -6v84h418v-61c-31.333 0 -55.166 -6.16699 -71.499 -18.5
s-28.333 -29.5 -36 -51.5s-12.167 -48.333 -13.5 -79s-2.33301 -64.334 -3 -101.001v-437l513 633l2 18c0.666992 6 1.66699 12.333 3 19l-129 -6v84h418v-61c-31.333 0 -55.166 -6.16699 -71.499 -18.5s-28.166 -29.5 -35.499 -51.5s-11.5 -48.333 -12.5 -79
s-1.5 -64.334 -1.5 -101.001v-496l-3.5 -72.5c-1 -21 -3.5 -43.167 -7.5 -66.5l129 6v-84h-418v61c31.333 0 55.166 6.16699 71.499 18.5s28.333 29.5 36 51.5s12.167 48.333 13.5 79s2.33301 64.334 3 101.001v464l-512 -642c-0.666992 -9.33301 -1.5 -18.333 -2.5 -27
s-2.16699 -18 -3.5 -28l129 6v-84h-418z" />
    <glyph glyph-name="afii10075" unicode="&#x439;" horiz-adv-x="1284" 
d="M90 0l-0.000976562 61c31.333 0 55.166 6.16699 71.499 18.5s28.333 29.5 36 51.5s12.167 48.333 13.5 79s2.33301 64.334 3 101.001v496c0 27.333 0.333008 51.5 1 72.5s3 43.167 7 66.5l-129 -6v84h418v-61c-31.333 0 -55.166 -6.16699 -71.499 -18.5
s-28.333 -29.5 -36 -51.5s-12.167 -48.333 -13.5 -79s-2.33301 -64.334 -3 -101.001v-437l513 633l2 18c0.666992 6 1.66699 12.333 3 19l-129 -6v84h418v-61c-31.333 0 -55.166 -6.16699 -71.499 -18.5s-28.166 -29.5 -35.499 -51.5s-11.5 -48.333 -12.5 -79
s-1.5 -64.334 -1.5 -101.001v-496l-3.5 -72.5c-1 -21 -3.5 -43.167 -7.5 -66.5l129 6v-84h-418v61c31.333 0 55.166 6.16699 71.499 18.5s28.333 29.5 36 51.5s12.167 48.333 13.5 79s2.33301 64.334 3 101.001v464l-512 -642c-0.666992 -9.33301 -1.5 -18.333 -2.5 -27
s-2.16699 -18 -3.5 -28l129 6v-84h-418zM359.999 1359c0 24.667 7.16992 46.5 21.5029 65.5s34.166 28.833 59.499 29.5c16.667 0.666992 30.667 -2 42 -8s20.166 -13.333 26.499 -22s10.833 -17.834 13.5 -27.501s4 -18.167 4 -25.5c0 -11.333 -1.5 -23.833 -4.5 -37.5
s-8.16699 -26.167 -15.5 -37.5c4 -7.33301 11 -13.5 21 -18.5s21.5 -9 34.5 -12s26.833 -5.16699 41.5 -6.5s29 -2 43 -2s28.333 0.666992 43 2s28.5 3.5 41.5 6.5s24.5 7 34.5 12s17 11.167 21 18.5c-7.33301 11.333 -12.5 23.833 -15.5 37.5s-4.5 26.167 -4.5 37.5
c0 7.33301 1.33301 15.833 4 25.5s7.16699 18.834 13.5 27.501s15 16 26 22s25.167 8.66699 42.5 8c25.333 -0.666992 45.166 -10.5 59.499 -29.5s21.5 -40.833 21.5 -65.5c0 -27.333 -7.66699 -51.833 -23 -73.5s-36 -40.167 -62 -55.5s-56.333 -27.166 -91 -35.499
s-71.667 -12.5 -111 -12.5s-76.333 4.16699 -111 12.5s-65 20.166 -91 35.499s-46.667 33.833 -62 55.5s-23 46.167 -23 73.5z" />
    <glyph glyph-name="afii10076" unicode="&#x43a;" horiz-adv-x="1100" 
d="M70 0l0.00390625 61c31.333 0 55.166 6.16699 71.499 18.5s28.333 29.5 36 51.5s12.167 48.333 13.5 79s2.33301 64.334 3 101.001v496c0 27.333 0.333008 51.5 1 72.5s3 43.167 7 66.5l-129 -6v84h418v-61c-31.333 0 -55.166 -6.16699 -71.499 -18.5
s-28.166 -29.5 -35.499 -51.5s-11.5 -48.333 -12.5 -79s-1.83301 -64.334 -2.5 -101.001v-135h79l250 262l63 62.5c19.333 18.333 38.666 33.5 57.999 45.5l-140 -6v82h373v-61c-34.667 -4 -67.834 -13.833 -99.501 -29.5s-61.334 -34.167 -89.001 -55.5
s-53.167 -43.666 -76.5 -66.999l-63 -63l-159 -168c26.667 -12.667 49.667 -28.334 69 -47.001s38.666 -40 57.999 -64l145 -186l20.5 -28c9.66699 -13.333 21 -28.166 34 -44.499s27.5 -33.333 43.5 -51s32.5 -33.834 49.5 -48.501s34 -26.667 51 -36s33.5 -14 49.5 -14
v-61h-186c-18.667 0 -37 5.5 -55 16.5s-35.833 25.5 -53.5 43.5s-35.334 38.5 -53.001 61.5l-54.5 71.5l-137 190.5c-37.333 53.667 -69.333 93.167 -96 118.5l-83 -4v-281c0 -27.333 -0.333008 -51.5 -1 -72.5s-3 -43.167 -7 -66.5l129 6v-84h-418z" />
    <glyph glyph-name="afii10077" unicode="&#x43b;" horiz-adv-x="1212" 
d="M15 85c0 30.667 7.49805 55.665 22.498 74.998s37.5 29.333 67.5 30c16.667 0 30.667 -2.16699 42 -6.5s20.666 -10.166 27.999 -17.499s12.833 -15.333 16.5 -24s5.5 -17 5.5 -25c0 -4 -0.5 -9 -1.5 -15s-2.16699 -11.333 -3.5 -16
c5.33301 -2.66699 11.666 -4 18.999 -4c20 0 41.333 14.833 64 44.5s44.334 78.334 65.001 146.001s39.167 156.5 55.5 266.5s28.5 245.333 36.5 406l-192 -10v89h882v-61c-31.333 0 -55.166 -6.16699 -71.499 -18.5s-28.166 -29.5 -35.499 -51.5s-11.5 -48.333 -12.5 -79
s-1.5 -64.334 -1.5 -101.001v-496l-3.5 -72.5c-1 -21 -3.5 -43.167 -7.5 -66.5l129 6v-84h-418v61c31.333 0 55.166 6.16699 71.499 18.5s28.333 29.5 36 51.5s12.167 48.333 13.5 79s2.33301 64.334 3 101.001v496c0 27.333 0.333008 51.5 1 72.5s3 43.167 7 66.5h-180
c-23.333 0 -42.833 -3.83301 -58.5 -11.5s-28.167 -18.5 -37.5 -32.5s-15.833 -30.833 -19.5 -50.5s-5.5 -41.834 -5.5 -66.501c-3.33301 -64.667 -8.66602 -129.667 -15.999 -195s-17.166 -127.833 -29.499 -187.5s-27.833 -115.5 -46.5 -167.5s-40.834 -97 -66.501 -135
s-55.5 -68 -89.5 -90s-72.667 -33 -116 -33c-49.333 0 -87.166 9.83301 -113.499 29.5s-39.5 45.834 -39.5 78.501z" />
    <glyph glyph-name="afii10078" unicode="&#x43c;" horiz-adv-x="1512" 
d="M65 0l-0.00292969 60.998c21.333 0 39.166 3 53.499 9s25.833 15 34.5 27s15.334 26.667 20.001 44s8.33398 36.666 11.001 57.999l91 747l-126 -6v84h273l335 -790l324 790h241v-61c-37.333 0 -65.5 -11.167 -84.5 -33.5s-24.5 -60.166 -16.5 -113.499l93 -624
c2.66699 -17.333 4 -36.5 4 -57.5s-1 -39.5 -3 -55.5l132 5v-84h-413v61c42.667 -1.33301 73.834 12 93.501 40s24.834 73 15.501 135l-81 525l-312 -761h-82l-320 782l-72 -584c-2 -17.333 -5.33301 -37.166 -10 -59.499s-9.66699 -42.166 -15 -59.499l129 5v-84h-315z" />
    <glyph glyph-name="afii10079" unicode="&#x43d;" 
d="M90 0l-0.00195312 61c31.333 0 55.166 6.16699 71.499 18.5s28.333 29.5 36 51.5s12.167 48.333 13.5 79s2.33301 64.334 3 101.001v496c0 27.333 0.333008 51.5 1 72.5s3 43.167 7 66.5l-129 -6v84h418v-61c-31.333 0 -55.166 -6.16699 -71.499 -18.5
s-28.166 -29.5 -35.499 -51.5s-11.5 -48.333 -12.5 -79s-1.83301 -64.334 -2.5 -101.001v-147h498v241c0 27.333 0.333008 51.5 1 72.5s3 43.167 7 66.5l-129 -6v84h418v-61c-31.333 0 -55.166 -6.16699 -71.499 -18.5s-28.166 -29.5 -35.499 -51.5s-11.5 -48.333 -12.5 -79
s-1.5 -64.334 -1.5 -101.001v-496l-3.5 -72.5c-1 -21 -3.5 -43.167 -7.5 -66.5l129 6v-84h-418v61c31.333 0 55.166 6.16699 71.499 18.5s28.333 29.5 36 51.5s12 48.333 13 79s1.83301 64.334 2.5 101.001v174l-499 -6v-262c0 -27.333 -0.333008 -51.5 -1 -72.5
s-3 -43.167 -7 -66.5l129 6v-84h-418z" />
    <glyph glyph-name="afii10080" unicode="&#x43e;" horiz-adv-x="1198" 
d="M85 487c0 80.667 13.1641 155.83 39.4971 225.497s62.5 130 108.5 181s100.333 91 163 120s130.334 43.5 203.001 43.5c72 0 139.333 -13.167 202 -39.5s117.167 -62.666 163.5 -108.999s83 -101.333 110 -165s40.5 -132.5 40.5 -206.5
c0 -79.333 -13.167 -153.666 -39.5 -222.999s-62.666 -129.666 -108.999 -180.999s-101 -91.833 -164 -121.5s-130.833 -44.5 -203.5 -44.5c-72 0 -139.167 12.833 -201.5 38.5s-116.666 61.5 -162.999 107.5s-82.833 100.833 -109.5 164.5s-40 133.5 -40 209.5z
M293.997 546.996c0 -63.333 6.50098 -124.999 19.501 -184.999s32.833 -113.167 59.5 -159.5s60.167 -83.5 100.5 -111.5s87.5 -42 141.5 -42s99.5 12.167 136.5 36.5s67 56.5 90 96.5s39.5 85.667 49.5 137s15 104 15 158c0 61.333 -5.66699 122 -17 182
s-29.333 113.667 -54 161s-56.5 85.666 -95.5 114.999s-85.833 44 -140.5 44c-54 0 -100.167 -12 -138.5 -36s-69.833 -56 -94.5 -96s-42.834 -86 -54.501 -138s-17.5 -106 -17.5 -162z" />
    <glyph glyph-name="afii10081" unicode="&#x43f;" horiz-adv-x="1259" 
d="M90 0l-0.000976562 60.999c31.333 0 55.166 6.16699 71.499 18.5s28.333 29.5 36 51.5s12.167 48.333 13.5 79s2.33301 64.334 3 101.001v496c0 27.333 0.333008 51.5 1 72.5s3 43.167 7 66.5l-129 -6v84h1076v-61c-31.333 0 -55.166 -6.16699 -71.499 -18.5
s-28.166 -29.5 -35.499 -51.5s-11.5 -48.333 -12.5 -79s-1.5 -64.334 -1.5 -101.001v-496l-3.5 -72.5c-1 -21 -3.5 -43.167 -7.5 -66.5l129 6v-84h-418v61c31.333 0 55.166 6.16699 71.499 18.5s28.333 29.5 36 51.5s12.167 48.333 13.5 79s2.33301 64.334 3 101.001v496
c0 27.333 0.333008 51.5 1 72.5s3 43.167 7 66.5l-369 -4c-31.333 0 -55.166 -5 -71.499 -15s-28.333 -24.833 -36 -44.5s-12.167 -43.667 -13.5 -72s-2.33301 -60.833 -3 -97.5v-496c0 -27.333 -0.333008 -51.5 -1 -72.5s-3 -43.167 -7 -66.5l129 6v-84h-418z" />
    <glyph glyph-name="afii10082" unicode="&#x440;" horiz-adv-x="1223" 
d="M60 903l0.00488281 86.002c44.667 0 81 1.5 109 4.5s50.5 7.16699 67.5 12.5s30.167 11.166 39.5 17.499s17.666 13.166 24.999 20.499h60c1.33301 -13.333 2.66602 -29 3.99902 -47s2.66602 -39 3.99902 -63c20.667 18 43.5 34.667 68.5 50s51.333 28.333 79 39
s55.834 19 84.501 25s57.334 9 86.001 9c59.333 0 116.166 -11.667 170.499 -35s102.166 -56.833 143.499 -100.5s74.333 -97 99 -160s37 -134.167 37 -213.5c0 -58 -6.5 -112.667 -19.5 -164s-31.167 -98.5 -54.5 -141.5s-51.166 -81.5 -83.499 -115.5
s-67.833 -62.833 -106.5 -86.5s-79.834 -41.834 -123.501 -54.501s-88.5 -19 -134.5 -19c-94.667 0 -176.334 22.333 -245.001 67l-1 -339c0 -27.333 -0.333008 -51.5 -1 -72.5s-3 -43.167 -7 -66.5l129 6v-84h-418v61c31.333 0 55.166 6.16699 71.499 18.5s28 29.5 35 51.5
s11 48.333 12 79s1.83301 64.334 2.5 101.001l4 989c0 21.333 0.333008 43 1 65s3 44.667 7 68zM371.005 129.002c34 -25.333 71.3311 -45.001 111.998 -59.001s83.334 -21 128.001 -21c48.667 0 92.334 11.667 131.001 35s71.667 55.833 99 97.5s48.333 91 63 148
s22 119.5 22 187.5c0 55.333 -5.83301 109.333 -17.5 162s-30 99.667 -55 141s-57.167 74.5 -96.5 99.5s-87 37.5 -143 37.5c-24 0 -47.333 -3.16699 -70 -9.5s-44.334 -14.666 -65.001 -24.999s-40.167 -22.5 -58.5 -36.5s-34.5 -28.667 -48.5 -44
c0 -5.33301 0.166992 -11.5 0.5 -18.5s0.5 -18.833 0.5 -35.5v-70.5c0 -30.333 -0.166992 -71 -0.5 -122s-0.666016 -114.5 -0.999023 -190.5s-0.5 -168 -0.5 -276z" />
    <glyph glyph-name="afii10083" unicode="&#x441;" horiz-adv-x="1090" 
d="M85 494c0 47.333 5.82812 94.002 17.4951 140.002s28.5 89.833 50.5 131.5s48.667 80.334 80 116.001s66.833 66.5 106.5 92.5s83 46.333 130 61s96.833 22 149.5 22c56.667 0 108.334 -7 155.001 -21s86.667 -32.667 120 -56s59 -50.166 77 -80.499
s27 -62.166 27 -95.499c0 -29.333 -8.16699 -54.5 -24.5 -75.5s-39.833 -31.833 -70.5 -32.5c-18 -0.666992 -33 2.16602 -45 8.49902s-21.667 14.166 -29 23.499s-12.666 19.5 -15.999 30.5s-5 20.833 -5 29.5c0 13.333 2.16699 27.333 6.5 42s12.5 28.334 24.5 41.001
c-9.33301 24 -23 43.167 -41 57.5s-37.5 25.5 -58.5 33.5s-42 13.167 -63 15.5s-38.5 3.5 -52.5 3.5c-46.667 0 -90.167 -9.5 -130.5 -28.5s-75.166 -46.833 -104.499 -83.5s-52.5 -82.334 -69.5 -137.001s-25.5 -117.334 -25.5 -188.001c0 -68 8.5 -130.833 25.5 -188.5
s40.833 -107.334 71.5 -149.001s67.667 -74.167 111 -97.5s91.333 -35 144 -35c32 0 63.667 4.5 95 13.5s61 21.5 89 37.5s53.833 34.667 77.5 56s43.834 44.333 60.501 69l53 -41c-27.333 -42.667 -58.5 -79.167 -93.5 -109.5s-71.667 -55.333 -110 -75
s-77 -34.167 -116 -43.5s-75.833 -14 -110.5 -14c-69.333 0 -134.666 11.833 -195.999 35.5s-115 58 -161 103s-82.333 100.167 -109 165.5s-40 139.666 -40 222.999z" />
    <glyph glyph-name="afii10084" unicode="&#x442;" horiz-adv-x="1013" 
d="M45 715l9 308.999h905l9 -309h-78c-1.33301 42.667 -4.66602 78.334 -9.99902 107.001s-14.5 51.5 -27.5 68.5s-30.167 29 -51.5 36s-48 10.5 -80 10.5h-128v-720c0 -27.333 -0.333008 -51.5 -1 -72.5s-3 -43.167 -7 -66.5l129 6v-84h-418v61
c31.333 0 55.166 6.16699 71.499 18.5s28.333 29.5 36 51.5s12.167 48.333 13.5 79s2.33301 64.334 3 101.001v496c0 27.333 0.333008 50 1 68s3 38.667 7 62h-148c-27.333 0 -50.833 -3.5 -70.5 -10.5s-36 -19 -49 -36s-22.5 -39.833 -28.5 -68.5s-9 -64.334 -9 -107.001
h-78z" />
    <glyph glyph-name="afii10085" unicode="&#x443;" horiz-adv-x="1081" 
d="M8 940l-0.000976562 84.001h424v-61l-9 -1c-28.667 -2 -50.5 -8.33301 -65.5 -19s-24.167 -25.834 -27.5 -45.501s-1.33301 -45.334 6 -77.001s101 -236.167 281 -613.5c142 414 217.5 631.667 226.5 653s17.667 40 26 56s16.166 26.667 23.499 32l-141 -8v84h321v-61
c-25.333 -10 -47.166 -22.833 -65.499 -38.5s-34.5 -34.667 -48.5 -57s-27 -47.833 -39 -76.5s-109.667 -298.334 -293 -809.001l-86 -229.5c-26 -67 -53.167 -123.167 -81.5 -168.5s-59.333 -79.833 -93 -103.5s-73.167 -35.5 -118.5 -35.5c-21.333 0 -41.333 2.5 -60 7.5
s-35 12.667 -49 23s-25 23.333 -33 39s-12 33.834 -12 54.501c0 12.667 2 25 6 37s9.83301 22.667 17.5 32s17 16.833 28 22.5s23.167 8.5 36.5 8.5c16 0 29.5 -3 40.5 -9s19.833 -13.667 26.5 -23s11.334 -19.166 14.001 -29.499s4 -19.5 4 -27.5
c0 -4 -0.166992 -8.5 -0.5 -13.5s-1.16602 -9.83301 -2.49902 -14.5c7.33301 -3.33301 15 -5 23 -5c12 0 27.5 5.16699 46.5 15.5s38.167 32.166 57.5 65.499c17.333 30 38.166 74.833 62.499 134.5s51.5 131.167 81.5 214.5c-231.333 495.333 -353.333 758 -366 788
s-23.167 56.333 -31.5 79s-15 42.334 -20 59.001s-8.5 30.667 -10.5 42z" />
    <glyph glyph-name="afii10086" unicode="&#x444;" horiz-adv-x="1596" 
d="M84 476c0 87.333 12.5039 166.665 37.5039 237.998s59.5 132.5 103.5 183.5s95.833 90.333 155.5 118s124.167 41.5 193.5 41.5c20.667 0 42.667 -2.83301 66 -8.5s46.666 -13.167 69.999 -22.5v254c0 21.333 0.166992 42 0.5 62s2.16602 43.667 5.49902 71l-145 -8v86
c44.667 0 81.834 1.5 111.501 4.5s53.834 7.16699 72.501 12.5s33.334 11.166 44.001 17.499s20 13.166 28 20.499h57v-523c24.667 12 51 20.667 79 26s61 8 99 8c59.333 0 116.166 -11.667 170.499 -35s102.166 -56.833 143.499 -100.5s74.333 -97 99 -160
s37 -134.167 37 -213.5c0 -87.333 -12.833 -166.666 -38.5 -237.999s-60.334 -132.5 -104.001 -183.5s-94.667 -90.333 -153 -118s-120.5 -41.5 -186.5 -41.5c-32 0 -59.167 2.83301 -81.5 8.5s-43.833 14.834 -64.5 27.501v-308c0 -27.333 -0.333008 -51.5 -1 -72.5
s-3 -43.167 -7 -66.5l129 6v-84h-419v61c31.333 0 55.166 6.16699 71.499 18.5s28.166 29.5 35.499 51.5s11.666 48.333 12.999 79s2.66602 64.334 3.99902 101.001v214c-28 -11.333 -56.833 -20.166 -86.5 -26.499s-59.5 -9.5 -89.5 -9.5
c-59.333 0 -116.166 11.667 -170.499 35s-102.166 56.833 -143.499 100.5s-74.333 97 -99 160s-37 134.167 -37 213.5zM290.004 506.999c0 -55.333 6 -109.667 18 -163s30.833 -100.833 56.5 -142.5s58.5 -75.334 98.5 -101.001s88 -38.5 144 -38.5
c18 0 35.5 1.83301 52.5 5.5s33.833 8.83398 50.5 15.501v858c-19.333 9.33301 -39.833 16.833 -61.5 22.5s-45.167 8.5 -70.5 8.5c-48.667 0 -91 -11.5 -127 -34.5s-66 -55.167 -90 -96.5s-41.833 -90.333 -53.5 -147s-17.5 -119 -17.5 -187zM884.004 86.998
c19.333 -13.333 40.4971 -22.9961 63.4971 -28.9961s52.5 -9 88.5 -9c44.667 0 83.834 11.667 117.501 35s61.834 55.666 84.501 96.999s39.667 90.666 51 147.999s17 119.666 17 186.999c0 55.333 -6 109.666 -18 162.999s-30.833 101 -56.5 143s-58.5 75.833 -98.5 101.5
s-88 38.5 -144 38.5c-19.333 0 -37.666 -1.33301 -54.999 -4s-34 -7 -50 -13v-858z" />
    <glyph glyph-name="afii10087" unicode="&#x445;" horiz-adv-x="1085" 
d="M46 940l-0.00390625 83.999h422v-61c-30.667 -1.33301 -54.834 -5.33301 -72.501 -12s-28.167 -17.167 -31.5 -31.5s0.333984 -33.166 11.001 -56.499s28.667 -52.333 54 -87l119 -162c170.667 208.667 263.334 320 278.001 334l-141 -8v84h336v-61
c-28 -8 -52.5 -17.833 -73.5 -29.5s-41 -26 -60 -43s-115.167 -128.833 -288.5 -335.5l282 -351l45.5 -59c14.333 -19.333 29.166 -41.666 44.499 -66.999l93 6v-84h-396v61c16.667 0 31.334 1.83301 44.001 5.5s21.834 9.66699 27.501 18s7 18.833 4 31.5
s-11.5 28 -25.5 46l-216 266c-139.333 -190.667 -212.166 -290 -218.499 -298s-13.166 -16 -20.499 -24l-26 -28l157 6v-84h-344v61c20.667 5.33301 39 12.333 55 21s31.167 19.667 45.5 33s113.833 139.666 298.5 378.999c-168 224 -259.333 350.333 -274 379
s-25.667 52.667 -33 72z" />
    <glyph glyph-name="afii10088" unicode="&#x446;" horiz-adv-x="1256" 
d="M90 0v61.001c31.333 0 55.166 6.16699 71.499 18.5s28.333 29.5 36 51.5s12 48.333 13 79s2.16699 64.334 3.5 101.001v496c0 27.333 0.333008 51.5 1 72.5s3 43.167 7 66.5l-129 -6v84h418v-61c-31.333 0 -55.333 -6.16699 -72 -18.5s-28.667 -29.5 -36 -51.5
s-11.666 -48.333 -12.999 -79s-2.33301 -64.334 -3 -101.001v-496c0 -27.333 -0.333008 -51.5 -1 -72.5s-3 -43.167 -7 -66.5l349 4c31.333 0 55.166 5 71.499 15s28.333 24.833 36 44.5s12 43.667 13 72l3.5 97.5v496c0 27.333 0.333008 51.5 1 72.5s3 43.167 7 66.5
l-129 -6v84h418v-61c-31.333 0 -55.333 -6.16699 -72 -18.5s-28.667 -29.5 -36 -51.5s-11.666 -48.333 -12.999 -79s-2.33301 -64.334 -3 -101.001v-496c0 -27.333 -0.333008 -51.5 -1 -72.5s-3 -43.167 -7 -66.5l129 6l55 2v-450h-78c0 50.667 -2.5 98.167 -7.5 142.5
s-14 83 -27 116s-30.333 58.833 -52 77.5s-49.5 28 -83.5 28h-863z" />
    <glyph glyph-name="afii10089" unicode="&#x447;" horiz-adv-x="1143" 
d="M35 940l-0.00195312 84.0029h418v-61c-24 0 -43.667 -3.83301 -59 -11.5s-27.5 -21 -36.5 -40s-15.5 -44.5 -19.5 -76.5s-6 -72.667 -6 -122c0.666992 -22 6.66699 -45.5 18 -70.5s28.5 -47.833 51.5 -68.5s52 -37.834 87 -51.501s76.167 -19.834 123.5 -18.501
c20 0.666992 42.5 2.66699 67.5 6s50.5 8.33301 76.5 15v282c0 27.333 0.333008 51.5 1 72.5s3 43.167 7 66.5l-129 -6v84h418v-61c-31.333 0 -55.166 -6.16699 -71.499 -18.5s-28.166 -29.5 -35.499 -51.5s-11.5 -48.333 -12.5 -79s-1.5 -64.334 -1.5 -101.001v-496
l-3.5 -72.5c-1 -21 -3.5 -43.167 -7.5 -66.5l129 6v-84h-418v61c31.333 0 55.166 6.16699 71.499 18.5s28.333 29.5 36 51.5s12 48.333 13 79s1.5 64.334 1.5 101.001v117c-38 -9.33301 -77 -16.333 -117 -21s-76.333 -7 -109 -7c-64.667 0 -120.5 8.66699 -167.5 26
s-85.667 41.666 -116 72.999s-52.666 69 -66.999 113s-21.5 92.667 -21.5 146v46c0 16.667 0.333008 33.667 1 51s1.5 33.833 2.5 49.5s2.5 29.5 4.5 41.5z" />
    <glyph glyph-name="afii10090" unicode="&#x448;" horiz-adv-x="1699" 
d="M90 0v61.0039c31.333 0 55.166 6.16699 71.499 18.5s28.333 29.5 36 51.5s12 48.333 13 79s2.16699 64.334 3.5 101.001v496c0 27.333 0.333008 51.5 1 72.5s3 43.167 7 66.5l-129 -6v84h418v-61c-31.333 0 -55.333 -6.16699 -72 -18.5s-28.667 -29.5 -36 -51.5
s-11.666 -48.333 -12.999 -79s-2.33301 -64.334 -3 -101.001v-496c0 -27.333 -0.333008 -51.5 -1 -72.5s-3 -43.167 -7 -66.5l269 4c31.333 0.666992 55.166 6 71.499 16s28.333 24.667 36 44s12 43.166 13 71.499l3.5 97.5v496c0 27.333 0.333008 51.5 1 72.5
s3 43.167 7 66.5l-129 -6v84h418v-61c-31.333 0 -55.333 -6.16699 -72 -18.5s-28.667 -29.5 -36 -51.5s-11.666 -48.333 -12.999 -79s-2.33301 -64.334 -3 -101.001v-496c0 -27.333 -0.333008 -51.5 -1 -72.5s-3 -43.167 -7 -66.5l251 4c31.333 0.666992 55.166 6 71.499 16
s28.333 24.667 36 44s12 43.166 13 71.499l3.5 97.5v496c0 27.333 0.333008 51.5 1 72.5s3 43.167 7 66.5l-129 -6v84h418v-61c-31.333 0 -55.166 -6.16699 -71.499 -18.5s-28.333 -29.5 -36 -51.5s-12 -48.333 -13 -79s-1.5 -64.334 -1.5 -101.001v-496
c-1.33301 -27.333 -2.33301 -51.5 -3 -72.5s-3 -43.167 -7 -66.5l129 6v-84h-1516z" />
    <glyph glyph-name="afii10091" unicode="&#x449;" horiz-adv-x="1716" 
d="M90 0v61.0039c31.333 0 55.166 6.16699 71.499 18.5s28.333 29.5 36 51.5s12 48.333 13 79s2.16699 64.334 3.5 101.001v496c0 27.333 0.333008 51.5 1 72.5s3 43.167 7 66.5l-129 -6v84h418v-61c-31.333 0 -55.333 -6.16699 -72 -18.5s-28.667 -29.5 -36 -51.5
s-11.666 -48.333 -12.999 -79s-2.33301 -64.334 -3 -101.001v-496c0 -27.333 -0.333008 -51.5 -1 -72.5s-3 -43.167 -7 -66.5l269 4c31.333 0.666992 55.166 6 71.499 16s28.333 24.667 36 44s12 43.166 13 71.499l3.5 97.5v496c0 27.333 0.333008 51.5 1 72.5
s3 43.167 7 66.5l-129 -6v84h418v-61c-31.333 0 -55.333 -6.16699 -72 -18.5s-28.667 -29.5 -36 -51.5s-11.666 -48.333 -12.999 -79s-2.33301 -64.334 -3 -101.001v-496c0 -27.333 -0.333008 -51.5 -1 -72.5s-3 -43.167 -7 -66.5l251 4c31.333 0.666992 55.166 6 71.499 16
s28.333 24.667 36 44s12 43.166 13 71.499l3.5 97.5v496c0 27.333 0.333008 51.5 1 72.5s3 43.167 7 66.5l-129 -6v84h418v-61c-31.333 0 -55.166 -6.16699 -71.499 -18.5s-28.333 -29.5 -36 -51.5s-12 -48.333 -13 -79s-1.5 -64.334 -1.5 -101.001v-496
c-1.33301 -27.333 -2.33301 -51.5 -3 -72.5s-3 -43.167 -7 -66.5l129 6l55 2v-450h-78c0 50.667 -2.5 98.167 -7.5 142.5s-14 83 -27 116s-30.333 58.833 -52 77.5s-49.5 28 -83.5 28h-1323z" />
    <glyph glyph-name="afii10092" unicode="&#x44a;" horiz-adv-x="1194" 
d="M45 715l9.00098 309.002h632v-61c-31.333 0 -55.166 -5.83301 -71.499 -17.5s-28.166 -26.334 -35.499 -44.001s-11.5 -37 -12.5 -58s-1.5 -41.167 -1.5 -60.5v-189l127 3c82.667 2 152 -4.5 208 -19.5s101 -36 135 -63s58.167 -58.667 72.5 -95
s21.5 -74.833 21.5 -115.5c0 -49.333 -9 -92.833 -27 -130.5s-42.333 -69.334 -73 -95.001s-66.334 -45.167 -107.001 -58.5s-83.334 -20 -128.001 -20h-528v61c24.667 0.666992 45 5.16699 61 13.5s28.667 20 38 35s15.666 33 18.999 54s5 45.167 5 72.5v571
c0 27.333 0.333008 50.333 1 69s3 39.667 7 63l-117 -2c-27.333 -0.666992 -50.833 -4.5 -70.5 -11.5s-36 -19 -49 -36s-22.5 -39.667 -28.5 -68s-9 -63.833 -9 -106.5h-78zM560.001 84.002c11.333 -1.33301 25.1641 -2.16504 41.4971 -2.49805s32.5 -0.5 48.5 -0.5h43.5
h26.5c31.333 0 60.833 4 88.5 12s51.834 20.667 72.501 38s37 39.666 49 66.999s18 60.666 18 99.999c0 70.667 -20 125.5 -60 164.5s-96 58.5 -168 58.5c-29.333 0 -56.666 -0.5 -81.999 -1.5s-49.666 -2.16699 -72.999 -3.5v-318c0 -26.667 -0.5 -49.167 -1.5 -67.5
s-2.16699 -33.833 -3.5 -46.5z" />
    <glyph glyph-name="afii10093" unicode="&#x44b;" horiz-adv-x="1519" 
d="M90 0l0.000976562 61.001c24.667 0.666992 45 5.16699 61 13.5s28.667 20 38 35s15.666 33 18.999 54s5 45.167 5 72.5v571c0 27.333 0.333008 51.5 1 72.5s3 43.167 7 66.5l-129 -6v84h418v-61c-31.333 0 -55.166 -5.83301 -71.499 -17.5
s-28.166 -26.334 -35.499 -44.001s-11.5 -37 -12.5 -58s-1.5 -41.167 -1.5 -60.5v-189l104 3c82.667 2.66699 152 -3.5 208 -18.5s101 -36.167 135 -63.5s58.167 -59.166 72.5 -95.499s21.5 -74.833 21.5 -115.5c0 -49.333 -9 -92.833 -27 -130.5
s-42.333 -69.334 -73 -95.001s-66.334 -45.167 -107.001 -58.5s-83.334 -20 -128.001 -20h-505zM384.001 84.001c46 -2 91.666 -2.99805 136.999 -2.99805c31.333 0 60.833 4 88.5 12s51.834 20.667 72.501 38s37 39.666 49 66.999s18 60.666 18 99.999
c0 70.667 -20 125.5 -60 164.5s-96 58.5 -168 58.5c-14.667 0 -27.667 -0.166992 -39 -0.5s-22 -0.666016 -32 -0.999023s-19.833 -0.833008 -29.5 -1.5s-20.167 -1.33398 -31.5 -2.00098v-318c0 -26.667 -0.5 -49.167 -1.5 -67.5s-2.16699 -33.833 -3.5 -46.5z
M1008 0.00292969v61c31.333 0 55.166 6.16699 71.499 18.5s28.333 29.5 36 51.5s12.167 48.333 13.5 79s2.33301 64.334 3 101.001v496c0 27.333 0.333008 51.5 1 72.5s3 43.167 7 66.5l-129 -6v84h418v-61c-31.333 0 -55.166 -6.16699 -71.499 -18.5
s-28.333 -29.5 -36 -51.5s-12.167 -48.333 -13.5 -79s-2.33301 -64.334 -3 -101.001v-496c0 -27.333 -0.333008 -51.5 -1 -72.5s-3 -43.167 -7 -66.5l129 6v-84h-418z" />
    <glyph glyph-name="afii10094" unicode="&#x44c;" horiz-adv-x="1038" 
d="M90 0l0.000976562 61.002c24.667 0.666992 45 5.16699 61 13.5s28.667 20 38 35s15.666 33 18.999 54s5 45.167 5 72.5v571c0 27.333 0.333008 51.5 1 72.5s3 43.167 7 66.5l-129 -6v84h418v-61c-31.333 0 -55.166 -5.83301 -71.499 -17.5
s-28.166 -26.334 -35.499 -44.001s-11.5 -37 -12.5 -58s-1.5 -41.167 -1.5 -60.5v-189l127 3c82.667 2 152 -4.5 208 -19.5s101 -36 135 -63s58.167 -58.667 72.5 -95s21.5 -74.833 21.5 -115.5c0 -49.333 -9 -92.833 -27 -130.5s-42.333 -69.334 -73 -95.001
s-66.334 -45.167 -107.001 -58.5s-83.334 -20 -128.001 -20h-528zM384.001 84.002c11.333 -1.33301 25.1641 -2.16504 41.4971 -2.49805s32.5 -0.5 48.5 -0.5h43.5h26.5c31.333 0 60.833 4 88.5 12s51.834 20.667 72.501 38s37 39.666 49 66.999s18 60.666 18 99.999
c0 70.667 -20 125.5 -60 164.5s-96 58.5 -168 58.5c-29.333 0 -56.666 -0.5 -81.999 -1.5s-49.666 -2.16699 -72.999 -3.5v-318c0 -26.667 -0.5 -49.167 -1.5 -67.5s-2.16699 -33.833 -3.5 -46.5z" />
    <glyph glyph-name="afii10095" unicode="&#x44d;" horiz-adv-x="1090" 
d="M93 220c0 29.333 8.16602 54.501 24.499 75.501s39.833 31.833 70.5 32.5c18 0.666992 33 -2.16602 45 -8.49902s21.667 -14.166 29 -23.499s12.666 -19.5 15.999 -30.5s5 -20.833 5 -29.5c0 -13.333 -2.16699 -27.333 -6.5 -42s-12.5 -28.334 -24.5 -41.001
c8.66699 -24 22.167 -43.167 40.5 -57.5s38 -25.5 59 -33.5s42 -13.167 63 -15.5s38.5 -3.5 52.5 -3.5c46.667 0 90.167 9.5 130.5 28.5s75.166 46.833 104.499 83.5s52.5 82.167 69.5 136.5s25.5 117.166 25.5 188.499h-467v84h464c-8 126.667 -36.833 224.667 -86.5 294
s-122.834 104 -219.501 104c-45.333 0 -85.666 -7.66699 -120.999 -23s-65.166 -35.666 -89.499 -60.999s-43.333 -54.5 -57 -87.5s-21.834 -67.167 -24.501 -102.5h-64v359h86l-5 -85c48.667 30.667 95.667 54.167 141 70.5s95.666 24.5 150.999 24.5
c68 0 132.333 -11.833 193 -35.5s113.834 -58 159.501 -103s81.834 -100.167 108.501 -165.5s40 -139.666 40 -222.999c0 -47.333 -5.83301 -94 -17.5 -140s-28.5 -89.833 -50.5 -131.5s-48.667 -80.334 -80 -116.001s-66.833 -66.5 -106.5 -92.5s-83 -46.333 -130 -61
s-96.833 -22 -149.5 -22c-57.333 0 -109.166 7 -155.499 21s-86.166 32.667 -119.499 56s-59 50.166 -77 80.499s-27 62.166 -27 95.499z" />
    <glyph glyph-name="afii10096" unicode="&#x44e;" horiz-adv-x="1667" 
d="M90 0l-0.000976562 60.998c31.333 0 55.166 6.16699 71.499 18.5s28.333 29.5 36 51.5s12.167 48.333 13.5 79s2.33301 64.334 3 101.001v496c0 27.333 0.333008 51.5 1 72.5s3 43.167 7 66.5l-129 -6v84h418v-61c-31.333 0 -55.166 -6.16699 -71.499 -18.5
s-28.166 -29.5 -35.499 -51.5s-11.5 -48.333 -12.5 -79s-1.83301 -64.334 -2.5 -101.001v-147h194c8 70.667 26.333 136.167 55 196.5s64.5 112.166 107.5 155.499s92 77.333 147 102s113.167 37 174.5 37c72 0 139.333 -13.167 202 -39.5s117.167 -62.666 163.5 -108.999
s83 -101.333 110 -165s40.5 -132.5 40.5 -206.5c0 -79.333 -13.167 -153.666 -39.5 -222.999s-62.666 -129.666 -108.999 -180.999s-101 -91.833 -164 -121.5s-130.833 -44.5 -203.5 -44.5c-65.333 0 -127.5 12.833 -186.5 38.5s-110.833 61.334 -155.5 107.001
s-80.334 100.167 -107.001 163.5s-40 132.666 -40 207.999l-191 -4v-263c0 -27.333 -0.333008 -51.5 -1 -72.5s-3 -43.167 -7 -66.5l129 6v-84h-418zM786.999 546.998c0 -63.333 6.33203 -124.999 18.999 -184.999s31.5 -113.167 56.5 -159.5s56 -83.5 93 -111.5
s79.5 -42 127.5 -42c54 0 99.5 12.167 136.5 36.5s67 56.5 90 96.5s39.5 85.667 49.5 137s15 104 15 158c0 61.333 -5.66699 122 -17 182s-29.333 113.667 -54 161s-56.5 85.666 -95.5 114.999s-85.833 44 -140.5 44c-47.333 0 -88.666 -12 -123.999 -36
s-64.5 -56 -87.5 -96s-40.167 -86 -51.5 -138s-17 -106 -17 -162z" />
    <glyph glyph-name="afii10097" unicode="&#x44f;" horiz-adv-x="1114" 
d="M35 0l-0.00292969 60.998c23.333 0 44 4.83301 62 14.5s36 24 54 43s37.333 42.167 58 69.5l74 95l73 91c15.333 18.667 30.333 32.667 45 42s30.667 16.333 48 21c-52 9.33301 -95.667 23 -131 41s-63.833 39.5 -85.5 64.5s-37.334 52.5 -47.001 82.5
s-14.5 61.667 -14.5 95c0 49.333 9 92.833 27 130.5s42.333 69.334 73 95.001s66.334 45.167 107.001 58.5s83.334 20 128.001 20h518v-61c-25.333 -0.666992 -45.833 -5.16699 -61.5 -13.5s-28.167 -20 -37.5 -35s-15.666 -33.167 -18.999 -54.5s-5 -45.333 -5 -72v-571
c0 -27.333 -0.333008 -51.5 -1 -72.5s-3 -43.167 -7 -66.5l129 6v-84h-418v61c26.667 0 48 4.83301 64 14.5s28.167 22.834 36.5 39.501s13.833 36.167 16.5 58.5s4 45.833 4 70.5v166l-96 -2l-45 -1c-13.333 -12.667 -27.5 -28.5 -42.5 -47.5s-29.833 -38.833 -44.5 -59.5
l-41.5 -59.5l-33.5 -47.5c-17.333 -24 -35.333 -47.5 -54 -70.5s-37.667 -43.667 -57 -62s-38.666 -33 -57.999 -44s-38.333 -16.5 -57 -16.5h-161zM351.997 725.998c0 -33.333 5.16699 -64.8311 15.5 -94.498s25.333 -55.5 45 -77.5s43.5 -39.333 71.5 -52s60 -19 96 -19
c29.333 0 55 0.5 77 1.5s44.667 2.16699 68 3.5v338c0 26.667 0.5 49.167 1.5 67.5s2.16699 33.833 3.5 46.5c-11.333 1.33301 -24.666 2.16602 -39.999 2.49902s-30.333 0.5 -45 0.5h-40h-25c-31.333 0 -60.833 -4 -88.5 -12s-51.834 -20.667 -72.501 -38
s-37 -39.833 -49 -67.5s-18 -60.834 -18 -99.501z" />
    <glyph glyph-name="uni0450" unicode="&#x450;" horiz-adv-x="1110" 
d="M87 510c0 72 12.3359 140.835 37.0029 206.502s59.667 123.834 105 174.501s99.666 91 162.999 121s133.666 45 210.999 45c56.667 0 110.167 -9.33301 160.5 -28s94.5 -46.667 132.5 -84s68 -84.5 90 -141.5s33 -123.5 33 -199.5l-721 -12
c-0.666992 -78.667 5.33301 -150 18 -214s32.667 -118.667 60 -164s62.5 -80.333 105.5 -105s94.5 -37 154.5 -37c32 0 64.667 4.33301 98 13s65.5 20.5 96.5 35.5s59.5 33 85.5 54s47.667 43.5 65 67.5l50 -41c-28 -42.667 -60.5 -78.834 -97.5 -108.501
s-75.333 -53.834 -115 -72.501s-79.5 -32.167 -119.5 -40.5s-77.333 -12.5 -112 -12.5c-70.667 0 -136.5 12.667 -197.5 38s-113.833 61.666 -158.5 108.999s-79.834 104.333 -105.501 171s-38.5 141.667 -38.5 225zM304.003 678.002h522c0 36 -4 71.833 -12 107.5
s-20.833 67.667 -38.5 96s-40.5 51.333 -68.5 69s-62 26.5 -102 26.5c-80 0 -146 -23.5 -198 -70.5s-86.333 -123.167 -103 -228.5zM408.003 1493c0 8.66699 1.16699 16.666 3.5 23.999s6.83301 15.333 13.5 24s15.167 15.167 25.5 19.5s21 6.5 32 6.5s24 -3.83301 39 -11.5
s30.167 -22.5 45.5 -44.5l172 -276l-57 -47l-230 217c-17.333 18 -29 34.667 -35 50c-2 4.66699 -4 10.334 -6 17.001s-3 13.667 -3 21z" />
    <glyph glyph-name="afii10071" unicode="&#x451;" horiz-adv-x="1110" 
d="M86 510c0 72 12.3359 140.835 37.0029 206.502s59.667 123.834 105 174.501s99.666 91 162.999 121s133.666 45 210.999 45c56.667 0 110.167 -9.33301 160.5 -28s94.5 -46.667 132.5 -84s68 -84.5 90 -141.5s33 -123.5 33 -199.5l-721 -12
c-0.666992 -78.667 5.33301 -150 18 -214s32.667 -118.667 60 -164s62.5 -80.333 105.5 -105s94.5 -37 154.5 -37c32 0 64.667 4.33301 98 13s65.5 20.5 96.5 35.5s59.5 33 85.5 54s47.667 43.5 65 67.5l50 -41c-28 -42.667 -60.5 -78.834 -97.5 -108.501
s-75.333 -53.834 -115 -72.501s-79.5 -32.167 -119.5 -40.5s-77.333 -12.5 -112 -12.5c-70.667 0 -136.5 12.667 -197.5 38s-113.833 61.666 -158.5 108.999s-79.834 104.333 -105.501 171s-38.5 141.667 -38.5 225zM303.003 678.002h522c0 36 -4 71.833 -12 107.5
s-20.833 67.667 -38.5 96s-40.5 51.333 -68.5 69s-62 26.5 -102 26.5c-80 0 -146 -23.5 -198 -70.5s-86.333 -123.167 -103 -228.5zM308.003 1369c0 16.667 2.8291 32.667 8.49609 48s13.167 28.5 22.5 39.5s20.333 19.833 33 26.5s25.667 10 39 10
c14.667 0 28.167 -3.33301 40.5 -10s23 -15.5 32 -26.5s16 -24.167 21 -39.5s7.5 -31.333 7.5 -48s-2.83301 -32.334 -8.5 -47.001s-13.167 -27.5 -22.5 -38.5s-20.166 -19.667 -32.499 -26s-25.166 -9.5 -38.499 -9.5c-14 0 -27.167 3.16699 -39.5 9.5
s-23.166 15 -32.499 26s-16.666 23.833 -21.999 38.5s-8 30.334 -8 47.001zM649.999 1369c0 16.667 2.8291 32.667 8.49609 48s13.167 28.5 22.5 39.5s20.333 19.833 33 26.5s25.667 10 39 10c14.667 0 28.167 -3.33301 40.5 -10s23 -15.5 32 -26.5s16 -24.167 21 -39.5
s7.5 -31.333 7.5 -48s-2.83301 -32.334 -8.5 -47.001s-13.167 -27.5 -22.5 -38.5s-20.166 -19.667 -32.499 -26s-25.166 -9.5 -38.499 -9.5c-14 0 -27.167 3.16699 -39.5 9.5s-23.166 15 -32.499 26s-16.666 23.833 -21.999 38.5s-8 30.334 -8 47.001z" />
    <glyph glyph-name="afii10099" unicode="&#x452;" horiz-adv-x="1214" 
d="M44 1176l-0.00488281 102.994h148v1c0 21.333 0.166992 42 0.5 62s2.16602 43.667 5.49902 71l-145 -8v86c44.667 0 81.834 1.5 111.501 4.5s53.834 7.16699 72.501 12.5s33.334 11.166 44.001 17.499s20 13.166 28 20.499h59v-267h419v-95l-419 -5v-257
c22.667 18.667 47.334 36.334 74.001 53.001s54.5 31 83.5 43s58.667 21.5 89 28.5s60.166 10.5 89.499 10.5c62.667 0 115.5 -9.33301 158.5 -28s78 -49 105 -91s46.5 -96.833 58.5 -164.5s18 -150.5 18 -248.5v-497c0 -109.333 -8.66699 -199.5 -26 -270.5
s-40.166 -127.167 -68.499 -168.5s-61 -70.166 -98 -86.499s-75.167 -24.5 -114.5 -24.5c-28 0 -52.333 3.16699 -73 9.5s-37.5 14.833 -50.5 25.5s-22.667 22.834 -29 36.501s-9.5 27.834 -9.5 42.501c0 25.333 7.66699 47.666 23 66.999s37 29.333 65 30
c16.667 0.666992 30.667 -2 42 -8s20.5 -13.333 27.5 -22s12 -18.167 15 -28.5s4.5 -19.5 4.5 -27.5c0 -9.33301 -0.833008 -17.333 -2.5 -24s-5.16699 -14 -10.5 -22c19.333 -2 37 2.66699 53 14s29.667 33.833 41 67.5s20 80.334 26 140.001s9 136.5 9 230.5v514
c0 142 -18 248.833 -54 320.5s-96 106.834 -180 105.501c-25.333 -0.666992 -50.5 -4.16699 -75.5 -10.5s-49 -15.166 -72 -26.499s-44.667 -24.666 -65 -39.999s-38.166 -32 -53.499 -50v-605c0 -27.333 -0.666992 -51.5 -2 -72.5s-4 -43.167 -8 -66.5l129 6v-84h-418v61
c31.333 0 55.333 6.16699 72 18.5s28.834 29.5 36.501 51.5s12 48.333 13 79s1.5 64.334 1.5 101.001v867z" />
    <glyph glyph-name="afii10100" unicode="&#x453;" horiz-adv-x="896" 
d="M90 0l0.000976562 61c31.333 0 55.166 6.16699 71.499 18.5s28.333 29.5 36 51.5s12 48.333 13 79s1.83301 64.334 2.5 101.001v496c0 27.333 0.333008 51.5 1 72.5s3 43.167 7 66.5l-128 -6v84h769l9 -309h-78c-1.33301 42.667 -6.16602 78.667 -14.499 108
s-22.833 52.666 -43.5 69.999s-48.834 29.833 -84.501 37.5s-81.167 11.5 -136.5 11.5c-30 0 -53.333 -5 -70 -15s-29.167 -24.833 -37.5 -44.5s-13.5 -43.667 -15.5 -72s-3.33301 -60.833 -4 -97.5v-496c0 -27.333 -0.333008 -51.5 -1 -72.5s-3 -43.167 -7 -66.5l129 6v-84
h-418zM452.001 1235l172 276.001c15.333 22 30.5 36.833 45.5 44.5s28 11.5 39 11.5s21.667 -2.16699 32 -6.5s18.833 -10.833 25.5 -19.5s11.167 -16.667 13.5 -24s3.5 -15.333 3.5 -24c0 -7.33301 -1 -14.333 -3 -21s-4 -12.334 -6 -17.001
c-6 -15.333 -17.667 -32 -35 -50l-230 -217z" />
    <glyph glyph-name="afii10101" unicode="&#x454;" horiz-adv-x="1090" 
d="M84 494c0 47.333 5.8291 94 17.4961 140s28.5 89.833 50.5 131.5s48.667 80.334 80 116.001s66.833 66.5 106.5 92.5s83 46.333 130 61s96.833 22 149.5 22c56.667 0 108.334 -7 155.001 -21s86.667 -32.667 120 -56s59 -50.166 77 -80.499s27 -62.166 27 -95.499
c0 -29.333 -8.16699 -54.5 -24.5 -75.5s-39.833 -31.833 -70.5 -32.5c-18 -0.666992 -33 2.16602 -45 8.49902s-21.667 14.166 -29 23.499s-12.666 19.5 -15.999 30.5s-5 20.833 -5 29.5c0 13.333 2.16699 27.333 6.5 42s12.5 28.334 24.5 41.001
c-9.33301 24 -23 43.167 -41 57.5s-37.5 25.5 -58.5 33.5s-42 13.167 -63 15.5s-38.5 3.5 -52.5 3.5c-45.333 0 -87.333 -8.83301 -126 -26.5s-72.667 -43.5 -102 -77.5s-52.833 -76.167 -70.5 -126.5s-27.834 -108.5 -30.501 -174.5h475v-115l-471 -7
c6.66699 -56 19.834 -107.333 39.501 -154s44.5 -86.834 74.5 -120.501s64.667 -59.667 104 -78s82.333 -27.5 129 -27.5c32 0 63.667 4.5 95 13.5s61 21.5 89 37.5s53.833 34.667 77.5 56s43.834 44.333 60.501 69l53 -41c-27.333 -42.667 -58.5 -79.167 -93.5 -109.5
s-71.667 -55.333 -110 -75s-77 -34.167 -116 -43.5s-75.833 -14 -110.5 -14c-69.333 0 -134.666 11.833 -195.999 35.5s-115 58 -161 103s-82.333 100.167 -109 165.5s-40 139.666 -40 222.999z" />
    <glyph glyph-name="afii10102" unicode="&#x455;" horiz-adv-x="948" 
d="M107 338l62.998 0.00390625c2.66699 -42.667 12.5 -81.834 29.5 -117.501s39.333 -66.334 67 -92.001s59.334 -45.667 95.001 -60s73.5 -21.5 113.5 -21.5c26 0 52.167 3.16699 78.5 9.5s50.333 16.166 72 29.499s39.334 30.166 53.001 50.499s20.5 44.5 20.5 72.5
c0 32.667 -8.5 60.5 -25.5 83.5s-39.333 43.333 -67 61s-59.334 33.5 -95.001 47.5l-109 43c-37 14.667 -73.167 30.834 -108.5 48.501s-66.833 38.5 -94.5 62.5s-50 52.667 -67 86s-25.5 73 -25.5 119c0 28.667 5.33301 60.167 16 94.5s29.334 66.5 56.001 96.5
s62.5 55.167 107.5 75.5s101.833 30.5 170.5 30.5c18.667 0 38.5 -1.33301 59.5 -4s42.5 -7.5 64.5 -14.5s44 -16.167 66 -27.5s43.667 -25.333 65 -42l-5 78h86v-359h-64c-2.66699 35.333 -9.5 70.333 -20.5 105s-27 65.834 -48 93.501s-47.5 50.167 -79.5 67.5
s-70 26 -114 26c-32 0 -60.333 -4.16699 -85 -12.5s-45.5 -19.666 -62.5 -33.999s-29.833 -30.833 -38.5 -49.5s-13 -38.334 -13 -59.001c0 -33.333 8.5 -62 25.5 -86s39.5 -45.333 67.5 -64s60 -35.5 96 -50.5l110 -46c37.333 -15.667 74 -32.334 110 -50.001
s68 -38.5 96 -62.5s50.5 -52 67.5 -84s25.5 -70 25.5 -114c0 -51.333 -10.333 -96 -31 -134s-47.834 -69.333 -81.501 -94s-71.667 -43 -114 -55s-85.166 -18 -128.499 -18c-69.333 0 -130.333 9.16699 -183 27.5s-96 39.166 -130 62.499l7 -71h-86z" />
    <glyph glyph-name="afii10103" unicode="&#x456;" horiz-adv-x="575" 
d="M75 903l0.00195312 86.001c44.667 0 81.667 1.5 111 4.5s53.333 7.16699 72 12.5s33.167 11.166 43.5 17.499s19.5 13.166 27.5 20.499h59v-827c0 -27.333 -0.333008 -51.5 -1 -72.5s-3 -43.167 -7 -66.5l129 6v-84h-418v61c31.333 0 55.166 6.16699 71.499 18.5
s28.166 29.5 35.499 51.5s11.5 48.333 12.5 79s1.5 64.334 1.5 101.001v467c0 21.333 0.5 42 1.5 62s3.16699 43.667 6.5 71zM186.002 1368c0 17.333 3.00098 33.5 9.00098 48.5s14.167 28.167 24.5 39.5s22.166 20.166 35.499 26.499s27.666 9.5 42.999 9.5
s29.5 -3.16699 42.5 -9.5s24.5 -15.166 34.5 -26.499s17.833 -24.5 23.5 -39.5s8.5 -31.167 8.5 -48.5c0 -16.667 -3.16699 -32.334 -9.5 -47.001s-14.5 -27.5 -24.5 -38.5s-21.667 -19.5 -35 -25.5s-27.333 -9 -42 -9s-28.667 3 -42 9s-25.166 14.5 -35.499 25.5
s-18.333 23.833 -24 38.5s-8.5 30.334 -8.5 47.001z" />
    <glyph glyph-name="afii10104" unicode="&#x457;" horiz-adv-x="575" 
d="M40 1368c0 17.333 2.8291 33.5 8.49609 48.5s13.167 28.167 22.5 39.5s20.333 20.166 33 26.499s25.667 9.5 39 9.5c14.667 0 28.167 -3.16699 40.5 -9.5s23 -15.166 32 -26.499s16 -24.5 21 -39.5s7.5 -31.167 7.5 -48.5c0 -16.667 -2.83301 -32.334 -8.5 -47.001
s-13.167 -27.5 -22.5 -38.5s-20.166 -19.5 -32.499 -25.5s-25.166 -9 -38.499 -9c-14 0 -27.167 3 -39.5 9s-23.166 14.5 -32.499 25.5s-16.666 23.833 -21.999 38.5s-8 30.334 -8 47.001zM75.9961 903l-0.000976562 86.001c44.667 0 81.667 1.5 111 4.5
s53.333 7.16699 72 12.5s33.167 11.166 43.5 17.499s19.5 13.166 27.5 20.499h59v-827c0 -27.333 -0.333008 -51.5 -1 -72.5s-3 -43.167 -7 -66.5l129 6v-84h-418v61c30.667 0 54.334 6.16699 71.001 18.5s28.667 29.5 36 51.5s11.5 48.333 12.5 79s1.5 64.334 1.5 101.001
v467c0 21.333 0.5 42 1.5 62s3.16699 43.667 6.5 71zM326.995 1368c0 17.333 2.8291 33.5 8.49609 48.5s13.167 28.167 22.5 39.5s20.333 20.166 33 26.499s25.667 9.5 39 9.5c14.667 0 28.167 -3.16699 40.5 -9.5s23 -15.166 32 -26.499s16 -24.5 21 -39.5
s7.5 -31.167 7.5 -48.5c0 -16.667 -2.83301 -32.334 -8.5 -47.001s-13.167 -27.5 -22.5 -38.5s-20.166 -19.5 -32.499 -25.5s-25.166 -9 -38.499 -9c-14 0 -27.167 3 -39.5 9s-23.166 14.5 -32.499 25.5s-16.666 23.833 -21.999 38.5s-8 30.334 -8 47.001z" />
    </font>
</defs>
</svg>
