<?xml version="1.0" standalone="no"?>
<!DOCTYPE svg PUBLIC "-//W3C//DTD SVG 1.1//EN" "http://www.w3.org/Graphics/SVG/1.1/DTD/svg11.dtd" >
<svg>
<metadata>
Created by FontForge 20090914 at Sat Jun 30 13:39:21 2018
 By www-data
Copyright (c) 2005-2012 by Jovanny Lemonad
</metadata>
<defs>
<font id="Scada-Bold" horiz-adv-x="1146" >
  <font-face 
    font-family="Scada"
    font-weight="700"
    font-stretch="normal"
    units-per-em="2048"
    panose-1="2 0 8 3 6 0 0 2 0 4"
    ascent="1638"
    descent="-410"
    x-height="1024"
    cap-height="1434"
    bbox="-154 -429.999 1905 1874"
    underline-thickness="102"
    underline-position="-102"
    unicode-range="U+000D-U+E000"
  />
<missing-glyph horiz-adv-x="748" 
d="M68 0v1365h544v-1365h-544zM136 68h408v1229h-408v-1229z" />
    <glyph glyph-name=".notdef" horiz-adv-x="748" 
d="M68 0v1365h544v-1365h-544zM136 68h408v1229h-408v-1229z" />
    <glyph glyph-name="glyph1" horiz-adv-x="2048" 
 />
    <glyph glyph-name="glyph1" horiz-adv-x="2048" 
 />
    <glyph glyph-name="uni000D" unicode="&#xd;" horiz-adv-x="681" 
 />
    <glyph glyph-name="space" unicode=" " horiz-adv-x="614" 
 />
    <glyph glyph-name="exclam" unicode="!" horiz-adv-x="593" 
d="M133 1434h328l-41 -1024h-246zM143 133c0 40.667 15.5 76.5 46.5 107.5s66.833 46.5 107.5 46.5s76.5 -15.333 107.5 -46s46.5 -66.667 46.5 -108c0 -40.667 -15.5 -76.334 -46.5 -107.001s-66.833 -46 -107.5 -46s-76.5 15.333 -107.5 46s-46.5 66.334 -46.5 107.001z
" />
    <glyph glyph-name="quotedbl" unicode="&#x22;" horiz-adv-x="778" 
d="M72 1434h276l-51 -502h-174zM430 1434h277l-52 -502h-174z" />
    <glyph glyph-name="numbersign" unicode="#" horiz-adv-x="1366" 
d="M31 348v184h239l92 369h-215v184h256l93 349h266l-92 -349h204l93 349h266l-92 -349h194v-184h-235l-92 -369h211v-184h-263l-92 -348h-266l92 348h-205l-92 -348h-266l92 348h-188zM537 532h204l93 369h-205z" />
    <glyph glyph-name="dollar" unicode="$" horiz-adv-x="1095" 
d="M72 92l91.998 164h20c20.667 -18 45.334 -33.667 74.001 -47c24.667 -10.667 56.167 -20.834 94.5 -30.501s84.833 -14.5 139.5 -14.5c82 0 143.333 18.667 184 56s61 87 61 149c0 48 -16 87.667 -48 119s-72.5 59.833 -121.5 85.5s-101.5 51.5 -157.5 77.5
s-108.667 56.833 -158 92.5s-90 79 -122 130s-48 114.833 -48 191.5c0 86 27.333 162.5 82 229.5s133 113.5 235 139.5v143h277v-133c52 -5.33301 96.667 -13.833 134 -25.5s69 -23.167 95 -34.5c30 -13.333 56 -27.666 78 -42.999l-92 -163h-21
c-19.333 16.667 -42.333 31.667 -69 45c-23.333 10.667 -53.5 21.167 -90.5 31.5s-79.167 15.5 -126.5 15.5c-31.333 0 -60 -5.16699 -86 -15.5s-48.667 -24.333 -68 -42s-34.333 -37.5 -45 -59.5s-16 -44.667 -16 -68c0 -48 16 -87.5 48 -118.5s72.5 -59.5 121.5 -85.5
s101.5 -52 157.5 -78s108.667 -56.833 158 -92.5s90 -79 122 -130s48 -114.833 48 -191.5c0 -98 -29.667 -180.833 -89 -248.5s-145.666 -114.5 -258.999 -140.5v-143h-277v133c-57.333 5.33301 -106 13.833 -146 25.5s-73.667 22.834 -101 33.501
c-31.333 13.333 -58 27.666 -80 42.999z" />
    <glyph glyph-name="percent" unicode="%" horiz-adv-x="1740" 
d="M41 1085c0 53.333 9.16699 102.5 27.5 147.5s43.166 84 74.499 117s69 58.667 113 77s91.667 27.5 143 27.5c50.667 0 98.167 -9.16699 142.5 -27.5s82.166 -44 113.499 -77s56.333 -72 75 -117s28 -94.167 28 -147.5s-9.33301 -102.5 -28 -147.5
s-43.667 -83.833 -75 -116.5s-69.166 -58.167 -113.499 -76.5s-91.833 -27.5 -142.5 -27.5c-52 0 -99.833 9.16699 -143.5 27.5s-81.167 43.833 -112.5 76.5s-56.166 71.667 -74.499 117s-27.5 94.333 -27.5 147zM236 0l962 1434h307l-962 -1434h-307zM287 1085
c0 -76.667 10.833 -129.833 32.5 -159.5s48.167 -44.5 79.5 -44.5c30 0 56.333 15 79 45s34 83 34 159c0 76.667 -11.333 130 -34 160s-49 45 -79 45c-31.333 0 -57.833 -15 -79.5 -45s-32.5 -83.333 -32.5 -160zM983 348.001c0 53.333 9.16602 102.5 27.499 147.5
s43.333 84 75 117s69.334 58.667 113.001 77s91.167 27.5 142.5 27.5c50.667 0 98.167 -9.16699 142.5 -27.5s82.333 -44 114 -77s56.667 -72 75 -117s27.5 -94.167 27.5 -147.5s-9.16699 -102.5 -27.5 -147.5s-43.333 -83.833 -75 -116.5s-69.667 -58.167 -114 -76.5
s-91.833 -27.5 -142.5 -27.5c-52 0 -99.667 9.16699 -143 27.5s-80.833 43.833 -112.5 76.5s-56.667 71.5 -75 116.5s-27.5 94.167 -27.5 147.5zM1229 348.001c0 -76.667 10.833 -130 32.5 -160s48.167 -45 79.5 -45c30 0 56.333 15 79 45s34 83.333 34 160
s-11.333 130 -34 160s-49 45 -79 45c-31.333 0 -57.833 -15 -79.5 -45s-32.5 -83.333 -32.5 -160z" />
    <glyph glyph-name="ampersand" unicode="&#x26;" horiz-adv-x="1320" 
d="M41 369c0 66.667 15.666 125.327 46.999 175.994s67 93.667 107 129c45.333 40.667 96.333 75.334 153 104.001c-35.333 28.667 -66 60.667 -92 96c-23.333 31.333 -44.5 68.333 -63.5 111s-28.5 89.667 -28.5 141c0 46.667 8.83301 89.834 26.5 129.501
s43.167 74.167 76.5 103.5s75 52.5 125 69.5s107 25.5 171 25.5c61.333 0 116.333 -8.16699 165 -24.5s89.334 -38.833 122.001 -67.5s57.834 -61.5 75.501 -98.5s26.5 -75.833 26.5 -116.5c0 -57.333 -14.333 -109.166 -43 -155.499s-60.667 -86.166 -96 -119.499
c-40.667 -39.333 -87 -74 -139 -104l258 -307c1.33301 18 2.66602 37.667 3.99902 59c1.33301 18 2.66602 38.5 3.99902 61.5s2 47.5 2 73.5h266c0 -87.333 -11.5 -160.666 -34.5 -219.999s-52.5 -112.333 -88.5 -159l226 -276h-328l-82 102
c-31.333 -23.333 -66.666 -43.666 -105.999 -60.999c-34 -15.333 -75 -29.333 -123 -42s-101.333 -19 -160 -19c-74 0 -140.333 10.167 -199 30.5s-108.167 47.833 -148.5 82.5s-71 76 -92 124s-31.5 98.667 -31.5 152zM327.999 368.993
c0 -57.333 20.832 -105.833 62.499 -145.5s95.834 -59.5 162.501 -59.5c38 0 72 3.33301 102 10s54.667 15 74 25c23.333 10.667 43 23 59 37l-317 378c-27.333 -19.333 -51.333 -41 -72 -65c-19.333 -22 -36 -48 -50 -78s-21 -64 -21 -102zM450.998 1125.99
c0 -23.333 4.66895 -47.168 14.002 -71.501s19.666 -46.166 30.999 -65.499c13.333 -23.333 29 -45.666 47 -66.999c23.333 19.333 43.666 41 60.999 65c15.333 20.667 29.5 44.667 42.5 72s19.5 56.666 19.5 87.999c0 40.667 -10.667 73 -32 97s-45 36 -71 36
c-31.333 0 -57.833 -12.667 -79.5 -38s-32.5 -64 -32.5 -116z" />
    <glyph glyph-name="quotesingle" unicode="'" horiz-adv-x="419" 
d="M72 1434h276l-51 -502h-174z" />
    <glyph glyph-name="parenleft" unicode="(" horiz-adv-x="655" 
d="M113 573c0 96.667 10.168 190.834 30.501 282.501s49.666 178.167 87.999 259.5s83.666 156.833 135.999 226.5s110.833 131.167 175.5 184.5l112 -113c-82 -108 -145.167 -229 -189.5 -363s-66.5 -293 -66.5 -477s22.167 -342.833 66.5 -476.5
s107.5 -254.5 189.5 -362.5l-112 -113c-64 53.333 -122.333 114.833 -175 184.5s-98.167 145.167 -136.5 226.5s-67.666 167.666 -87.999 258.999s-30.5 185.333 -30.5 282z" />
    <glyph glyph-name="parenright" unicode=")" horiz-adv-x="655" 
d="M0 -266c82 108 145.167 228.83 189.5 362.497s66.5 292.5 66.5 476.5s-22.167 343 -66.5 477s-107.5 255 -189.5 363l113 113c64 -53.333 122.333 -114.833 175 -184.5s98 -145.167 136 -226.5s67.333 -167.666 88 -258.999s31 -185.666 31 -282.999
c0 -96.667 -10.333 -190.667 -31 -282s-50 -177.666 -88 -258.999s-83.333 -156.833 -136 -226.5s-111 -131.167 -175 -184.5z" />
    <glyph glyph-name="asterisk" unicode="*" horiz-adv-x="901" 
d="M61 942l197 113l-197 112l93 164l204 -119v222h185v-222l205 119l92 -164l-197 -112l197 -113l-92 -164l-205 117v-219h-185v219l-204 -117z" />
    <glyph glyph-name="plus" unicode="+" horiz-adv-x="1003" 
d="M61 573v205h338v338h205v-338h338v-205h-338v-337h-205v337h-338z" />
    <glyph glyph-name="comma" unicode="," horiz-adv-x="450" 
d="M72 133c0 20.667 4.00098 40.167 12.001 58.5s18.833 34.666 32.5 48.999s29 25.666 46 33.999s34.5 12.5 52.5 12.5c46.667 0 85.667 -16.167 117 -48.5s47 -74.166 47 -125.499c0 -75.333 -12 -137.5 -36 -186.5s-49.667 -88.833 -77 -119.5
c-34 -35.333 -71.333 -63 -112 -83l-62 81c24.667 15.333 46.667 32 66 50c16.667 15.333 32 33.5 46 54.5s21 44.5 21 70.5c-40.667 0 -76.334 15.333 -107.001 46s-46 66.334 -46 107.001z" />
    <glyph glyph-name="hyphen" unicode="-" horiz-adv-x="921" 
d="M61 573v205h799v-205h-799z" />
    <glyph glyph-name="period" unicode="." horiz-adv-x="450" 
d="M72 133c0 40.667 15.333 76.5 46 107.5s66.334 46.5 107.001 46.5s76.5 -15.333 107.5 -46s46.5 -66.667 46.5 -108c0 -40.667 -15.333 -76.334 -46 -107.001s-66.667 -46 -108 -46c-40.667 0 -76.334 15.333 -107.001 46s-46 66.334 -46 107.001z" />
    <glyph glyph-name="slash" unicode="/" horiz-adv-x="921" 
d="M0 0l635 1434h287l-635 -1434h-287z" />
    <glyph glyph-name="zero" unicode="0" horiz-adv-x="1249" 
d="M102 717c0 131.333 12.667 243.333 38 336s61.166 168.667 107.499 228s101.666 103 165.999 131s134.833 42 211.5 42s147 -14 211 -42s118.833 -71.667 164.5 -131s81.5 -135.5 107.5 -228.5s39 -204.833 39 -335.5c0 -131.333 -13 -243.333 -39 -336
s-61.833 -168.834 -107.5 -228.501s-100.667 -103.334 -165 -131.001s-134.5 -41.5 -210.5 -41.5c-76.667 0 -147.167 13.833 -211.5 41.5s-119.666 71.334 -165.999 131.001s-82.166 135.834 -107.499 228.501s-38 204.667 -38 336zM389 717
c0 -110.667 6.5 -201.5 19.5 -272.5s30.5 -127.333 52.5 -169s47 -70.667 75 -87s57.667 -24.5 89 -24.5c30 0 59.333 8.16699 88 24.5s53.834 45.333 75.501 87s39 98 52 169s19.5 161.833 19.5 272.5s-6.5 201.5 -19.5 272.5s-30.333 127.333 -52 169
s-46.834 70.667 -75.501 87s-58 24.5 -88 24.5c-31.333 0 -61 -8.16699 -89 -24.5s-53 -45.333 -75 -87s-39.5 -98 -52.5 -169s-19.5 -161.833 -19.5 -272.5z" />
    <glyph glyph-name="one" unicode="1" horiz-adv-x="839" 
d="M31 1188l297 246h266v-1250h205v-184h-697v184h205v963l-164 -113z" />
    <glyph glyph-name="two" unicode="2" horiz-adv-x="1054" 
d="M41 0l-0.000976562 143c0 78 16 147.667 48 209s72.667 117 122 167s102 96.5 158 139.5s108.5 85.333 157.5 127s89.5 85 121.5 130s48 94.833 48 149.5c0 61.333 -19.667 110.833 -59 148.5s-98 56.5 -176 56.5c-49.333 0 -92 -5.16699 -128 -15.5
s-65.667 -20.833 -89 -31.5c-27.333 -13.333 -50.666 -28.333 -69.999 -45h-20l-93 163c30 20.667 65.667 39.334 107 56.001c35.333 15.333 79 28.666 131 39.999s112.667 17 182 17c169.333 0 295.333 -37.5 378 -112.5s124 -174.167 124 -297.5
c0 -70.667 -16 -134.667 -48 -192s-72.667 -109.833 -122 -157.5s-102 -92 -158 -133s-108.5 -81.667 -157.5 -122s-89.5 -81 -121.5 -122s-48 -85.5 -48 -133.5h655v-184h-942z" />
    <glyph glyph-name="three" unicode="3" horiz-adv-x="1064" 
d="M10 92l92 164h21c19.333 -18 42.666 -33.667 69.999 -47c23.333 -10.667 53 -20.834 89 -30.501s78.667 -14.5 128 -14.5c102.667 0 177.834 21.5 225.501 64.5s71.5 103.5 71.5 181.5c0 87.333 -24 153.5 -72 198.5s-123 67.5 -225 67.5h-236v184l430 389h-563v185h891
v-185l-451 -389c84.667 0 158.834 -11.5 222.501 -34.5s117 -54.667 160 -95s75.333 -87.833 97 -142.5s32.5 -114 32.5 -178s-11.167 -122.333 -33.5 -175s-56.5 -98.167 -102.5 -136.5s-104.5 -67.666 -175.5 -87.999s-154.833 -30.5 -251.5 -30.5
c-69.333 0 -130 5.33301 -182 16s-95.667 23.667 -131 39c-40.667 16.667 -76.334 35.667 -107.001 57z" />
    <glyph glyph-name="four" unicode="4" 
d="M20 328v184l676 922h267v-922h143v-184h-143v-328h-287v328h-656zM307 512h369v430c0 31.333 3.33301 59.333 10 84c2.66699 13.333 6 26.333 10 39h-8c-5.33301 -12 -10.666 -25.667 -15.999 -41c-5.33301 -12 -11.833 -25.167 -19.5 -39.5s-16.834 -28.5 -27.501 -42.5
z" />
    <glyph glyph-name="five" unicode="5" horiz-adv-x="1105" 
d="M72 92l91.999 164.001h20c19.333 -18 42.666 -33.667 69.999 -47c23.333 -10.667 53 -20.834 89 -30.501s78.667 -14.5 128 -14.5c184 0 276.333 92 277 276c0 184 -92.333 276.333 -277 277h-258l-80 84v633h828v-164h-541v-369h82c180 0 313.667 -40.667 401 -122
s131 -194.333 131 -339c0 -143.333 -44.333 -255.833 -133 -337.5s-225 -122.5 -409 -122.5c-69.333 0 -130.166 5.33301 -182.499 16s-96.166 23.667 -131.499 39c-40.667 16.667 -76 35.667 -106 57z" />
    <glyph glyph-name="six" unicode="6" 
d="M92 471l-0.00195312 410.005c0 91.333 12.333 172.833 37 244.5s59.834 131.667 105.501 180s100.667 85.166 165 110.499s135.833 38 214.5 38c64 0 121 -5.83301 171 -17.5s92 -24.834 126 -39.501c39.333 -16.667 74.333 -35.334 105 -56.001l-92 -163h-21
c-20.667 16.667 -43.667 31.667 -69 45c-23.333 10.667 -51.333 21.167 -84 31.5s-71 15.5 -115 15.5c-38 0 -72.833 -6.83301 -104.5 -20.5s-58.667 -35.834 -81 -66.501s-39.666 -71 -51.999 -121s-18.5 -110.333 -18.5 -181c18 10.667 39 20.667 63 30
c20.667 6.66699 45.667 13.5 75 20.5s61.666 10.5 96.999 10.5c144.667 0 257.667 -41.333 339 -124s122 -198.334 122 -347.001c0 -160 -41.667 -281.833 -125 -365.5s-201.333 -125.5 -354 -125.5c-165.333 0 -290.666 41.833 -375.999 125.5s-128 205.5 -128 365.5z
M378.998 471.005c0 -108 20.501 -186.168 61.501 -234.501s92.167 -72.5 153.5 -72.5c26 0 50.5 5.83301 73.5 17.5s43.5 30 61.5 55s32.333 57 43 96s16 85.167 16 138.5c0 98 -20.833 170.333 -62.5 217s-95.834 70 -162.501 70c-26 0 -50.167 -3.5 -72.5 -10.5
s-41.833 -13.833 -58.5 -20.5c-19.333 -9.33301 -37 -19.666 -53 -30.999v-225z" />
    <glyph glyph-name="seven" unicode="7" horiz-adv-x="983" 
d="M20 1249l-0.000976562 185h943v-185c-46.667 -56 -91.834 -120.833 -135.501 -194.5s-83 -155.5 -118 -245.5s-63 -187.333 -84 -292s-31.5 -215.667 -31.5 -333v-184h-287v184c0 117.333 10.667 228.333 32 333s49.333 202 84 292s73.834 171.833 117.501 245.5
s88.834 138.5 135.501 194.5h-656z" />
    <glyph glyph-name="eight" unicode="8" 
d="M51 369c0 79.333 17.1709 144.167 51.5039 194.5s71.833 89.833 112.5 118.5c48 34 102.667 59.333 164 76c-52 15.333 -98.333 37 -139 65c-35.333 24.667 -67.166 58.834 -95.499 102.501s-42.5 100.5 -42.5 170.5c0 46.667 10.667 91.334 32 134.001
s52.166 80.834 92.499 114.501s89.666 60.334 147.999 80.001s124.5 29.5 198.5 29.5s140.333 -9.83301 199 -29.5s108.167 -46.334 148.5 -80.001s71 -72 92 -115s31.5 -87.5 31.5 -133.5c0 -69.333 -14.333 -126 -43 -170s-60.667 -78.333 -96 -103
c-40.667 -28.667 -86.334 -50.334 -137.001 -65.001c61.333 -16.667 116 -42 164 -76c40.667 -28.667 78.167 -68.334 112.5 -119.001s51.5 -115.334 51.5 -194.001c0 -53.333 -11 -104 -33 -152s-54.833 -89.333 -98.5 -124s-97.834 -62.167 -162.501 -82.5
s-141 -30.5 -229 -30.5c-87.333 0 -163.333 10.167 -228 30.5s-118.834 47.833 -162.501 82.5s-76.5 76 -98.5 124s-33 98.667 -33 152zM338.004 369.001c0 -61.333 19.834 -110.833 59.501 -148.5s98.167 -56.5 175.5 -56.5c78 0 136.833 18.667 176.5 56s59.5 87 59.5 149
c0 40.667 -6.16699 75.667 -18.5 105s-29 54.666 -50 75.999s-46 39.5 -75 54.5s-59.833 28.5 -92.5 40.5c-32.667 -12 -63.334 -25.5 -92.001 -40.5s-53.5 -33.167 -74.5 -54.5s-37.667 -46.666 -50 -75.999s-18.5 -64.333 -18.5 -105zM389.005 1096
c0 -66.667 16.667 -115.832 50 -147.499s78 -57.834 134 -78.501c56 20.667 100.833 46.667 134.5 78s50.5 80.666 50.5 147.999c0 46.667 -17.833 87.334 -53.5 122.001s-79.5 52 -131.5 52s-95.667 -17.5 -131 -52.5s-53 -75.5 -53 -121.5z" />
    <glyph glyph-name="nine" unicode="9" 
d="M72 963c0 160 41.6689 281.834 125.002 365.501s201.333 125.5 354 125.5c165.333 0 290.666 -42 375.999 -126s128 -205.667 128 -365v-410c0 -92.667 -12.333 -174.5 -37 -245.5s-59.834 -130.833 -105.501 -179.5s-100.667 -85.5 -165 -110.5
s-136.166 -37.5 -215.499 -37.5c-65.333 0 -122.5 5.33301 -171.5 16s-90.5 23.667 -124.5 39c-39.333 16.667 -74.333 35.667 -105 57l92 164h21c20.667 -18 43.667 -33.667 69 -47c23.333 -10.667 51.333 -20.834 84 -30.501s71 -14.5 115 -14.5
c38 0 72.833 6.83301 104.5 20.5s58.667 35.834 81 66.501s39.666 70.5 51.999 119.5s18.5 109.833 18.5 182.5c-18 -12 -39 -22.333 -63 -31c-20.667 -8 -45.667 -15 -75 -21s-62 -9 -98 -9c-144.667 0 -257.5 41.167 -338.5 123.5s-121.5 198.166 -121.5 347.499z
M358.002 963.001c0 -98 21 -170.333 63 -217s96.333 -70 163 -70c26 0 50.167 3 72.5 9s41.833 13.333 58.5 22c19.333 8 37 18 53 30v226c0 108 -20.5 186.167 -61.5 234.5s-92.167 72.5 -153.5 72.5c-26 0 -50.667 -5.83301 -74 -17.5s-43.833 -30.167 -61.5 -55.5
s-32 -57.5 -43 -96.5s-16.5 -84.833 -16.5 -137.5z" />
    <glyph glyph-name="colon" unicode=":" horiz-adv-x="450" 
d="M72 133c0 40.667 15.333 76.5 46 107.5s66.334 46.5 107.001 46.5s76.5 -15.333 107.5 -46s46.5 -66.667 46.5 -108c0 -40.667 -15.333 -76.334 -46 -107.001s-66.667 -46 -108 -46c-40.667 0 -76.334 15.333 -107.001 46s-46 66.334 -46 107.001zM72 891
c0 40.667 15.333 76.334 46 107.001s66.334 46 107.001 46s76.5 -15.333 107.5 -46s46.5 -66.334 46.5 -107.001s-15.333 -76.5 -46 -107.5s-66.667 -46.5 -108 -46.5c-40.667 0 -76.334 15.333 -107.001 46s-46 66.667 -46 108z" />
    <glyph glyph-name="semicolon" unicode=";" horiz-adv-x="450" 
d="M72 133c0 20.667 4.00098 40.167 12.001 58.5s18.833 34.666 32.5 48.999s29 25.666 46 33.999s34.5 12.5 52.5 12.5c46.667 0 85.667 -16.167 117 -48.5s47 -74.166 47 -125.499c0 -75.333 -12 -137.5 -36 -186.5s-49.667 -88.833 -77 -119.5
c-34 -35.333 -71.333 -63 -112 -83l-62 81c24.667 15.333 46.667 32 66 50c16.667 15.333 32 33.5 46 54.5s21 44.5 21 70.5c-40.667 0 -76.334 15.333 -107.001 46s-46 66.334 -46 107.001zM72.001 891c0 40.667 15.333 76.334 46 107.001s66.334 46 107.001 46
s76.5 -15.333 107.5 -46s46.5 -66.334 46.5 -107.001s-15.333 -76.5 -46 -107.5s-66.667 -46.5 -108 -46.5c-40.667 0 -76.334 15.333 -107.001 46s-46 66.667 -46 108z" />
    <glyph glyph-name="less" unicode="&#x3c;" horiz-adv-x="931" 
d="M41 430v164l819 430v-246l-512 -266l512 -266v-246z" />
    <glyph glyph-name="equal" unicode="=" horiz-adv-x="1044" 
d="M72 379v205h901v-205h-901zM72 770v205h901v-205h-901z" />
    <glyph glyph-name="greater" unicode="&#x3e;" horiz-adv-x="931" 
d="M72 0v246l512 266l-512 266v246l819 -430v-164z" />
    <glyph glyph-name="question" unicode="?" horiz-adv-x="1003" 
d="M0 1341c30 20.667 65.334 39.332 106.001 55.999c35.333 15.333 79.166 28.666 131.499 39.999s113.166 17 182.499 17c87.333 0 163 -9.5 227 -28.5s117.167 -46 159.5 -81s73.833 -76.333 94.5 -124s31 -99.5 31 -155.5c0 -61.333 -10 -113.5 -30 -156.5
s-44.667 -80.167 -74 -111.5s-61.333 -59 -96 -83s-66.667 -47.667 -96 -71s-54 -48.666 -74 -75.999s-30 -59.333 -30 -96v-61h-266v61c0 57.333 9.33301 106.5 28 147.5s42.334 76.833 71.001 107.5s59 58.334 91 83.001s62.333 50 91 76s52.167 54.667 70.5 86
s27.5 69.333 27.5 114c0 52 -20.5 95.833 -61.5 131.5s-102.5 53.5 -184.5 53.5c-49.333 0 -92 -5.16699 -128 -15.5s-65.667 -20.833 -89 -31.5c-27.333 -13.333 -50.333 -28.333 -69 -45h-21zM246.001 132.998c0 40.667 15.333 76.5 46 107.5s66.334 46.5 107.001 46.5
s76.5 -15.333 107.5 -46s46.5 -66.667 46.5 -108c0 -40.667 -15.333 -76.334 -46 -107.001s-66.667 -46 -108 -46c-40.667 0 -76.334 15.333 -107.001 46s-46 66.334 -46 107.001z" />
    <glyph glyph-name="at" unicode="@" horiz-adv-x="1966" 
d="M82 614c0 122.667 21.8311 236.668 65.498 342.001s105.5 196.166 185.5 272.499s174.833 136.5 284.5 180.5s231.5 66 365.5 66c132.667 0 254.167 -22 364.5 -66s205.5 -104.167 285.5 -180.5s141.833 -167 185.5 -272s65.5 -219.167 65.5 -342.5
c0 -79.333 -10.833 -150 -32.5 -212s-52 -114.5 -91 -157.5s-85.5 -75.667 -139.5 -98s-113 -33.5 -177 -33.5c-46.667 0 -86.667 5.33301 -120 16s-61 23.667 -83 39c-24.667 16.667 -45.667 35.667 -63 57h-11c-15.333 -22 -34.333 -41 -57 -57
c-19.333 -15.333 -44.666 -28.333 -75.999 -39s-68.666 -16 -111.999 -16c-53.333 0 -103.333 10.167 -150 30.5s-87 51 -121 92s-60.5 92.167 -79.5 153.5s-28.5 133 -28.5 215s9.5 153.667 28.5 215s45.5 112.5 79.5 153.5s74.333 71.833 121 92.5s96.667 31 150 31
c38 0 72 -5.83301 102 -17.5s56 -25.167 78 -40.5c24.667 -16.667 46.334 -35 65.001 -55h11l20 92h184v-758c6.66699 -5.33301 14.334 -10.666 23.001 -15.999c16.667 -9.33301 36.334 -14 59.001 -14c23.333 0 45.666 5.33301 66.999 16s39.833 29 55.5 55
s28.167 59.833 37.5 101.5s14 93.167 14 154.5c0 96.667 -16.667 186.5 -50 269.5s-79.666 154.5 -138.999 214.5s-129 107 -209 141s-165.667 51 -257 51c-92.667 0 -178.667 -17 -258 -51s-148.666 -81 -207.999 -141s-105.666 -131.333 -138.999 -214
s-50 -172.667 -50 -270c0 -96.667 16.667 -186.334 50 -269.001s79.666 -154 138.999 -214s128.666 -107 207.999 -141s165.333 -51 258 -51c57.333 0 106.166 4.66699 146.499 14s74.166 19.666 101.499 30.999c31.333 13.333 58 29 80 47h20l92 -164
c-31.333 -22 -69.333 -41 -114 -57c-39.333 -15.333 -87.333 -28.5 -144 -39.5s-124 -16.5 -202 -16.5c-128.667 0 -247 21.833 -355 65.5s-200.833 103.834 -278.5 180.501s-138.334 167.5 -182.001 272.5s-65.5 218.833 -65.5 341.5zM808.998 604.001
c0 -58.667 4.83301 -107.833 14.5 -147.5s22 -71 37 -94s32.333 -39.667 52 -50s39.834 -15.5 60.501 -15.5c23.333 0 43.833 2.33301 61.5 7s32.5 10.667 44.5 18c15.333 6.66699 27.666 15.334 36.999 26.001v471c-12 16.667 -25.667 31.667 -41 45
c-13.333 10.667 -28.5 21.167 -45.5 31.5s-35.833 15.5 -56.5 15.5c-23.333 0 -44.833 -5 -64.5 -15s-37 -26.667 -52 -50s-26.667 -54.833 -35 -94.5s-12.5 -88.834 -12.5 -147.501z" />
    <glyph glyph-name="A" unicode="A" horiz-adv-x="1228" 
d="M31 0l420 1434h327l420 -1434h-287l-92 328h-409l-93 -328h-286zM461 512l307.002 -0.00195312l-123 430c-5.33301 16.667 -9.33301 33.834 -12 51.501s-5.33398 33.834 -8.00098 48.501c-2.66699 18 -5 36 -7 54h-8l-8 -54c-2.66699 -15.333 -5.33398 -32 -8.00098 -50
s-6 -34.667 -10 -50z" />
    <glyph glyph-name="B" unicode="B" horiz-adv-x="1249" 
d="M174 0l0.000976562 1434h430c84.667 0 157.667 -9.33301 219 -28s112.166 -44.334 152.499 -77.001s70.5 -71.5 90.5 -116.5s30 -94.167 30 -147.5c0 -66.667 -13.667 -120.167 -41 -160.5s-56.666 -71.5 -87.999 -93.5c-36.667 -24.667 -79 -42.334 -127 -53.001
c57.333 -10.667 108.333 -30.667 153 -60c38 -24.667 73.167 -60.834 105.5 -108.501s48.5 -111.167 48.5 -190.5c0 -61.333 -10 -116.5 -30 -165.5s-51.833 -91 -95.5 -126s-99.834 -61.667 -168.501 -80s-151.667 -27.5 -249 -27.5h-430zM461.001 184.003h143
c170.667 0 256 78.667 256 236c0 156.667 -84.667 235 -254 235h-2h-143v-471zM461.001 840.003l143 0.000976562c61.333 0 110.833 18.667 148.5 56s56.5 86.666 56.5 147.999s-18.833 110.833 -56.5 148.5s-87.167 56.5 -148.5 56.5h-143v-409z" />
    <glyph glyph-name="C" unicode="C" horiz-adv-x="1095" 
d="M102 717c0 131.333 12.999 243.332 38.999 335.999s63 168.667 111 228s106 103 174 131s144.333 42 229 42c58.667 0 111.667 -5.83301 159 -17.5s87.333 -24.834 120 -39.501c38 -16.667 71.333 -35.334 100 -56.001l-92 -163h-20
c-19.333 16.667 -41.333 31.667 -66 45c-22 10.667 -48 21.167 -78 31.5s-64 15.5 -102 15.5c-40.667 0 -78.5 -8.5 -113.5 -25.5s-65.5 -46.667 -91.5 -89s-46.167 -99 -60.5 -170s-21.5 -160.5 -21.5 -268.5s7.5 -197.5 22.5 -268.5s35.833 -127.667 62.5 -170
s58.834 -72 96.501 -89s79.5 -25.5 125.5 -25.5c38 0 72.167 4.83301 102.5 14.5s56.5 19.834 78.5 30.501c24.667 13.333 46.334 29 65.001 47h21l92 -164c-28.667 -22 -62.334 -41 -101.001 -57c-32.667 -15.333 -72.5 -28.333 -119.5 -39s-99.833 -16 -158.5 -16
c-90 0 -170.5 13.833 -241.5 41.5s-131.167 71.334 -180.5 131.001s-87 135.834 -113 228.501s-39 204.667 -39 336z" />
    <glyph glyph-name="D" unicode="D" horiz-adv-x="1259" 
d="M174 0v1434h348c204.667 0 361.667 -58.167 471 -174.5s164 -297.166 164 -542.499c0 -246 -54.667 -427 -164 -543s-266.333 -174 -471 -174h-348zM461 183.999h61c56 0 105.833 8.66699 149.5 26s80.167 46.333 109.5 87s51.5 95.167 66.5 163.5
s22.5 153.833 22.5 256.5s-7.5 188 -22.5 256s-37.167 122.5 -66.5 163.5s-65.833 70 -109.5 87s-93.5 25.5 -149.5 25.5h-61v-1065z" />
    <glyph glyph-name="E" unicode="E" horiz-adv-x="1085" 
d="M174 0v1434h860v-185h-573v-409h450v-185h-450v-471h573v-184h-860z" />
    <glyph glyph-name="F" unicode="F" horiz-adv-x="1075" 
d="M174 0v1434h860v-185h-573v-430h450v-184h-450v-635h-287z" />
    <glyph glyph-name="G" unicode="G" horiz-adv-x="1208" 
d="M102 717c0 131.333 13.001 243.333 39.001 336s63 168.667 111 228s106 103 174 131s144.333 42 229 42c58.667 0 111.667 -5.83301 159 -17.5s87.333 -24.834 120 -39.501c38 -16.667 71.333 -35.334 100 -56.001l-92 -163h-20c-19.333 16.667 -41.333 31.667 -66 45
c-22 10.667 -48 21.167 -78 31.5s-64 15.5 -102 15.5c-40.667 0 -78.5 -8.5 -113.5 -25.5s-65.5 -46.667 -91.5 -89s-46.167 -99 -60.5 -170s-21.5 -160.5 -21.5 -268.5s7.5 -197.5 22.5 -268.5s35.833 -127.667 62.5 -170s58.834 -72 96.501 -89s79.5 -25.5 125.5 -25.5
c26 0 49.333 3.33301 70 10c10.667 2.66699 21.667 6 33 10v430h-215v185h420l81 -82v-625c-28.667 -22 -63.334 -41 -104.001 -57c-35.333 -15.333 -78.333 -28.333 -129 -39s-109.334 -16 -176.001 -16c-90 0 -170.5 13.833 -241.5 41.5s-131.167 71.334 -180.5 131.001
s-87 135.834 -113 228.501s-39 204.667 -39 336z" />
    <glyph glyph-name="H" unicode="H" horiz-adv-x="1351" 
d="M174 0v1434h287v-615h430v615h287v-1434h-287v635h-430v-635h-287z" />
    <glyph glyph-name="I" unicode="I" horiz-adv-x="634" 
d="M174 0v1434h287v-1434h-287z" />
    <glyph glyph-name="J" unicode="J" horiz-adv-x="921" 
d="M0 72l82.001 174.001h20c18 -15.333 37.333 -29 58 -41c18 -10.667 37.833 -20.167 59.5 -28.5s44.167 -12.5 67.5 -12.5c61.333 0 109 18 143 54s51 93 51 171v1045h287v-1045c0 -122.667 -39.667 -221.5 -119 -296.5s-193.333 -112.5 -342 -112.5
c-40.667 0 -79.834 4.66699 -117.501 14s-70.167 19.666 -97.5 30.999c-34 13.333 -64.667 29 -92 47z" />
    <glyph glyph-name="K" unicode="K" horiz-adv-x="1198" 
d="M174 0v1434h287v-635l379 635h317l-430 -686l461 -748h-328l-399 676v-676h-287z" />
    <glyph glyph-name="L" unicode="L" horiz-adv-x="1034" 
d="M174 0v1434h287v-1250h553v-184h-840z" />
    <glyph glyph-name="M" unicode="M" horiz-adv-x="1781" 
d="M174 0l0.000976562 1434h277l399 -809c10.667 -22 19.667 -44.667 27 -68c4 -12 7.33301 -23.667 10 -35h8c2.66699 10.667 6 22.334 10 35.001c6.66699 23.333 15.667 46 27 68l399 809h277v-1434h-287v748c0 15.333 0.333008 30.666 1 45.999s1.66699 30 3 44
c1.33301 15.333 3.33301 30.333 6 45h-8c-4 -15.333 -8.66699 -30.333 -14 -45c-5.33301 -13.333 -11.5 -28 -18.5 -44l-20.5 -46l-256 -512h-246l-256 512c-8 15.333 -15.167 30.666 -21.5 45.999l-17.5 44c-5.33301 15.333 -10 30.333 -14 45h-8l4 -45
c1.33301 -13.333 2.66602 -28 3.99902 -44s2 -31.333 2 -46v-748h-287z" />
    <glyph glyph-name="N" unicode="N" horiz-adv-x="1351" 
d="M174 0l0.00195312 1434h307l359 -799c6.66699 -15.333 13 -31.166 19 -47.499s12 -30.5 18 -42.5c5.33301 -15.333 10.666 -29.666 15.999 -42.999h8c-2.66699 13.333 -4.66699 27.666 -6 42.999c-1.33301 12 -2.33301 26.167 -3 42.5s-1 32.166 -1 47.499v799h287v-1434
h-308l-358 799l-19.5 46l-17.5 44c-5.33301 15.333 -10.666 29.666 -15.999 42.999h-8c1.33301 -13.333 2.66602 -27.666 3.99902 -42.999c1.33301 -13.333 2.66602 -28 3.99902 -44s2 -31.333 2 -46v-799h-287z" />
    <glyph glyph-name="O" unicode="O" horiz-adv-x="1290" 
d="M102 717c0 131.333 13 243.333 39 336s62.667 168.667 110 228s104.333 103 171 131s141 42 223 42s156.5 -14 223.5 -42s124 -71.667 171 -131s83.5 -135.333 109.5 -228s39 -204.667 39 -336s-13 -243.333 -39 -336s-62.5 -168.834 -109.5 -228.501
s-104 -103.334 -171 -131.001s-141.5 -41.5 -223.5 -41.5s-156.333 13.833 -223 41.5s-123.667 71.334 -171 131.001s-84 135.834 -110 228.501s-39 204.667 -39 336zM389 717c0 -108 7.16699 -197.5 21.5 -268.5s33.166 -127.667 56.499 -170s50.666 -72 81.999 -89
s63.333 -25.5 96 -25.5s64.667 8.5 96 25.5s58.666 46.667 81.999 89s42.166 99 56.499 170s21.5 160.5 21.5 268.5s-7.16699 197.5 -21.5 268.5s-33.166 127.667 -56.499 170s-50.666 72 -81.999 89s-63.333 25.5 -96 25.5s-64.667 -8.5 -96 -25.5
s-58.666 -46.667 -81.999 -89s-42.166 -99 -56.499 -170s-21.5 -160.5 -21.5 -268.5z" />
    <glyph glyph-name="P" unicode="P" horiz-adv-x="1218" 
d="M174 0v1434h410c195.333 0 336.333 -40.333 423 -121s130 -201 130 -361s-43.333 -280.167 -130 -360.5s-227.667 -120.5 -423 -120.5h-123v-471h-287zM461 655l123 0.000976562c92.667 0 160.167 22.667 202.5 68s63.5 121.666 63.5 228.999
c0 108 -21.167 184.5 -63.5 229.5s-109.833 67.5 -202.5 67.5h-123v-594z" />
    <glyph glyph-name="Q" unicode="Q" horiz-adv-x="1290" 
d="M102 717c0 131.333 12.999 243.332 38.999 335.999s62.667 168.667 110 228s104.333 103 171 131s141 42 223 42s156.5 -14 223.5 -42s124 -71.667 171 -131s83.5 -135.333 109.5 -228s39 -204.667 39 -336c0 -220 -35.833 -387 -107.5 -501s-169.167 -186 -292.5 -216
c0 -52 10.667 -90.667 32 -116s45 -38 71 -38c24.667 0 42.334 3.66699 53.001 11c5.33301 2.66699 11 6 17 10h20l53 -164c-12 -8 -26.333 -14.667 -43 -20c-15.333 -5.33301 -32.833 -10.166 -52.5 -14.499s-42.5 -6.5 -68.5 -6.5c-56 0 -106.5 8.5 -151.5 25.5
s-83.5 40.5 -115.5 70.5s-56.833 65.5 -74.5 106.5s-26.5 86.167 -26.5 135.5c-122.667 30 -220 102 -292 216s-108 281 -108 501zM388.999 716.999c0 -108 7.16699 -197.5 21.5 -268.5s33.166 -127.667 56.499 -170s50.666 -72 81.999 -89s63.333 -25.5 96 -25.5
s64.667 8.5 96 25.5s58.666 46.667 81.999 89s42.166 99 56.499 170s21.5 160.5 21.5 268.5s-7.16699 197.5 -21.5 268.5s-33.166 127.667 -56.499 170s-50.666 72 -81.999 89s-63.333 25.5 -96 25.5s-64.667 -8.5 -96 -25.5s-58.666 -46.667 -81.999 -89
s-42.166 -99 -56.499 -170s-21.5 -160.5 -21.5 -268.5z" />
    <glyph glyph-name="R" unicode="R" horiz-adv-x="1228" 
d="M174 0l-0.000976562 1434h389c194 0 334.667 -39.667 422 -119s131 -193.333 131 -342c0 -86 -14 -155.333 -42 -208s-58.333 -94 -91 -124c-39.333 -35.333 -83.666 -61.333 -132.999 -78l348 -563h-328l-297 512h-112v-512h-287zM460.999 696h102
c92.667 0 160.167 21.5 202.5 64.5s63.5 113.833 63.5 212.5c0 98 -21.167 168.5 -63.5 211.5s-109.833 64.5 -202.5 64.5h-102v-553z" />
    <glyph glyph-name="S" unicode="S" horiz-adv-x="1095" 
d="M72 92l91.9971 164.004h20c20.667 -18 45.334 -33.667 74.001 -47c24.667 -10.667 56.167 -20.834 94.5 -30.501s84.833 -14.5 139.5 -14.5c82 0 143.333 18.667 184 56s61 87 61 149c0 48 -16 87.667 -48 119s-72.5 59.833 -121.5 85.5s-101.5 51.5 -157.5 77.5
s-108.667 56.833 -158 92.5s-90 79 -122 130s-48 114.833 -48 191.5c0 53.333 10.5 103.833 31.5 151.5s52 89 93 124s91.5 62.667 151.5 83s128.333 30.5 205 30.5c69.333 0 130 -5.83301 182 -17.5s96 -24.834 132 -39.501c40.667 -16.667 76 -35.334 106 -56.001
l-92 -163h-21c-19.333 16.667 -42.333 31.667 -69 45c-23.333 10.667 -53.5 21.167 -90.5 31.5s-79.167 15.5 -126.5 15.5c-31.333 0 -60 -5.16699 -86 -15.5s-48.667 -24.333 -68 -42s-34.333 -37.5 -45 -59.5s-16 -44.667 -16 -68c0 -48 16 -87.5 48 -118.5
s72.5 -59.5 121.5 -85.5s101.5 -52 157.5 -78s108.667 -56.833 158 -92.5s90 -79 122 -130s48 -114.833 48 -191.5c0 -58.667 -11 -112.834 -33 -162.501s-54.5 -93 -97.5 -130s-96.167 -65.667 -159.5 -86s-137.333 -30.5 -222 -30.5
c-75.333 0 -140.166 5.33301 -194.499 16s-100.166 23.667 -137.499 39c-44 16.667 -80 35.667 -108 57z" />
    <glyph glyph-name="T" unicode="T" horiz-adv-x="1044" 
d="M20 1249v185h1004v-185h-358v-1249h-287v1249h-359z" />
    <glyph glyph-name="U" unicode="U" horiz-adv-x="1310" 
d="M154 471v963h286v-963c0 -108 20.5 -186.167 61.5 -234.5s92.167 -72.5 153.5 -72.5s112.5 24.167 153.5 72.5s61.5 126.5 61.5 234.5v963h287v-963c0 -154 -43.667 -274.333 -131 -361s-211 -130 -371 -130s-283.5 43.333 -370.5 130s-130.5 207 -130.5 361z" />
    <glyph glyph-name="V" unicode="V" horiz-adv-x="1208" 
d="M31 1434l286 0.000976562l256 -942c4 -16.667 7.5 -33.834 10.5 -51.501l8.5 -49.5l8 -53h8c1.33301 16.667 3.33301 33.667 6 51l8.5 50.5c3 18.333 7.16699 35.833 12.5 52.5l256 942h287l-410 -1434h-328z" />
    <glyph glyph-name="W" unicode="W" horiz-adv-x="1843" 
d="M31 1434l286.005 0.00292969l205 -902c5.33301 -26 9.66602 -52.333 12.999 -79c1.33301 -15.333 2.66602 -29.666 3.99902 -42.999h8c1.33301 13.333 2.66602 27.666 3.99902 42.999c2.66699 27.333 6.66699 53.666 12 78.999l207 902h303l207 -902
c5.33301 -26 9.33301 -52.333 12 -79c1.33301 -15.333 2.66602 -29.666 3.99902 -42.999h9c1.33301 13.333 2.66602 27.666 3.99902 42.999c2.66699 27.333 6.66699 53.666 12 78.999l205 902h286l-348 -1434h-307l-215 891c-2.66699 12 -5 25.833 -7 41.5
s-3.66699 30.5 -5 44.5l-4 47h-8c-1.33301 -16.667 -3 -32.334 -5 -47.001c-1.33301 -13.333 -3 -28 -5 -44s-4.33301 -30 -7 -42l-215 -891h-307z" />
    <glyph glyph-name="X" unicode="X" 
d="M20 0l359 727l-348 707h307l205 -441c4 -10.667 7.66699 -21.167 11 -31.5s6.33301 -20.166 9 -29.499c2.66699 -10.667 4.66699 -21 6 -31h9c1.33301 9.33301 3.33301 19.666 6 30.999c2.66699 9.33301 5.33398 19.166 8.00098 29.499s6.66699 20.833 12 31.5l205 441
h307l-348 -707l358 -727h-307l-215 461c-5.33301 10.667 -9.33301 21.167 -12 31.5s-5.33398 20.166 -8.00098 29.499c-2.66699 10.667 -4.66699 21 -6 31h-9c-1.33301 -9.33301 -3.33301 -19.666 -6 -30.999c-2.66699 -9.33301 -5.66699 -19.166 -9 -29.499
s-7 -20.833 -11 -31.5l-215 -461h-308z" />
    <glyph glyph-name="Y" unicode="Y" horiz-adv-x="1167" 
d="M0 1434l296.999 0.000976562l256 -605c4 -10.667 7.66699 -21.167 11 -31.5s6.33301 -20.166 9 -29.499c2.66699 -10.667 5 -21 7 -31h8c1.33301 9.33301 3.33301 19.666 6 30.999c2.66699 9.33301 5.33398 19.166 8.00098 29.499s6.66699 20.833 12 31.5l256 605h297
l-440 -963v-471h-287v471z" />
    <glyph glyph-name="Z" unicode="Z" horiz-adv-x="1075" 
d="M72 0v195l594 1054h-594v185h921v-195l-594 -1055h605v-184h-932z" />
    <glyph glyph-name="bracketleft" unicode="[" horiz-adv-x="686" 
d="M174 -348v1843h492v-184h-205v-1475h205v-184h-492z" />
    <glyph glyph-name="backslash" unicode="\" horiz-adv-x="921" 
d="M0 1434h287l635 -1434h-287z" />
    <glyph glyph-name="bracketright" unicode="]" horiz-adv-x="686" 
d="M20 -164h205v1475h-205v184h492v-1843h-492v184z" />
    <glyph glyph-name="asciicircum" unicode="^" horiz-adv-x="962" 
d="M0 901l379 574h205l379 -574h-267l-215 328l-215 -328h-266z" />
    <glyph glyph-name="underscore" unicode="_" horiz-adv-x="798" 
d="M0 -82h799v-205h-799v205z" />
    <glyph glyph-name="grave" unicode="`" horiz-adv-x="409" 
d="M20 1434h277l92 -308h-164z" />
    <glyph glyph-name="a" unicode="a" horiz-adv-x="1105" 
d="M82 297c0 49.333 8.49902 94.166 25.499 134.499s44.333 74.833 82 103.5s85.5 50.834 143.5 66.501s128 23.5 210 23.5h143v30c0 72.667 -15.667 125 -47 157s-80.333 48 -147 48c-34 0 -64.167 -4 -90.5 -12s-48.833 -17.667 -67.5 -29
c-22 -12 -41.333 -25.667 -58 -41h-20l-92 164c28.667 19.333 60.667 36.333 96 51c31.333 12 68.166 23.5 110.499 34.5s89.5 16.5 141.5 16.5c74 0 139.667 -9.5 197 -28.5s105.333 -45.833 144 -80.5s68.334 -76 89.001 -124s31 -100 31 -156v-655h-205l-20 123h-11
c-20.667 -27.333 -43.667 -51.333 -69 -72c-23.333 -19.333 -52.166 -36 -86.499 -50s-74.5 -21 -120.5 -21c-122.667 0 -216.5 29.667 -281.5 89s-97.5 135.333 -97.5 228zM368.999 297c0 -35.333 12.166 -64.667 36.499 -88s59.833 -35 106.5 -35c26 0 49.5 6.5 70.5 19.5
s39.167 27.167 54.5 42.5c18 18 34.333 38.333 49 61v143h-143c-61.333 0 -105.666 -12.167 -132.999 -36.5s-41 -59.833 -41 -106.5z" />
    <glyph glyph-name="b" unicode="b" 
d="M143 0l0.00195312 1352l82 82h205v-451c15.333 10.667 33.666 21 54.999 31c18 6.66699 39.667 13.334 65 20.001s53.666 10 84.999 10c64 0 122.333 -10.833 175 -32.5s98.167 -54.667 136.5 -99s67.666 -99.666 87.999 -165.999s30.5 -144.5 30.5 -234.5
s-10.167 -168.167 -30.5 -234.5s-49 -121.666 -86 -165.999s-80.5 -77.333 -130.5 -99s-104.333 -32.5 -163 -32.5c-46.667 0 -87 7.16699 -121 21.5s-62.333 30.833 -85 49.5c-27.333 20.667 -50.666 44.667 -69.999 72h-10l-21 -123h-205zM430.002 296.997
c13.333 -23.333 28.3311 -43.668 44.998 -61.001c15.333 -15.333 33.5 -29.5 54.5 -42.5s45.833 -19.5 74.5 -19.5c23.333 0 45.5 5.5 66.5 16.5s39.5 29.833 55.5 56.5s28.667 61.5 38 104.5s14 96.5 14 160.5c0 66.667 -4.66699 122.167 -14 166.5s-23 79.833 -41 106.5
s-38.5 45.834 -61.5 57.501s-48.833 17.5 -77.5 17.5c-23.333 0 -44.166 -3.33301 -62.499 -10s-34.5 -13.667 -48.5 -21c-15.333 -9.33301 -29.666 -19.333 -42.999 -30v-502z" />
    <glyph glyph-name="c" unicode="c" horiz-adv-x="972" 
d="M82 512c0 180 41.667 313.669 125 401.002s202 131 356 131c52 0 98.833 -5.33301 140.5 -16s78.167 -22.334 109.5 -35.001c35.333 -15.333 68 -32.333 98 -51l-92 -164h-20c-16.667 15.333 -36 29 -58 41c-19.333 10.667 -42.166 20.167 -68.499 28.5
s-55.833 12.5 -88.5 12.5s-62.334 -5.83301 -89.001 -17.5s-49.334 -30.834 -68.001 -57.501s-33 -62.167 -43 -106.5s-15 -99.833 -15 -166.5s5 -122.167 15 -166.5s25 -79.833 45 -106.5s44.667 -45.834 74 -57.501s63 -17.5 101 -17.5c32.667 0 62.334 4 89.001 12
s49.667 17.667 69 29c22 12 41 25.667 57 41h21l92 -164c-30 -19.333 -62.667 -36.333 -98 -51c-31.333 -13.333 -67.833 -25.166 -109.5 -35.499s-88.5 -15.5 -140.5 -15.5c-165.333 0 -290.333 43.667 -375 131s-127 221 -127 401z" />
    <glyph glyph-name="d" unicode="d" 
d="M82 512c0 90 10.168 168.169 30.501 234.502s49.666 121.666 87.999 165.999s83.833 77.333 136.5 99s111 32.5 175 32.5c31.333 0 59 -3.33301 83 -10s45.333 -13.334 64 -20.001c20.667 -9.33301 40 -19.666 58 -30.999v369l82 82h205v-1434h-205l-21 123h-10
c-20.667 -27.333 -44 -51.333 -70 -72c-23.333 -19.333 -52 -36 -86 -50s-74 -21 -120 -21c-58.667 0 -113 10.833 -163 32.5s-93.5 54.667 -130.5 99s-65.667 99.666 -86 165.999s-30.5 144.5 -30.5 234.5zM369.001 512.002c0 -64 4.66699 -117.499 14 -160.499
s21.833 -77.833 37.5 -104.5s34.167 -45.5 55.5 -56.5s43.666 -16.5 66.999 -16.5c27.333 0 51.833 6.5 73.5 19.5s40.167 27.167 55.5 42.5c16.667 18 31.667 38.333 45 61v502c-13.333 10.667 -27.666 20.667 -42.999 30c-13.333 6.66699 -29.333 13.5 -48 20.5
s-39.667 10.5 -63 10.5c-28.667 0 -54.5 -5.83301 -77.5 -17.5s-43.5 -30.834 -61.5 -57.501s-31.667 -62.167 -41 -106.5s-14 -99.833 -14 -166.5z" />
    <glyph glyph-name="e" unicode="e" horiz-adv-x="1064" 
d="M82 512c0 178.667 40.667 311.999 122 399.999s190.666 132 327.999 132c138 0 247.667 -43 329 -129s122 -213.667 122 -383v-51l-61 -61h-553c0 -170.667 81.667 -256 245 -256c32.667 0 62.334 4 89.001 12s49.667 17.667 69 29c22 12 41 25.667 57 41h21l92 -164
c-30 -19.333 -62.667 -36.333 -98 -51c-31.333 -13.333 -67.833 -25.166 -109.5 -35.499s-88.5 -15.5 -140.5 -15.5c-341.333 0 -512 177.333 -512 532zM369 603.999h327c0 87.333 -17.167 151.833 -51.5 193.5s-71.833 62.5 -112.5 62.5s-78 -20.833 -112 -62.5
s-51 -106.167 -51 -193.5z" />
    <glyph glyph-name="f" unicode="f" horiz-adv-x="747" 
d="M41 840l-0.00292969 183.999h113v82c0 102.667 34.333 186.334 103 251.001s167.334 97 296.001 97c40.667 0 79.5 -5.5 116.5 -16.5s69.833 -22.5 98.5 -34.5c32.667 -15.333 63.334 -32.333 92.001 -51l-92 -164h-20c-16.667 15.333 -34.667 29 -54 41
c-16.667 10.667 -35.167 20.167 -55.5 28.5s-42.166 12.5 -65.499 12.5c-35.333 0 -66.333 -14.333 -93 -43s-40 -69 -40 -121v-82h256v-184h-256v-840h-286v840h-113z" />
    <glyph glyph-name="g" unicode="g" 
d="M82 512c0 90 10.168 168.17 30.501 234.503s49 121.666 86 165.999s80.333 77.333 130 99s104.167 32.5 163.5 32.5c46.667 0 87 -7.5 121 -22.5s62.333 -31.167 85 -48.5c26 -22 49.333 -46 70 -72h10l21 123h205v-1044c0 -58.667 -10.667 -113 -32 -163
s-52.5 -93.5 -93.5 -130.5s-91.5 -65.667 -151.5 -86s-128.333 -30.5 -205 -30.5c-54.667 0 -103.834 5.16699 -147.501 15.5s-81.167 22.166 -112.5 35.499c-36.667 15.333 -69.334 32.333 -98.001 51l92 164h20c16.667 -15.333 36.667 -29 60 -41
c19.333 -10.667 43 -20.167 71 -28.5s59.667 -12.5 95 -12.5c66.667 0 119.167 19.5 157.5 58.5s57.5 94.833 57.5 167.5v61c-18 -12 -37.333 -22.333 -58 -31c-19.333 -8 -40.833 -15 -64.5 -21s-51.167 -9 -82.5 -9c-64 0 -122.333 10.833 -175 32.5
s-98.167 54.667 -136.5 99s-67.666 99.666 -87.999 165.999s-30.5 144.5 -30.5 234.5zM369.001 512.003c0 -66.667 4.66797 -122.165 14.001 -166.498s23 -79.833 41 -106.5s38.5 -45.834 61.5 -57.501s48.833 -17.5 77.5 -17.5c23.333 0 44.166 3 62.499 9
s34.5 13.333 48.5 22c15.333 8 29.666 18 42.999 30v502c-13.333 23.333 -28.333 43.666 -45 60.999c-15.333 15.333 -33.833 29.5 -55.5 42.5s-46.167 19.5 -73.5 19.5c-23.333 0 -45.666 -5.5 -66.999 -16.5s-39.833 -29.833 -55.5 -56.5s-28.167 -61.5 -37.5 -104.5
s-14 -96.5 -14 -160.5z" />
    <glyph glyph-name="h" unicode="h" horiz-adv-x="1177" 
d="M143 0l-0.000976562 1352l82 82h205v-482c16.667 16.667 36.334 31.667 59.001 45c19.333 10.667 43 21.167 71 31.5s59.667 15.5 95 15.5c124 0 219.833 -33.667 287.5 -101s101.5 -163.333 101.5 -288v-655h-286v655c0 66.667 -14 115.834 -42 147.501
s-65.333 47.5 -112 47.5c-28.667 0 -53.5 -6.5 -74.5 -19.5s-39.167 -27.167 -54.5 -42.5c-16.667 -18 -31.667 -38.333 -45 -61v-727h-287z" />
    <glyph glyph-name="i" unicode="i" horiz-adv-x="573" 
d="M133 1311c0 40.667 15.5 76.334 46.5 107.001s66.833 46 107.5 46s76.334 -15.333 107.001 -46s46 -66.334 46 -107.001s-15.333 -76.5 -46 -107.5s-66.334 -46.5 -107.001 -46.5s-76.5 15.333 -107.5 46s-46.5 66.667 -46.5 108zM143 0v1024h287v-1024h-287z" />
    <glyph glyph-name="j" unicode="j" horiz-adv-x="614" 
d="M-154 -348l71.998 174.001h21c9.33301 -10.667 20 -19.667 32 -27c10.667 -6.66699 22.834 -12.334 36.501 -17.001s28.167 -7 43.5 -7c40.667 0 73 13 97 39s36 67.667 36 125v1085h287v-1085c0 -102.667 -34.5 -186.5 -103.5 -251.5s-167.5 -97.5 -295.5 -97.5
c-31.333 0 -60.666 3.16699 -87.999 9.5s-51.333 13.5 -72 21.5c-24.667 8 -46.667 18.333 -66 31zM173.998 1311c0 40.667 15.5 76.334 46.5 107.001s66.833 46 107.5 46s76.334 -15.333 107.001 -46s46 -66.334 46 -107.001s-15.333 -76.5 -46 -107.5
s-66.334 -46.5 -107.001 -46.5s-76.5 15.333 -107.5 46s-46.5 66.667 -46.5 108z" />
    <glyph glyph-name="k" unicode="k" horiz-adv-x="1044" 
d="M143 0v1352l82 82h205v-850l266 440h318l-328 -492l348 -532h-317l-287 481v-481h-287z" />
    <glyph glyph-name="l" unicode="l" horiz-adv-x="573" 
d="M143 0v1352l82 82h205v-1434h-287z" />
    <glyph glyph-name="m" unicode="m" horiz-adv-x="1710" 
d="M143 0l-0.00292969 1024h205l21 -123h10c19.333 26 41 50 65 72c22 18 49 34.333 81 49s68.667 22 110 22c52 0 94.667 -7.5 128 -22.5s60.333 -31.167 81 -48.5c24.667 -22 43.667 -46 57 -72c22 26 48.667 50 80 72c27.333 18 59.833 34.333 97.5 49
s80.834 22 129.501 22c113.333 0 203.166 -33.667 269.499 -101s99.5 -163.333 99.5 -288v-655h-287v655c0 66.667 -13.333 115.834 -40 147.501s-57.667 47.5 -93 47.5c-23.333 0 -44.166 -5.5 -62.499 -16.5s-34.166 -22.5 -47.499 -34.5
c-15.333 -15.333 -29.666 -32.333 -42.999 -51v-748h-287v655c0 66.667 -13.333 115.834 -40 147.501s-57.667 47.5 -93 47.5c-26 0 -48.667 -6.5 -68 -19.5s-35 -27.167 -47 -42.5c-15.333 -18 -28.333 -38.333 -39 -61v-727h-287z" />
    <glyph glyph-name="n" unicode="n" horiz-adv-x="1177" 
d="M143 0l0.000976562 1024h205l21 -123h10c19.333 26 42.666 50 69.999 72c23.333 18 52 34.333 86 49s74 22 120 22c124 0 219.833 -33.667 287.5 -101s101.5 -163.333 101.5 -288v-655h-286v655c0 66.667 -14 115.834 -42 147.501s-65.333 47.5 -112 47.5
c-28.667 0 -53.5 -6.5 -74.5 -19.5s-39.167 -27.167 -54.5 -42.5c-16.667 -18 -31.667 -38.333 -45 -61v-727h-287z" />
    <glyph glyph-name="o" unicode="o" horiz-adv-x="1105" 
d="M82 512c0 180 41.333 313.667 124 401s198.334 131 347.001 131s264.334 -43.667 347.001 -131s124 -221 124 -401s-41.333 -313.667 -124 -401s-198.334 -131 -347.001 -131s-264.334 43.667 -347.001 131s-124 221 -124 401zM369 512
c0 -66.667 4.66699 -122.167 14 -166.5s22.166 -79.833 38.499 -106.5s35.833 -45.834 58.5 -57.501s47 -17.5 73 -17.5s50.167 5.83301 72.5 17.5s41.833 30.834 58.5 57.501s29.667 62.167 39 106.5s14 99.833 14 166.5s-4.66699 122.167 -14 166.5
s-22.333 79.833 -39 106.5s-36.167 45.834 -58.5 57.501s-46.5 17.5 -72.5 17.5s-50.333 -5.83301 -73 -17.5s-42.167 -30.834 -58.5 -57.501s-29.166 -62.167 -38.499 -106.5s-14 -99.833 -14 -166.5z" />
    <glyph glyph-name="p" unicode="p" 
d="M143 -410l-0.000976562 1434h205l21 -123h10c19.333 26 42.666 50 69.999 72c23.333 18 52 34.333 86 49s74 22 120 22c58.667 0 113 -10.833 163 -32.5s93.5 -54.667 130.5 -99s65.667 -99.666 86 -165.999s30.5 -144.5 30.5 -234.5s-10.167 -168.167 -30.5 -234.5
s-49.666 -121.666 -87.999 -165.999s-83.833 -77.333 -136.5 -99s-111 -32.5 -175 -32.5c-31.333 0 -59.666 3 -84.999 9s-47 13 -65 21c-22 8 -40.333 18.333 -55 31v-369l-82 -82h-205zM429.999 224.998c13.333 -12 27.667 -22.001 43 -30.001
c13.333 -8 29.333 -15.167 48 -21.5s39.667 -9.5 63 -9.5c28.667 0 54.5 5.83301 77.5 17.5s43.5 30.834 61.5 57.501s31.667 62.167 41 106.5s14 99.833 14 166.5c0 64 -4.66699 117.5 -14 160.5s-22 77.833 -38 104.5s-34.5 45.5 -55.5 56.5s-43.167 16.5 -66.5 16.5
c-28.667 0 -53.5 -6.5 -74.5 -19.5s-39.167 -27.167 -54.5 -42.5c-16.667 -18 -31.667 -38.333 -45 -61v-502z" />
    <glyph glyph-name="q" unicode="q" 
d="M82 512c0 90 10.166 168.169 30.499 234.502s49 121.666 86 165.999s80.333 77.333 130 99s104.167 32.5 163.5 32.5c46.667 0 87 -7.5 121 -22.5s62.333 -31.167 85 -48.5c26 -22 49.333 -46 70 -72h10l21 123h205v-1434h-205l-82 82v369
c-18 -12 -37.333 -22.333 -58 -31c-19.333 -8 -40.833 -15 -64.5 -21s-51.167 -9 -82.5 -9c-64 0 -122.333 10.833 -175 32.5s-98.167 54.667 -136.5 99s-67.666 99.666 -87.999 165.999s-30.5 144.5 -30.5 234.5zM368.999 512.002
c0 -66.667 4.66797 -122.165 14.001 -166.498s23 -79.833 41 -106.5s38.5 -45.834 61.5 -57.501s48.833 -17.5 77.5 -17.5c23.333 0 44.166 3 62.499 9s34.5 13.333 48.5 22c15.333 8 29.666 18 42.999 30v502c-13.333 23.333 -28.333 43.666 -45 60.999
c-15.333 15.333 -33.833 29.5 -55.5 42.5s-46.167 19.5 -73.5 19.5c-23.333 0 -45.666 -5.5 -66.999 -16.5s-39.833 -29.833 -55.5 -56.5s-28.167 -61.5 -37.5 -104.5s-14 -96.5 -14 -160.5z" />
    <glyph glyph-name="r" unicode="r" horiz-adv-x="808" 
d="M143 0l0.000976562 1024h205l21 -123h10c19.333 26 42.666 50 69.999 72c23.333 18 52 34.333 86 49s74 22 120 22c18 0 36.167 -1 54.5 -3s35.166 -4.33301 50.499 -7c16.667 -4 33 -7.33301 49 -10l-41 -205h-20c-15.333 2.66699 -30.666 6 -45.999 10
c-13.333 2.66699 -28.5 5.16699 -45.5 7.5s-34.5 3.5 -52.5 3.5c-28.667 0 -53.5 -6.5 -74.5 -19.5s-39.167 -27.167 -54.5 -42.5c-16.667 -18 -31.667 -38.333 -45 -61v-717h-287z" />
    <glyph glyph-name="s" unicode="s" horiz-adv-x="993" 
d="M61 82l92.999 164.003h20c22 -15.333 46.667 -29 74 -41c23.333 -10.667 52 -20.167 86 -28.5s73 -12.5 117 -12.5c72.667 0 123.167 11.167 151.5 33.5s42.5 49.5 42.5 81.5c0 28.667 -14 51.834 -42 69.501s-62.833 34 -104.5 49s-86.667 30 -135 45
s-93.333 34.833 -135 59.5s-76.5 55.334 -104.5 92.001s-42 84.334 -42 143.001c0 44 8.5 84.667 25.5 122s43 69.666 78 96.999s79.667 48.833 134 64.5s118.5 23.5 192.5 23.5c57.333 0 109.166 -5.33301 155.499 -16s87.5 -22.334 123.5 -35.001
c40.667 -15.333 77.334 -32.333 110.001 -51l-92 -164h-21c-20.667 15.333 -43.667 29 -69 41c-23.333 10.667 -50.666 20.167 -81.999 28.5s-66.333 12.5 -105 12.5c-57.333 0 -98.833 -10.5 -124.5 -31.5s-38.5 -44.5 -38.5 -70.5c0 -28.667 14 -51.834 42 -69.501
s62.833 -34.167 104.5 -49.5s86.667 -30.5 135 -45.5s93.333 -34.667 135 -59s76.5 -55.333 104.5 -93s42 -85.167 42 -142.5c0 -46.667 -8.5 -89.334 -25.5 -128.001s-44 -72.334 -81 -101.001s-83.833 -50.834 -140.5 -66.501s-124.667 -23.5 -204 -23.5
c-61.333 0 -118 5 -170 15s-96.333 22 -133 36c-44 15.333 -83 32.333 -117 51z" />
    <glyph glyph-name="t" unicode="t" horiz-adv-x="849" 
d="M31 840l0.00195312 122.999l307 307h113v-246h235v-184h-235v-512c0 -57.333 10.833 -99 32.5 -125s48.167 -39 79.5 -39c23.333 0 45.166 4 65.499 12s38.833 17.667 55.5 29c19.333 12 37 25.667 53 41h21l92 -164c-28.667 -19.333 -59.334 -36.333 -92.001 -51
c-28.667 -13.333 -61.5 -25.166 -98.5 -35.499s-75.833 -15.5 -116.5 -15.5c-58.667 0 -111.667 8.5 -159 25.5s-87.333 40.833 -120 71.5s-57.5 67.167 -74.5 109.5s-25.5 89.5 -25.5 141.5v512h-133z" />
    <glyph glyph-name="u" unicode="u" horiz-adv-x="1187" 
d="M143 369v655.001h287v-655c0 -66.667 14 -115.834 42 -147.501s65.333 -47.5 112 -47.5c27.333 0 51.833 6.5 73.5 19.5s40.167 27.167 55.5 42.5c16.667 18 31.667 38.333 45 61v727h286v-1024h-204l-21 123h-10c-20.667 -27.333 -44 -51.333 -70 -72
c-23.333 -19.333 -52 -36 -86 -50s-74.333 -21 -121 -21c-124 0 -219.833 33.667 -287.5 101s-101.5 163.333 -101.5 288z" />
    <glyph glyph-name="v" unicode="v" horiz-adv-x="1024" 
d="M20 1024h287l185 -635c2.66699 -10.667 5 -22.5 7 -35.5s3.66699 -25.167 5 -36.5l4 -41h8l4 41c1.33301 10.667 3 22.667 5 36s4.33301 25.333 7 36l185 635h287l-338 -1024h-308z" />
    <glyph glyph-name="w" unicode="w" horiz-adv-x="1536" 
d="M20 1024h287.001l144 -563c2.66699 -10.667 5 -22.5 7 -35.5s3.66699 -25.167 5 -36.5l4 -41h8l4 41c1.33301 10.667 3 22.5 5 35.5s4.66699 25.167 8 36.5l133 563h286l133 -563c2.66699 -10.667 5.16699 -22.5 7.5 -35.5s4.16602 -25.167 5.49902 -36.5l4 -41h8l4 41
c1.33301 10.667 3 22.5 5 35.5s4.33301 25.167 7 36.5l144 563h287l-277 -1024h-287l-164 604c-2.66699 10.667 -5 22.5 -7 35.5s-3.66699 25.167 -5 36.5l-4 41h-8l-4 -41c-1.33301 -10.667 -3 -22.5 -5 -35.5s-4.33301 -25.167 -7 -36.5l-164 -604h-287z" />
    <glyph glyph-name="x" unicode="x" horiz-adv-x="1003" 
d="M20 0l308.001 522l-297 502h297l143 -266c5.33301 -10.667 9.66602 -21.167 12.999 -31.5s6.66602 -19.166 9.99902 -26.499c2.66699 -9.33301 4 -17.333 4 -24h8c0 6.66699 1.33301 14.667 4 24c2.66699 6.66699 5.33398 15.167 8.00098 25.5
s7.33398 21.166 14.001 32.499l144 266h297l-297 -502l307 -522h-297l-154 276c-6.66699 10.667 -11.334 20.5 -14.001 29.5l-8 26.5c-2.66699 8 -4 16.667 -4 26h-8c0 -9.33301 -1.33301 -18 -4 -26c-4 -13.333 -11.667 -32 -23 -56l-154 -276h-297z" />
    <glyph glyph-name="y" unicode="y" horiz-adv-x="1034" 
d="M20 1024l286.998 0.000976562l205 -666c2.66699 -10.667 5 -22.5 7 -35.5s3.66699 -24.833 5 -35.5l4 -41h9l4 41c1.33301 10.667 3 22.5 5 35.5s4.33301 24.833 7 35.5l174 666h287l-338 -1126c-31.333 -102.667 -77.833 -183 -139.5 -241s-141.5 -87 -239.5 -87
c-31.333 0 -60.666 3 -87.999 9s-51.333 13.333 -72 22c-24.667 8 -46.334 18 -65.001 30l71 174h21c9.33301 -10.667 20.333 -19.334 33 -26.001c10.667 -6.66699 22.834 -12.5 36.501 -17.5s27.834 -7.5 42.501 -7.5c64 0 109.333 48 136 144l28 102h-82z" />
    <glyph glyph-name="z" unicode="z" horiz-adv-x="962" 
d="M72 0v195l481 645h-481v184h809v-195l-482 -645h492v-184h-819z" />
    <glyph glyph-name="braceleft" unicode="{" horiz-adv-x="686" 
d="M41 481l-0.00195312 184.999c57.333 0 97.333 12.167 120 36.5s34 70.166 34 137.499v348c0 46.667 7.83301 88.667 23.5 126s39.834 69.333 72.501 96s73.834 47.5 123.501 62.5s109.5 22.5 179.5 22.5h72v-184h-72c-31.333 0 -58 -11.667 -80 -35
s-33 -52.666 -33 -87.999v-348c0 -61.333 -9.5 -109.833 -28.5 -145.5s-40.167 -62.5 -63.5 -80.5c-27.333 -22 -58 -35.667 -92 -41c34 -6.66699 64.667 -20.334 92 -41.001c23.333 -19.333 44.5 -46.333 63.5 -81s28.5 -82.667 28.5 -144v-348
c0 -35.333 11 -64.666 33 -87.999s48.667 -35 80 -35h72v-184h-72c-138 0 -239 28 -303 84s-96 130.333 -96 223v348c0 66.667 -11.333 112.334 -34 137.001s-62.667 37 -120 37z" />
    <glyph glyph-name="bar" unicode="|" horiz-adv-x="634" 
d="M174 -410v1844h287v-1844h-287z" />
    <glyph glyph-name="braceright" unicode="}" horiz-adv-x="686" 
d="M20 -164l72 0.00195312c31.333 0 58 11.667 80 35s33 52.666 33 87.999v348c0 61.333 9.5 109.5 28.5 144.5s40.167 61.833 63.5 80.5c26 20.667 56.667 34.334 92 41.001c-35.333 5.33301 -66 19 -92 41c-23.333 18 -44.5 44.833 -63.5 80.5s-28.5 84.167 -28.5 145.5
v348c0 35.333 -11 64.666 -33 87.999s-48.667 35 -80 35h-72v184h72c69.333 0 129 -7.5 179 -22.5s91.333 -35.833 124 -62.5s57 -58.834 73 -96.501s24 -79.5 24 -125.5v-348c0 -66.667 11.167 -112.334 33.5 -137.001s62.166 -37 119.499 -37v-185
c-57.333 0 -97.166 -12.167 -119.499 -36.5s-33.5 -70.166 -33.5 -137.499v-348c0 -92.667 -32.167 -167 -96.5 -223s-165.5 -84 -303.5 -84h-72v184z" />
    <glyph glyph-name="asciitilde" unicode="~" horiz-adv-x="1019" 
d="M41 614c9.33301 28.667 23.333 56.999 42 84.999s40.167 53.333 64.5 76s50.5 40.834 78.5 54.501s57.667 20.5 89 20.5c46.667 0 85.667 -7.5 117 -22.5s59.333 -31.333 84 -49l71 -49c22.667 -15 48.334 -22.5 77.001 -22.5c20.667 0 39.834 6.33301 57.501 19
s32.5 26.667 44.5 42s21.333 29.333 28 42l11 19h18l156 -133c-10.667 -28.667 -25 -57 -43 -85s-39.167 -53.167 -63.5 -75.5s-50.833 -40.333 -79.5 -54s-58 -20.5 -88 -20.5c-46.667 0 -85.667 7.5 -117 22.5s-59.333 31.333 -84 49l-71 49
c-22.667 15 -48.334 22.5 -77.001 22.5c-20.667 0 -39.834 -6.5 -57.501 -19.5s-32.5 -27 -44.5 -42s-21.333 -29.167 -28 -42.5l-11 -19h-18z" />
    <glyph glyph-name="uni00A0" unicode="&#xa0;" horiz-adv-x="614" 
 />
    <glyph glyph-name="cent" unicode="&#xa2;" horiz-adv-x="972" 
d="M82 512c0 148.667 29.333 264.668 88 348.001s142 138 250 164v123h266v-113c32.667 -8 63 -17.167 91 -27.5s51.667 -20.166 71 -29.499c23.333 -10.667 44.333 -22.334 63 -35.001l-92 -164h-20c-16.667 15.333 -36 29 -58 41
c-19.333 10.667 -42.166 20.167 -68.499 28.5s-55.833 12.5 -88.5 12.5s-62.334 -5.83301 -89.001 -17.5s-49.334 -30.834 -68.001 -57.501s-33 -62.167 -43 -106.5s-15 -99.833 -15 -166.5s5 -122.167 15 -166.5s25 -79.833 45 -106.5s44.667 -45.834 74 -57.501
s63 -17.5 101 -17.5c32.667 0 62.334 4 89.001 12s49.667 17.667 69 29c22 12 41 25.667 57 41h21l92 -164c-22 -13.333 -45.333 -26.333 -70 -39c-22 -10.667 -48 -21.167 -78 -31.5s-62.667 -18.166 -98 -23.499v-131h-266v143c-113.333 26 -198 80.667 -254 164
s-84 199.333 -84 348z" />
    <glyph glyph-name="sterling" unicode="&#xa3;" horiz-adv-x="1034" 
d="M72 0v184.004c27.333 18 52.333 41.333 75 70c19.333 24.667 37.166 56.167 53.499 94.5s24.5 86.166 24.5 143.499v163h-112v185h112v266c0 49.333 9.33301 95.166 28 137.499s45.334 79.166 80.001 110.499s76.667 55.833 126 73.5s104.666 26.5 165.999 26.5
c53.333 0 102.166 -5.83301 146.499 -17.5s82.166 -24.834 113.499 -39.501c36.667 -16.667 69.334 -35.334 98.001 -56.001l-92 -163h-21c-19.333 16.667 -40.333 31.667 -63 45c-19.333 10.667 -43 21.167 -71 31.5s-58.333 15.5 -91 15.5c-40.667 0 -73 -14.333 -97 -43
s-36 -69 -36 -121v-266h256v-185h-256v-163c0 -57.333 -8.16699 -105.166 -24.5 -143.499s-34.166 -69.833 -53.499 -94.5c-23.333 -28.667 -48.666 -52 -75.999 -70h656v-184h-942z" />
    <glyph glyph-name="yen" unicode="&#xa5;" horiz-adv-x="1167" 
d="M0 1434l296.999 0.000976562l256 -605c4 -10.667 7.66699 -21.167 11 -31.5s6.33301 -20.166 9 -29.499c2.66699 -10.667 5 -21 7 -31h8c1.33301 9.33301 3.33301 19.666 6 30.999c2.66699 9.33301 5.33398 19.166 8.00098 29.499s6.66699 20.833 12 31.5l256 605h297
l-297 -646h144v-174h-215l-41 -92h256v-174h-287v-348h-287v348h-286v174h256l-41 92h-215v174h143z" />
    <glyph glyph-name="dieresis" unicode="&#xa8;" horiz-adv-x="727" 
d="M20 1311c0 38 14.5 71.332 43.5 99.999s62.5 43 100.5 43s71.333 -14.333 100 -43s43 -62 43 -100s-14.333 -71.5 -43 -100.5s-62 -43.5 -100 -43.5s-71.5 14.333 -100.5 43s-43.5 62.334 -43.5 101.001zM420 1311c0 38 14.334 71.332 43.001 99.999s62 43 100 43
s71.5 -14.333 100.5 -43s43.5 -62 43.5 -100s-14.333 -71.5 -43 -100.5s-62.334 -43.5 -101.001 -43.5c-38 0 -71.333 14.333 -100 43s-43 62.334 -43 101.001z" />
    <glyph glyph-name="copyright" unicode="&#xa9;" horiz-adv-x="1863" 
d="M82 717c0 110.667 21.167 214.5 63.5 311.5s101.333 181.667 177 254s165.5 129.333 269.5 171s217.333 62.5 340 62.5s235.834 -20.833 339.501 -62.5s193.5 -98.667 269.5 -171s135.167 -157 177.5 -254s63.5 -200.833 63.5 -311.5s-21.167 -214.5 -63.5 -311.5
s-101.5 -181.667 -177.5 -254s-165.833 -129.333 -269.5 -171s-216.834 -62.5 -339.501 -62.5s-236 20.833 -340 62.5s-193.833 98.667 -269.5 171s-134.667 157 -177 254s-63.5 200.833 -63.5 311.5zM328 717c0 -90 15 -172.667 45 -248s72 -139.833 126 -193.5
s117.833 -96 191.5 -127s154.167 -46.5 241.5 -46.5s167.833 15.5 241.5 46.5s137.5 73.333 191.5 127s96 118.167 126 193.5s45 158 45 248s-15 172.5 -45 247.5s-72 139.5 -126 193.5s-117.833 96.333 -191.5 127s-154.167 46 -241.5 46s-167.833 -15.333 -241.5 -46
s-137.5 -73 -191.5 -127s-96 -118.5 -126 -193.5s-45 -157.5 -45 -247.5zM543 717c0 70.667 10.1641 134.666 30.4971 191.999s49 105.833 86 145.5s80.333 70.167 130 91.5s103.834 32 162.501 32c44 0 85.167 -5.5 123.5 -16.5s71.166 -22.833 98.499 -35.5
c32.667 -15.333 61.334 -32.333 86.001 -51l-82 -133h-19l-55 35c-18 9.33301 -37.833 17.833 -59.5 25.5s-45.5 11.5 -71.5 11.5c-23.333 0 -46 -5.83301 -68 -17.5s-41.833 -29.834 -59.5 -54.501s-31.667 -55.667 -42 -93s-15.5 -81.333 -15.5 -132
c0 -102.667 19.833 -177.834 59.5 -225.501s88.167 -71.5 145.5 -71.5c26 0 50 3.33301 72 10s41.667 15 59 25c19.333 10.667 38 23 56 37h18l82 -134c-24.667 -19.333 -53.334 -36.333 -86.001 -51c-27.333 -13.333 -60.166 -25.166 -98.499 -35.499
s-79.166 -15.5 -122.499 -15.5c-64 0 -122.333 10.5 -175 31.5s-98.167 51.333 -136.5 91s-67.666 87.834 -87.999 144.501s-30.5 121.334 -30.5 194.001z" />
    <glyph glyph-name="guillemotleft" unicode="&#xab;" horiz-adv-x="1064" 
d="M20 512l461 522l166 -153l-319 -369l319 -369l-166 -153zM481 512l379 430l164 -154l-236 -276l236 -276l-164 -154z" />
    <glyph glyph-name="uni00AD" unicode="&#xad;" horiz-adv-x="921" 
d="M61 573v205h799v-205h-799z" />
    <glyph glyph-name="registered" unicode="&#xae;" horiz-adv-x="1863" 
d="M82 717c0 110.667 21.167 214.5 63.5 311.5s101.333 181.667 177 254s165.5 129.333 269.5 171s217.333 62.5 340 62.5s235.834 -20.833 339.501 -62.5s193.5 -98.667 269.5 -171s135.167 -157 177.5 -254s63.5 -200.833 63.5 -311.5s-21.167 -214.5 -63.5 -311.5
s-101.5 -181.667 -177.5 -254s-165.833 -129.333 -269.5 -171s-216.834 -62.5 -339.501 -62.5s-236 20.833 -340 62.5s-193.833 98.667 -269.5 171s-134.667 157 -177 254s-63.5 200.833 -63.5 311.5zM328 717c0 -90 15 -172.667 45 -248s72 -139.833 126 -193.5
s117.833 -96 191.5 -127s154.167 -46.5 241.5 -46.5s167.833 15.5 241.5 46.5s137.5 73.333 191.5 127s96 118.167 126 193.5s45 158 45 248s-15 172.5 -45 247.5s-72 139.5 -126 193.5s-117.833 96.333 -191.5 127s-154.167 46 -241.5 46s-167.833 -15.333 -241.5 -46
s-137.5 -73 -191.5 -127s-96 -118.5 -126 -193.5s-45 -157.5 -45 -247.5zM594 276v880.998h328c134 0 232.333 -27.667 295 -83s94 -126.666 94 -213.999c0 -72.667 -17.167 -129.667 -51.5 -171s-71.833 -69.666 -112.5 -84.999l194 -328h-266l-155 287h-80v-287h-246z
M840 726.998h81.999c52 0 89.5 12 112.5 36s34.5 56.333 34.5 97s-11.667 73 -35 97s-60.666 36 -111.999 36h-82v-266z" />
    <glyph glyph-name="acute" unicode="&#xb4;" horiz-adv-x="409" 
d="M20 1126l93 308h276l-205 -308h-164z" />
    <glyph glyph-name="cedilla" unicode="&#xb8;" horiz-adv-x="440" 
d="M20 -358l43.001 102.001h19c-1.33301 0 7.16699 -5.16699 25.5 -15.5s40.5 -15.5 66.5 -15.5c20.667 0 37.834 5.16699 51.501 15.5s20.5 25.833 20.5 46.5s-6.83301 36 -20.5 46s-30.834 15 -51.501 15h-102v205h153v-92c57.333 0 104.166 -17.5 140.499 -52.5
s54.5 -75.5 54.5 -121.5c0 -46.667 -19.5 -87.334 -58.5 -122.001s-94.5 -52 -166.5 -52c-26 0 -49.667 2 -71 6s-39.333 8.66699 -54 14c-18 5.33301 -34.667 12.333 -50 21z" />
    <glyph glyph-name="guillemotright" unicode="&#xbb;" horiz-adv-x="1064" 
d="M41 236l235 276l-235 276l164 154l379 -430l-379 -430zM418 143l319 369l-319 369l166 153l460 -522l-460 -522z" />
    <glyph glyph-name="circumflex" unicode="&#x2c6;" horiz-adv-x="696" 
d="M20 1147l226 274h205l225 -274h-195l-133 143l-133 -143h-195z" />
    <glyph glyph-name="ring" unicode="&#x2da;" horiz-adv-x="491" 
d="M20 1331c0 61.333 20.833 112.5 62.5 153.5s96.167 61.5 163.5 61.5c66.667 0 120.834 -20.5 162.501 -61.5s62.5 -92.167 62.5 -153.5s-20.833 -112.5 -62.5 -153.5s-95.834 -61.5 -162.501 -61.5s-121 20.5 -163 61.5s-63 92.167 -63 153.5zM174 1331
c0 -26 6.83301 -46.167 20.5 -60.5s30.834 -21.5 51.501 -21.5s37.667 7.16699 51 21.5s20 34.5 20 60.5s-6.83301 46.167 -20.5 60.5s-30.5 21.5 -50.5 21.5c-20.667 0 -37.834 -7.16699 -51.501 -21.5s-20.5 -34.5 -20.5 -60.5z" />
    <glyph glyph-name="tilde" unicode="&#x2dc;" horiz-adv-x="675" 
d="M20 1270c2.66699 26 9.5 51.1689 20.5 75.502s25.167 46.166 42.5 65.499s37.166 34.833 59.499 46.5s46.5 17.5 72.5 17.5c28.667 0 52.834 -4.83301 72.501 -14.5s38.167 -20.334 55.5 -32.001l48.5 -32c15 -9.66699 31.167 -14.5 48.5 -14.5
c12 0 23.167 4.16699 33.5 12.5s19.333 17.666 27 27.999s13.167 19.833 16.5 28.5l5 13h19l114 -61c-2.66699 -26 -9.5 -51.333 -20.5 -76s-25 -46.5 -42 -65.5s-36.667 -34.333 -59 -46s-46.5 -17.5 -72.5 -17.5c-28.667 0 -53 4.83301 -73 14.5
s-38.5 20.334 -55.5 32.001s-33 22.167 -48 31.5s-31.167 14 -48.5 14c-12 0 -23.667 -4.33301 -35 -13s-20.333 -18.167 -27 -28.5s-11.667 -19.833 -15 -28.5l-5 -12h-19z" />
    <glyph glyph-name="afii10023" unicode="&#x401;" horiz-adv-x="1085" 
d="M174 0v1434h860v-185h-573v-409h450v-185h-450v-471h573v-184h-860zM266 1710c0 38 14.5 71.333 43.5 100s62.5 43 100.5 43s71.333 -14.333 100 -43s43 -62 43 -100s-14.333 -71.333 -43 -100s-62 -43 -100 -43s-71.5 14.333 -100.5 43s-43.5 62 -43.5 100zM666 1710
c0 38 14.333 71.333 43 100s62 43 100 43s71.333 -14.333 100 -43s43 -62 43 -100s-14.333 -71.333 -43 -100s-62 -43 -100 -43s-71.333 14.333 -100 43s-43 62 -43 100z" />
    <glyph glyph-name="afii10051" unicode="&#x402;" horiz-adv-x="1372" 
d="M0 1249v185.001h901v-185h-348v-338c22 4 45.333 9 70 15c22 4 47.833 7.66699 77.5 11s62.5 5 98.5 5c154 0 271 -37.833 351 -113.5s120 -177.834 120 -306.501v-235c0 -52 -8.5 -99.167 -25.5 -141.5s-42 -78.833 -75 -109.5s-73 -54.5 -120 -71.5
s-99.833 -25.5 -158.5 -25.5c-26 0 -49.667 2 -71 6s-39.333 8.66699 -54 14c-18 5.33301 -34.333 12.333 -49 21l31 163h20c8 -4 17.667 -7.33301 29 -10c20.667 -6.66699 45 -10 73 -10c31.333 0 58 13 80 39s33 67.667 33 125v235c0 157.333 -78.333 236 -235 236
c-28.667 0 -54.667 -1.66699 -78 -5s-44 -7.33301 -62 -12l-55 -14v-727h-287v1249h-266z" />
    <glyph glyph-name="afii10052" unicode="&#x403;" horiz-adv-x="1054" 
d="M174 0v1434h860v-185h-573v-1249h-287zM502 1536l92 307h276l-204 -307h-164z" />
    <glyph glyph-name="afii10053" unicode="&#x404;" horiz-adv-x="1095" 
d="M102 717c0 131.333 13.001 243.331 39.001 335.998s63 168.667 111 228s106 103 174 131s144.333 42 229 42c58.667 0 111.667 -5.83301 159 -17.5s87.333 -24.834 120 -39.501c38 -16.667 71.333 -35.334 100 -56.001l-92 -163h-20
c-19.333 16.667 -41.333 31.667 -66 45c-22 10.667 -48 21.167 -78 31.5s-64 15.5 -102 15.5s-73.5 -7.16699 -106.5 -21.5s-62.167 -39 -87.5 -74s-45.833 -81.167 -61.5 -138.5s-26.167 -129.666 -31.5 -216.999h461v-184h-461
c5.33301 -92.667 16.166 -169.167 32.499 -229.5s37.5 -108.5 63.5 -144.5s56.833 -61.167 92.5 -75.5s75.167 -21.5 118.5 -21.5c38 0 72.167 4.83301 102.5 14.5s56.5 19.834 78.5 30.501c24.667 13.333 46.334 29 65.001 47h21l92 -164
c-28.667 -22 -62.334 -41 -101.001 -57c-32.667 -15.333 -72.5 -28.333 -119.5 -39s-99.833 -16 -158.5 -16c-90 0 -170.5 13.833 -241.5 41.5s-131.167 71.334 -180.5 131.001s-87 135.834 -113 228.501s-39 204.667 -39 336z" />
    <glyph glyph-name="afii10054" unicode="&#x405;" horiz-adv-x="1095" 
d="M72 92l91.9971 164.004h20c20.667 -18 45.334 -33.667 74.001 -47c24.667 -10.667 56.167 -20.834 94.5 -30.501s84.833 -14.5 139.5 -14.5c82 0 143.333 18.667 184 56s61 87 61 149c0 48 -16 87.667 -48 119s-72.5 59.833 -121.5 85.5s-101.5 51.5 -157.5 77.5
s-108.667 56.833 -158 92.5s-90 79 -122 130s-48 114.833 -48 191.5c0 53.333 10.5 103.833 31.5 151.5s52 89 93 124s91.5 62.667 151.5 83s128.333 30.5 205 30.5c69.333 0 130 -5.83301 182 -17.5s96 -24.834 132 -39.501c40.667 -16.667 76 -35.334 106 -56.001
l-92 -163h-21c-19.333 16.667 -42.333 31.667 -69 45c-23.333 10.667 -53.5 21.167 -90.5 31.5s-79.167 15.5 -126.5 15.5c-31.333 0 -60 -5.16699 -86 -15.5s-48.667 -24.333 -68 -42s-34.333 -37.5 -45 -59.5s-16 -44.667 -16 -68c0 -48 16 -87.5 48 -118.5
s72.5 -59.5 121.5 -85.5s101.5 -52 157.5 -78s108.667 -56.833 158 -92.5s90 -79 122 -130s48 -114.833 48 -191.5c0 -58.667 -11 -112.834 -33 -162.501s-54.5 -93 -97.5 -130s-96.167 -65.667 -159.5 -86s-137.333 -30.5 -222 -30.5
c-75.333 0 -140.166 5.33301 -194.499 16s-100.166 23.667 -137.499 39c-44 16.667 -80 35.667 -108 57z" />
    <glyph glyph-name="afii10055" unicode="&#x406;" horiz-adv-x="593" 
d="M154 0v1434h286v-1434h-286z" />
    <glyph glyph-name="afii10056" unicode="&#x407;" horiz-adv-x="614" 
d="M-51 1720c0 40.667 15.333 76.5 46 107.5s66.334 46.5 107.001 46.5s76.5 -15.333 107.5 -46s46.5 -66.667 46.5 -108c0 -40.667 -15.333 -76.334 -46 -107.001s-66.667 -46 -108 -46c-40.667 0 -76.334 15.333 -107.001 46s-46 66.334 -46 107.001zM174 0v1434h287
v-1434h-287zM358 1720c0 40.667 15.5 76.5 46.5 107.5s66.833 46.5 107.5 46.5s76.5 -15.333 107.5 -46s46.5 -66.667 46.5 -108c0 -40.667 -15.5 -76.334 -46.5 -107.001s-66.833 -46 -107.5 -46s-76.5 15.333 -107.5 46s-46.5 66.334 -46.5 107.001z" />
    <glyph glyph-name="afii10057" unicode="&#x408;" horiz-adv-x="921" 
d="M0 72l82.001 174.001h20c18 -15.333 37.333 -29 58 -41c18 -10.667 37.833 -20.167 59.5 -28.5s44.167 -12.5 67.5 -12.5c61.333 0 109 18 143 54s51 93 51 171v1045h287v-1045c0 -122.667 -39.667 -221.5 -119 -296.5s-193.333 -112.5 -342 -112.5
c-40.667 0 -79.834 4.66699 -117.501 14s-70.167 19.666 -97.5 30.999c-34 13.333 -64.667 29 -92 47z" />
    <glyph glyph-name="afii10058" unicode="&#x409;" horiz-adv-x="1863" 
d="M10 10l21 163.999h20c6.66699 -2.66699 13 -4.66699 19 -6c13.333 -2.66699 24 -4 32 -4c24.667 0 45.5 12 62.5 36s27.167 66.667 30.5 128l61 1106h870v-512h144c194 0 334.667 -39.667 422 -119s131 -193.333 131 -342s-43.667 -262.667 -131 -342
s-228 -119 -422 -119h-430v1249h-308l-51 -921c-6.66699 -113.333 -37.334 -199.666 -92.001 -258.999s-133 -89 -235 -89c-19.333 0 -37.166 1.33301 -53.499 4s-31.5 6 -45.5 10zM1126 183.999h144c92.667 0 160.167 21.5 202.5 64.5s63.5 113.833 63.5 212.5
c0 98 -21.167 168.5 -63.5 211.5s-109.833 64.5 -202.5 64.5h-144v-553z" />
    <glyph glyph-name="afii10059" unicode="&#x40a;" horiz-adv-x="1884" 
d="M174 0v1434h287v-553h399v553h287v-553h143c96.667 0 180 -10 250 -30s127.5 -49 172.5 -87s78 -84 99 -138s31.5 -116 31.5 -186c0 -69.333 -10.5 -131 -31.5 -185s-54 -100.167 -99 -138.5s-102.333 -67.333 -172 -87s-153.167 -29.5 -250.5 -29.5h-430v696h-399v-696
h-287zM1147 184h143c92.667 0 160.167 20.833 202.5 62.5s63.5 106.167 63.5 193.5s-21 151.833 -63 193.5s-109.667 62.5 -203 62.5h-143v-512z" />
    <glyph glyph-name="afii10060" unicode="&#x40b;" horiz-adv-x="1372" 
d="M0 1249v185.001h901v-185h-348v-338c22 4 45.333 9 70 15c22 4 47.833 7.66699 77.5 11s62.5 5 98.5 5c154 0 271 -37.833 351 -113.5s120 -177.834 120 -306.501v-522h-287v522c0 157.333 -78.333 236 -235 236c-28.667 0 -54.667 -1.66699 -78 -5s-44 -7.33301 -62 -12
l-55 -14v-727h-287v1249h-266z" />
    <glyph glyph-name="afii10061" unicode="&#x40c;" horiz-adv-x="1259" 
d="M174 0l0.00292969 1434h287v-605h61c52 0 89.667 11 113 33s40.333 59 51 111l62 276c12 57.333 39.5 105.833 82.5 145.5s100.833 59.5 173.5 59.5c26 0 49.5 -1.66699 70.5 -5s38.833 -7 53.5 -11l50 -15l-21 -163h-10c-2.66699 1.33301 -6.66699 2.66602 -12 3.99902
c-4 1.33301 -8.5 2.66602 -13.5 3.99902s-10.167 2 -15.5 2c-38 0 -62 -24 -72 -72l-51 -235c-10.667 -48 -26.667 -86 -48 -114s-43 -49.667 -65 -65c-24.667 -17.333 -52 -29.333 -82 -36c32.667 -6.66699 63.667 -19.667 93 -39c24.667 -16.667 48.5 -40 71.5 -70
s40.167 -69 51.5 -117l61 -286c9.33301 -48 34 -72 74 -72c6.66699 0 15.334 1.33301 26.001 4c4 1.33301 8.33301 3.33301 13 6h10l20 -164c-13.333 -5.33301 -28.333 -10.666 -45 -15.999c-15.333 -4 -33.833 -7.33301 -55.5 -10s-46.167 -4 -73.5 -4
c-72.667 0 -130.334 19.667 -173.001 59s-70.334 87.666 -83.001 144.999l-71 328c-10.667 46.667 -27.334 80.5 -50.001 101.5s-57.334 31.5 -104.001 31.5h-92v-645h-287zM522.003 1516l92 307h277l-205 -307h-164z" />
    <glyph glyph-name="afii10062" unicode="&#x40e;" horiz-adv-x="1177" 
d="M20 1434h296.996l267 -686c6.66699 -19.333 12.334 -37.833 17.001 -55.5s8.33398 -34.167 11.001 -49.5c4 -16.667 7 -33 9 -49h8c0 16.667 1.33301 33 4 49c2.66699 15.333 5.33398 31.833 8.00098 49.5s7.33398 36.167 14.001 55.5l205 686h297l-369 -1158
c-13.333 -44 -31.666 -84.667 -54.999 -122s-51.333 -69.666 -84 -96.999s-70.834 -48.833 -114.501 -64.5s-92.167 -23.5 -145.5 -23.5c-34 0 -65 3.16699 -93 9.5s-53 13.5 -75 21.5c-24.667 8 -47 18.333 -67 31l71 174h21c9.33301 -10.667 21 -19.667 35 -27
c10.667 -6.66699 23.167 -12.334 37.5 -17.001s31.166 -7 50.499 -7c35.333 0 65.333 11.5 90 34.5s42.334 52.167 53.001 87.5l31 103h-84zM265.996 1792h226.002c0 -52 9.16699 -88.833 27.5 -110.5s43.166 -32.5 74.499 -32.5s56.166 10.833 74.499 32.5
s27.5 58.5 27.5 110.5h226c0 -92.667 -26.333 -163.667 -79 -213s-135.667 -74 -249 -74s-196.333 24.667 -249 74s-79 120.333 -79 213z" />
    <glyph glyph-name="afii10145" unicode="&#x40f;" horiz-adv-x="1351" 
d="M174 0v1434h287v-1250h430v1250h287v-1434h-369l-31 -307h-205l-30 307h-369z" />
    <glyph glyph-name="afii10017" unicode="&#x410;" horiz-adv-x="1228" 
d="M31 0l420 1434h327l420 -1434h-287l-92 328h-409l-93 -328h-286zM461 512l307.002 -0.00195312l-123 430c-5.33301 16.667 -9.33301 33.834 -12 51.501s-5.33398 33.834 -8.00098 48.501c-2.66699 18 -5 36 -7 54h-8l-8 -54c-2.66699 -15.333 -5.33398 -32 -8.00098 -50
s-6 -34.667 -10 -50z" />
    <glyph glyph-name="afii10018" unicode="&#x411;" horiz-adv-x="1228" 
d="M174 0v1434h860v-185h-573v-368h133c96.667 0 179.834 -11 249.501 -33s127 -52.5 172 -91.5s78.167 -85.333 99.5 -139s32 -112.834 32 -177.501c0 -69.333 -10.667 -131 -32 -185s-54.5 -100.167 -99.5 -138.5s-102.333 -67.333 -172 -87
s-152.834 -29.5 -249.501 -29.5h-420zM461 184.001h133c92.667 0 160.167 20.833 202.5 62.5s63.5 106.167 63.5 193.5s-21.167 151.833 -63.5 193.5s-109.833 62.5 -202.5 62.5h-133v-512z" />
    <glyph glyph-name="afii10019" unicode="&#x412;" horiz-adv-x="1249" 
d="M174 0l0.000976562 1434h430c84.667 0 157.667 -9.33301 219 -28s112.166 -44.334 152.499 -77.001s70.5 -71.5 90.5 -116.5s30 -94.167 30 -147.5c0 -66.667 -13.667 -120.167 -41 -160.5s-56.666 -71.5 -87.999 -93.5c-36.667 -24.667 -79 -42.334 -127 -53.001
c57.333 -10.667 108.333 -30.667 153 -60c38 -24.667 73.167 -60.834 105.5 -108.501s48.5 -111.167 48.5 -190.5c0 -61.333 -10 -116.5 -30 -165.5s-51.833 -91 -95.5 -126s-99.834 -61.667 -168.501 -80s-151.667 -27.5 -249 -27.5h-430zM461.001 184.003l143 0.000976562
c170.667 0 256 78.667 256 236s-85.333 235.666 -256 234.999h-143v-471zM461.001 840.004l143 0.000976562c61.333 0 110.833 18.667 148.5 56s56.5 86.666 56.5 147.999s-18.833 110.833 -56.5 148.5s-87.167 56.5 -148.5 56.5h-143v-409z" />
    <glyph glyph-name="afii10020" unicode="&#x413;" horiz-adv-x="1054" 
d="M174 0v1434h860v-185h-573v-1249h-287z" />
    <glyph glyph-name="afii10021" unicode="&#x414;" horiz-adv-x="1341" 
d="M10 184l103.001 0.000976562c19.333 18 36.333 41.333 51 70c13.333 24.667 26.166 56.167 38.499 94.5s19.833 86.166 22.5 143.499l51 942h850v-1250h134v-491h-216l-40 307h-728l-40 -307h-226v491zM389.001 184.001l451 -0.000976562v1065h-297l-41 -757
c-2.66699 -57.333 -10.167 -105.166 -22.5 -143.499s-25.5 -69.833 -39.5 -94.5c-15.333 -28.667 -32.333 -52 -51 -70z" />
    <glyph glyph-name="afii10022" unicode="&#x415;" horiz-adv-x="1085" 
d="M174 0v1434h860v-185h-573v-409h450v-185h-450v-471h573v-184h-860z" />
    <glyph glyph-name="afii10024" unicode="&#x416;" horiz-adv-x="1843" 
d="M51 10l21.0088 164h10c2.66699 -2.66699 6.66699 -4.66699 12 -6c8 -2.66699 17 -4 27 -4c39.333 0 64 24 74 72l61 286c10.667 48 28.667 87 54 117s51.666 53.333 78.999 70c31.333 19.333 65.666 32.333 102.999 39c-32.667 6.66699 -63.667 18.667 -93 36
c-24.667 15.333 -48.5 37 -71.5 65s-40.167 66 -51.5 114l-51 235c-9.33301 48 -33 72 -71 72c-5.33301 0 -10.5 -0.666992 -15.5 -2s-9.5 -2.66602 -13.5 -3.99902c-5.33301 -1.33301 -9.33301 -2.66602 -12 -3.99902h-11l-20 163c15.333 4 31.666 9 48.999 15
c15.333 4 33.5 7.66699 54.5 11s44.5 5 70.5 5c72.667 0 130.5 -19.833 173.5 -59.5s70.5 -88.167 82.5 -145.5l61 -276c10.667 -52 27.667 -89 51 -111s61 -33 113 -33h41v605h287v-605h41c52 0 89.5 11 112.5 33s40.167 59 51.5 111l61 276
c12 57.333 39.667 105.833 83 145.5s101 59.5 173 59.5c26 0 49.667 -1.66699 71 -5s39.333 -7 54 -11l49 -15l-20 -163h-10c-2.66699 1.33301 -7 2.66602 -13 3.99902c-4 1.33301 -8.33301 2.66602 -13 3.99902s-9.66699 2 -15 2c-38 0 -62 -24 -72 -72l-51 -235
c-10.667 -48 -27.667 -86 -51 -114s-47.333 -49.667 -72 -65c-28.667 -18 -59.334 -30 -92.001 -36c36.667 -6.66699 70.667 -19.667 102 -39c27.333 -16.667 53.666 -40 78.999 -70s43.333 -69 54 -117l62 -286c9.33301 -48 33.666 -72 72.999 -72
c6.66699 0 15.667 1.33301 27 4c4 1.33301 8 3.33301 12 6h11l20 -164c-13.333 -5.33301 -28.333 -10.666 -45 -15.999c-15.333 -4 -33.833 -7.33301 -55.5 -10s-46.167 -4 -73.5 -4c-72.667 0 -130.5 19.667 -173.5 59s-70.5 87.666 -82.5 144.999l-72 328
c-10.667 46.667 -27.334 80.5 -50.001 101.5s-57 31.5 -103 31.5h-72v-645h-287v645h-71c-46.667 0 -81.334 -10.5 -104.001 -31.5s-39.334 -54.833 -50.001 -101.5l-72 -328c-12 -57.333 -39.5 -105.666 -82.5 -144.999s-100.833 -59 -173.5 -59
c-28.667 0 -53.5 1.33301 -74.5 4s-39.167 6 -54.5 10c-16.667 5.33301 -31.667 10.666 -45 15.999z" />
    <glyph glyph-name="afii10025" unicode="&#x417;" horiz-adv-x="1095" 
d="M31 92l92.001 164h20c19.333 -18 42.666 -33.667 69.999 -47c23.333 -10.667 53 -20.834 89 -30.501s78.667 -14.5 128 -14.5c102.667 0 176.167 20.5 220.5 61.5s66.5 102.5 66.5 184.5s-21.167 143.333 -63.5 184s-109.833 61 -202.5 61h-195v185h195
c78 0 136.667 19 176 57s59 90.667 59 158c0 66.667 -19.167 119.167 -57.5 157.5s-101.166 57.5 -188.499 57.5c-44 0 -82.333 -5.16699 -115 -15.5s-60.334 -20.833 -83.001 -31.5c-26 -13.333 -48.667 -28.333 -68 -45h-20l-93 163c30 20.667 65 39.334 105 56.001
c34 15.333 75.333 28.666 124 39.999s105.667 17 171 17c87.333 0 163 -9.5 227 -28.5s117.167 -45.667 159.5 -80s73.833 -74.666 94.5 -120.999s31 -96.166 31 -149.499c0 -69.333 -14.333 -124.5 -43 -165.5s-60.667 -73.167 -96 -96.5
c-40.667 -26 -86.667 -44.333 -138 -55c57.333 -10.667 108.666 -31.334 153.999 -62.001c38 -26 73.167 -63.167 105.5 -111.5s48.5 -113.5 48.5 -195.5c0 -61.333 -10.667 -117.333 -32 -168s-54.5 -93.667 -99.5 -129s-102.333 -62.833 -172 -82.5
s-152.834 -29.5 -249.501 -29.5c-69.333 0 -130.166 5.33301 -182.499 16s-96.166 23.667 -131.499 39c-40.667 16.667 -76 35.667 -106 57z" />
    <glyph glyph-name="afii10026" unicode="&#x418;" horiz-adv-x="1351" 
d="M174 0l-0.000976562 1434h287v-809c0 -15.333 -0.666992 -30.833 -2 -46.5s-2.66602 -30.167 -3.99902 -43.5l-4 -46h8c4 15.333 8.66699 30.666 14 45.999l17.5 43.5c6.33301 15.667 13.5 31.167 21.5 46.5l389 809h277v-1434h-287v809c0 15.333 0.333008 30.833 1 46.5
s1.66699 30.167 3 43.5c1.33301 15.333 3.33301 30.333 6 45h-8c-4 -15.333 -8.66699 -30.333 -14 -45c-5.33301 -13.333 -11.5 -28 -18.5 -44l-20.5 -46l-389 -809h-277z" />
    <glyph glyph-name="afii10027" unicode="&#x419;" horiz-adv-x="1351" 
d="M174 0l-0.000976562 1434h287v-809c0 -15.333 -0.666992 -30.833 -2 -46.5s-2.66602 -30.167 -3.99902 -43.5l-4 -46h8c4 15.333 8.66699 30.666 14 45.999l17.5 43.5c6.33301 15.667 13.5 31.167 21.5 46.5l389 809h277v-1434h-287v809c0 15.333 0.333008 30.833 1 46.5
s1.66699 30.167 3 43.5c1.33301 15.333 3.33301 30.333 6 45h-8c-4 -15.333 -8.66699 -30.333 -14 -45c-5.33301 -13.333 -11.5 -28 -18.5 -44l-20.5 -46l-389 -809h-277zM347.999 1823h225.001c0 -52 9.33301 -89 28 -111s43.667 -33 75 -33s56.166 11 74.499 33
s27.5 59 27.5 111h226c0 -92.667 -26.333 -163.667 -79 -213s-135.667 -74 -249 -74s-196.333 24.5 -249 73.5s-79 120.167 -79 213.5z" />
    <glyph glyph-name="afii10028" unicode="&#x41a;" horiz-adv-x="1259" 
d="M174 0l0.00585938 1434h287v-605h61c52 0 89.667 11 113 33s40.333 59 51 111l62 276c12 57.333 39.5 105.833 82.5 145.5s100.833 59.5 173.5 59.5c26 0 49.5 -1.66699 70.5 -5s38.833 -7 53.5 -11l50 -15l-21 -163h-10c-2.66699 1.33301 -6.66699 2.66602 -12 3.99902
c-4 1.33301 -8.5 2.66602 -13.5 3.99902s-10.167 2 -15.5 2c-38 0 -62 -24 -72 -72l-51 -235c-10.667 -48 -27.667 -86 -51 -114s-47.333 -49.667 -72 -65c-28.667 -17.333 -59.334 -29.333 -92.001 -36c36.667 -6.66699 70.667 -19.667 102 -39
c27.333 -16.667 53.666 -40 78.999 -70s43.666 -69 54.999 -117l61 -286c9.33301 -48 34 -72 74 -72c6.66699 0 15.334 1.33301 26.001 4c4 1.33301 8.33301 3.33301 13 6h10l20 -164c-13.333 -5.33301 -28.333 -10.666 -45 -15.999c-15.333 -4 -33.833 -7.33301 -55.5 -10
s-46.167 -4 -73.5 -4c-72.667 0 -130.334 19.667 -173.001 59s-70.334 87.666 -83.001 144.999l-71 328c-10.667 46.667 -27.334 80.5 -50.001 101.5s-57.334 31.5 -104.001 31.5h-92v-645h-287z" />
    <glyph glyph-name="afii10029" unicode="&#x41b;" horiz-adv-x="1300" 
d="M10 10l21.001 163.999h20c6.66699 -2.66699 13 -4.66699 19 -6c13.333 -2.66699 24 -4 32 -4c26 0 47.167 12 63.5 36s26.166 66.667 29.499 128l61 1106h870v-1434h-286v1249h-308l-51 -921c-6.66699 -113.333 -37.334 -199.666 -92.001 -258.999s-133 -89 -235 -89
c-19.333 0 -37.166 1.33301 -53.499 4s-31.5 6 -45.5 10z" />
    <glyph glyph-name="afii10030" unicode="&#x41c;" horiz-adv-x="1781" 
d="M174 0l0.000976562 1434h277l399 -809c10.667 -22 19.667 -44.667 27 -68c4 -12 7.33301 -23.667 10 -35h8c2.66699 10.667 6 22.334 10 35.001c6.66699 23.333 15.667 46 27 68l399 809h277v-1434h-287v748c0 15.333 0.333008 30.666 1 45.999s1.66699 30 3 44
c1.33301 15.333 3.33301 30.333 6 45h-8c-4 -15.333 -8.66699 -30.333 -14 -45c-5.33301 -13.333 -11.5 -28 -18.5 -44l-20.5 -46l-256 -512h-246l-256 512c-8 15.333 -15.167 30.666 -21.5 45.999l-17.5 44c-5.33301 15.333 -10 30.333 -14 45h-8l4 -45
c1.33301 -13.333 2.66602 -28 3.99902 -44s2 -31.333 2 -46v-748h-287z" />
    <glyph glyph-name="afii10031" unicode="&#x41d;" horiz-adv-x="1351" 
d="M174 0v1434h287v-615h430v615h287v-1434h-287v635h-430v-635h-287z" />
    <glyph glyph-name="afii10032" unicode="&#x41e;" horiz-adv-x="1290" 
d="M102 717c0 131.333 13 243.333 39 336s62.667 168.667 110 228s104.333 103 171 131s141 42 223 42s156.5 -14 223.5 -42s124 -71.667 171 -131s83.5 -135.333 109.5 -228s39 -204.667 39 -336s-13 -243.333 -39 -336s-62.5 -168.834 -109.5 -228.501
s-104 -103.334 -171 -131.001s-141.5 -41.5 -223.5 -41.5s-156.333 13.833 -223 41.5s-123.667 71.334 -171 131.001s-84 135.834 -110 228.501s-39 204.667 -39 336zM389 717c0 -108 7.16699 -197.5 21.5 -268.5s33.166 -127.667 56.499 -170s50.666 -72 81.999 -89
s63.333 -25.5 96 -25.5s64.667 8.5 96 25.5s58.666 46.667 81.999 89s42.166 99 56.499 170s21.5 160.5 21.5 268.5s-7.16699 197.5 -21.5 268.5s-33.166 127.667 -56.499 170s-50.666 72 -81.999 89s-63.333 25.5 -96 25.5s-64.667 -8.5 -96 -25.5
s-58.666 -46.667 -81.999 -89s-42.166 -99 -56.499 -170s-21.5 -160.5 -21.5 -268.5z" />
    <glyph glyph-name="afii10033" unicode="&#x41f;" horiz-adv-x="1351" 
d="M174 0v1434h1004v-1434h-287v1249h-430v-1249h-287z" />
    <glyph glyph-name="afii10034" unicode="&#x420;" horiz-adv-x="1208" 
d="M174 0v1434h410c195.333 0 336.333 -40.333 423 -121s130 -201 130 -361s-43.333 -280.167 -130 -360.5s-227.667 -120.5 -423 -120.5h-123v-471h-287zM461 655l123 0.000976562c92.667 0 160.167 22.667 202.5 68s63.5 121.666 63.5 228.999
c0 108 -21.167 184.5 -63.5 229.5s-109.833 67.5 -202.5 67.5h-123v-594z" />
    <glyph glyph-name="afii10035" unicode="&#x421;" horiz-adv-x="1095" 
d="M102 717c0 131.333 12.999 243.332 38.999 335.999s63 168.667 111 228s106 103 174 131s144.333 42 229 42c58.667 0 111.667 -5.83301 159 -17.5s87.333 -24.834 120 -39.501c38 -16.667 71.333 -35.334 100 -56.001l-92 -163h-20
c-19.333 16.667 -41.333 31.667 -66 45c-22 10.667 -48 21.167 -78 31.5s-64 15.5 -102 15.5c-40.667 0 -78.5 -8.5 -113.5 -25.5s-65.5 -46.667 -91.5 -89s-46.167 -99 -60.5 -170s-21.5 -160.5 -21.5 -268.5s7.5 -197.5 22.5 -268.5s35.833 -127.667 62.5 -170
s58.834 -72 96.501 -89s79.5 -25.5 125.5 -25.5c38 0 72.167 4.83301 102.5 14.5s56.5 19.834 78.5 30.501c24.667 13.333 46.334 29 65.001 47h21l92 -164c-28.667 -22 -62.334 -41 -101.001 -57c-32.667 -15.333 -72.5 -28.333 -119.5 -39s-99.833 -16 -158.5 -16
c-90 0 -170.5 13.833 -241.5 41.5s-131.167 71.334 -180.5 131.001s-87 135.834 -113 228.501s-39 204.667 -39 336z" />
    <glyph glyph-name="afii10036" unicode="&#x422;" horiz-adv-x="1044" 
d="M20 1249v185h1004v-185h-358v-1249h-287v1249h-359z" />
    <glyph glyph-name="afii10037" unicode="&#x423;" horiz-adv-x="1177" 
d="M20 1434h296.996l267 -686c6.66699 -19.333 12.334 -37.833 17.001 -55.5s8.33398 -34.167 11.001 -49.5c4 -16.667 7 -33 9 -49h8c0 16.667 1.33301 33 4 49c2.66699 15.333 5.33398 31.833 8.00098 49.5s7.33398 36.167 14.001 55.5l205 686h297l-369 -1158
c-13.333 -44 -31.666 -84.667 -54.999 -122s-51.333 -69.666 -84 -96.999s-70.834 -48.833 -114.501 -64.5s-92.167 -23.5 -145.5 -23.5c-34 0 -65 3.16699 -93 9.5s-53 13.5 -75 21.5c-24.667 8 -47 18.333 -67 31l71 174h21c9.33301 -10.667 21 -19.667 35 -27
c10.667 -6.66699 23.167 -12.334 37.5 -17.001s31.166 -7 50.499 -7c35.333 0 65.333 11.5 90 34.5s42.334 52.167 53.001 87.5l31 103h-84z" />
    <glyph glyph-name="afii10038" unicode="&#x424;" horiz-adv-x="1617" 
d="M72 717c0 96.667 13.667 183.335 41 260.002s66.5 141.834 117.5 195.501s113 95.5 186 125.5s156.167 48 249.5 54v143h286v-143c91.333 -5.33301 174 -23.166 248 -53.499s136.5 -72.333 187.5 -126s90.167 -118.834 117.5 -195.501s41 -163.334 41 -260.001
s-13.667 -183.334 -41 -260.001s-66.5 -142 -117.5 -196s-113.333 -96 -187 -126s-156.5 -47.667 -248.5 -53v-143h-286v143c-92.667 5.33301 -175.667 23 -249 53s-135.5 72 -186.5 126s-90.167 119.167 -117.5 195.5s-41 163.166 -41 260.499zM358 717.001
c0 -76.667 7.5 -142.335 22.5 -197.002s35.833 -100 62.5 -136s58.834 -63.333 96.501 -82s79.834 -30.667 126.501 -36v901c-46.667 -5.33301 -88.834 -17.166 -126.501 -35.499s-69.834 -45.666 -96.501 -81.999s-47.5 -81.833 -62.5 -136.5s-22.5 -120 -22.5 -196z
M952 266c46.667 5.33301 88.834 17.335 126.501 36.002s69.667 46 96 82s47.166 81.333 62.499 136s23 120.334 23 197.001s-7.66699 142.167 -23 196.5s-36.166 99.666 -62.499 135.999s-58.333 63.666 -96 81.999s-79.834 30.166 -126.501 35.499v-901z" />
    <glyph glyph-name="afii10039" unicode="&#x425;" 
d="M20 0l359 727l-348 707h307l205 -441c4 -10.667 7.66699 -21.167 11 -31.5s6.33301 -20.166 9 -29.499c2.66699 -10.667 4.66699 -21 6 -31h9c1.33301 9.33301 3.33301 19.666 6 30.999c2.66699 9.33301 5.33398 19.166 8.00098 29.499s6.66699 20.833 12 31.5l205 441
h307l-348 -707l358 -727h-307l-215 461c-5.33301 10.667 -9.33301 21.167 -12 31.5s-5.33398 20.166 -8.00098 29.499c-2.66699 10.667 -4.66699 21 -6 31h-9c-1.33301 -9.33301 -3.33301 -19.666 -6 -30.999c-2.66699 -9.33301 -5.66699 -19.166 -9 -29.499
s-7 -20.833 -11 -31.5l-215 -461h-308z" />
    <glyph glyph-name="afii10040" unicode="&#x426;" horiz-adv-x="1372" 
d="M174 0v1434h287v-1250h409v1250h287v-1250h133v-491h-215l-41 307h-860z" />
    <glyph glyph-name="afii10041" unicode="&#x427;" horiz-adv-x="1290" 
d="M113 911v522.999h286v-523c0 -157.333 78.667 -235.666 236 -234.999c27.333 0 53 1.33301 77 4s44.667 6 62 10c20.667 5.33301 39 11 55 17v727h287v-1434h-287v522l-69 -16c-22 -4 -48 -7.33301 -78 -10s-62.667 -4 -98 -4c-154 0 -271 37.833 -351 113.5
s-120 177.5 -120 305.5z" />
    <glyph glyph-name="afii10042" unicode="&#x428;" horiz-adv-x="1945" 
d="M174 0v1434h287v-1250h368v1250h287v-1250h369v1250h287v-1434h-1598z" />
    <glyph glyph-name="afii10043" unicode="&#x429;" horiz-adv-x="1986" 
d="M174 0v1434h287v-1250h368v1250h287v-1250h369v1250h287v-1250h133v-491h-215l-41 307h-1475z" />
    <glyph glyph-name="afii10044" unicode="&#x42a;" horiz-adv-x="1331" 
d="M20 1249l0.000976562 185.002h553v-512h134c194 0 334.667 -39.667 422 -119s131 -193.333 131 -342c0 -136.667 -36.333 -243.834 -109 -321.501s-188.667 -122.834 -348 -135.501c-10.667 -1.33301 -21.834 -2.33301 -33.501 -3s-23.167 -1 -34.5 -1h-18h-430v1249
h-267zM573.001 184.002h134c92.667 0 160.167 21.5 202.5 64.5s63.5 113.833 63.5 212.5c0 98 -21.167 168.5 -63.5 211.5s-109.833 64.5 -202.5 64.5h-134v-553z" />
    <glyph glyph-name="afii10045" unicode="&#x42b;" horiz-adv-x="1751" 
d="M174 0v1434h287v-512h112c194 0 334.667 -39.667 422 -119s131 -193.333 131 -342s-43.667 -262.667 -131 -342s-228 -119 -422 -119h-399zM461 184h111.998c92.667 0 160.334 21.5 203.001 64.5s64 113.833 64 212.5c0 98 -21.167 168.5 -63.5 211.5
s-110.166 64.5 -203.499 64.5h-112v-553zM1290 0v1434h287v-1434h-287z" />
    <glyph glyph-name="afii10046" unicode="&#x42c;" horiz-adv-x="1218" 
d="M174 0v1434h287v-512h133c194 0 334.667 -39.667 422 -119s131 -193.333 131 -342s-43.667 -262.667 -131 -342s-228 -119 -422 -119h-420zM461 184h133c92.667 0 160.167 21.5 202.5 64.5s63.5 113.833 63.5 212.5c0 98 -21.167 168.5 -63.5 211.5
s-109.833 64.5 -202.5 64.5h-133v-553z" />
    <glyph glyph-name="afii10047" unicode="&#x42d;" horiz-adv-x="1095" 
d="M41 92l92.001 164.004h21c19.333 -18 41 -33.667 65 -47c22 -10.667 47.667 -20.834 77 -30.501s63.666 -14.5 102.999 -14.5c44 0 83.667 7.16699 119 21.5s66 39.5 92 75.5s47.167 84.167 63.5 144.5s27.5 136.833 33.5 229.5h-461v184h461
c-5.33301 87.333 -16 159.666 -32 216.999s-36.667 103.5 -62 138.5s-54.333 59.667 -87 74s-68 21.5 -106 21.5c-39.333 0 -73.833 -5.16699 -103.5 -15.5s-55.167 -20.833 -76.5 -31.5c-24.667 -13.333 -46.667 -28.333 -66 -45h-20l-93 163
c28.667 20.667 62.334 39.334 101.001 56.001c32.667 15.333 72.167 28.666 118.5 39.999s99.5 17 159.5 17c84.667 0 161.167 -14 229.5 -42s126.333 -71.667 174 -131s84.5 -135.5 110.5 -228.5s39 -204.833 39 -335.5c0 -131.333 -13 -243.333 -39 -336
s-63.5 -168.834 -112.5 -228.501s-109 -103.334 -180 -131.001s-151.5 -41.5 -241.5 -41.5c-60 0 -113.333 5.33301 -160 16s-86.334 23.667 -119.001 39c-38 16.667 -71.333 35.667 -100 57z" />
    <glyph glyph-name="afii10048" unicode="&#x42e;" horiz-adv-x="1761" 
d="M174 0l0.000976562 1434h287v-615h153c10.667 216 63.167 375.833 157.5 479.5s216.166 155.5 365.499 155.5c76.667 0 147 -14 211 -42s118.833 -71.667 164.5 -131s81.5 -135.333 107.5 -228s39 -204.667 39 -336s-13 -243.333 -39 -336
s-61.833 -168.834 -107.5 -228.501s-100.667 -103.334 -165 -131.001s-134.5 -41.5 -210.5 -41.5c-74 0 -142 12.833 -204 38.5s-115.5 65.5 -160.5 119.5s-81.167 122 -108.5 204s-44 179.667 -50 293h-153v-635h-287zM901.001 717.002c0 -108 6.83301 -197.5 20.5 -268.5
s31.834 -127.667 54.501 -170s48 -72 76 -89s56.333 -25.5 85 -25.5s57 8.5 85 25.5s53.167 46.667 75.5 89s40.333 99 54 170s20.5 160.5 20.5 268.5s-6.83301 197.5 -20.5 268.5s-31.667 127.667 -54 170s-47.5 72 -75.5 89s-56.333 25.5 -85 25.5s-57 -8.5 -85 -25.5
s-53.333 -46.667 -76 -89s-40.834 -99 -54.501 -170s-20.5 -160.5 -20.5 -268.5z" />
    <glyph glyph-name="afii10049" unicode="&#x42f;" horiz-adv-x="1249" 
d="M51 10l20.9951 163.997h10c2.66699 -2.66699 6.66699 -4.66699 12 -6c8 -2.66699 17 -4 27 -4c22 0 38 5.5 48 16.5s18.667 29.5 26 55.5l51 174c12 40.667 28.333 73.334 49 98.001s41 44.334 61 59.001c23.333 16.667 48 29 74 37
c-58.667 9.33301 -110.667 29.333 -156 60c-19.333 12 -38.166 27.167 -56.499 45.5s-34.666 40.5 -48.999 66.5s-25.833 55.667 -34.5 89s-13 72 -13 116c0 72.667 10.5 136.834 31.5 192.501s54 103 99 142s102.333 68.5 172 88.5s153.167 30 250.5 30h401v-1434h-287v532
h-92c-45.333 0 -79.166 -10.5 -101.499 -31.5s-39.5 -54.833 -51.5 -101.5l-60 -215c-15.333 -57.333 -45 -105.666 -89 -144.999s-96.667 -59 -158 -59c-31.333 0 -58.666 1.33301 -81.999 4s-42.666 6 -57.999 10c-18 5.33301 -33 10.666 -45 15.999zM407.995 982.997
c0 -92.667 21.167 -160.167 63.5 -202.5s109.833 -63.5 202.5 -63.5h114v532h-114c-92.667 0 -160.167 -21.167 -202.5 -63.5s-63.5 -109.833 -63.5 -202.5z" />
    <glyph glyph-name="afii10065" unicode="&#x430;" horiz-adv-x="1105" 
d="M82 297c0 49.333 8.49902 94.166 25.499 134.499s44.333 74.833 82 103.5s85.5 50.834 143.5 66.501s128 23.5 210 23.5h143v30c0 72.667 -15.667 125 -47 157s-80.333 48 -147 48c-34 0 -64.167 -4 -90.5 -12s-48.833 -17.667 -67.5 -29
c-22 -12 -41.333 -25.667 -58 -41h-20l-92 164c28.667 19.333 60.667 36.333 96 51c31.333 12 68.166 23.5 110.499 34.5s89.5 16.5 141.5 16.5c74 0 139.667 -9.5 197 -28.5s105.333 -45.833 144 -80.5s68.334 -76 89.001 -124s31 -100 31 -156v-655h-205l-20 123h-11
c-20.667 -27.333 -43.667 -51.333 -69 -72c-23.333 -19.333 -52.166 -36 -86.499 -50s-74.5 -21 -120.5 -21c-122.667 0 -216.5 29.667 -281.5 89s-97.5 135.333 -97.5 228zM368.999 297c0 -35.333 12.166 -64.667 36.499 -88s59.833 -35 106.5 -35c26 0 49.5 6.5 70.5 19.5
s39.167 27.167 54.5 42.5c18 18 34.333 38.333 49 61v143h-143c-61.333 0 -105.666 -12.167 -132.999 -36.5s-41 -59.833 -41 -106.5z" />
    <glyph glyph-name="afii10066" unicode="&#x431;" horiz-adv-x="1136" 
d="M102 471l0.00195312 195c0 125.333 11.667 231.666 35 318.999s58.5 160 105.5 218s106.667 103.5 179 136.5s157.166 57.5 254.499 73.5l307 51l41 -215l-307 -51c-72.667 -12 -133.5 -28 -182.5 -48s-88.833 -46 -119.5 -78s-52.834 -71.167 -66.501 -117.5
s-20.5 -101.833 -20.5 -166.5c62.667 116 161.667 174.333 297 175c61.333 0 117.5 -10.667 168.5 -32s95.333 -52.833 133 -94.5s66.667 -93.167 87 -154.5s30.5 -131.666 30.5 -210.999c0 -160 -41.167 -281.833 -123.5 -365.5s-198.166 -125.5 -347.499 -125.5
c-148.667 0 -264.334 41.833 -347.001 125.5s-124 205.5 -124 365.5zM389.002 471c0 -56 4.83203 -103.5 14.499 -142.5s22.667 -70.667 39 -95s35.833 -42 58.5 -53s46.667 -16.5 72 -16.5c26 0 50.333 5.5 73 16.5s42.167 28.667 58.5 53s29.333 56 39 95
s14.5 86.5 14.5 142.5c0 53.333 -4.83301 99.166 -14.5 137.499s-22.667 69 -39 92s-35.833 40 -58.5 51s-47 16.5 -73 16.5s-50.167 -5.5 -72.5 -16.5s-41.666 -28 -57.999 -51s-29.333 -53.667 -39 -92s-14.5 -84.166 -14.5 -137.499z" />
    <glyph glyph-name="afii10067" unicode="&#x432;" horiz-adv-x="1085" 
d="M143 0v1024h410c74 0 137.5 -7.16699 190.5 -21.5s96.667 -33.833 131 -58.5s59.333 -53 75 -85s23.5 -65.667 23.5 -101c0 -46.667 -11.333 -84.667 -34 -114s-47.667 -52.333 -75 -69c-31.333 -19.333 -66.666 -33.666 -105.999 -42.999c48 -8 90.333 -22.333 127 -43
c31.333 -19.333 60.666 -45.333 87.999 -78s41 -77.667 41 -135c0 -38 -8.16699 -73.667 -24.5 -107s-42.666 -62.666 -78.999 -87.999s-83.833 -45.166 -142.5 -59.499s-130.334 -21.5 -215.001 -21.5h-410zM430 183.997l123 0.00195312
c61.333 0 105.666 11.667 132.999 35s41 52.666 41 87.999s-13.667 64.666 -41 87.999s-71.666 35 -132.999 35h-123v-246zM430 613.999h123c40.667 0 73 11 97 33s36 48.667 36 80s-12 58 -36 80s-56.333 33 -97 33h-123v-226z" />
    <glyph glyph-name="afii10068" unicode="&#x433;" horiz-adv-x="880" 
d="M143 0v1024h717v-184h-430v-840h-287z" />
    <glyph glyph-name="afii10069" unicode="&#x434;" horiz-adv-x="1228" 
d="M10 184l102.999 0.00292969c16.667 15.333 32.334 34.666 47.001 57.999c12 19.333 23.5 44.666 34.5 75.999s17.833 68.666 20.5 111.999l41 594h768v-840h133v-471h-215l-41 287h-625l-40 -287h-226v471zM390.999 184.003l346 -0.000976562v656h-215l-28 -410
c-2.66699 -44 -9.5 -81.667 -20.5 -113s-22.833 -56.333 -35.5 -75c-15.333 -23.333 -31 -42.666 -47 -57.999z" />
    <glyph glyph-name="afii10070" unicode="&#x435;" horiz-adv-x="1064" 
d="M82 512c0 178.667 40.667 311.999 122 399.999s190.666 132 327.999 132c138 0 247.667 -43 329 -129s122 -213.667 122 -383v-51l-61 -61h-553c0 -170.667 81.667 -256 245 -256c32.667 0 62.334 4 89.001 12s49.667 17.667 69 29c22 12 41 25.667 57 41h21l92 -164
c-30 -19.333 -62.667 -36.333 -98 -51c-31.333 -13.333 -67.833 -25.166 -109.5 -35.499s-88.5 -15.5 -140.5 -15.5c-341.333 0 -512 177.333 -512 532zM369 603.999h327c0 87.333 -17.167 151.833 -51.5 193.5s-71.833 62.5 -112.5 62.5s-78 -20.833 -112 -62.5
s-51 -106.167 -51 -193.5z" />
    <glyph glyph-name="afii10072" unicode="&#x436;" horiz-adv-x="1576" 
d="M41 10l31.0039 164.005h10c2.66699 -2.66699 6.66699 -4.66699 12 -6c10.667 -2.66699 20.334 -4 29.001 -4c10.667 0 20.834 4.83301 30.501 14.5s16.5 21.834 20.5 36.501l41 164c8 32.667 23.333 59.167 46 79.5s45.667 36.166 69 47.499
c27.333 13.333 57.333 22 90 26c-28.667 5.33301 -55.334 13.666 -80.001 24.999c-22 9.33301 -42.833 22.666 -62.5 39.999s-33.5 40.333 -41.5 69l-41 143c-4 15.333 -10.833 27.666 -20.5 36.999s-20.167 14 -31.5 14c-5.33301 0 -10.333 -0.666992 -15 -2
s-9 -2.66602 -13 -3.99902c-5.33301 -1.33301 -9.66602 -2.66602 -12.999 -3.99902h-10l-31 164c15.333 4 31.333 8.66699 48 14c15.333 4 32.666 7.66699 51.999 11s40.666 5 63.999 5c72.667 0 127 -15.667 163 -47s60.333 -70 73 -116l51 -185
c6.66699 -26 17.5 -46.167 32.5 -60.5s38.167 -21.5 69.5 -21.5h31v410h287v-410h31c31.333 0 54.5 7.16699 69.5 21.5s25.833 34.5 32.5 60.5l51 185c12 46.667 36.167 85.5 72.5 116.5s90.833 46.5 163.5 46.5c23.333 0 44.833 -1.66699 64.5 -5s36.834 -7 51.501 -11
c16.667 -5.33301 32.667 -10 48 -14l-31 -164h-10c-2.66699 1.33301 -7 2.66602 -13 3.99902c-4 1.33301 -8.33301 2.66602 -13 3.99902s-9.66699 2 -15 2c-10.667 0 -20.834 -4.83301 -30.501 -14.5s-16.834 -21.834 -21.501 -36.501l-41 -143
c-8 -28.667 -22.167 -51.667 -42.5 -69s-40.833 -30.666 -61.5 -39.999c-24.667 -10.667 -51.334 -19 -80.001 -25c32.667 -4 62.667 -12.667 90 -26c23.333 -10.667 46.333 -26.334 69 -47.001s38 -47.334 46 -80.001l41 -164c4 -15.333 10.833 -27.666 20.5 -36.999
s19.834 -14 30.501 -14c8 0 17.667 1.33301 29 4c5.33301 1.33301 9.33301 3.33301 12 6h10l31 -164l-47 -16c-15.333 -4 -32.833 -7.33301 -52.5 -10s-41.167 -4 -64.5 -4c-72.667 0 -127.334 15.667 -164.001 47s-60.334 70 -71.001 116l-52 205
c-6.66699 26 -17.5 46.167 -32.5 60.5s-38.167 21.5 -69.5 21.5h-51v-430h-287v430h-51c-31.333 0 -54.5 -7.16699 -69.5 -21.5s-25.833 -34.5 -32.5 -60.5l-52 -205c-10.667 -46.667 -34.5 -85.5 -71.5 -116.5s-91.5 -46.5 -163.5 -46.5c-23.333 0 -44.833 1.33301 -64.5 4
s-37.167 6 -52.5 10c-16.667 5.33301 -32.334 10.666 -47.001 15.999z" />
    <glyph glyph-name="afii10073" unicode="&#x437;" horiz-adv-x="952" 
d="M31 82l91.9971 164.002h20c18 -15.333 39.333 -29 64 -41c22 -10.667 49.667 -20.167 83 -28.5s73.333 -12.5 120 -12.5c66.667 0 114 12 142 36s42 56.333 42 97s-13.667 73 -41 97s-71.666 36 -132.999 36h-174v184h174c52 0 90.5 12 115.5 36s37.5 56.667 37.5 98
c0 31.333 -13.5 57.833 -40.5 79.5s-71.5 32.5 -133.5 32.5c-39.333 0 -73.666 -4 -102.999 -12s-53.666 -17.667 -72.999 -29c-23.333 -12 -43 -25.667 -59 -41h-21l-92 164c30 19.333 63.667 36.333 101 51c31.333 12 69.5 23.5 114.5 34.5s96.167 16.5 153.5 16.5
c79.333 0 147 -7.16699 203 -21.5s101.333 -34 136 -59s60.167 -54.333 76.5 -88s24.5 -69.5 24.5 -107.5c0 -52 -12.333 -93.333 -37 -124s-52 -54.334 -82 -71.001c-35.333 -19.333 -74 -33 -116 -41c48 -8 90.333 -23 127 -45c31.333 -19.333 60.666 -46.333 87.999 -81
s41 -81.334 41 -140.001c0 -40.667 -8.33301 -78.5 -25 -113.5s-42.667 -65.333 -78 -91s-81.666 -45.667 -138.999 -60s-127 -21.5 -209 -21.5c-65.333 0 -122.333 5 -171 15s-90 22 -124 36c-39.333 15.333 -74 32.333 -104 51z" />
    <glyph glyph-name="afii10074" unicode="&#x438;" horiz-adv-x="1187" 
d="M143 0l0.000976562 1024h287v-502c0 -15.333 -0.333008 -30.333 -1 -45s-1.66699 -27.667 -3 -39l-4 -39h8c2.66699 12 6.66699 25 12 39c4 10.667 9.16699 23.667 15.5 39s14.166 30.333 23.499 45l287 502h276v-1024h-286v502c0 15.333 0.333008 30.333 1 45
s1.66699 27.667 3 39l4 39h-8c-2.66699 -12 -7 -25 -13 -39c-4 -10.667 -9.33301 -23.667 -16 -39s-14 -30.333 -22 -45l-287 -502h-277z" />
    <glyph glyph-name="afii10075" unicode="&#x439;" horiz-adv-x="1187" 
d="M143 0l0.000976562 1024h287v-502c0 -15.333 -0.333008 -30.333 -1 -45s-1.66699 -27.667 -3 -39l-4 -39h8c2.66699 12 6.66699 25 12 39c4 10.667 9.16699 23.667 15.5 39s14.166 30.333 23.499 45l287 502h276v-1024h-286v502c0 15.333 0.333008 30.333 1 45
s1.66699 27.667 3 39l4 39h-8c-2.66699 -12 -7 -25 -13 -39c-4 -10.667 -9.33301 -23.667 -16 -39s-14 -30.333 -22 -45l-287 -502h-277zM266.001 1413h226.002c0 -52 9.16699 -88.833 27.5 -110.5s43.166 -32.5 74.499 -32.5s56.166 10.833 74.499 32.5
s27.5 58.5 27.5 110.5h226c0 -92.667 -26.333 -163.667 -79 -213s-135.667 -74 -249 -74s-196.333 24.667 -249 74s-79 120.333 -79 213z" />
    <glyph glyph-name="afii10076" unicode="&#x43a;" horiz-adv-x="1105" 
d="M143 0l0.00195312 1024h287v-410h62c31.333 0 54.5 7.16699 69.5 21.5s25.833 34.5 32.5 60.5l51 185c12 46.667 36.167 85.5 72.5 116.5s90.833 46.5 163.5 46.5c23.333 0 44.833 -1.66699 64.5 -5s36.834 -7 51.501 -11c16.667 -5.33301 32.334 -10 47.001 -14
l-30 -164h-10c-2.66699 1.33301 -7 2.66602 -13 3.99902c-4 1.33301 -8.33301 2.66602 -13 3.99902s-9.66699 2 -15 2c-10.667 0 -20.834 -4.83301 -30.501 -14.5s-16.834 -21.834 -21.501 -36.501l-41 -143c-8 -28.667 -22.167 -51.667 -42.5 -69
s-40.833 -30.666 -61.5 -39.999c-24.667 -10.667 -51.334 -19 -80.001 -25c32.667 -4 62.667 -12.667 90 -26c23.333 -10.667 46.333 -26.334 69 -47.001s38 -47.334 46 -80.001l41 -164c4 -15.333 10.833 -27.666 20.5 -36.999s19.834 -14 30.501 -14
c8 0 17.667 1.33301 29 4c5.33301 1.33301 9.33301 3.33301 12 6h10l31 -164l-47 -16c-15.333 -4 -32.833 -7.33301 -52.5 -10s-41.167 -4 -64.5 -4c-72.667 0 -127.334 15.667 -164.001 47s-60.334 70 -71.001 116l-52 205c-6.66699 26 -17.5 46.167 -32.5 60.5
s-38.167 21.5 -69.5 21.5h-82v-430h-287z" />
    <glyph glyph-name="afii10077" unicode="&#x43b;" horiz-adv-x="1157" 
d="M10 10l21.001 164.001h20c2.66699 -2.66699 6.66699 -4.66699 12 -6c11.333 -2.66699 21 -4 29 -4c20.667 0 40.167 12 58.5 36s29.5 66.667 33.5 128l41 696h789v-1024h-287v840h-235l-31 -512c-6.66699 -118.667 -36.334 -206.334 -89.001 -263.001
s-125.334 -85 -218.001 -85c-19.333 0 -37.166 1.33301 -53.499 4s-31.5 6 -45.5 10z" />
    <glyph glyph-name="afii10078" unicode="&#x43c;" horiz-adv-x="1495" 
d="M143 0l0.000976562 1024h287l277 -512c10.667 -22 19.334 -44.667 26.001 -68c4 -12 7.33301 -23.333 10 -34h9c2.66699 10.667 6 22 10 34c2.66699 10.667 6 22 10 34s9.33301 23.333 16 34l277 512h287v-1024h-287v451c0 15.333 0.333008 30.333 1 45
s1.66699 27.667 3 39c1.33301 13.333 2.66602 26 3.99902 38h-8c-4 -12 -8.66699 -24.667 -14 -38c-4 -10.667 -9.16699 -23.667 -15.5 -39s-13.5 -30.333 -21.5 -45l-154 -287h-225l-154 287c-18 32.667 -31 60.667 -39 84c-5.33301 13.333 -9.33301 26 -12 38h-8
c1.33301 -12 2.66602 -24.667 3.99902 -38c1.33301 -10.667 2.33301 -23.667 3 -39s1 -30.333 1 -45v-451h-287z" />
    <glyph glyph-name="afii10079" unicode="&#x43d;" horiz-adv-x="1187" 
d="M143 0v1024h287v-410h328v410h286v-1024h-286v430h-328v-430h-287z" />
    <glyph glyph-name="afii10080" unicode="&#x43e;" horiz-adv-x="1105" 
d="M82 512c0 180 41.333 313.667 124 401s198.334 131 347.001 131s264.334 -43.667 347.001 -131s124 -221 124 -401s-41.333 -313.667 -124 -401s-198.334 -131 -347.001 -131s-264.334 43.667 -347.001 131s-124 221 -124 401zM369 512
c0 -66.667 4.66699 -122.167 14 -166.5s22.166 -79.833 38.499 -106.5s35.833 -45.834 58.5 -57.501s47 -17.5 73 -17.5s50.167 5.83301 72.5 17.5s41.833 30.834 58.5 57.501s29.667 62.167 39 106.5s14 99.833 14 166.5s-4.66699 122.167 -14 166.5
s-22.333 79.833 -39 106.5s-36.167 45.834 -58.5 57.501s-46.5 17.5 -72.5 17.5s-50.333 -5.83301 -73 -17.5s-42.167 -30.834 -58.5 -57.501s-29.166 -62.167 -38.499 -106.5s-14 -99.833 -14 -166.5z" />
    <glyph glyph-name="afii10081" unicode="&#x43f;" horiz-adv-x="1187" 
d="M143 0v1024h901v-1024h-286v840h-328v-840h-287z" />
    <glyph glyph-name="afii10082" unicode="&#x440;" 
d="M143 -410l-0.000976562 1434h205l21 -123h10c19.333 26 42.666 50 69.999 72c23.333 18 52 34.333 86 49s74 22 120 22c58.667 0 113 -10.833 163 -32.5s93.5 -54.667 130.5 -99s65.667 -99.666 86 -165.999s30.5 -144.5 30.5 -234.5s-10.167 -168.167 -30.5 -234.5
s-49.666 -121.666 -87.999 -165.999s-83.833 -77.333 -136.5 -99s-111 -32.5 -175 -32.5c-31.333 0 -59.666 3 -84.999 9s-47 13 -65 21c-22 8 -40.333 18.333 -55 31v-369l-82 -82h-205zM429.999 224.998c13.333 -12 27.667 -22.001 43 -30.001
c13.333 -8 29.333 -15.167 48 -21.5s39.667 -9.5 63 -9.5c28.667 0 54.5 5.83301 77.5 17.5s43.5 30.834 61.5 57.501s31.667 62.167 41 106.5s14 99.833 14 166.5c0 64 -4.66699 117.5 -14 160.5s-22 77.833 -38 104.5s-34.5 45.5 -55.5 56.5s-43.167 16.5 -66.5 16.5
c-28.667 0 -53.5 -6.5 -74.5 -19.5s-39.167 -27.167 -54.5 -42.5c-16.667 -18 -31.667 -38.333 -45 -61v-502z" />
    <glyph glyph-name="afii10083" unicode="&#x441;" horiz-adv-x="972" 
d="M82 512c0 180 41.667 313.669 125 401.002s202 131 356 131c52 0 98.833 -5.33301 140.5 -16s78.167 -22.334 109.5 -35.001c35.333 -15.333 68 -32.333 98 -51l-92 -164h-20c-16.667 15.333 -36 29 -58 41c-19.333 10.667 -42.166 20.167 -68.499 28.5
s-55.833 12.5 -88.5 12.5s-62.334 -5.83301 -89.001 -17.5s-49.334 -30.834 -68.001 -57.501s-33 -62.167 -43 -106.5s-15 -99.833 -15 -166.5s5 -122.167 15 -166.5s25 -79.833 45 -106.5s44.667 -45.834 74 -57.501s63 -17.5 101 -17.5c32.667 0 62.334 4 89.001 12
s49.667 17.667 69 29c22 12 41 25.667 57 41h21l92 -164c-30 -19.333 -62.667 -36.333 -98 -51c-31.333 -13.333 -67.833 -25.166 -109.5 -35.499s-88.5 -15.5 -140.5 -15.5c-165.333 0 -290.333 43.667 -375 131s-127 221 -127 401z" />
    <glyph glyph-name="afii10084" unicode="&#x442;" horiz-adv-x="921" 
d="M20 840v184h881v-184h-297v-840h-287v840h-297z" />
    <glyph glyph-name="afii10085" unicode="&#x443;" horiz-adv-x="1034" 
d="M20 1024l286.998 0.000976562l205 -666c2.66699 -10.667 5 -22.5 7 -35.5s3.66699 -24.833 5 -35.5l4 -41h9l4 41c1.33301 10.667 3 22.5 5 35.5s4.33301 24.833 7 35.5l174 666h287l-338 -1126c-31.333 -102.667 -77.833 -183 -139.5 -241s-141.5 -87 -239.5 -87
c-31.333 0 -60.666 3 -87.999 9s-51.333 13.333 -72 22c-24.667 8 -46.334 18 -65.001 30l71 174h21c9.33301 -10.667 20.333 -19.334 33 -26.001c10.667 -6.66699 22.834 -12.5 36.501 -17.5s27.834 -7.5 42.501 -7.5c64 0 109.333 48 136 144l28 102h-82z" />
    <glyph glyph-name="afii10086" unicode="&#x444;" horiz-adv-x="1454" 
d="M82 512c0 174.667 42.333 305.667 127 393s209.667 133.666 375 138.999v308l82 82h204v-390c165.333 -5.33301 290.333 -51.666 375 -138.999s127 -218.333 127 -393s-42.333 -305.667 -127 -393s-209.667 -133.666 -375 -138.999v-390h-286v390
c-165.333 5.33301 -290.333 51.666 -375 138.999s-127 218.333 -127 393zM369 512c0 -64 5 -117.502 15 -160.502s24.333 -78.167 43 -105.5s41.334 -47.166 68.001 -59.499s56.334 -19.833 89.001 -22.5v696c-32.667 -2.66699 -62.334 -10.167 -89.001 -22.5
s-49.334 -32.166 -68.001 -59.499s-33 -62.5 -43 -105.5s-15 -96.5 -15 -160.5zM870 163.998c32.667 2.66699 62.3311 10.1689 88.998 22.502s49.334 32.166 68.001 59.499s33 62.5 43 105.5s15 96.5 15 160.5s-5 117.5 -15 160.5s-24.333 78.167 -43 105.5
s-41.167 47.166 -67.5 59.499s-56.166 19.833 -89.499 22.5v-696z" />
    <glyph glyph-name="afii10087" unicode="&#x445;" horiz-adv-x="1003" 
d="M20 0l308.001 522l-297 502h297l143 -266c5.33301 -10.667 9.66602 -21.167 12.999 -31.5s6.66602 -19.166 9.99902 -26.499c2.66699 -9.33301 4 -17.333 4 -24h8c0 6.66699 1.33301 14.667 4 24c2.66699 6.66699 5.33398 15.167 8.00098 25.5
s7.33398 21.166 14.001 32.499l144 266h297l-297 -502l307 -522h-297l-154 276c-6.66699 10.667 -11.334 20.5 -14.001 29.5l-8 26.5c-2.66699 8 -4 16.667 -4 26h-8c0 -9.33301 -1.33301 -18 -4 -26c-4 -13.333 -11.667 -32 -23 -56l-154 -276h-297z" />
    <glyph glyph-name="afii10088" unicode="&#x446;" horiz-adv-x="1228" 
d="M143 0v1024h287v-840h307v840h287v-840h133v-471h-215l-41 287h-758z" />
    <glyph glyph-name="afii10089" unicode="&#x447;" horiz-adv-x="1126" 
d="M102 686l0.000976562 337.998h287v-338c0 -57.333 14.333 -100.666 43 -129.999s69 -44 121 -44c23.333 0 43.833 1.33301 61.5 4s32.5 6 44.5 10c15.333 5.33301 27.666 11 36.999 17v481h287v-1024h-287v358c-12 -5.33301 -27.667 -10.666 -47 -15.999
c-16.667 -4 -37.167 -7.33301 -61.5 -10s-52.833 -4 -85.5 -4c-134 0 -234.167 31.333 -300.5 94s-99.5 150.667 -99.5 264z" />
    <glyph glyph-name="afii10090" unicode="&#x448;" horiz-adv-x="1679" 
d="M143 0v1024h287v-840h266v840h287v-840h266v840h287v-1024h-1393z" />
    <glyph glyph-name="afii10091" unicode="&#x449;" horiz-adv-x="1740" 
d="M143 0v1024h287v-840h266v840h287v-840h266v840h287v-840h133v-471h-215l-41 287h-1270z" />
    <glyph glyph-name="afii10092" unicode="&#x44a;" horiz-adv-x="1187" 
d="M20 840l0.000976562 184h533v-328h133c84.667 0 156.334 -7.5 215.001 -22.5s106.167 -37.167 142.5 -66.5s62.666 -65.833 78.999 -109.5s24.5 -93.5 24.5 -149.5c0 -105.333 -29.667 -187.333 -89 -246s-159.333 -92 -300 -100c-10.667 -1.33301 -20.834 -2 -30.501 -2
h-31.5h-10h-420v840h-246zM553.001 184h133c57.333 0 100.666 14.333 129.999 43s44 69 44 121s-14.667 92.333 -44 121s-72.666 43 -129.999 43h-133v-328z" />
    <glyph glyph-name="afii10093" unicode="&#x44b;" horiz-adv-x="1587" 
d="M143 0v1024h287v-328h113c84.667 0 156.334 -7.5 215.001 -22.5s106 -37.167 142 -66.5s62.333 -65.833 79 -109.5s25 -93.5 25 -149.5s-8.33301 -105.833 -25 -149.5s-43 -80.167 -79 -109.5s-83.333 -51.5 -142 -66.5s-130.334 -22.5 -215.001 -22.5h-400zM430 184h113
c57.333 0 100.666 14.333 129.999 43s44 69 44 121s-14.667 92.333 -44 121s-72.666 43 -129.999 43h-113v-328zM1157 0v1024h287v-1024h-287z" />
    <glyph glyph-name="afii10094" unicode="&#x44c;" horiz-adv-x="1064" 
d="M143 0v1024h287v-328h133c84.667 0 156.334 -7.5 215.001 -22.5s106.167 -37.167 142.5 -66.5s62.666 -65.833 78.999 -109.5s24.5 -93.5 24.5 -149.5s-8.16699 -105.833 -24.5 -149.5s-42.666 -80.167 -78.999 -109.5s-83.833 -51.5 -142.5 -66.5
s-130.334 -22.5 -215.001 -22.5h-420zM430 184h133c57.333 0 100.666 14.333 129.999 43s44 69 44 121s-14.667 92.333 -44 121s-72.666 43 -129.999 43h-133v-328z" />
    <glyph glyph-name="afii10095" unicode="&#x44d;" horiz-adv-x="972" 
d="M41 82l91.9961 163.999h21c16.667 -15.333 35.667 -29 57 -41c19.333 -10.667 41.833 -20.167 67.5 -28.5s55.834 -12.5 90.501 -12.5c66.667 0 119.834 18.667 159.501 56s64.834 107.333 75.501 210h-358v184h348c-10.667 92.667 -33.167 156.834 -67.5 192.501
s-80.166 53.5 -137.499 53.5c-34 0 -64 -4 -90 -12s-48.667 -17.667 -68 -29c-22 -12 -41 -25.667 -57 -41h-20l-93 164c28.667 19.333 61 36.333 97 51c31.333 12 68.166 23.5 110.499 34.5s89.5 16.5 141.5 16.5c154 0 272.667 -43.667 356 -131s125 -221 125 -401
s-42.333 -313.667 -127 -401s-209.667 -131 -375 -131c-52 0 -99.167 5 -141.5 15s-79.166 22 -110.499 36c-35.333 15.333 -67.333 32.333 -96 51z" />
    <glyph glyph-name="afii10096" unicode="&#x44e;" horiz-adv-x="1536" 
d="M143 0v1024h287v-410h123c15.333 132.667 59.833 237.5 133.5 314.5s179.5 115.5 317.5 115.5s247.5 -44 328.5 -132s121.5 -221.333 121.5 -400s-40.5 -312 -121.5 -400s-190.5 -132 -328.5 -132s-244 40.5 -318 121.5s-118.333 190.5 -133 328.5h-123v-430h-287z
M840 512c0 -69.333 4 -126.333 12 -171s19.5 -80.167 34.5 -106.5s32.5 -44.666 52.5 -54.999s41.667 -15.5 65 -15.5s44.833 5.16699 64.5 15.5s37 28.666 52 54.999s26.5 61.833 34.5 106.5s12 101.667 12 171s-4 126.333 -12 171s-19.5 80.167 -34.5 106.5
s-32.5 44.666 -52.5 54.999s-41.333 15.5 -64 15.5c-23.333 0 -45 -5.16699 -65 -15.5s-37.5 -28.666 -52.5 -54.999s-26.5 -61.833 -34.5 -106.5s-12 -101.667 -12 -171z" />
    <glyph glyph-name="afii10097" unicode="&#x44f;" horiz-adv-x="1116" 
d="M51 10l30.999 163.999h10c2.66699 -2.66699 6.66699 -4.66699 12 -6c10.667 -2.66699 20.334 -4 29.001 -4c10.667 0 20.834 4.83301 30.501 14.5s16.5 21.834 20.5 36.501l31 113c6.66699 26 19 46.167 37 60.5s36.333 25.5 55 33.5c22 8 46 14 72 18
c-50.667 8 -95 23 -133 45c-34 19.333 -64.667 46 -92 80s-41 81.333 -41 142c0 46.667 8.5 89.334 25.5 128.001s43.833 72 80.5 100s83.334 49.833 140.001 65.5s124.667 23.5 204 23.5h410v-1024h-287v369h-92c-53.333 0 -87.333 -27.333 -102 -82l-41 -144
c-13.333 -46.667 -37.833 -85.5 -73.5 -116.5s-89.834 -46.5 -162.501 -46.5c-23.333 0 -44.833 1.33301 -64.5 4s-37.167 6 -52.5 10c-16.667 5.33301 -32.334 10.666 -47.001 15.999zM398.999 695.999c0 -95.333 54.667 -143 164 -143h123v287h-123
c-109.333 0 -164 -48 -164 -144z" />
    <glyph glyph-name="afii10071" unicode="&#x451;" horiz-adv-x="1064" 
d="M82 512c0 178.667 40.667 311.999 122 399.999s190.666 132 327.999 132c138 0 247.667 -43 329 -129s122 -213.667 122 -383v-51l-61 -61h-553c0 -170.667 81.667 -256 245 -256c32.667 0 62.334 4 89.001 12s49.667 17.667 69 29c22 12 41 25.667 57 41h21l92 -164
c-30 -19.333 -62.667 -36.333 -98 -51c-31.333 -13.333 -67.833 -25.166 -109.5 -35.499s-88.5 -15.5 -140.5 -15.5c-341.333 0 -512 177.333 -512 532zM174 1300c0 38 14.334 71.501 43.001 100.501s62 43.5 100 43.5s71.5 -14.333 100.5 -43s43.5 -62.334 43.5 -101.001
c0 -38 -14.333 -71.333 -43 -100s-62.334 -43 -101.001 -43c-38 0 -71.333 14.333 -100 43s-43 62 -43 100zM369.001 604h327c0 87.333 -17.167 151.833 -51.5 193.5s-71.833 62.5 -112.5 62.5s-78 -20.833 -112 -62.5s-51 -106.167 -51 -193.5zM573.001 1300
c0 38 14.5 71.501 43.5 100.501s62.5 43.5 100.5 43.5s71.333 -14.333 100 -43s43 -62.334 43 -101.001c0 -38 -14.333 -71.333 -43 -100s-62 -43 -100 -43s-71.5 14.333 -100.5 43s-43.5 62 -43.5 100z" />
    <glyph glyph-name="afii10099" unicode="&#x452;" horiz-adv-x="1187" 
d="M51 1024l-0.00195312 184h113v144l82 82h205v-226h256v-184h-256v-195c16.667 16.667 36.334 31.667 59.001 45c19.333 10.667 43 21.334 71 32.001s59.667 16 95 16c124 0 219.833 -33.833 287.5 -101.5s101.5 -163.834 101.5 -288.501v-471c0 -52 -8.5 -99 -25.5 -141
s-42 -78.5 -75 -109.5s-73 -55 -120 -72s-99.833 -25.5 -158.5 -25.5c-26 0 -49.5 2.16699 -70.5 6.5s-39.167 9.16602 -54.5 14.499c-18 5.33301 -34.333 12 -49 20l31 164h20c8 -4 17.667 -7.33301 29 -10c20.667 -6.66699 45.334 -10 74.001 -10
c31.333 0 57.833 12.833 79.5 38.5s32.5 67.167 32.5 124.5v471c0 66.667 -14 115.834 -42 147.501s-65 47.5 -111 47.5c-28.667 0 -53.667 -6.5 -75 -19.5s-39.333 -26.833 -54 -41.5c-16.667 -18 -31.667 -38.667 -45 -62v-604h-287v1024h-113z" />
    <glyph glyph-name="afii10100" unicode="&#x453;" horiz-adv-x="880" 
d="M143 0v1024h717v-184h-430v-840h-287zM389 1126l92 308h277l-205 -308h-164z" />
    <glyph glyph-name="afii10101" unicode="&#x454;" horiz-adv-x="972" 
d="M82 512c0 180 41.6621 313.666 124.995 400.999s202 131 356 131c52 0 98.833 -5.33301 140.5 -16s78.167 -22.334 109.5 -35.001c35.333 -15.333 68 -32.333 98 -51l-92 -164h-20c-16.667 15.333 -36 29 -58 41c-19.333 10.667 -42.166 20.167 -68.499 28.5
s-55.833 12.5 -88.5 12.5c-57.333 0 -103.166 -17.667 -137.499 -53s-56.833 -99.666 -67.5 -192.999h348v-184h-358c10.667 -102.667 35.834 -172.667 75.501 -210s92.834 -56 159.501 -56c32.667 0 62.334 4 89.001 12s49.667 17.667 69 29c22 12 41 25.667 57 41h21
l92 -164c-30 -19.333 -62.667 -36.333 -98 -51c-31.333 -13.333 -67.833 -25.166 -109.5 -35.499s-88.5 -15.5 -140.5 -15.5c-165.333 0 -290.333 43.667 -375 131s-127 221 -127 401z" />
    <glyph glyph-name="afii10102" unicode="&#x455;" horiz-adv-x="993" 
d="M61 82l92.999 164.003h20c22 -15.333 46.667 -29 74 -41c23.333 -10.667 52 -20.167 86 -28.5s73 -12.5 117 -12.5c72.667 0 123.167 11.167 151.5 33.5s42.5 49.5 42.5 81.5c0 28.667 -14 51.834 -42 69.501s-62.833 34 -104.5 49s-86.667 30 -135 45
s-93.333 34.833 -135 59.5s-76.5 55.334 -104.5 92.001s-42 84.334 -42 143.001c0 44 8.5 84.667 25.5 122s43 69.666 78 96.999s79.667 48.833 134 64.5s118.5 23.5 192.5 23.5c57.333 0 109.166 -5.33301 155.499 -16s87.5 -22.334 123.5 -35.001
c40.667 -15.333 77.334 -32.333 110.001 -51l-92 -164h-21c-20.667 15.333 -43.667 29 -69 41c-23.333 10.667 -50.666 20.167 -81.999 28.5s-66.333 12.5 -105 12.5c-57.333 0 -98.833 -10.5 -124.5 -31.5s-38.5 -44.5 -38.5 -70.5c0 -28.667 14 -51.834 42 -69.501
s62.833 -34.167 104.5 -49.5s86.667 -30.5 135 -45.5s93.333 -34.667 135 -59s76.5 -55.333 104.5 -93s42 -85.167 42 -142.5c0 -46.667 -8.5 -89.334 -25.5 -128.001s-44 -72.334 -81 -101.001s-83.833 -50.834 -140.5 -66.501s-124.667 -23.5 -204 -23.5
c-61.333 0 -118 5 -170 15s-96.333 22 -133 36c-44 15.333 -83 32.333 -117 51z" />
    <glyph glyph-name="afii10103" unicode="&#x456;" horiz-adv-x="573" 
d="M133 1311c0 40.667 15.5 76.334 46.5 107.001s66.833 46 107.5 46s76.334 -15.333 107.001 -46s46 -66.334 46 -107.001s-15.333 -76.5 -46 -107.5s-66.334 -46.5 -107.001 -46.5s-76.5 15.333 -107.5 46s-46.5 66.667 -46.5 108zM143 0v1024h287v-1024h-287z" />
    <glyph glyph-name="afii10104" unicode="&#x457;" horiz-adv-x="614" 
d="M-51 1311c0 40.667 15.333 76.334 46 107.001s66.334 46 107.001 46s76.5 -15.333 107.5 -46s46.5 -66.334 46.5 -107.001s-15.333 -76.5 -46 -107.5s-66.667 -46.5 -108 -46.5c-40.667 0 -76.334 15.333 -107.001 46s-46 66.667 -46 108zM164 0v1024h287v-1024h-287z
M164 0v1024h287v-1024h-287zM358 1311c0 40.667 15.5 76.334 46.5 107.001s66.833 46 107.5 46s76.5 -15.333 107.5 -46s46.5 -66.334 46.5 -107.001s-15.5 -76.5 -46.5 -107.5s-66.833 -46.5 -107.5 -46.5s-76.5 15.333 -107.5 46s-46.5 66.667 -46.5 108z" />
    <glyph glyph-name="afii10105" unicode="&#x458;" horiz-adv-x="614" 
d="M-154 -348l71.998 174.001h21c9.33301 -10.667 20 -19.667 32 -27c10.667 -6.66699 22.834 -12.334 36.501 -17.001s28.167 -7 43.5 -7c40.667 0 73 13 97 39s36 67.667 36 125v1085h287v-1085c0 -102.667 -34.5 -186.5 -103.5 -251.5s-167.5 -97.5 -295.5 -97.5
c-31.333 0 -60.666 3.16699 -87.999 9.5s-51.333 13.5 -72 21.5c-24.667 8 -46.667 18.333 -66 31zM173.998 1311c0 40.667 15.5 76.334 46.5 107.001s66.833 46 107.5 46s76.334 -15.333 107.001 -46s46 -66.334 46 -107.001s-15.333 -76.5 -46 -107.5
s-66.334 -46.5 -107.001 -46.5s-76.5 15.333 -107.5 46s-46.5 66.667 -46.5 108z" />
    <glyph glyph-name="afii10106" unicode="&#x459;" horiz-adv-x="1638" 
d="M10 10l21 164.001h20c2.66699 -2.66699 6.66699 -4.66699 12 -6c10.667 -2.66699 20.334 -4 29.001 -4c20.667 0 40.167 12 58.5 36s29.5 66.667 33.5 128l41 696h779v-328h133c84.667 0 156.334 -7.5 215.001 -22.5s106 -37.167 142 -66.5s62.167 -65.833 78.5 -109.5
s24.5 -93.5 24.5 -149.5s-8.16699 -105.833 -24.5 -149.5s-42.5 -80.167 -78.5 -109.5s-83.333 -51.5 -142 -66.5s-130.334 -22.5 -215.001 -22.5h-420v840h-225l-31 -512c-6.66699 -118.667 -36.334 -206.334 -89.001 -263.001s-125.334 -85 -218.001 -85
c-19.333 0 -37.166 1.33301 -53.499 4s-31.5 6 -45.5 10zM1004 184.001h133c57.333 0 100.666 14.333 129.999 43s44 69 44 121s-14.667 92.333 -44 121s-72.666 43 -129.999 43h-133v-328z" />
    <glyph glyph-name="afii10107" unicode="&#x45a;" horiz-adv-x="1658" 
d="M143 0v1024h287v-369h307v369h287v-369h133c84.667 0 156.334 -7.5 215.001 -22.5s106.167 -36.5 142.5 -64.5s62.666 -62.5 78.999 -103.5s24.5 -86.5 24.5 -136.5c0 -52 -8.16699 -98.167 -24.5 -138.5s-42.666 -74.5 -78.999 -102.5s-83.833 -49.5 -142.5 -64.5
s-130.334 -22.5 -215.001 -22.5h-420v471h-307v-471h-287zM1024 184l133 0.000976562c57.333 0 100.666 13.667 129.999 41s44 61.666 44 102.999c0 40.667 -14.667 74.667 -44 102s-72.666 41 -129.999 41h-133v-287z" />
    <glyph glyph-name="afii10108" unicode="&#x45b;" horiz-adv-x="1198" 
d="M51 1024l-0.000976562 183.999h113v144l82 82h205v-226h256v-184h-256v-195c16.667 16.667 36.334 31.667 59.001 45c19.333 10.667 43 21.334 71 32.001s59.667 16 95 16c124 0 219.833 -33.833 287.5 -101.5s101.5 -163.834 101.5 -288.501v-532h-287v532
c0 66.667 -14 115.834 -42 147.501s-65 47.5 -111 47.5c-28.667 0 -53.667 -6.5 -75 -19.5s-39.333 -26.833 -54 -41.5c-16.667 -18 -31.667 -38.667 -45 -62v-604h-287v1024h-113z" />
    <glyph glyph-name="afii10109" unicode="&#x45c;" horiz-adv-x="1105" 
d="M143 0v1024h287v-410h62c31.333 0 54.5 7.16699 69.5 21.5s25.833 34.5 32.5 60.5l51 185c12 46.667 36.167 85.5 72.5 116.5s90.833 46.5 163.5 46.5c23.333 0 44.833 -1.66699 64.5 -5s36.834 -7 51.501 -11c16.667 -5.33301 32.334 -10 47.001 -14l-30 -164h-10
c-2.66699 1.33301 -7 2.66602 -13 3.99902c-4 1.33301 -8.33301 2.66602 -13 3.99902s-9.66699 2 -15 2c-10.667 0 -20.834 -4.83301 -30.501 -14.5s-16.834 -21.834 -21.501 -36.501l-41 -143c-8 -28.667 -20.833 -51.667 -38.5 -69s-36.167 -30.666 -55.5 -39.999
c-22 -10.667 -45 -19 -69 -25c28.667 -4 55 -12.667 79 -26c20.667 -10.667 41.334 -26.334 62.001 -47.001s35 -47.334 43 -80.001l41 -164c4 -15.333 10.833 -27.666 20.5 -36.999s19.834 -14 30.501 -14c8 0 17.667 1.33301 29 4c5.33301 1.33301 9.33301 3.33301 12 6
h10l31 -164l-47 -16c-15.333 -4 -32.833 -7.33301 -52.5 -10s-41.167 -4 -64.5 -4c-72.667 0 -127.334 15.667 -164.001 47s-60.334 70 -71.001 116l-52 205c-6.66699 26 -17.5 46.167 -32.5 60.5s-38.167 21.5 -69.5 21.5h-82v-430h-287zM451 1106l92 307h276l-205 -307
h-163z" />
    <glyph glyph-name="afii10110" unicode="&#x45e;" horiz-adv-x="1034" 
d="M20 1024l286.998 0.000976562l205 -666c2.66699 -10.667 5 -22.5 7 -35.5s3.66699 -24.833 5 -35.5l4 -41h9l4 41c1.33301 10.667 3 22.5 5 35.5s4.33301 24.833 7 35.5l174 666h287l-338 -1126c-31.333 -102.667 -77.833 -183 -139.5 -241s-141.5 -87 -239.5 -87
c-31.333 0 -60.666 3 -87.999 9s-51.333 13.333 -72 22c-24.667 8 -46.334 18 -65.001 30l71 174h21c9.33301 -10.667 20.333 -19.334 33 -26.001c10.667 -6.66699 22.834 -12.5 36.501 -17.5s27.834 -7.5 42.501 -7.5c64 0 109.333 48 136 144l28 102h-82zM194.998 1382
h225c0 -52 9.16699 -88.833 27.5 -110.5s43.166 -32.5 74.499 -32.5s56.333 11 75 33s28 58.667 28 110h225c0 -92.667 -26.333 -163.5 -79 -212.5s-135.667 -73.5 -249 -73.5s-196.166 24.5 -248.499 73.5s-78.5 119.833 -78.5 212.5z" />
    <glyph glyph-name="afii10193" unicode="&#x45f;" horiz-adv-x="1187" 
d="M143 0v1024h287v-840h328v840h286v-1024h-317l-31 -287h-204l-31 287h-318z" />
    <glyph glyph-name="afii10050" unicode="&#x490;" horiz-adv-x="1054" 
d="M174 0v1434h635l31 225h194v-410h-573v-1249h-287z" />
    <glyph glyph-name="afii10098" unicode="&#x491;" horiz-adv-x="880" 
d="M143 0v1024h492l31 205h194v-389h-430v-840h-287z" />
    <glyph glyph-name="uni2000" unicode="&#x2000;" horiz-adv-x="937" 
 />
    <glyph glyph-name="uni2001" unicode="&#x2001;" horiz-adv-x="1874" 
 />
    <glyph glyph-name="uni2002" unicode="&#x2002;" horiz-adv-x="937" 
 />
    <glyph glyph-name="uni2003" unicode="&#x2003;" horiz-adv-x="1874" 
 />
    <glyph glyph-name="uni2004" unicode="&#x2004;" horiz-adv-x="624" 
 />
    <glyph glyph-name="uni2005" unicode="&#x2005;" horiz-adv-x="468" 
 />
    <glyph glyph-name="uni2006" unicode="&#x2006;" horiz-adv-x="312" 
 />
    <glyph glyph-name="uni2007" unicode="&#x2007;" horiz-adv-x="312" 
 />
    <glyph glyph-name="uni2008" unicode="&#x2008;" horiz-adv-x="234" 
 />
    <glyph glyph-name="uni2009" unicode="&#x2009;" horiz-adv-x="374" 
 />
    <glyph glyph-name="uni200A" unicode="&#x200a;" horiz-adv-x="104" 
 />
    <glyph glyph-name="uni2010" unicode="&#x2010;" horiz-adv-x="921" 
d="M61 573v205h799v-205h-799z" />
    <glyph glyph-name="uni2011" unicode="&#x2011;" horiz-adv-x="921" 
d="M61 573v205h799v-205h-799z" />
    <glyph glyph-name="figuredash" unicode="&#x2012;" horiz-adv-x="921" 
d="M61 573v205h799v-205h-799z" />
    <glyph glyph-name="endash" unicode="&#x2013;" horiz-adv-x="1085" 
d="M61 492v204h963v-204h-963z" />
    <glyph glyph-name="emdash" unicode="&#x2014;" horiz-adv-x="1515" 
d="M61 492v204h1393v-204h-1393z" />
    <glyph glyph-name="quoteleft" unicode="&#x2018;" horiz-adv-x="450" 
d="M72 1065c0 74 11.5 135.831 34.5 185.498s48.833 89.5 77.5 119.5c32.667 35.333 70.334 63.333 113.001 84l61 -82c-26 -15.333 -48.333 -31.666 -67 -48.999c-16.667 -15.333 -31.834 -33.5 -45.501 -54.5s-20.5 -44.5 -20.5 -70.5c40.667 0 76.5 -15.5 107.5 -46.5
s46.5 -66.833 46.5 -107.5c0 -20.667 -4.16699 -40.167 -12.5 -58.5s-19.333 -34.666 -33 -48.999s-29 -25.5 -46 -33.5s-34.167 -12 -51.5 -12c-46.667 0 -85.667 16 -117 48s-47 74 -47 126z" />
    <glyph glyph-name="quoteright" unicode="&#x2019;" horiz-adv-x="450" 
d="M72 1300c0 20.667 4.00098 40.167 12.001 58.5s18.833 34.833 32.5 49.5s29 26 46 34s34.5 12 52.5 12c46.667 0 85.667 -16 117 -48s47 -74 47 -126c0 -75.333 -12 -137.5 -36 -186.5s-49.667 -88.5 -77 -118.5c-34 -35.333 -71.333 -63.333 -112 -84l-62 82
c24.667 15.333 46.667 31.666 66 48.999c16.667 15.333 32 33.5 46 54.5s21 44.5 21 70.5c-40.667 0 -76.334 15.333 -107.001 46s-46 66.334 -46 107.001z" />
    <glyph glyph-name="quotesinglbase" unicode="&#x201a;" horiz-adv-x="450" 
d="M72 133c0 20.667 4.00098 40.167 12.001 58.5s18.833 34.666 32.5 48.999s29 25.666 46 33.999s34.5 12.5 52.5 12.5c46.667 0 85.667 -16.167 117 -48.5s47 -74.166 47 -125.499c0 -75.333 -12 -137.5 -36 -186.5s-49.667 -88.833 -77 -119.5
c-34 -35.333 -71.333 -63 -112 -83l-62 81c24.667 15.333 46.667 32 66 50c16.667 15.333 32 33.5 46 54.5s21 44.5 21 70.5c-40.667 0 -76.334 15.333 -107.001 46s-46 66.334 -46 107.001z" />
    <glyph glyph-name="quotedblleft" unicode="&#x201c;" horiz-adv-x="839" 
d="M72 1065c0 74 11.5 135.831 34.5 185.498s48.833 89.5 77.5 119.5c32.667 35.333 70.334 63.333 113.001 84l61 -82c-26 -15.333 -48.333 -31.666 -67 -48.999c-16.667 -15.333 -31.834 -33.5 -45.501 -54.5s-20.5 -44.5 -20.5 -70.5c40.667 0 76.5 -15.5 107.5 -46.5
s46.5 -66.833 46.5 -107.5c0 -20.667 -4.16699 -40.167 -12.5 -58.5s-19.333 -34.666 -33 -48.999s-29 -25.5 -46 -33.5s-34.167 -12 -51.5 -12c-46.667 0 -85.667 16 -117 48s-47 74 -47 126zM461 1065c0 74 11.5 135.831 34.5 185.498s48.833 89.5 77.5 119.5
c32.667 35.333 70.334 63.333 113.001 84l62 -82c-26 -15.333 -48.667 -31.666 -68 -48.999c-16.667 -15.333 -31.834 -33.5 -45.501 -54.5s-20.5 -44.5 -20.5 -70.5c40.667 0 76.5 -15.5 107.5 -46.5s46.5 -66.833 46.5 -107.5c0 -20.667 -4.16699 -40.167 -12.5 -58.5
s-19.333 -34.666 -33 -48.999s-29 -25.5 -46 -33.5s-34.167 -12 -51.5 -12c-46.667 0 -85.667 16 -117 48s-47 74 -47 126z" />
    <glyph glyph-name="quotedblright" unicode="&#x201d;" horiz-adv-x="839" 
d="M72 1300c0 20.667 4.00098 40.167 12.001 58.5s18.833 34.833 32.5 49.5s29 26 46 34s34.5 12 52.5 12c46.667 0 85.667 -16 117 -48s47 -74 47 -126c0 -75.333 -12 -137.5 -36 -186.5s-49.667 -88.5 -77 -118.5c-34 -35.333 -71.333 -63.333 -112 -84l-62 82
c24.667 15.333 46.667 31.666 66 48.999c16.667 15.333 32 33.5 46 54.5s21 44.5 21 70.5c-40.667 0 -76.334 15.333 -107.001 46s-46 66.334 -46 107.001zM461.001 1300c0 20.667 4.00195 40.167 12.002 58.5s18.833 34.833 32.5 49.5s29.167 26 46.5 34
s34.666 12 51.999 12c46.667 0 85.667 -16 117 -48s47 -74 47 -126c0 -75.333 -12 -137.5 -36 -186.5s-49.667 -88.5 -77 -118.5c-34 -35.333 -71.333 -63.333 -112 -84l-62 82c24.667 15.333 46.667 31.666 66 48.999c16.667 15.333 32 33.5 46 54.5s21 44.5 21 70.5
c-40.667 0 -76.334 15.333 -107.001 46s-46 66.334 -46 107.001z" />
    <glyph glyph-name="quotedblbase" unicode="&#x201e;" horiz-adv-x="839" 
d="M72 133c0 20.667 4.00098 40.167 12.001 58.5s18.833 34.666 32.5 48.999s29 25.666 46 33.999s34.5 12.5 52.5 12.5c46.667 0 85.667 -16.167 117 -48.5s47 -74.166 47 -125.499c0 -75.333 -12 -137.5 -36 -186.5s-49.667 -88.833 -77 -119.5
c-34 -35.333 -71.333 -63 -112 -83l-62 81c24.667 15.333 46.667 32 66 50c16.667 15.333 32 33.5 46 54.5s21 44.5 21 70.5c-40.667 0 -76.334 15.333 -107.001 46s-46 66.334 -46 107.001zM461.001 133c0 20.667 4.00195 40.167 12.002 58.5s18.833 34.666 32.5 48.999
s29.167 25.666 46.5 33.999s34.666 12.5 51.999 12.5c46.667 0 85.667 -16.167 117 -48.5s47 -74.166 47 -125.499c0 -75.333 -12 -137.5 -36 -186.5s-49.667 -88.833 -77 -119.5c-34 -35.333 -71.333 -63 -112 -83l-62 81c24.667 15.333 46.667 32 66 50
c16.667 15.333 32 33.5 46 54.5s21 44.5 21 70.5c-40.667 0 -76.334 15.333 -107.001 46s-46 66.334 -46 107.001z" />
    <glyph glyph-name="bullet" unicode="&#x2022;" horiz-adv-x="880" 
d="M154 635c0 40.667 7.16699 78.5 21.5 113.5s34.333 65.5 60 91.5s56 46.167 91 60.5s72.833 21.5 113.5 21.5s78.5 -7.16699 113.5 -21.5s65.5 -34.5 91.5 -60.5s46.167 -56.5 60.5 -91.5s21.5 -72.833 21.5 -113.5s-7.16699 -78.5 -21.5 -113.5s-34.5 -65.5 -60.5 -91.5
s-56.333 -46.167 -91 -60.5s-72.667 -21.5 -114 -21.5c-40.667 0 -78.5 7.16699 -113.5 21.5s-65.333 34.5 -91 60.5s-45.667 56.333 -60 91s-21.5 72.667 -21.5 114z" />
    <glyph glyph-name="ellipsis" unicode="&#x2026;" horiz-adv-x="1351" 
d="M72 133c0 40.667 15.333 76.5 46 107.5s66.334 46.5 107.001 46.5s76.5 -15.333 107.5 -46s46.5 -66.667 46.5 -108c0 -40.667 -15.333 -76.334 -46 -107.001s-66.667 -46 -108 -46c-40.667 0 -76.334 15.333 -107.001 46s-46 66.334 -46 107.001zM522 133
c0 40.667 15.5 76.5 46.5 107.5s66.833 46.5 107.5 46.5s76.334 -15.333 107.001 -46s46 -66.667 46 -108c0 -40.667 -15.333 -76.334 -46 -107.001s-66.334 -46 -107.001 -46s-76.5 15.333 -107.5 46s-46.5 66.334 -46.5 107.001zM973 133c0 40.667 15.333 76.5 46 107.5
s66.334 46.5 107.001 46.5s76.5 -15.333 107.5 -46s46.5 -66.667 46.5 -108c0 -40.667 -15.333 -76.334 -46 -107.001s-66.667 -46 -108 -46c-40.667 0 -76.334 15.333 -107.001 46s-46 66.334 -46 107.001z" />
    <glyph glyph-name="uni202F" unicode="&#x202f;" horiz-adv-x="374" 
 />
    <glyph glyph-name="guilsinglleft" unicode="&#x2039;" horiz-adv-x="696" 
d="M0 532l389 431h307l-389 -431l389 -430h-307z" />
    <glyph glyph-name="guilsinglright" unicode="&#x203a;" horiz-adv-x="696" 
d="M0 102l389 430l-389 431h307l389 -431l-389 -430h-307z" />
    <glyph glyph-name="uni205F" unicode="&#x205f;" horiz-adv-x="468" 
 />
    <glyph glyph-name="Euro" unicode="&#x20ac;" horiz-adv-x="1157" 
d="M20 512l30.9971 154.003h113v102h-133l30 154h113c12 94 33.833 174.833 65.5 242.5s71 123 118 166s100.5 74.333 160.5 94s126.333 29.5 199 29.5c58.667 0 111.5 -5.83301 158.5 -17.5s86.833 -24.834 119.5 -39.501c38 -16.667 71.667 -35.334 101 -56.001l-92 -163
h-21c-19.333 16.667 -41 31.667 -65 45c-22 10.667 -48 21.167 -78 31.5s-64.333 15.5 -103 15.5c-32.667 0 -64 -5.83301 -94 -17.5s-57.333 -30.834 -82 -57.501s-45.5 -62.167 -62.5 -106.5s-29.5 -99.833 -37.5 -166.5h430l-31 -154h-409v-102h409l-31 -154h-368
c8 -66.667 20.5 -122.167 37.5 -166.5s38.5 -79.833 64.5 -106.5s55.333 -45.834 88 -57.501s68.334 -17.5 107.001 -17.5c38 0 72 4.83301 102 14.5s56 19.834 78 30.501c24.667 13.333 46.667 29 66 47h20l92 -164c-28.667 -22 -62 -41 -100 -57
c-32.667 -15.333 -72.667 -28.333 -120 -39s-100.333 -16 -159 -16c-76.667 0 -146.667 9.83301 -210 29.5s-119.166 51 -167.499 94s-88.166 98.333 -119.499 166s-53.333 148.5 -66 242.5h-154z" />
    <glyph glyph-name="trademark" unicode="&#x2122;" horiz-adv-x="1832" 
d="M20 1270v164h697v-164h-225v-615h-246v615h-226zM788 655l0.000976562 779h246l203 -349c5.33301 -10.667 9.66602 -21.167 12.999 -31.5s6.66602 -18.833 9.99902 -25.5l6 -24h8l6 24c2.66699 6.66699 5.33398 15.167 8.00098 25.5s7.66699 20.833 15 31.5l202 349h246
v-779h-246v297v40c0 14.667 0.666992 28 2 40c1.33301 15.333 2.66602 29.666 3.99902 42.999h-10c-2.66699 -13.333 -6.66699 -27.666 -12 -42.999c-4 -12 -9.16699 -25.167 -15.5 -39.5s-12.833 -27.833 -19.5 -40.5l-102 -174h-164l-103 174
c-6.66699 12 -13 25.333 -19 40s-11 28 -15 40c-5.33301 15.333 -9.66602 29.666 -12.999 42.999h-10c0 -13.333 0.666992 -27.666 2 -42.999c1.33301 -12 2.33301 -25.167 3 -39.5s1 -27.833 1 -40.5v-297h-246z" />
    <glyph glyph-name="uniE000" unicode="&#xe000;" horiz-adv-x="1024" 
d="M0 0v1024h1024v-1024h-1024z" />
    </font>
</defs>
</svg>
