<?xml version="1.0" encoding="utf-8"?>
<!-- Generator: Adobe Illustrator 21.0.2, SVG Export Plug-In . SVG Version: 6.00 Build 0)  -->
<svg version="1.1" id="Слой_1" xmlns="http://www.w3.org/2000/svg" xmlns:xlink="http://www.w3.org/1999/xlink" x="0px" y="0px"
	 viewBox="0 0 23 11" style="enable-background:new 0 0 23 11;" xml:space="preserve">
<style type="text/css">
	.st0{fill:#1E201D;}
</style>
<g>
	<path class="st0" d="M0.2,5.1c-0.2,0.2-0.2,0.6,0,0.8l5.1,4.9c0.2,0.2,0.6,0.2,0.8,0c0.2-0.2,0.2-0.6,0-0.8l-4.1-4h13.5
		c0.3,0,0.6-0.3,0.6-0.6c0-0.3-0.2-0.6-0.6-0.6H1.9l4.1-4c0.2-0.2,0.2-0.6,0-0.8c-0.2-0.2-0.6-0.2-0.8,0L0.2,5.1z"/>
	<rect x="1" y="4.9" transform="matrix(-1 -4.489621e-11 4.489621e-11 -1 24 11)" class="st0" width="22" height="1.1"/>
</g>
</svg>
