<?xml version="1.0" encoding="utf-8"?>
<!-- Generator: Adobe Illustrator 21.0.2, SVG Export Plug-In . SVG Version: 6.00 Build 0)  -->
<svg version="1.1" id="Слой_1" xmlns="http://www.w3.org/2000/svg" xmlns:xlink="http://www.w3.org/1999/xlink" x="0px" y="0px"
	 viewBox="0 0 40 34" style="enable-background:new 0 0 40 34;" xml:space="preserve">
<g>
	<path d="M0.4,3.9C0.7,3.5,1.2,3,2.3,3c1.8,0,25.3,0,25.5,0l0,0c0.5,0,0.8,0.4,0.8,0.8s-0.4,0.8-0.8,0.8c-0.8,0-23.7,0-25.5,0
		C2,4.7,1.8,4.7,1.8,4.8C1.7,5,1.6,5.5,1.9,6.4C2.8,8.1,6.6,17,7.1,17.8c0.1,0.1,0.1,0.2,0.2,0.3c0.3,0.6,0.4,0.7,1.5,0.7h18.4
		c1-3.8,4.5-16.2,4.7-16.8c0,0,0-0.1,0-0.1c0.6-1.4,1.9-1.4,3.4-1.4h3.8C39.6,0.6,40,1,40,1.4c0,0.5-0.4,0.8-0.8,0.8h-3.8
		c-0.7,0-1.5,0.5-1.8,1.2c-0.3,1.1-4.5,15.2-4.9,16.7C28,23,26.4,24.8,24,24.8H8.5c-0.5,0-0.8-0.4-0.8-0.8c0-0.5,0.4-0.8,0.8-0.8H24
		c1.6,0,2.4-1.4,2.8-2.6h-18c-1.9,0-2.4-0.7-3-1.6c-0.1-0.1-0.1-0.2-0.2-0.3C5.2,17.9,1.3,8.9,0.4,7C-0.1,5.7-0.1,4.6,0.4,3.9z
		 M28.4,29.5c0,2.2-1.7,3.9-3.9,3.9c-2.2,0-3.9-1.8-3.9-3.9c0-2.1,1.8-3.9,3.9-3.9C26.6,25.6,28.4,27.4,28.4,29.5z M26.8,29.5
		c0-1.3-1-2.3-2.3-2.3c-1.3,0-2.3,1-2.3,2.3c0,1.3,1,2.3,2.3,2.3C25.7,31.8,26.8,30.8,26.8,29.5z M12.5,29.5c0,2.2-1.7,3.9-3.9,3.9
		c-2.2,0-3.9-1.8-3.9-3.9c0-2.1,1.8-3.9,3.9-3.9C10.8,25.6,12.5,27.4,12.5,29.5z M10.9,29.5c0-1.3-1-2.3-2.3-2.3s-2.3,1-2.3,2.3
		c0,1.3,1,2.3,2.3,2.3C9.9,31.8,10.9,30.8,10.9,29.5z"/>
</g>
</svg>
