<?xml version="1.0" encoding="utf-8"?>
<!-- Generator: Adobe Illustrator 21.0.2, SVG Export Plug-In . SVG Version: 6.00 Build 0)  -->
<svg version="1.1" xmlns="http://www.w3.org/2000/svg" xmlns:xlink="http://www.w3.org/1999/xlink" x="0px" y="0px"
	 viewBox="0 0 34 34" style="enable-background:new 0 0 34 34;" xml:space="preserve">
<style type="text/css">
	.st0{display:none;}
	.st1{display:inline;}
	.st2{fill:#010002;}
</style>
<g id="Facebook_1_">
	<g>
		<path id="Facebook" d="M14.4,10.9c0,0.5,0,2.8,0,2.8h-2V17h2v10h4.1V17h2.8c0,0,0.3-1.6,0.4-3.4c-0.4,0-3.2,0-3.2,0s0-2,0-2.3
			c0-0.3,0.5-0.8,0.9-0.8c0.4,0,1.4,0,2.3,0c0-0.5,0-2,0-3.5c-1.2,0-2.5,0-3.1,0C14.2,7,14.4,10.4,14.4,10.9z"/>
	</g>
</g>
</svg>
