<?xml version="1.0" encoding="utf-8"?>
<!-- Generator: Adobe Illustrator 21.0.2, SVG Export Plug-In . SVG Version: 6.00 Build 0)  -->
<svg version="1.1" xmlns="http://www.w3.org/2000/svg" xmlns:xlink="http://www.w3.org/1999/xlink" x="0px" y="0px"
	 viewBox="0 0 34 34" style="enable-background:new 0 0 34 34;" xml:space="preserve">
<style type="text/css">
	.st0{display:none;}
	.st1{display:inline;}
	.st2{fill:#010002;}
</style>
<g id="G_x2B_">
	<g>
		<g>
			<g>
				<polygon points="25.2,15.6 25.2,12.9 23.9,12.9 23.9,15.6 21.1,15.6 21.1,17 23.9,17 23.9,19.8 25.2,19.8 25.2,17 28,17 
					28,15.6 				"/>
			</g>
		</g>
		<g>
			<g>
				<path d="M12.9,15.6v2.8h3.9c-0.6,1.6-2.1,2.8-3.9,2.8c-2.3,0-4.1-1.9-4.1-4.1s1.9-4.1,4.1-4.1c1,0,1.9,0.4,2.7,1l1.8-2.1
					c-1.2-1.1-2.8-1.7-4.5-1.7C9.1,10.1,6,13.2,6,17s3.1,6.9,6.9,6.9s6.9-3.1,6.9-6.9v-1.4H12.9z"/>
			</g>
		</g>
	</g>
</g>
</svg>
