<?xml version="1.0" encoding="UTF-8"?><!DOCTYPE svg PUBLIC "-//W3C//DTD SVG 1.1//EN" "http://www.w3.org/Graphics/SVG/1.1/DTD/svg11.dtd"><svg xmlns="http://www.w3.org/2000/svg"><defs><style>.cls-1{fill:#fff}.cls-2{fill:#8c0303}</style><style>.cls-1{fill:#8c0303}</style><style>.cls-1{fill:#fff}</style></defs><symbol id="arrow_left" viewBox="0 0 23 11"><style>.st0{fill:#1e201d}</style><path class="st0" d="M.2 5.1c-.2.2-.2.6 0 .8l5.1 4.9c.2.2.6.2.8 0 .2-.2.2-.6 0-.8L2 6h13.5c.3 0 .6-.3.6-.6s-.2-.6-.6-.6H1.9L6 .8c.2-.2.2-.6 0-.8-.2-.2-.6-.2-.8 0l-5 5.1z"/><path transform="rotate(-180 12 5.5)" class="st0" d="M1 4.9h22V6H1z"/></symbol><symbol id="arrow_right" viewBox="0 0 23 11"><style>.st0{fill:#1e201d}</style><path class="st0" d="M17.8.2c-.2-.2-.6-.2-.8 0-.2.2-.2.6 0 .8l4.1 4H7.6c-.4-.1-.6.2-.6.5s.2.6.6.6h13.5L17 10c-.2.2-.2.6 0 .8.2.2.6.2.8 0l5.1-4.9c.2-.2.2-.6 0-.8L17.8.2z"/><path class="st0" d="M0 4.9h22V6H0z"/></symbol><symbol id="basket" viewBox="0 0 40 34"><path d="M31.1 21.9v2.6c0 1.1-1.1 2-2.5 2H6c-2.7 0-4.8 1.7-4.8 3.8S3.4 34 6 34s4.8-1.7 4.8-3.8c0-.7-.2-1.4-.7-1.9h10.7c-.4.6-.7 1.2-.7 1.9 0 2.1 2.2 3.8 4.8 3.8s4.8-1.7 4.8-3.8c0-.7-.3-1.4-.7-2 2.4-.2 4.3-1.9 4.3-3.8V3.8l5.8-1.9c.6-.2.9-.8.6-1.2S39 0 38.3.2l-6.5 2.2h-.1-.1-.1-.1-.1v3.8L1 9.8H.9.8.7.6.4.3.2v8c0 2.1 2.2 3.8 4.9 3.8h23.7c.7.8 1.6.6 2.3.3zm-6 6.4c1.3 0 2.4.9 2.4 1.9 0 1.1-1.1 1.9-2.4 1.9s-2.4-.9-2.4-1.9c0-1.1 1.1-1.9 2.4-1.9zM6 28.3c1.3 0 2.4.9 2.4 1.9 0 1.1-1.1 1.9-2.4 1.9s-2.4-.9-2.4-1.9c0-1.1 1.1-1.9 2.4-1.9zm-3.6-9.7v-7l28.7-3.1v10.1c0 1.1-1.1 2-2.5 2H4.9c-1.4-.1-2.5-.9-2.5-2z"/></symbol><symbol id="credit-card" viewBox="0 0 42 34"><style>.st0{fill:#fff}</style><path class="st0" d="M38.6 0h-27C9.8 0 8.3 1.5 8.3 3.4v20.2c0 1.9 1.5 3.4 3.4 3.4h27c1.9 0 3.4-1.5 3.4-3.4V3.4C42 1.5 40.5 0 38.6 0zm0 23.6h-27V13.5h27v10.1zm0-16.8h-27V3.4h27v3.4zM0 10h3v24H0z"/><path class="st0" d="M0 31h32v3H0z"/></symbol><symbol id="facebook" viewBox="0 0 34 34"><style>.st0{display:none}.st1{display:inline}.st2{fill:#010002}</style><g id="Facebook_1_"><path id="Facebook" d="M14.4 10.9v2.8h-2V17h2v10h4.1V17h2.8s.3-1.6.4-3.4h-3.2v-2.3c0-.3.5-.8.9-.8h2.3V7h-3.1c-4.4 0-4.2 3.4-4.2 3.9z"/></g></symbol><symbol id="googleplus" viewBox="0 0 34 34"><style>.st0{display:none}.st1{display:inline}.st2{fill:#010002}</style><g id="G_x2B_"><path d="M25.2 15.6v-2.7h-1.3v2.7h-2.8V17h2.8v2.8h1.3V17H28v-1.4zM12.9 15.6v2.8h3.9c-.6 1.6-2.1 2.8-3.9 2.8-2.3 0-4.1-1.9-4.1-4.1s1.9-4.1 4.1-4.1c1 0 1.9.4 2.7 1l1.8-2.1c-1.2-1.1-2.8-1.7-4.5-1.7-3.8-.1-6.9 3-6.9 6.8s3.1 6.9 6.9 6.9 6.9-3.1 6.9-6.9v-1.4h-6.9z"/></g></symbol><symbol id="hammer" viewBox="0 0 50 60"><path d="M33.3 19.4c-.4 0-.7.3-.7.7v19.7c0 .4.3.7.7.7s.7-.3.7-.7V20.1c0-.4-.3-.7-.7-.7z"/><path d="M49.8 39.4l-2.1-2.5 1.3-3c.1-.3.1-.6-.1-.8l-2.1-2.5 1.3-3c.1-.3.1-.6-.1-.8l-2.1-2.5 1.3-3c.1-.3.1-.6-.1-.8L45 18l1.3-3c.1-.3.1-.6-.1-.8L44 11.9l1.3-3c.1-.3.1-.6-.1-.8l-2.4-2.8c-.2-.2-.4-.3-.6-.3h-8.9c-.4 0-.7.3-.7.7v11.9c0 .4.3.7.7.7s.7-.3.7-.7V6.5h7.8l1.9 2.2-1.3 3c-.1.3-.1.6.1.8l2.1 2.5-1.3 3c-.1.3-.1.6.1.8l2.1 2.5-1.3 3c-.1.3-.1.6.1.8l2.1 2.5-1.3 3c-.1.3-.1.6.1.8l2.1 2.5-1.3 3c-.1.3-.1.6.1.8l2.4 2.8c.1.2.4.3.6.3.2 0 .3-.1.5-.2.5-.4.5-.9.2-1.2zM49.2 41H31.8c-.4 0-.7.3-.7.7V50c0 3 2.4 5.4 5.4 5.4h8.2c3 0 5.4-2.4 5.4-5.4v-8.3c-.1-.3-.5-.7-.9-.7zm-.7 9.1c0 2.1-1.7 3.9-3.9 3.9h-8.2c-2.1 0-3.9-1.7-3.9-3.9v-7.6h15.9v7.6h.1z"/><path d="M45.9 45.8H35.1c-.4 0-.7.3-.7.7V50c0 1.1.9 2.1 2.1 2.1h8.2c1.1 0 2.1-.9 2.1-2.1v-3.5c-.1-.3-.5-.7-.9-.7zm-.7 4.3c0 .3-.3.6-.6.6h-8.2c-.3 0-.6-.3-.6-.6v-2.8h9.3l.1 2.8zM4.8 5.2H1.9C.9 5.2 0 6 0 7.1v7.3c0 1.1.9 1.9 1.9 1.9h2.8c1.1 0 1.9-.9 1.9-1.9V7.1c.1-1.1-.8-1.9-1.8-1.9zm0 9.6H1.9c-.2 0-.4-.2-.4-.4V7.1c0-.2.2-.4.4-.4h2.8c.2 0 .4.2.4.4v7.3c.1.2-.1.4-.3.4zM21.7 5.2H11.5c-2.2 0-4 1.8-4 4v3.1c0 2.2 1.8 4 4 4h9.7c.4 0 .7-.3.7-.7V12c2.1.3 3.9 1.8 4.4 3.9.1.3.4.6.7.6h2.4c.4 0 .7-.3.7-.7v-1.9c.1-4.9-3.7-8.7-8.4-8.7zm7 9.7h-1.1c-.9-2.7-3.5-4.5-6.4-4.5h-.1c-.4 0-.7.3-.7.7v3.7h-8.9c-1.4 0-2.5-1.1-2.5-2.5V9.2c0-1.4 1.1-2.5 2.5-2.5h10.1c3.9 0 7.1 3.2 7.1 7.1v1.1zM18.5 44.4c.4 0 .7-.3.7-.7V17.5c0-.4-.3-.7-.7-.7-.4 0-.7.3-.7.7v18.2h-4.6V17.5c0-.4-.3-.7-.7-.7s-.7.3-.7.7v37.2c0 .4.3.7.7.7h6.1c.4 0 .7-.3.7-.7v-8.6c0-.4-.3-.7-.7-.7s-.7.3-.7.7V54h-4.6V37.3h4.6v6.4c-.1.3.2.7.6.7z"/></symbol><symbol id="instagram" viewBox="0 0 34 34"><style>.st1{display:inline}.st2{fill:#010002}</style><g id="&#x421;&#x43B;&#x43E;&#x439;_2"><path d="M20.8 7h-7.5C9.8 7 7 9.8 7 13.2v7.5c0 3.5 2.8 6.2 6.2 6.2h7.5c3.5 0 6.2-2.8 6.2-6.2v-7.5C27 9.8 24.2 7 20.8 7zm4.3 13.8c0 2.4-2 4.4-4.4 4.4h-7.5c-2.4 0-4.4-2-4.4-4.4v-7.5c0-2.4 2-4.4 4.4-4.4h7.5c2.4 0 4.4 2 4.4 4.4v7.5z"/><path d="M17 12c-2.8 0-5 2.2-5 5s2.2 5 5 5 5-2.2 5-5-2.2-5-5-5zm0 8.1c-1.7 0-3.1-1.4-3.1-3.1 0-1.7 1.4-3.1 3.1-3.1s3.1 1.4 3.1 3.1c0 1.7-1.4 3.1-3.1 3.1z"/><circle cx="22.4" cy="11.6" r=".7"/></g></symbol><symbol id="list" viewBox="0 0 50 60"><path d="M13.7 12.9zM0 12.9c0 3.8 3.1 6.8 6.8 6.8h4.8v27.6c0 3.8 3.1 6.8 6.8 6.8h24.7c3.5 0 6.4-2.6 6.8-6.1.4-3.7-2.3-7.1-6-7.5V12.9c0-3.8-3.1-6.8-6.8-6.8H6.8c-3.7 0-6.8 3-6.8 6.8zm23.3 29.6h19.8c2.7 0 4.8 2.2 4.8 4.8 0 2.7-2.2 4.8-4.8 4.8H23.3c2.7-2.6 2.7-6.9 0-9.6zM11.7 8.1h25.4c2.6 0 4.8 2.2 4.8 4.8v27.6H18.5c-.6 0-1 .5-1 1s.5 1 1 1c2.7 0 4.8 2.2 4.8 4.8s-2.2 4.8-4.8 4.8-4.8-2.2-4.8-4.8V12.9c0-1.8-.7-3.5-2-4.8zM7.8 16h3.8v1.7H7.8V16zM2 12.9c0-2.7 2.1-4.8 4.8-4.8s4.8 2.1 4.8 4.8V14H6.8c-.6 0-1 .5-1 1v2.6c-2.2-.5-3.7-2.4-3.8-4.7z"/><path d="M19.5 17.1c0 .6.5 1 1 1h14.8c.6 0 1-.5 1-1 0-.6-.5-1-1-1H20.6c-.6 0-1.1.4-1.1 1zM19.5 24.3c0 .6.5 1 1 1h14.8c.6 0 1-.5 1-1 0-.6-.5-1-1-1H20.6c-.6 0-1.1.4-1.1 1z"/><g><path d="M19.5 31.5c0 .6.5 1 1 1h14.8c.6 0 1-.5 1-1s-.5-1-1-1H20.6c-.6 0-1.1.4-1.1 1z"/></g></symbol><symbol id="logo_dark" viewBox="0 0 180 56"><title>logo_dark</title><path class="cls-1" d="M.24 29.19h1.08a5.81 5.81 0 0 0 .54 2.18 4.75 4.75 0 0 0 1.2 1.56 5.07 5.07 0 0 0 1.73 1 6.75 6.75 0 0 0 2.11.32A5.4 5.4 0 0 0 8.47 34a3.92 3.92 0 0 0 1.3-.67 3.2 3.2 0 0 0 .89-1.1A3.33 3.33 0 0 0 11 30.7a3.28 3.28 0 0 0-.46-1.76 4.8 4.8 0 0 0-1.21-1.31 10.07 10.07 0 0 0-1.72-1l-2-.92q-1-.46-2-1A8.63 8.63 0 0 1 2 23.53 5.35 5.35 0 0 1 .75 22a4.71 4.71 0 0 1-.45-2.19 5.24 5.24 0 0 1 .11-1 4.9 4.9 0 0 1 .37-1.1 5.08 5.08 0 0 1 .68-1.07 4.19 4.19 0 0 1 1.06-.91A5.65 5.65 0 0 1 4 15.08a7.82 7.82 0 0 1 2-.23 10.68 10.68 0 0 1 1.18.07 9 9 0 0 1 1.27.24 8.12 8.12 0 0 1 1.28.45 6.54 6.54 0 0 1 1.22.72l-.11-1.23h1.46v6.17h-1a7.64 7.64 0 0 0-.4-2 5.13 5.13 0 0 0-.95-1.68 4.69 4.69 0 0 0-1.55-1.15A4.91 4.91 0 0 0 6.24 16a4 4 0 0 0-1.51.27 3.19 3.19 0 0 0-1.09.73A3 3 0 0 0 3 18a3.48 3.48 0 0 0-.23 1.25 3 3 0 0 0 .45 1.66 4.74 4.74 0 0 0 1.2 1.25 10.42 10.42 0 0 0 1.7 1l1.88.93q1 .46 2 1a8.91 8.91 0 0 1 1.74 1.22A5.53 5.53 0 0 1 13 27.9a4.72 4.72 0 0 1 .47 2.16 5.07 5.07 0 0 1-.47 2.13 4.67 4.67 0 0 1-1.29 1.67A6.14 6.14 0 0 1 9.61 35a9.32 9.32 0 0 1-2.83.39 10.28 10.28 0 0 1-1.3-.09 10.54 10.54 0 0 1-1.32-.3 8.79 8.79 0 0 1-1.26-.44 7.35 7.35 0 0 1-1.13-.62l.09 1.18H.41zM21.51 25.11a11.46 11.46 0 0 1 .26-2.4 11 11 0 0 1 .79-2.36 10.39 10.39 0 0 1 1.34-2.14 9.09 9.09 0 0 1 1.89-1.75 9 9 0 0 1 2.45-1.18 10 10 0 0 1 3-.43 10.4 10.4 0 0 1 3.11.44 9.58 9.58 0 0 1 2.51 1.18 8.72 8.72 0 0 1 1.92 1.75 10.67 10.67 0 0 1 1.35 2.15 10.9 10.9 0 0 1 .87 7.11 11.51 11.51 0 0 1-.79 2.35A10.31 10.31 0 0 1 38.84 32a8.9 8.9 0 0 1-1.89 1.75 9.21 9.21 0 0 1-2.45 1.19 9.8 9.8 0 0 1-3 .44 11.27 11.27 0 0 1-3.21-.42 9.47 9.47 0 0 1-2.54-1.15 8.33 8.33 0 0 1-1.91-1.72 9.78 9.78 0 0 1-1.31-2.12 10.89 10.89 0 0 1-.76-2.37 12.52 12.52 0 0 1-.26-2.49zm2.75-.51a12.65 12.65 0 0 0 .19 2.15 12.47 12.47 0 0 0 .55 2.18 11.07 11.07 0 0 0 1 2 7.39 7.39 0 0 0 1.41 1.68 6.53 6.53 0 0 0 1.83 1.14 5.88 5.88 0 0 0 2.28.42 6 6 0 0 0 3.83-1.3 6.73 6.73 0 0 0 1.34-1.43 9 9 0 0 0 1-1.78 10.47 10.47 0 0 0 .58-2 11.24 11.24 0 0 0 .2-2 12.9 12.9 0 0 0-.22-2.24 12 12 0 0 0-.64-2.3 11 11 0 0 0-1-2 7.65 7.65 0 0 0-1.42-1.62 6.4 6.4 0 0 0-1.8-1.09 5.75 5.75 0 0 0-2.15-.4 5.84 5.84 0 0 0-3 .76 6.85 6.85 0 0 0-2.16 2 9 9 0 0 0-1.29 2.76 11.4 11.4 0 0 0-.53 3.08zM49.5 34.9V34a2.33 2.33 0 0 0 1.19-.29 1.39 1.39 0 0 0 .56-.71 3.26 3.26 0 0 0 .17-1.07V18.44v-1.09q0-.52.08-.94l-2 .12V15.3h6.3v.93a2.3 2.3 0 0 0-1.19.29 1.43 1.43 0 0 0-.56.72 3.22 3.22 0 0 0-.17 1.07V32.98a8.1 8.1 0 0 1-.08.89l5.2-.09a4.37 4.37 0 0 0 1.55-.28 2.68 2.68 0 0 0 1.13-.83 3.82 3.82 0 0 0 .68-1.44 8.45 8.45 0 0 0 .23-2.13h.94l-.16 5.8zM71.43 34.9V34a2.46 2.46 0 0 0 1.06-.21 1.34 1.34 0 0 0 .58-.54 2.08 2.08 0 0 0 .24-.81V18.42v-1.1q0-.52.08-.95l-2 .16V15.3h13.5l.11 4.9h-.92a5.94 5.94 0 0 0-.28-2 3 3 0 0 0-.73-1.2 2.56 2.56 0 0 0-1.14-.6 6 6 0 0 0-1.42-.16h-2.58a3.27 3.27 0 0 0-1.21.25 1.33 1.33 0 0 0-.64.61 2.58 2.58 0 0 0-.24 1v6.02h5.25l-.21-2.42h1.24v5.89h-.92a4.77 4.77 0 0 0-.2-1.24 1.55 1.55 0 0 0-.45-.75 1.57 1.57 0 0 0-.78-.35 6.79 6.79 0 0 0-1.14-.08h-.4l-2.46.1V32.99a8 8 0 0 1-.08.88l5.36-.08a6.31 6.31 0 0 0 1.65-.22 3 3 0 0 0 1.3-.73 3.27 3.27 0 0 0 .81-1.33 6.4 6.4 0 0 0 .29-2.07h1l-.16 5.46zM94.64 34.9V34a1.94 1.94 0 0 0 1-.22 1.53 1.53 0 0 0 .55-.55 1.91 1.91 0 0 0 .23-.71 5.51 5.51 0 0 0 0-.71V16.46l-1.87.12V15.3H98l11.92 16V18.49q0-1.18.08-2l-2 .12V15.3h5.15v.93a2.26 2.26 0 0 0-1.18.29 1.44 1.44 0 0 0-.55.72 3.08 3.08 0 0 0-.15 1v1.42l-.05 15.68h-1.32L97.74 19l.1 12V33.78l2-.12v1.24zM121.67 34.9V34a2.46 2.46 0 0 0 1.06-.21 1.35 1.35 0 0 0 .58-.54 2.07 2.07 0 0 0 .24-.81 10.06 10.06 0 0 0 0-1V18.42v-1.1c0-.35 0-.66.08-.95l-2 .16V15.3h13.47l.14 4.91h-.92a5.91 5.91 0 0 0-.28-2 3 3 0 0 0-.77-1.22 2.55 2.55 0 0 0-1.14-.6 6 6 0 0 0-1.42-.16h-2.58a3.27 3.27 0 0 0-1.21.25 1.33 1.33 0 0 0-.63.61 2.6 2.6 0 0 0-.24 1v6.02h5.25l-.21-2.42h1.24v5.89h-.92a4.76 4.76 0 0 0-.14-1.31 1.55 1.55 0 0 0-.45-.75 1.57 1.57 0 0 0-.78-.35 6.78 6.78 0 0 0-1.14-.08h-.4l-2.46.1V32.91a8.33 8.33 0 0 1-.07.88l5.36-.08a6.32 6.32 0 0 0 1.65-.22 3 3 0 0 0 1.26-.71 3.26 3.26 0 0 0 .81-1.33 6.4 6.4 0 0 0 .29-2.07h1l-.16 5.46zM144.91 29.19H146a5.81 5.81 0 0 0 .54 2.18 4.77 4.77 0 0 0 1.2 1.56 5.07 5.07 0 0 0 1.73 1 6.75 6.75 0 0 0 2.11.32 5.39 5.39 0 0 0 1.58-.22 3.93 3.93 0 0 0 1.3-.67 3.22 3.22 0 0 0 .89-1.1 3.34 3.34 0 0 0 .33-1.5 3.26 3.26 0 0 0-.46-1.76 4.76 4.76 0 0 0-1.22-1.37 10.07 10.07 0 0 0-1.72-1l-2-.92q-1-.46-2-1a8.61 8.61 0 0 1-1.71-1.19 5.36 5.36 0 0 1-1.15-1.52 4.7 4.7 0 0 1-.46-2.15 5.34 5.34 0 0 1 .11-1 5 5 0 0 1 .37-1.1 5 5 0 0 1 .68-1.07 4.18 4.18 0 0 1 1.06-.91 5.65 5.65 0 0 1 1.51-.63 7.84 7.84 0 0 1 2-.23 10.69 10.69 0 0 1 1.18.07 9 9 0 0 1 1.27.24 8.14 8.14 0 0 1 1.28.45 6.55 6.55 0 0 1 1.22.72l-.11-1.23H157v6.17h-1a7.6 7.6 0 0 0-.4-2 5.12 5.12 0 0 0-.95-1.68 4.7 4.7 0 0 0-1.54-1.18 4.92 4.92 0 0 0-2.21-.47 4 4 0 0 0-1.51.27 3.18 3.18 0 0 0-1.09.72 3 3 0 0 0-.67 1 3.46 3.46 0 0 0-.23 1.25 3 3 0 0 0 .46 1.66 4.72 4.72 0 0 0 1.2 1.25 10.48 10.48 0 0 0 1.7 1l1.94.91q1 .46 2 1a8.91 8.91 0 0 1 1.74 1.22 5.48 5.48 0 0 1 1.23 1.61 4.71 4.71 0 0 1 .47 2.16 5.05 5.05 0 0 1-.45 2.13 4.68 4.68 0 0 1-1.29 1.67 6.15 6.15 0 0 1-2.13 1.15 9.33 9.33 0 0 1-2.83.39 10.31 10.31 0 0 1-1.3-.09 10.56 10.56 0 0 1-1.32-.26 8.82 8.82 0 0 1-1.27-.44 7.39 7.39 0 0 1-1.13-.62l.09 1.18h-1.45zM166.52 29.19h1.08a5.85 5.85 0 0 0 .54 2.18 4.75 4.75 0 0 0 1.2 1.56 5.06 5.06 0 0 0 1.72 1 6.76 6.76 0 0 0 2.11.32 5.38 5.38 0 0 0 1.57-.22 3.91 3.91 0 0 0 1.3-.67 3.2 3.2 0 0 0 .89-1.1 3.31 3.31 0 0 0 .33-1.5 3.28 3.28 0 0 0-.46-1.76 4.82 4.82 0 0 0-1.21-1.31 10.07 10.07 0 0 0-1.72-1l-2-.92q-1-.46-2-1a8.65 8.65 0 0 1-1.71-1.19A5.36 5.36 0 0 1 167 22a4.72 4.72 0 0 1-.46-2.15 5.2 5.2 0 0 1 .11-1 5 5 0 0 1 .37-1.1 5.1 5.1 0 0 1 .68-1.07 4.18 4.18 0 0 1 1.06-.91 5.66 5.66 0 0 1 1.51-.63 7.82 7.82 0 0 1 2-.23 10.66 10.66 0 0 1 1.18.07 9 9 0 0 1 1.27.24 8.1 8.1 0 0 1 1.29.45 6.53 6.53 0 0 1 1.22.72l-.11-1.23h1.42v6.17h-1a7.6 7.6 0 0 0-.39-2 5.15 5.15 0 0 0-.95-1.68 4.7 4.7 0 0 0-1.54-1.18 4.9 4.9 0 0 0-2.16-.44 4 4 0 0 0-1.51.27 3.17 3.17 0 0 0-1.1.72 3.05 3.05 0 0 0-.67 1 3.5 3.5 0 0 0-.23 1.25 3 3 0 0 0 .46 1.66 4.72 4.72 0 0 0 1.2 1.25 10.48 10.48 0 0 0 1.7 1l1.94.91q1 .46 2 1a8.91 8.91 0 0 1 1.71 1.2 5.52 5.52 0 0 1 1.23 1.61 4.71 4.71 0 0 1 .46 2.16 5.08 5.08 0 0 1-.44 2.13 4.67 4.67 0 0 1-1.25 1.67 6.15 6.15 0 0 1-2.12 1.14 9.31 9.31 0 0 1-2.83.39 10.26 10.26 0 0 1-1.3-.09 10.52 10.52 0 0 1-1.32-.26 8.8 8.8 0 0 1-1.26-.44 7.41 7.41 0 0 1-1.13-.62l.09 1.18h-1.45z"/><g><path class="cls-1" d="M77.61 56v-.37a.74.74 0 0 0 .4-.1.82.82 0 0 0 .26-.28 2.62 2.62 0 0 0 .2-.43l.2-.56L80.93 48h.26l2.45 6.26c0 .08.07.17.1.27l.1.33a2.72 2.72 0 0 1 .07.33 1.48 1.48 0 0 1 0 .28h.75V56h-2.49v-.37a.79.79 0 0 0 .45-.11.45.45 0 0 0 .18-.26.74.74 0 0 0 0-.33 2.17 2.17 0 0 0-.1-.33l-.39-1-2.86.06q-.12.32-.21.6l-.18.55L79 55l-.06.19-.06.17-.07.17h.86V56zm2-2.85h2.55L81.39 51l-.49-1.35-.46 1.25-.44 1.25zM86.82 56v-.37a.91.91 0 0 0 .47-.11.55.55 0 0 0 .22-.28 1.27 1.27 0 0 0 .07-.42v-5.33-.43-.37h-.79v-.48h2.52a6.39 6.39 0 0 1 1.36.15 2.75 2.75 0 0 1 .93.39 1.54 1.54 0 0 1 .53.61 1.88 1.88 0 0 1 .17.81 2.63 2.63 0 0 1-.09.66 1.74 1.74 0 0 1-.32.64 2.18 2.18 0 0 1-.63.54 3.33 3.33 0 0 1-1 .37 1.69 1.69 0 0 1 .39.4c.12.16.24.35.38.56l.75 1.18.27.41a1.85 1.85 0 0 0 .28.33 1.24 1.24 0 0 0 .34.22 1.16 1.16 0 0 0 .45.08V56h-1.38a3.64 3.64 0 0 1-.29-.28l-.24-.29-.21-.35-.23-.34-.77-1.18-.16-.25-.15-.31-.19-.27a2.12 2.12 0 0 0-.21-.24h-.74V55.13a3 3 0 0 1 0 .35h.79V56zm1.72-3.87H89.22A3.66 3.66 0 0 0 90 52a1.78 1.78 0 0 0 .64-.31 1.41 1.41 0 0 0 .42-.54 2 2 0 0 0 .15-.81 1.58 1.58 0 0 0-.48-1.25 2.2 2.2 0 0 0-1.49-.42.93.93 0 0 0-.47.09.51.51 0 0 0-.22.27 1.22 1.22 0 0 0-.07.41v.54zM95 50.58l.06-2.33h6.41l.06 2.33h-.41a5.57 5.57 0 0 0-.08-.85 1.56 1.56 0 0 0-.22-.6 1 1 0 0 0-.43-.36 1.78 1.78 0 0 0-.7-.12h-.93v6a8.35 8.35 0 0 1 0 .87h.91V56h-2.61v-.37a.84.84 0 0 0 .46-.12.58.58 0 0 0 .22-.29 1.28 1.28 0 0 0 .06-.42v-6.08h-1.12a1.36 1.36 0 0 0-.59.11 1 1 0 0 0-.39.35 1.67 1.67 0 0 0-.22.59 4.6 4.6 0 0 0-.07.84z"/></g><path class="cls-2" d="M0 0h180v1H0zM23 52h41v1H23zM114 52h41v1h-41z"/></symbol><symbol id="logo_white" viewBox="0 0 180 56"><title>logo_white</title><path d="M.24 29.19h1.08a5.81 5.81 0 0 0 .54 2.18 4.75 4.75 0 0 0 1.2 1.56 5.07 5.07 0 0 0 1.73 1 6.75 6.75 0 0 0 2.11.32A5.4 5.4 0 0 0 8.47 34a3.92 3.92 0 0 0 1.3-.67 3.2 3.2 0 0 0 .89-1.1A3.33 3.33 0 0 0 11 30.7a3.28 3.28 0 0 0-.46-1.76 4.8 4.8 0 0 0-1.21-1.31 10.07 10.07 0 0 0-1.72-1l-2-.92q-1-.46-2-1A8.63 8.63 0 0 1 2 23.53 5.35 5.35 0 0 1 .75 22a4.71 4.71 0 0 1-.45-2.19 5.24 5.24 0 0 1 .11-1 4.9 4.9 0 0 1 .37-1.1 5.08 5.08 0 0 1 .68-1.07 4.19 4.19 0 0 1 1.06-.91A5.65 5.65 0 0 1 4 15.08a7.82 7.82 0 0 1 2-.23 10.68 10.68 0 0 1 1.18.07 9 9 0 0 1 1.27.24 8.12 8.12 0 0 1 1.28.45 6.54 6.54 0 0 1 1.22.72l-.11-1.23h1.46v6.17h-1a7.64 7.64 0 0 0-.4-2 5.13 5.13 0 0 0-.95-1.68 4.69 4.69 0 0 0-1.55-1.15A4.91 4.91 0 0 0 6.24 16a4 4 0 0 0-1.51.27 3.19 3.19 0 0 0-1.09.73A3 3 0 0 0 3 18a3.48 3.48 0 0 0-.23 1.25 3 3 0 0 0 .45 1.66 4.74 4.74 0 0 0 1.2 1.25 10.42 10.42 0 0 0 1.7 1l1.88.93q1 .46 2 1a8.91 8.91 0 0 1 1.74 1.22A5.53 5.53 0 0 1 13 27.9a4.72 4.72 0 0 1 .47 2.16 5.07 5.07 0 0 1-.47 2.13 4.67 4.67 0 0 1-1.29 1.67A6.14 6.14 0 0 1 9.61 35a9.32 9.32 0 0 1-2.83.39 10.28 10.28 0 0 1-1.3-.09 10.54 10.54 0 0 1-1.32-.3 8.79 8.79 0 0 1-1.26-.44 7.35 7.35 0 0 1-1.13-.62l.09 1.18H.41zM21.51 25.11a11.46 11.46 0 0 1 .26-2.4 11 11 0 0 1 .79-2.36 10.39 10.39 0 0 1 1.34-2.14 9.09 9.09 0 0 1 1.89-1.75 9 9 0 0 1 2.45-1.18 10 10 0 0 1 3-.43 10.4 10.4 0 0 1 3.11.44 9.58 9.58 0 0 1 2.51 1.18 8.72 8.72 0 0 1 1.92 1.75 10.67 10.67 0 0 1 1.35 2.15 10.9 10.9 0 0 1 .87 7.11 11.51 11.51 0 0 1-.79 2.35A10.31 10.31 0 0 1 38.84 32a8.9 8.9 0 0 1-1.89 1.75 9.21 9.21 0 0 1-2.45 1.19 9.8 9.8 0 0 1-3 .44 11.27 11.27 0 0 1-3.21-.42 9.47 9.47 0 0 1-2.54-1.15 8.33 8.33 0 0 1-1.91-1.72 9.78 9.78 0 0 1-1.31-2.12 10.89 10.89 0 0 1-.76-2.37 12.52 12.52 0 0 1-.26-2.49zm2.75-.51a12.65 12.65 0 0 0 .19 2.15 12.47 12.47 0 0 0 .55 2.18 11.07 11.07 0 0 0 1 2 7.39 7.39 0 0 0 1.41 1.68 6.53 6.53 0 0 0 1.83 1.14 5.88 5.88 0 0 0 2.28.42 6 6 0 0 0 3.83-1.3 6.73 6.73 0 0 0 1.34-1.43 9 9 0 0 0 1-1.78 10.47 10.47 0 0 0 .58-2 11.24 11.24 0 0 0 .2-2 12.9 12.9 0 0 0-.22-2.24 12 12 0 0 0-.64-2.3 11 11 0 0 0-1-2 7.65 7.65 0 0 0-1.42-1.62 6.4 6.4 0 0 0-1.8-1.09 5.75 5.75 0 0 0-2.15-.4 5.84 5.84 0 0 0-3 .76 6.85 6.85 0 0 0-2.16 2 9 9 0 0 0-1.29 2.76 11.4 11.4 0 0 0-.53 3.08zM49.5 34.9V34a2.33 2.33 0 0 0 1.19-.29 1.39 1.39 0 0 0 .56-.71 3.26 3.26 0 0 0 .17-1.07V18.44v-1.09q0-.52.08-.94l-2 .12V15.3h6.3v.93a2.3 2.3 0 0 0-1.19.29 1.43 1.43 0 0 0-.56.72 3.22 3.22 0 0 0-.17 1.07V32.98a8.1 8.1 0 0 1-.08.89l5.2-.09a4.37 4.37 0 0 0 1.55-.28 2.68 2.68 0 0 0 1.13-.83 3.82 3.82 0 0 0 .68-1.44 8.45 8.45 0 0 0 .23-2.13h.94l-.16 5.8zM71.43 34.9V34a2.46 2.46 0 0 0 1.06-.21 1.34 1.34 0 0 0 .58-.54 2.08 2.08 0 0 0 .24-.81V18.42v-1.1q0-.52.08-.95l-2 .16V15.3h13.5l.11 4.9h-.92a5.94 5.94 0 0 0-.28-2 3 3 0 0 0-.73-1.2 2.56 2.56 0 0 0-1.14-.6 6 6 0 0 0-1.42-.16h-2.58a3.27 3.27 0 0 0-1.21.25 1.33 1.33 0 0 0-.64.61 2.58 2.58 0 0 0-.24 1v6.02h5.25l-.21-2.42h1.24v5.89h-.92a4.77 4.77 0 0 0-.2-1.24 1.55 1.55 0 0 0-.45-.75 1.57 1.57 0 0 0-.78-.35 6.79 6.79 0 0 0-1.14-.08h-.4l-2.46.1V32.99a8 8 0 0 1-.08.88l5.36-.08a6.31 6.31 0 0 0 1.65-.22 3 3 0 0 0 1.3-.73 3.27 3.27 0 0 0 .81-1.33 6.4 6.4 0 0 0 .29-2.07h1l-.16 5.46zM94.64 34.9V34a1.94 1.94 0 0 0 1-.22 1.53 1.53 0 0 0 .55-.55 1.91 1.91 0 0 0 .23-.71 5.51 5.51 0 0 0 0-.71V16.46l-1.87.12V15.3H98l11.92 16V18.49q0-1.18.08-2l-2 .12V15.3h5.15v.93a2.26 2.26 0 0 0-1.18.29 1.44 1.44 0 0 0-.55.72 3.08 3.08 0 0 0-.15 1v1.42l-.05 15.68h-1.32L97.74 19l.1 12V33.78l2-.12v1.24zM121.67 34.9V34a2.46 2.46 0 0 0 1.06-.21 1.35 1.35 0 0 0 .58-.54 2.07 2.07 0 0 0 .24-.81 10.06 10.06 0 0 0 0-1V18.42v-1.1c0-.35 0-.66.08-.95l-2 .16V15.3h13.47l.14 4.91h-.92a5.91 5.91 0 0 0-.28-2 3 3 0 0 0-.77-1.22 2.55 2.55 0 0 0-1.14-.6 6 6 0 0 0-1.42-.16h-2.58a3.27 3.27 0 0 0-1.21.25 1.33 1.33 0 0 0-.63.61 2.6 2.6 0 0 0-.24 1v6.02h5.25l-.21-2.42h1.24v5.89h-.92a4.76 4.76 0 0 0-.14-1.31 1.55 1.55 0 0 0-.45-.75 1.57 1.57 0 0 0-.78-.35 6.78 6.78 0 0 0-1.14-.08h-.4l-2.46.1V32.91a8.33 8.33 0 0 1-.07.88l5.36-.08a6.32 6.32 0 0 0 1.65-.22 3 3 0 0 0 1.26-.71 3.26 3.26 0 0 0 .81-1.33 6.4 6.4 0 0 0 .29-2.07h1l-.16 5.46zM144.91 29.19H146a5.81 5.81 0 0 0 .54 2.18 4.77 4.77 0 0 0 1.2 1.56 5.07 5.07 0 0 0 1.73 1 6.75 6.75 0 0 0 2.11.32 5.39 5.39 0 0 0 1.58-.22 3.93 3.93 0 0 0 1.3-.67 3.22 3.22 0 0 0 .89-1.1 3.34 3.34 0 0 0 .33-1.5 3.26 3.26 0 0 0-.46-1.76 4.76 4.76 0 0 0-1.22-1.37 10.07 10.07 0 0 0-1.72-1l-2-.92q-1-.46-2-1a8.61 8.61 0 0 1-1.71-1.19 5.36 5.36 0 0 1-1.15-1.52 4.7 4.7 0 0 1-.46-2.15 5.34 5.34 0 0 1 .11-1 5 5 0 0 1 .37-1.1 5 5 0 0 1 .68-1.07 4.18 4.18 0 0 1 1.06-.91 5.65 5.65 0 0 1 1.51-.63 7.84 7.84 0 0 1 2-.23 10.69 10.69 0 0 1 1.18.07 9 9 0 0 1 1.27.24 8.14 8.14 0 0 1 1.28.45 6.55 6.55 0 0 1 1.22.72l-.11-1.23H157v6.17h-1a7.6 7.6 0 0 0-.4-2 5.12 5.12 0 0 0-.95-1.68 4.7 4.7 0 0 0-1.54-1.18 4.92 4.92 0 0 0-2.21-.47 4 4 0 0 0-1.51.27 3.18 3.18 0 0 0-1.09.72 3 3 0 0 0-.67 1 3.46 3.46 0 0 0-.23 1.25 3 3 0 0 0 .46 1.66 4.72 4.72 0 0 0 1.2 1.25 10.48 10.48 0 0 0 1.7 1l1.94.91q1 .46 2 1a8.91 8.91 0 0 1 1.74 1.22 5.48 5.48 0 0 1 1.23 1.61 4.71 4.71 0 0 1 .47 2.16 5.05 5.05 0 0 1-.45 2.13 4.68 4.68 0 0 1-1.29 1.67 6.15 6.15 0 0 1-2.13 1.15 9.33 9.33 0 0 1-2.83.39 10.31 10.31 0 0 1-1.3-.09 10.56 10.56 0 0 1-1.32-.26 8.82 8.82 0 0 1-1.27-.44 7.39 7.39 0 0 1-1.13-.62l.09 1.18h-1.45zM166.52 29.19h1.08a5.85 5.85 0 0 0 .54 2.18 4.75 4.75 0 0 0 1.2 1.56 5.06 5.06 0 0 0 1.72 1 6.76 6.76 0 0 0 2.11.32 5.38 5.38 0 0 0 1.57-.22 3.91 3.91 0 0 0 1.3-.67 3.2 3.2 0 0 0 .89-1.1 3.31 3.31 0 0 0 .33-1.5 3.28 3.28 0 0 0-.46-1.76 4.82 4.82 0 0 0-1.21-1.31 10.07 10.07 0 0 0-1.72-1l-2-.92q-1-.46-2-1a8.65 8.65 0 0 1-1.71-1.19A5.36 5.36 0 0 1 167 22a4.72 4.72 0 0 1-.46-2.15 5.2 5.2 0 0 1 .11-1 5 5 0 0 1 .37-1.1 5.1 5.1 0 0 1 .68-1.07 4.18 4.18 0 0 1 1.06-.91 5.66 5.66 0 0 1 1.51-.63 7.82 7.82 0 0 1 2-.23 10.66 10.66 0 0 1 1.18.07 9 9 0 0 1 1.27.24 8.1 8.1 0 0 1 1.29.45 6.53 6.53 0 0 1 1.22.72l-.11-1.23h1.42v6.17h-1a7.6 7.6 0 0 0-.39-2 5.15 5.15 0 0 0-.95-1.68 4.7 4.7 0 0 0-1.54-1.18 4.9 4.9 0 0 0-2.16-.44 4 4 0 0 0-1.51.27 3.17 3.17 0 0 0-1.1.72 3.05 3.05 0 0 0-.67 1 3.5 3.5 0 0 0-.23 1.25 3 3 0 0 0 .46 1.66 4.72 4.72 0 0 0 1.2 1.25 10.48 10.48 0 0 0 1.7 1l1.94.91q1 .46 2 1a8.91 8.91 0 0 1 1.71 1.2 5.52 5.52 0 0 1 1.23 1.61 4.71 4.71 0 0 1 .46 2.16 5.08 5.08 0 0 1-.44 2.13 4.67 4.67 0 0 1-1.25 1.67 6.15 6.15 0 0 1-2.12 1.14 9.31 9.31 0 0 1-2.83.39 10.26 10.26 0 0 1-1.3-.09 10.52 10.52 0 0 1-1.32-.26 8.8 8.8 0 0 1-1.26-.44 7.41 7.41 0 0 1-1.13-.62l.09 1.18h-1.45z"/><g><path d="M77.61 56v-.37a.74.74 0 0 0 .4-.1.82.82 0 0 0 .26-.28 2.62 2.62 0 0 0 .2-.43l.2-.56L80.93 48h.26l2.45 6.26c0 .08.07.17.1.27l.1.33a2.72 2.72 0 0 1 .07.33 1.48 1.48 0 0 1 0 .28h.75V56h-2.49v-.37a.79.79 0 0 0 .45-.11.45.45 0 0 0 .18-.26.74.74 0 0 0 0-.33 2.17 2.17 0 0 0-.1-.33l-.39-1-2.86.06q-.12.32-.21.6l-.18.55L79 55l-.06.19-.06.17-.07.17h.86V56zm2-2.85h2.55L81.39 51l-.49-1.35-.46 1.25-.44 1.25zM86.82 56v-.37a.91.91 0 0 0 .47-.11.55.55 0 0 0 .22-.28 1.27 1.27 0 0 0 .07-.42v-5.33-.43-.37h-.79v-.48h2.52a6.39 6.39 0 0 1 1.36.15 2.75 2.75 0 0 1 .93.39 1.54 1.54 0 0 1 .53.61 1.88 1.88 0 0 1 .17.81 2.63 2.63 0 0 1-.09.66 1.74 1.74 0 0 1-.32.64 2.18 2.18 0 0 1-.63.54 3.33 3.33 0 0 1-1 .37 1.69 1.69 0 0 1 .39.4c.12.16.24.35.38.56l.75 1.18.27.41a1.85 1.85 0 0 0 .28.33 1.24 1.24 0 0 0 .34.22 1.16 1.16 0 0 0 .45.08V56h-1.38a3.64 3.64 0 0 1-.29-.28l-.24-.29-.21-.35-.23-.34-.77-1.18-.16-.25-.15-.31-.19-.27a2.12 2.12 0 0 0-.21-.24h-.74V55.13a3 3 0 0 1 0 .35h.79V56zm1.72-3.87H89.22A3.66 3.66 0 0 0 90 52a1.78 1.78 0 0 0 .64-.31 1.41 1.41 0 0 0 .42-.54 2 2 0 0 0 .15-.81 1.58 1.58 0 0 0-.48-1.25 2.2 2.2 0 0 0-1.49-.42.93.93 0 0 0-.47.09.51.51 0 0 0-.22.27 1.22 1.22 0 0 0-.07.41v.54zM95 50.58l.06-2.33h6.41l.06 2.33h-.41a5.57 5.57 0 0 0-.08-.85 1.56 1.56 0 0 0-.22-.6 1 1 0 0 0-.43-.36 1.78 1.78 0 0 0-.7-.12h-.93v6a8.35 8.35 0 0 1 0 .87h.91V56h-2.61v-.37a.84.84 0 0 0 .46-.12.58.58 0 0 0 .22-.29 1.28 1.28 0 0 0 .06-.42v-6.08h-1.12a1.36 1.36 0 0 0-.59.11 1 1 0 0 0-.39.35 1.67 1.67 0 0 0-.22.59 4.6 4.6 0 0 0-.07.84z"/></g><path class="cls-1" d="M0 0h180v1H0zM23 52h41v1H23zM114 52h41v1h-41z"/></symbol><symbol id="plane" viewBox="0 0 50 60"><path d="M50 22.5c0 8.6-41.7 18.2-44.9 18.2-1.8 0-3.8-.4-3.8-2 0-.5.6-1.3 1.7-2.3L.1 31.2c-.4-.7-.1-1.6.7-1.9l.5-.2c.9-.4 1.9-.3 2.8.1L9.4 32c2.1-1.2 4.4-2.5 6.9-3.8L6 21.6c-.8-.5-.8-1.7 0-2.3l.8-.5c1.4-.9 3.1-1.1 4.7-.7l17.2 4.5C34.2 20.5 39 19 41.9 19c.8 0 1.5 0 2.3.1L39 21.5l-.1 1.7 8-3.7c1.9.5 3.1 1.3 3.1 3zm-21 15l6.4 7.3c.4.4 1 .6 1.6.3l.9-.4c1.6-.7 2.5-2.4 2.3-4.1l-.8-6.9c0-.4-.5-.7-.9-.6l-9.2 3.2c-.4.3-.6.8-.3 1.2z"/></symbol><symbol id="return" viewBox="0 0 50 60"><path d="M39.5 4.8c-.1-.1-.3-.2-.5-.2h-.7c-.2 0-.5.1-.6.3-.4.4-.3.9.1 1.2 3.7 3.4 5 7.6 3.4 11.4C39.4 22.1 34 25 27.7 25V15c0-.2-.1-.4-.2-.5-.3-.4-.8-.5-1.2-.2L.4 33l-.2.2c-.3.4-.2.9.2 1.2l26 18.8c.2.1.4.2.5.2.5 0 .9-.4.9-.9V42.4c10.2-.2 18.7-6.1 21.4-14.7 2.6-8.4-1.1-17.2-9.7-22.9z"/></symbol><symbol id="search" viewBox="0 0 23 23"><path d="M23 21.2l-6.8-6.8C17.3 12.9 18 11 18 9c0-5-4-9-9-9S0 4 0 9s4 9 9 9c2 0 3.9-.7 5.4-1.8l6.8 6.8 1.8-1.8zM.9 9C.9 4.5 4.6.9 9 .9s8.1 3.7 8.1 8.1-3.7 8.1-8.1 8.1S.9 13.5.9 9zm14.4 6.5c.1-.1.2-.1.2-.2l.2-.2 6.1 6.1-.6.6-6.1-6.1c0-.1.1-.2.2-.2z"/></symbol><symbol id="shell" viewBox="0 0 50 60"><path d="M49.4 35.7h-16c-.1 1.6-.5 3.2-1.3 4.6l10.6 10.6c3.7-4.1 6.1-9.5 6.7-15.2zM17.9 23.6l.8 4.9c3.9-.4 7.5 2.5 7.9 6.4.2 1.6-.2 3.1-1.2 4.4-.6.8-1.7.9-2.5.4-.8-.6-.9-1.7-.4-2.5.4-.5.6-1.2.5-1.9-.2-2-2.1-3.5-4.1-3.3-2.8.3-4.8 2.8-4.5 5.6.4 3.7 3.8 6.4 7.5 6 2.4-.3 4.5-1.4 5.9-3.3 1.5-1.9 2.2-4.2 1.9-6.5-.6-6.4-6.2-10.5-11.8-10.2zM42.8 13.4L30.2 25.9c1.4 1.8 2.4 3.9 2.8 6.2h16.5c-.2-6.3-2.4-13-6.7-18.7zM14 .1l3.3 20.1c3.8-.3 7.5.8 10.5 3.2l12.7-12.7C33.3 2.9 23.6-.5 14 .1zM1.4 32.8c-.6 1.8-.9 3.6-.9 5.5 0 4 1.3 8.4 3.8 12.1l8.1-8.1c-.7-1.3-1.3-2.7-1.4-4.3-.1-.9 0-1.9.2-2.8l-9.8-2.4zM30 43.2c-1.4 1.5-3.1 2.6-5 3.3v13.4h.2c5.8-.6 10.9-2.9 14.9-6.4L30 43.2zM13.8 20.7c-3.7 1-6.9 3.1-9.3 6.2-.7.8-1.3 1.7-1.8 2.6l9.9 2.5c.7-1 1.4-1.7 2.7-2.4-1.1-6.3-.8-4.5-1.5-8.9zM14.8 44.9l-8.2 8.2c3.8 4 9.1 6.5 14.9 6.8V47.1c-2.5.1-4.9-.7-6.7-2.2z"/></symbol><symbol id="site_map" viewBox="0 0 43 26"><title>site_map</title><path class="cls-1" d="M28.91.06H14.09v9.88h14.82zm-2.47 7.41h-9.88V2.53h9.88v4.94zM5.9 14.88h13.65v2.47h3.9v-2.47H37.1v2.47H41v-4.94H2v4.94h3.9v-2.47zM35.59 18.59V26H43v-7.41zm4.94 4.94h-2.47v-2.47h2.47zM17.79 26h7.41v-7.41h-7.41V26zm2.47-4.94h2.47v2.47h-2.47zM0 26h7.41v-7.41H0zm2.47-4.94h2.47v2.47H2.46z"/><path class="cls-1" d="M19.5 8h4v11h-4zM37 14h4v6h-4zM2 14h4v6H2z"/></symbol><symbol id="skype" viewBox="0 0 36 37"><style>.st0{stroke:#fff;stroke-width:2;stroke-miterlimit:10}.st0,.st1{fill:#fff}</style><path class="st0" d="M32.4 23.1c.7-1.7 1-3.6 1-5.4 0-4.1-1.6-8-4.5-10.9-2.9-3-6.8-4.6-10.9-4.6-1.9 0-3.7.3-5.4 1C11.3 1.8 9.6 1 7.7 1 4 1 1 4 1 7.7c0 2 .9 3.8 2.4 5.1-.5 1.6-.8 3.2-.8 4.8 0 4.1 1.6 8 4.5 10.9C10 31.4 13.9 33 18 33c1.7 0 3.3-.3 4.9-.8 1.2 1.7 3.3 2.8 5.4 2.8 3.7 0 6.7-3 6.7-6.7 0-2.1-1-4-2.6-5.2zm-4.1 10.5c-1.8 0-3.6-1-4.5-2.6-.1-.2-.4-.4-.6-.4h-.3c-1.6.6-3.3.9-4.9.9-3.7 0-7.2-1.5-9.9-4.1C5.5 24.8 4 21.3 4 17.6c0-1.6.3-3.3.9-4.8.1-.3 0-.7-.3-.8-1.4-1-2.2-2.6-2.2-4.3 0-2.9 2.3-5.2 5.2-5.2 1.6 0 3.1.7 4.1 2 .2.3.5.4.9.2 1.7-.7 3.5-1.1 5.4-1.1 3.7 0 7.2 1.5 9.9 4.1 2.6 2.6 4.1 6.1 4.1 9.9 0 1.9-.4 3.7-1.1 5.4-.1.3 0 .7.3.9 1.5 1 2.4 2.6 2.4 4.4 0 2.9-2.4 5.3-5.3 5.3z"/><path class="st1" d="M19.1 15.3c-5-1-5.3-2.5-4.1-3.6 1.2-1.1 4.8-1.5 5.8.3s1.7 2.5 3 2.2c1.3-.3 1.5-2.1.9-3.2-.4-.9-2.4-3.1-6.3-3.1s-8 1.4-8 5 3.7 5.1 7.3 5.7c3.6.5 4.4 2 3.9 3.2-.5 1.1-2 2.2-4.3 1.9-2.3-.2-3.4-2.2-3.7-3.2-.3-.9-1.4-1.1-1.9-1-.5 0-2.1.7-1.4 3 .7 2.3 3.2 4.1 8 4.1s7.6-3 7.6-5.8c0-2.7-1.8-4.5-6.8-5.5z"/></symbol><symbol id="twitter" viewBox="0 0 34 34"><style>.st0{fill:#010002}</style><path class="st0" d="M28 10.2c-.8.4-1.7.6-2.6.7.9-.6 1.6-1.4 2-2.5-.9.5-1.8.9-2.9 1.1-.8-.9-2-1.4-3.3-1.4-2.5 0-4.5 2-4.5 4.5 0 .4 0 .7.1 1-3.8-.2-7.1-2-9.3-4.7-.4.7-.6 1.4-.6 2.3 0 1.6.8 2.9 2 3.8-.7 0-1.4-.2-2-.6v.1c0 2.2 1.6 4 3.6 4.4-.4 0-.8.1-1.2.1-.3 0-.6 0-.8-.1.5 1.8 2.2 3.1 4.2 3.1-1.6 1.2-3.5 2-5.6 2-.4 0-.7 0-1.1-.1 2 1.3 4.4 2 6.9 2 8.3 0 12.8-6.9 12.8-12.8v-.6c.9-.6 1.7-1.4 2.3-2.3z"/></symbol><symbol id="vk" viewBox="0 0 34 34"><style>.st0{display:none}.st1{display:inline}.st2{fill:#010002}</style><g id="&#x421;&#x43B;&#x43E;&#x439;_5"><g id="XMLID_1_"><path id="XMLID_807_" d="M24.9 18.7c.7.7 1.5 1.4 2.2 2.2.3.3.6.7.8 1.1.3.6 0 1.2-.5 1.2h-3.2c-.8.1-1.5-.3-2-.8-.4-.5-.9-.9-1.3-1.4-.2-.2-.4-.4-.6-.5-.4-.3-.8-.2-1.1.3-.3.5-.3 1-.3 1.5 0 .8-.3 1-1 1-1.6.1-3.2-.2-4.6-1-1.3-.7-2.2-1.7-3.1-2.9-1.7-2.2-2.9-4.7-4.1-7.2-.3-.6-.1-.9.6-.9h3.1c.4 0 .7.2.9.7.6 1.4 1.3 2.7 2.1 3.9.2.3.5.7.8.9.4.3.7.2.8-.2.1-.3.2-.5.2-.8.1-1 .1-1.9-.1-2.9-.1-.6-.4-1-1-1.1-.3-.1-.3-.2-.1-.3.3-.3.5-.5 1-.5H18c.6.1.7.4.8.9v4c0 .2.1.9.5 1 .3.1.5-.2.7-.4.9-.9 1.5-2 2-3.1.2-.5.5-1 .7-1.5.2-.4.4-.6.8-.6h3.8c.6.1.7.4.6.9-.3.9-.8 1.7-1.4 2.4L24.7 17c-.5.7-.4 1 .2 1.7z"/></g></g></symbol><symbol id="youtube" viewBox="0 0 34 34"><style>.st0{display:none}.st1{display:inline}.st2{fill:#010002}</style><g id="&#x421;&#x43B;&#x43E;&#x439;_4"><g id="XMLID_822_"><path id="XMLID_823_" d="M27.1 10.6c-.8-.9-2.3-1.3-5.1-1.3H11.9c-2.9 0-4.4.4-5.1 1.4-.8 1-.8 2.4-.8 4.4v3.8c0 3.9.9 5.8 5.9 5.8h10.2c2.4 0 3.8-.3 4.6-1.2.9-.9 1.3-2.2 1.3-4.7V15c0-2-.1-3.5-.9-4.4zm-7 6.9l-4.6 2.4c-.1.1-.2.1-.3.1-.1 0-.3 0-.4-.1-.2-.1-.3-.4-.3-.6v-4.8c0-.2.1-.5.3-.6.2-.1.5-.1.7 0l4.6 2.4c.2.1.4.4.4.6 0 .3-.1.5-.4.6z"/></g></g></symbol></svg>