<?xml version="1.0" encoding="utf-8"?>
<!-- Generator: Adobe Illustrator 21.0.2, SVG Export Plug-In . SVG Version: 6.00 Build 0)  -->
<svg version="1.1" xmlns="http://www.w3.org/2000/svg" xmlns:xlink="http://www.w3.org/1999/xlink" x="0px" y="0px"
	 viewBox="0 0 34 34" style="enable-background:new 0 0 34 34;" xml:space="preserve">
<style type="text/css">
	.st1{display:inline;}
	.st2{fill:#010002;}
</style>
<g id="Слой_2">
	<g>
		<g>
			<path d="M20.8,7h-7.5C9.8,7,7,9.8,7,13.2v7.5c0,3.5,2.8,6.2,6.2,6.2h7.5c3.5,0,6.2-2.8,6.2-6.2v-7.5C27,9.8,24.2,7,20.8,7z
				 M25.1,20.8c0,2.4-2,4.4-4.4,4.4h-7.5c-2.4,0-4.4-2-4.4-4.4v-7.5c0-2.4,2-4.4,4.4-4.4h7.5c2.4,0,4.4,2,4.4,4.4V20.8z"/>
		</g>
	</g>
	<g>
		<g>
			<path d="M17,12c-2.8,0-5,2.2-5,5s2.2,5,5,5s5-2.2,5-5S19.8,12,17,12z M17,20.1c-1.7,0-3.1-1.4-3.1-3.1c0-1.7,1.4-3.1,3.1-3.1
				s3.1,1.4,3.1,3.1C20.1,18.7,18.7,20.1,17,20.1z"/>
		</g>
	</g>
	<g>
		<g>
			<circle cx="22.4" cy="11.6" r="0.7"/>
		</g>
	</g>
</g>
</svg>
