<?xml version="1.0" encoding="utf-8"?>
<!-- Generator: Adobe Illustrator 21.0.2, SVG Export Plug-In . SVG Version: 6.00 Build 0)  -->
<svg version="1.1" id="Слой_1" xmlns="http://www.w3.org/2000/svg" xmlns:xlink="http://www.w3.org/1999/xlink" x="0px" y="0px"
	 viewBox="0 0 50 60" style="enable-background:new 0 0 50 60;" xml:space="preserve">
<g>
	<g>
		<path d="M39.5,4.8c-0.1-0.1-0.3-0.2-0.5-0.2h-0.7c-0.2,0-0.5,0.1-0.6,0.3c-0.4,0.4-0.3,0.9,0.1,1.2c3.7,3.4,5,7.6,3.4,11.4
			C39.4,22.1,34,25,27.7,25V15c0-0.2-0.1-0.4-0.2-0.5c-0.3-0.4-0.8-0.5-1.2-0.2L0.4,33c-0.1,0.1-0.1,0.1-0.2,0.2
			c-0.3,0.4-0.2,0.9,0.2,1.2l26,18.8c0.2,0.1,0.4,0.2,0.5,0.2c0.5,0,0.9-0.4,0.9-0.9V42.4c10.2-0.2,18.7-6.1,21.4-14.7
			C51.8,19.3,48.1,10.5,39.5,4.8z"/>
	</g>
</g>
</svg>
