<?xml version="1.0" encoding="utf-8"?>
<!-- Generator: Adobe Illustrator 21.0.2, SVG Export Plug-In . SVG Version: 6.00 Build 0)  -->
<svg version="1.1" xmlns="http://www.w3.org/2000/svg" xmlns:xlink="http://www.w3.org/1999/xlink" x="0px" y="0px"
	 viewBox="0 0 34 34" style="enable-background:new 0 0 34 34;" xml:space="preserve">
<style type="text/css">
	.st0{display:none;}
	.st1{display:inline;}
	.st2{fill:#010002;}
</style>
<g id="Слой_5">
	<g id="XMLID_1_">
		<path id="XMLID_807_" d="M24.9,18.7c0.7,0.7,1.5,1.4,2.2,2.2c0.3,0.3,0.6,0.7,0.8,1.1c0.3,0.6,0,1.2-0.5,1.2l-3.2,0
			c-0.8,0.1-1.5-0.3-2-0.8c-0.4-0.5-0.9-0.9-1.3-1.4c-0.2-0.2-0.4-0.4-0.6-0.5c-0.4-0.3-0.8-0.2-1.1,0.3c-0.3,0.5-0.3,1-0.3,1.5
			c0,0.8-0.3,1-1,1c-1.6,0.1-3.2-0.2-4.6-1c-1.3-0.7-2.2-1.7-3.1-2.9c-1.7-2.2-2.9-4.7-4.1-7.2c-0.3-0.6-0.1-0.9,0.6-0.9
			c1,0,2.1,0,3.1,0c0.4,0,0.7,0.2,0.9,0.7c0.6,1.4,1.3,2.7,2.1,3.9c0.2,0.3,0.5,0.7,0.8,0.9c0.4,0.3,0.7,0.2,0.8-0.2
			c0.1-0.3,0.2-0.5,0.2-0.8c0.1-1,0.1-1.9-0.1-2.9c-0.1-0.6-0.4-1-1-1.1c-0.3-0.1-0.3-0.2-0.1-0.3c0.3-0.3,0.5-0.5,1-0.5H18
			c0.6,0.1,0.7,0.4,0.8,0.9l0,4c0,0.2,0.1,0.9,0.5,1c0.3,0.1,0.5-0.2,0.7-0.4c0.9-0.9,1.5-2,2-3.1c0.2-0.5,0.5-1,0.7-1.5
			c0.2-0.4,0.4-0.6,0.8-0.6l3.5,0c0.1,0,0.2,0,0.3,0c0.6,0.1,0.7,0.4,0.6,0.9c-0.3,0.9-0.8,1.7-1.4,2.4c-0.6,0.8-1.2,1.6-1.8,2.4
			C24.2,17.7,24.3,18,24.9,18.7L24.9,18.7z"/>
	</g>
</g>
</svg>
